<svg id="Layer_1" data-name="Layer 1" xmlns="http://www.w3.org/2000/svg" viewBox="0 0 15 12"><defs><style>.cls-1{fill:#1bb2a9;}</style></defs><title>arrow-transaction-receive-green-proximax-sirius-explorer</title><path class="cls-1" d="M0,8.66,2.47,2.2a.68.68,0,0,1,.36-.4.71.71,0,0,1,.93.35l.88,1.9L9.36,1.9h0l4-1.84a.72.72,0,0,1,.94.35.7.7,0,0,1-.35.92L11.19,2.6h0l-6.6,3a.7.7,0,0,1-.93-.34l-.47-1L1.61,8.49l4.27,1.58-.47-1a.7.7,0,0,1,.35-.92l5.11-2.33a.71.71,0,0,1,.93.35.69.69,0,0,1-.35.92L7,9.11,7.86,11a.68.68,0,0,1,0,.54A.7.7,0,0,1,7,12L.46,9.56A.7.7,0,0,1,0,8.66Z"/></svg>