<?xml version="1.0" standalone="no"?>
<!DOCTYPE svg PUBLIC "-//W3C//DTD SVG 20010904//EN"
 "http://www.w3.org/TR/2001/REC-SVG-20010904/DTD/svg10.dtd">
<svg version="1.0" xmlns="http://www.w3.org/2000/svg"
 width="920.000000pt" height="512.000000pt" viewBox="0 0 920.000000 512.000000"
 preserveAspectRatio="xMidYMid meet">

<g transform="translate(0.000000,512.000000) scale(0.100000,-0.100000)"
fill="#000000" stroke="none">
<path d="M4410 5109 c-477 -31 -947 -207 -1350 -507 -150 -112 -391 -353 -501
-502 -269 -362 -423 -732 -490 -1175 -30 -198 -30 -531 0 -730 110 -732 507
-1359 1118 -1765 321 -213 659 -343 1048 -401 163 -25 521 -30 665 -10 869
119 1583 614 1971 1365 206 400 295 800 283 1261 -18 629 -269 1226 -707 1681
-535 557 -1256 834 -2037 783z m-525 -1250 c34 -6 80 -24 109 -43 28 -18 177
-161 332 -318 l281 -286 299 299 c335 336 345 343 469 343 116 0 148 -20 332
-207 179 -181 193 -206 193 -326 0 -122 -13 -139 -348 -469 l-297 -292 297
-293 c203 -200 303 -306 319 -337 31 -63 37 -170 14 -241 -16 -47 -38 -74
-178 -216 -184 -186 -216 -207 -332 -207 -119 0 -135 12 -469 339 -163 160
-300 291 -304 293 -5 1 -140 -127 -302 -285 -161 -159 -306 -297 -323 -308
-72 -46 -209 -50 -292 -8 -16 9 -98 83 -182 166 -173 171 -196 208 -197 317
-2 125 2 130 343 472 l306 308 -306 308 c-338 339 -344 347 -344 467 0 109 20
142 194 318 161 163 202 194 280 207 25 4 46 8 47 9 0 0 27 -4 59 -10z"/>
</g>
</svg>
