<svg width="20" height="20" viewBox="0 0 20 20" fill="none" xmlns="http://www.w3.org/2000/svg">
<path fill-rule="evenodd" clip-rule="evenodd" d="M10 0C12.6522 0 15.1957 1.05357 17.0711 2.92893C18.9464 4.8043 20 7.34784 20 10C20 12.6522 18.9464 15.1957 17.0711 17.0711C15.1957 18.9464 12.6522 20 10 20C7.34784 20 4.8043 18.9464 2.92893 17.0711C1.05357 15.1957 0 12.6522 0 10C0 7.34784 1.05357 4.8043 2.92893 2.92893C4.8043 1.05357 7.34784 0 10 0V0ZM17.5292 6.15385C16.5425 4.2354 14.8635 2.76371 12.8323 2.03692C13.5154 3.32923 14.0092 4.71385 14.2985 6.15385H17.5292ZM18.4246 10.7615C18.4492 10.5084 18.4616 10.2543 18.4615 10C18.46 9.21928 18.3497 8.44259 18.1338 7.69231H14.5308C14.58 8.20154 14.6154 8.71385 14.6154 9.23077C14.6122 10.2644 14.506 11.2951 14.2985 12.3077H18.1338C18.28 11.8015 18.3769 11.2846 18.4262 10.7615H18.4246ZM12.9862 10.7615L12.9954 10.6831C13.0479 10.2007 13.0751 9.71596 13.0769 9.23077C13.0666 8.71617 13.0276 8.20255 12.96 7.69231H7.04C6.97188 8.2025 6.93284 8.71615 6.92308 9.23077C6.92684 10.2666 7.04708 11.2987 7.28154 12.3077H12.7185C12.8369 11.7969 12.9262 11.2815 12.9862 10.7615V10.7615ZM12.6908 6.15385C12.3283 4.52669 11.6742 2.97864 10.76 1.58462C10.5077 1.56308 10.2554 1.53846 10 1.53846C9.83974 1.53924 9.67959 1.54694 9.52 1.56154L9.24 1.58462L9.23077 1.6C8.32142 2.98994 7.67047 4.53263 7.30923 6.15385H12.6908ZM5.70154 6.15385C5.99664 4.71484 6.49715 3.32575 7.18769 2.02923C5.14767 2.75354 3.46071 4.22866 2.47077 6.15385H5.70154V6.15385ZM1.86615 7.69231C1.6506 8.44266 1.54032 9.21931 1.53846 10C1.54032 10.7807 1.6506 11.5573 1.86615 12.3077H5.70154C5.49296 11.2953 5.38679 10.2644 5.38462 9.23077C5.38462 8.71385 5.42 8.20154 5.46923 7.69231H1.86615ZM6.10308 13.8462H2.47231C3.05387 14.9821 3.88419 15.9723 4.90144 16.7429C5.9187 17.5135 7.09669 18.0447 8.34769 18.2969C7.36306 16.9449 6.60495 15.4417 6.10308 13.8462ZM10 17.9138C10.9838 16.6971 11.7527 15.3215 12.2738 13.8462H7.72615C8.24729 15.3215 9.01627 16.6971 10 17.9138ZM13.8969 13.8462C13.395 15.4416 12.6369 16.9449 11.6523 18.2969C12.9032 18.0445 14.0811 17.5132 15.0984 16.7426C16.1156 15.972 16.946 14.982 17.5277 13.8462H13.8969V13.8462Z" fill="black"/>
</svg>
