<svg id="svg" version="1.1" xmlns="http://www.w3.org/2000/svg" xmlns:xlink="http://www.w3.org/1999/xlink" width="400" height="400" viewBox="0, 0, 400,400"><g id="svgg"><path id="path0" d="M197.300 1.996 C 196.585 2.432,195.994 2.656,195.987 2.494 C 195.980 2.332,195.755 2.478,195.487 2.819 C 195.219 3.159,193.560 4.149,191.800 5.019 C 190.040 5.888,188.456 6.825,188.280 7.100 C 188.104 7.375,187.770 7.600,187.538 7.600 C 187.306 7.600,186.280 8.170,185.258 8.867 C 181.935 11.134,170.691 17.200,169.812 17.200 C 169.342 17.200,168.100 17.743,167.052 18.408 C 166.005 19.072,164.980 19.511,164.774 19.384 C 164.568 19.257,164.400 19.314,164.400 19.510 C 164.400 19.706,162.825 20.662,160.900 21.634 C 158.975 22.605,157.309 23.520,157.197 23.666 C 157.086 23.812,155.736 24.595,154.197 25.405 C 152.659 26.216,151.040 27.206,150.600 27.605 C 150.160 28.005,148.810 28.871,147.600 29.530 C 146.390 30.190,144.590 31.177,143.600 31.724 C 142.610 32.271,140.630 33.318,139.200 34.050 C 137.770 34.783,136.044 35.790,135.365 36.289 C 134.685 36.788,134.036 37.103,133.922 36.988 C 133.807 36.874,133.486 37.055,133.208 37.390 C 132.930 37.726,132.554 38.000,132.372 38.000 C 132.191 38.000,130.937 38.648,129.584 39.441 C 128.232 40.233,126.858 40.921,126.531 40.969 C 126.204 41.017,125.815 41.224,125.668 41.429 C 125.521 41.634,123.870 42.595,122.000 43.565 C 120.130 44.534,118.540 45.479,118.467 45.664 C 118.393 45.849,118.100 46.000,117.816 46.000 C 117.531 46.000,117.081 46.261,116.816 46.580 C 116.266 47.244,112.113 49.654,111.319 49.771 C 111.029 49.813,110.578 50.062,110.316 50.324 C 110.054 50.586,109.493 50.800,109.069 50.800 C 108.185 50.800,103.200 53.168,103.200 53.588 C 103.200 53.741,102.975 53.873,102.700 53.880 C 102.425 53.887,101.030 54.606,99.600 55.479 C 98.170 56.351,96.415 57.319,95.700 57.630 C 94.985 57.941,94.400 58.351,94.400 58.540 C 94.400 58.730,94.130 58.782,93.800 58.655 C 93.470 58.529,93.200 58.604,93.200 58.822 C 93.200 59.041,92.726 59.400,92.148 59.620 C 91.569 59.840,90.596 60.375,89.986 60.810 C 89.376 61.244,88.589 61.600,88.238 61.600 C 87.887 61.600,87.600 61.780,87.600 62.000 C 87.600 62.220,87.413 62.400,87.184 62.400 C 86.786 62.400,84.417 63.926,84.000 64.452 C 83.890 64.590,82.630 65.319,81.200 66.070 C 78.127 67.685,76.675 68.518,76.400 68.821 C 76.127 69.123,73.353 70.400,72.971 70.400 C 72.802 70.400,72.379 70.652,72.031 70.959 C 71.318 71.592,68.978 72.953,66.600 74.120 C 65.720 74.552,64.910 75.019,64.800 75.158 C 64.690 75.297,63.160 76.128,61.400 77.005 C 59.640 77.882,58.140 78.735,58.067 78.900 C 57.993 79.065,57.700 79.200,57.416 79.200 C 57.131 79.200,56.676 79.468,56.404 79.796 C 56.132 80.123,55.770 80.305,55.600 80.200 C 55.430 80.095,55.068 80.277,54.796 80.604 C 54.524 80.932,54.127 81.200,53.913 81.200 C 53.699 81.200,53.025 81.555,52.417 81.988 C 51.808 82.422,51.195 82.662,51.055 82.522 C 50.915 82.381,50.800 82.472,50.800 82.723 C 50.800 83.380,48.443 84.504,47.553 84.272 C 47.139 84.164,46.800 84.219,46.800 84.396 C 46.800 84.572,46.125 85.060,45.300 85.480 C 41.690 87.318,39.390 88.622,39.267 88.900 C 39.193 89.065,38.993 89.200,38.822 89.200 C 38.651 89.200,37.236 89.901,35.679 90.757 C 34.121 91.613,32.746 92.213,32.623 92.090 C 32.501 91.967,32.400 92.069,32.400 92.317 C 32.400 92.565,31.095 93.421,29.500 94.221 C 27.905 95.020,26.403 95.836,26.163 96.033 C 25.923 96.231,25.608 96.275,25.463 96.130 C 25.318 95.985,25.200 96.036,25.200 96.242 C 25.200 96.449,24.570 96.957,23.800 97.372 C 21.827 98.434,21.050 97.923,36.500 105.729 C 44.255 109.648,51.680 113.466,53.000 114.216 C 54.320 114.965,55.800 115.583,56.288 115.589 C 57.159 115.600,83.914 128.858,84.369 129.504 C 84.496 129.685,91.772 133.410,100.537 137.782 C 109.302 142.154,116.682 145.926,116.937 146.165 C 117.789 146.965,122.502 149.200,123.336 149.200 C 124.221 149.200,147.537 160.654,150.200 162.397 C 151.080 162.973,158.820 166.932,167.400 171.194 C 175.980 175.457,183.305 179.201,183.678 179.514 C 184.806 180.462,189.698 182.799,190.577 182.810 C 191.030 182.815,193.110 183.670,195.200 184.710 L 199.000 186.600 199.201 293.400 C 199.312 352.140,199.447 400.020,199.503 399.800 C 199.558 399.580,199.602 351.773,199.600 293.563 C 199.597 193.172,199.633 187.696,200.299 187.133 C 201.292 186.291,206.767 183.699,208.200 183.391 C 209.668 183.077,214.028 181.007,216.200 179.594 C 217.080 179.022,224.959 174.986,233.708 170.626 C 242.457 166.266,249.700 162.561,249.804 162.394 C 250.122 161.879,274.124 150.058,275.400 149.788 C 276.861 149.479,281.216 147.414,283.400 145.996 C 284.280 145.424,291.660 141.646,299.800 137.600 C 307.940 133.554,315.320 129.774,316.200 129.198 C 318.535 127.673,341.188 116.488,342.600 116.163 C 344.033 115.834,349.480 113.319,349.767 112.853 C 349.878 112.673,356.364 109.303,364.180 105.363 C 371.997 101.423,378.079 98.145,377.696 98.077 C 376.730 97.907,374.262 96.684,373.906 96.200 C 373.744 95.980,373.609 95.956,373.606 96.146 C 373.603 96.336,373.117 96.176,372.527 95.789 C 371.937 95.402,370.542 94.628,369.427 94.067 C 368.312 93.507,367.130 92.830,366.800 92.562 C 366.470 92.295,364.760 91.329,363.000 90.416 C 359.670 88.689,358.339 87.939,358.000 87.600 C 357.566 87.166,351.721 84.400,351.238 84.400 C 350.955 84.400,350.246 84.067,349.662 83.661 C 348.594 82.918,345.514 81.175,341.800 79.212 C 339.013 77.740,337.911 77.089,337.100 76.438 C 336.715 76.129,336.394 76.039,336.387 76.238 C 336.380 76.437,336.155 76.327,335.887 75.992 C 335.619 75.658,334.590 75.038,333.600 74.614 C 332.610 74.190,331.322 73.519,330.738 73.122 C 330.154 72.725,329.499 72.400,329.281 72.400 C 329.064 72.400,328.778 72.119,328.646 71.775 C 328.514 71.431,328.246 71.248,328.050 71.369 C 327.855 71.490,327.088 71.186,326.347 70.694 C 325.606 70.202,323.785 69.198,322.300 68.462 C 320.815 67.726,319.600 66.946,319.600 66.728 C 319.600 66.511,319.380 66.407,319.111 66.496 C 318.842 66.586,317.897 66.143,317.011 65.511 C 314.651 63.829,311.830 62.048,311.600 62.095 C 311.490 62.118,310.680 61.684,309.800 61.131 C 308.920 60.577,307.480 59.789,306.600 59.379 C 305.720 58.969,304.781 58.356,304.513 58.017 C 304.245 57.678,304.020 57.537,304.013 57.705 C 304.006 57.873,303.325 57.592,302.500 57.080 C 301.675 56.569,300.428 55.920,299.729 55.639 C 299.030 55.357,298.158 54.795,297.791 54.390 C 297.425 53.985,296.872 53.751,296.562 53.870 C 296.223 54.000,296.000 53.831,296.000 53.443 C 296.000 53.065,295.667 52.800,295.192 52.800 C 294.748 52.800,293.623 52.313,292.692 51.717 C 291.761 51.122,290.670 50.686,290.266 50.748 C 289.862 50.811,289.168 50.533,288.724 50.131 C 288.279 49.729,287.840 49.455,287.747 49.522 C 287.412 49.765,284.024 47.859,282.795 46.737 C 282.105 46.106,281.372 45.694,281.167 45.820 C 280.962 45.947,280.682 45.759,280.546 45.402 C 280.409 45.046,280.050 44.849,279.748 44.964 C 279.447 45.080,279.200 45.014,279.200 44.817 C 279.200 44.620,278.210 44.005,277.000 43.451 C 275.790 42.897,274.800 42.224,274.800 41.955 C 274.800 41.687,274.682 41.585,274.537 41.730 C 274.392 41.875,274.077 41.831,273.837 41.633 C 273.597 41.434,271.424 40.255,269.009 39.012 C 266.594 37.769,264.524 36.607,264.409 36.430 C 264.294 36.253,263.750 35.972,263.200 35.807 C 262.650 35.641,261.930 35.283,261.600 35.011 C 261.026 34.539,260.161 34.066,256.600 32.278 C 254.082 31.013,250.277 28.743,249.400 27.981 C 248.960 27.599,247.610 26.788,246.400 26.178 C 245.190 25.569,243.615 24.640,242.900 24.115 C 242.185 23.589,241.600 23.280,241.600 23.429 C 241.600 23.577,241.375 23.513,241.100 23.288 C 240.825 23.062,239.160 22.124,237.400 21.202 C 235.640 20.280,233.930 19.311,233.600 19.047 C 232.661 18.298,230.052 17.200,229.210 17.200 C 228.790 17.200,228.336 17.020,228.200 16.800 C 228.064 16.580,227.618 16.400,227.210 16.400 C 226.801 16.400,226.407 16.263,226.333 16.097 C 226.213 15.823,222.374 13.680,220.103 12.619 C 219.610 12.389,219.205 12.065,219.203 11.900 C 219.201 11.735,218.911 11.600,218.558 11.600 C 218.204 11.600,217.259 11.081,216.458 10.447 C 215.656 9.813,214.100 8.795,213.000 8.186 C 211.900 7.577,210.910 6.971,210.800 6.839 C 210.690 6.708,208.800 5.710,206.600 4.622 C 204.400 3.534,202.122 2.319,201.538 1.922 C 200.166 0.989,198.916 1.011,197.300 1.996 M217.656 390.034 C 217.136 390.455,216.866 390.794,217.056 390.787 C 217.544 390.769,218.976 389.643,218.771 389.439 C 218.677 389.345,218.175 389.613,217.656 390.034 " stroke="none" fill="#c4c4c4" fill-rule="evenodd"></path><path id="path1" d="M196.400 0.800 C 196.400 1.020,196.670 1.200,197.000 1.200 C 197.330 1.200,197.600 1.020,197.600 0.800 C 197.600 0.580,197.330 0.400,197.000 0.400 C 196.670 0.400,196.400 0.580,196.400 0.800 M201.699 0.900 C 201.791 1.175,202.391 1.578,203.033 1.795 C 203.675 2.012,204.290 2.296,204.400 2.427 C 204.510 2.557,205.185 2.919,205.900 3.230 C 206.615 3.541,207.200 3.931,207.200 4.098 C 207.200 4.264,207.605 4.396,208.100 4.391 L 209.000 4.382 208.011 3.622 C 207.467 3.204,206.881 2.950,206.708 3.057 C 206.536 3.163,206.286 2.969,206.154 2.625 C 206.022 2.281,205.574 2.000,205.157 2.000 C 204.741 2.000,204.400 1.820,204.400 1.600 C 204.400 1.380,204.040 1.200,203.600 1.200 C 203.160 1.200,202.800 1.020,202.800 0.800 C 202.800 0.580,202.515 0.400,202.167 0.400 C 201.818 0.400,201.608 0.625,201.699 0.900 M194.800 1.600 C 194.800 1.820,194.552 2.000,194.249 2.000 C 193.946 2.000,193.470 2.274,193.192 2.610 C 192.914 2.945,192.597 3.130,192.488 3.021 C 192.379 2.913,191.792 3.178,191.183 3.612 C 190.575 4.045,189.879 4.400,189.638 4.400 C 189.397 4.400,189.200 4.580,189.200 4.800 C 189.200 5.471,191.093 4.927,192.000 3.995 C 192.110 3.882,193.055 3.358,194.100 2.832 C 195.996 1.876,196.535 1.200,195.400 1.200 C 195.070 1.200,194.800 1.380,194.800 1.600 M209.000 4.800 C 208.864 5.020,208.956 5.200,209.205 5.200 C 209.454 5.200,209.936 5.479,210.277 5.820 C 210.618 6.160,211.415 6.543,212.048 6.670 C 212.682 6.796,213.200 7.058,213.200 7.250 C 213.200 7.442,213.470 7.600,213.800 7.600 C 214.130 7.600,214.400 7.780,214.400 8.000 C 214.400 8.220,214.601 8.400,214.847 8.400 C 215.093 8.400,215.909 8.940,216.661 9.600 C 217.413 10.260,218.382 10.800,218.814 10.800 C 219.246 10.800,219.600 10.980,219.600 11.200 C 219.600 11.420,219.960 11.600,220.400 11.600 C 220.840 11.600,221.200 11.420,221.200 11.200 C 221.200 10.980,220.840 10.800,220.400 10.800 C 219.960 10.800,219.600 10.620,219.600 10.400 C 219.600 10.180,219.240 10.000,218.800 10.000 C 218.360 10.000,218.000 9.820,218.000 9.600 C 218.000 9.380,217.719 9.200,217.376 9.200 C 217.007 9.200,216.869 9.012,217.038 8.738 C 217.215 8.452,217.148 8.385,216.862 8.562 C 216.608 8.719,216.400 8.656,216.400 8.422 C 216.400 8.189,215.680 7.686,214.800 7.304 C 213.920 6.923,213.200 6.474,213.200 6.306 C 213.200 6.138,212.784 6.000,212.275 6.000 C 211.767 6.000,210.964 5.640,210.492 5.200 C 209.514 4.288,209.344 4.243,209.000 4.800 M187.803 5.605 C 187.940 5.826,187.596 6.000,187.024 6.000 C 186.461 6.000,186.000 6.136,186.000 6.302 C 186.000 6.469,185.505 6.824,184.900 7.093 C 183.764 7.597,182.468 9.200,183.197 9.200 C 183.418 9.200,183.600 9.020,183.600 8.800 C 183.600 8.580,183.881 8.400,184.224 8.400 C 184.567 8.400,184.736 8.220,184.600 8.000 C 184.464 7.780,184.678 7.599,185.076 7.598 C 186.318 7.594,189.016 5.768,188.227 5.466 C 187.833 5.315,187.659 5.372,187.803 5.605 M181.404 9.593 C 181.266 9.817,180.803 10.000,180.376 10.000 C 179.949 10.000,179.600 10.253,179.600 10.563 C 179.600 10.928,179.320 11.052,178.800 10.916 C 178.360 10.801,178.000 10.887,178.000 11.107 C 178.000 11.327,177.685 11.607,177.300 11.729 C 176.615 11.946,174.396 13.204,174.000 13.600 C 173.522 14.078,171.961 14.800,171.405 14.800 C 171.072 14.800,170.800 14.980,170.800 15.200 C 170.800 15.420,171.034 15.600,171.320 15.600 C 172.056 15.600,173.993 14.659,173.997 14.300 C 173.999 14.135,174.270 14.000,174.600 14.000 C 174.930 14.000,175.200 13.801,175.200 13.557 C 175.200 13.314,175.477 13.221,175.815 13.350 C 176.165 13.485,176.528 13.331,176.658 12.993 C 176.783 12.667,177.181 12.396,177.543 12.391 C 177.904 12.386,178.650 12.030,179.200 11.600 C 179.750 11.170,180.425 10.814,180.700 10.809 C 180.975 10.804,181.200 10.609,181.200 10.376 C 181.200 10.143,181.368 10.056,181.572 10.183 C 181.777 10.309,182.050 10.243,182.179 10.034 C 182.308 9.826,182.243 9.550,182.034 9.421 C 181.826 9.292,181.542 9.370,181.404 9.593 M221.000 12.000 C 220.864 12.220,221.123 12.400,221.576 12.400 C 222.029 12.400,222.400 12.580,222.400 12.800 C 222.400 13.020,222.760 13.200,223.200 13.200 C 223.640 13.200,224.000 13.380,224.000 13.600 C 224.000 13.820,224.270 14.000,224.600 14.000 C 224.930 14.000,225.201 14.135,225.203 14.300 C 225.207 14.659,227.144 15.600,227.880 15.600 C 228.166 15.600,228.400 15.420,228.400 15.200 C 228.400 14.980,228.040 14.800,227.600 14.800 C 227.160 14.800,226.800 14.620,226.800 14.400 C 226.800 14.180,226.440 14.000,226.000 14.000 C 225.560 14.000,225.200 13.820,225.200 13.600 C 225.200 13.380,224.975 13.196,224.700 13.191 C 224.425 13.186,223.750 12.830,223.200 12.400 C 222.087 11.529,221.371 11.399,221.000 12.000 M169.000 16.000 C 168.864 16.220,169.123 16.400,169.576 16.400 C 170.029 16.400,170.400 16.220,170.400 16.000 C 170.400 15.780,170.141 15.600,169.824 15.600 C 169.507 15.600,169.136 15.780,169.000 16.000 M228.800 16.000 C 228.800 16.220,229.250 16.400,229.800 16.400 C 230.350 16.400,230.800 16.220,230.800 16.000 C 230.800 15.780,230.350 15.600,229.800 15.600 C 229.250 15.600,228.800 15.780,228.800 16.000 M165.277 17.630 C 165.356 17.866,165.591 18.060,165.800 18.060 C 166.009 18.060,166.245 17.866,166.323 17.630 C 166.402 17.393,166.167 17.200,165.800 17.200 C 165.433 17.200,165.198 17.393,165.277 17.630 M232.800 17.600 C 232.800 17.820,233.070 18.000,233.400 18.000 C 233.730 18.000,234.000 17.820,234.000 17.600 C 234.000 17.380,233.730 17.200,233.400 17.200 C 233.070 17.200,232.800 17.380,232.800 17.600 M163.533 18.300 C 163.460 18.465,162.545 19.033,161.500 19.563 C 159.603 20.524,159.066 21.200,160.200 21.200 C 160.530 21.200,160.800 21.020,160.800 20.800 C 160.800 20.580,161.160 20.400,161.600 20.400 C 162.040 20.400,162.400 20.220,162.400 20.000 C 162.400 19.780,162.670 19.600,163.000 19.600 C 163.330 19.600,163.600 19.420,163.600 19.200 C 163.600 18.980,163.960 18.800,164.400 18.800 C 164.840 18.800,165.200 18.620,165.200 18.400 C 165.200 17.938,163.733 17.850,163.533 18.300 M234.200 18.400 C 234.064 18.620,234.323 18.800,234.776 18.800 C 235.229 18.800,235.600 18.980,235.600 19.200 C 235.600 19.420,235.870 19.600,236.200 19.600 C 236.530 19.600,236.800 19.780,236.800 20.000 C 236.800 20.220,237.160 20.400,237.600 20.400 C 238.040 20.400,238.400 20.580,238.400 20.800 C 238.400 21.020,238.670 21.200,239.000 21.200 C 239.330 21.200,239.600 21.039,239.600 20.843 C 239.600 20.482,238.422 19.830,237.938 19.924 C 237.794 19.952,237.457 19.710,237.189 19.387 C 236.921 19.064,236.454 18.800,236.151 18.800 C 235.848 18.800,235.600 18.620,235.600 18.400 C 235.600 18.180,235.341 18.000,235.024 18.000 C 234.707 18.000,234.336 18.180,234.200 18.400 M158.000 21.600 C 158.000 21.820,158.270 22.000,158.600 22.000 C 158.930 22.000,159.200 21.820,159.200 21.600 C 159.200 21.380,158.930 21.200,158.600 21.200 C 158.270 21.200,158.000 21.380,158.000 21.600 M240.077 21.630 C 240.155 21.867,240.391 22.060,240.600 22.060 C 240.809 22.060,241.045 21.867,241.123 21.630 C 241.202 21.394,240.967 21.200,240.600 21.200 C 240.233 21.200,239.998 21.394,240.077 21.630 M156.400 22.400 C 156.400 22.620,156.055 22.800,155.633 22.800 C 155.212 22.800,154.807 22.935,154.733 23.100 C 154.660 23.265,153.745 23.833,152.700 24.363 C 150.803 25.324,150.266 26.000,151.400 26.000 C 151.730 26.000,152.000 25.820,152.000 25.600 C 152.000 25.380,152.360 25.200,152.800 25.200 C 153.240 25.200,153.600 25.020,153.600 24.800 C 153.600 24.580,153.960 24.400,154.400 24.400 C 154.840 24.400,155.200 24.264,155.200 24.098 C 155.200 23.931,155.740 23.556,156.400 23.264 C 157.671 22.701,158.004 22.000,157.000 22.000 C 156.670 22.000,156.400 22.180,156.400 22.400 M241.800 22.400 C 241.664 22.620,241.833 22.800,242.176 22.800 C 242.519 22.800,242.801 22.935,242.803 23.100 C 242.807 23.465,244.749 24.400,245.503 24.400 C 245.802 24.400,245.936 24.580,245.800 24.800 C 245.664 25.020,245.923 25.200,246.376 25.200 C 246.829 25.200,247.200 25.380,247.200 25.600 C 247.200 25.820,247.470 26.000,247.800 26.000 C 248.623 26.000,248.557 25.346,247.700 25.017 C 247.315 24.869,246.974 24.805,246.942 24.874 C 246.910 24.943,246.535 24.685,246.110 24.299 C 245.684 23.914,245.219 23.714,245.077 23.856 C 244.935 23.998,244.705 23.819,244.567 23.457 C 244.428 23.096,243.974 22.800,243.557 22.800 C 243.141 22.800,242.800 22.620,242.800 22.400 C 242.800 22.180,242.631 22.000,242.424 22.000 C 242.217 22.000,241.936 22.180,241.800 22.400 M149.346 26.598 C 149.219 26.926,148.910 27.080,148.658 26.939 C 148.355 26.770,148.364 26.859,148.683 27.204 C 149.188 27.750,150.400 27.148,150.400 26.351 C 150.400 25.768,149.591 25.957,149.346 26.598 M249.074 26.260 C 248.752 26.581,250.814 28.399,251.500 28.400 C 251.775 28.400,252.000 28.580,252.000 28.800 C 252.000 29.020,252.360 29.200,252.800 29.200 C 253.240 29.200,253.600 29.380,253.600 29.600 C 253.600 29.820,253.941 30.000,254.357 30.000 C 254.774 30.000,255.228 30.296,255.367 30.657 C 255.505 31.019,255.733 31.200,255.873 31.061 C 256.012 30.921,256.376 31.014,256.680 31.267 C 257.101 31.616,257.350 31.601,257.717 31.204 C 258.059 30.834,258.064 30.759,257.732 30.945 C 257.475 31.089,257.025 30.979,256.732 30.699 C 256.440 30.419,255.674 29.923,255.031 29.595 C 252.762 28.440,252.400 28.207,252.400 27.905 C 252.400 27.737,252.080 27.600,251.688 27.600 C 251.297 27.600,250.717 27.240,250.400 26.800 C 249.791 25.955,249.498 25.836,249.074 26.260 M146.733 27.900 C 146.566 28.276,144.436 29.575,143.500 29.871 C 142.644 30.143,142.573 30.800,143.400 30.800 C 143.730 30.800,144.000 30.601,144.000 30.357 C 144.000 30.114,144.277 30.021,144.615 30.150 C 144.965 30.285,145.328 30.131,145.458 29.793 C 145.583 29.467,145.936 29.200,146.243 29.200 C 146.549 29.200,146.800 29.020,146.800 28.800 C 146.800 28.580,147.171 28.400,147.624 28.400 C 148.077 28.400,148.336 28.220,148.200 28.000 C 147.911 27.532,146.927 27.465,146.733 27.900 M141.200 31.200 C 141.200 31.420,140.840 31.600,140.400 31.600 C 139.960 31.600,139.600 31.780,139.600 32.000 C 139.600 32.220,139.259 32.400,138.843 32.400 C 138.426 32.400,137.978 32.681,137.846 33.025 C 137.714 33.369,137.445 33.551,137.248 33.430 C 137.052 33.308,136.671 33.473,136.403 33.796 C 135.824 34.494,133.700 35.600,132.939 35.600 C 132.642 35.600,132.400 35.780,132.400 36.000 C 132.400 36.220,132.040 36.400,131.600 36.400 C 131.160 36.400,130.800 36.580,130.800 36.800 C 130.800 37.020,130.575 37.206,130.300 37.213 C 129.296 37.238,128.209 38.369,128.708 38.868 C 129.062 39.222,129.235 39.174,129.430 38.667 C 129.570 38.300,130.026 38.000,130.443 38.000 C 130.859 38.000,131.200 37.856,131.200 37.680 C 131.200 37.505,131.830 37.133,132.600 36.854 C 133.370 36.576,134.000 36.169,134.000 35.951 C 134.000 35.732,134.168 35.656,134.372 35.783 C 134.577 35.909,134.855 35.835,134.989 35.617 C 135.124 35.400,135.901 34.911,136.717 34.532 C 137.533 34.152,138.290 33.728,138.400 33.589 C 138.510 33.450,139.538 32.916,140.684 32.404 C 141.830 31.891,142.675 31.321,142.560 31.136 C 142.269 30.665,141.200 30.715,141.200 31.200 M258.000 32.085 C 258.000 32.258,258.270 32.400,258.600 32.400 C 258.930 32.400,259.200 32.580,259.200 32.800 C 259.200 33.020,259.560 33.200,260.000 33.200 C 260.440 33.200,260.800 33.380,260.800 33.600 C 260.800 33.820,261.160 34.000,261.600 34.000 C 262.040 34.000,262.400 34.180,262.400 34.400 C 262.400 34.620,262.698 34.800,263.062 34.800 C 263.660 34.800,263.655 34.724,263.009 34.009 C 262.615 33.575,262.136 33.316,261.944 33.435 C 261.752 33.554,261.486 33.369,261.354 33.025 C 261.222 32.681,260.774 32.400,260.357 32.400 C 259.941 32.400,259.600 32.231,259.600 32.025 C 259.600 31.819,259.240 31.677,258.800 31.710 C 258.360 31.743,258.000 31.912,258.000 32.085 M264.000 35.137 C 264.000 35.323,264.855 35.908,265.900 36.437 C 266.945 36.967,267.860 37.535,267.933 37.700 C 268.007 37.865,268.512 38.000,269.057 38.000 C 269.615 38.000,269.939 38.174,269.800 38.400 C 269.664 38.620,269.833 38.800,270.176 38.800 C 271.401 38.800,270.474 37.602,269.120 37.435 C 268.966 37.416,268.615 37.175,268.340 36.900 C 268.065 36.625,267.606 36.400,267.320 36.400 C 267.034 36.400,266.800 36.199,266.800 35.953 C 266.800 35.704,266.447 35.599,266.000 35.716 C 265.480 35.852,265.200 35.728,265.200 35.363 C 265.200 35.053,264.930 34.800,264.600 34.800 C 264.270 34.800,264.000 34.952,264.000 35.137 M126.800 39.200 C 126.800 39.420,126.440 39.600,126.000 39.600 C 125.182 39.600,124.917 40.178,125.555 40.572 C 125.750 40.693,126.132 40.523,126.404 40.196 C 126.676 39.868,127.146 39.600,127.449 39.600 C 127.752 39.600,128.000 39.420,128.000 39.200 C 128.000 38.980,127.730 38.800,127.400 38.800 C 127.070 38.800,126.800 38.980,126.800 39.200 M271.200 39.200 C 271.200 39.420,271.470 39.600,271.800 39.600 C 272.130 39.600,272.400 39.746,272.400 39.925 C 272.400 40.104,273.030 40.498,273.800 40.800 C 274.570 41.102,275.200 41.496,275.200 41.675 C 275.200 41.854,275.560 42.000,276.000 42.000 C 276.440 42.000,276.800 42.180,276.800 42.400 C 276.800 42.620,277.160 42.800,277.600 42.800 C 278.040 42.800,278.400 42.980,278.400 43.200 C 278.400 43.420,278.670 43.600,279.000 43.600 C 280.134 43.600,279.597 42.924,277.700 41.963 C 276.655 41.433,275.740 40.865,275.667 40.700 C 275.593 40.535,275.188 40.400,274.767 40.400 C 274.345 40.400,274.000 40.220,274.000 40.000 C 274.000 39.780,273.640 39.600,273.200 39.600 C 272.760 39.600,272.400 39.420,272.400 39.200 C 272.400 38.980,272.130 38.800,271.800 38.800 C 271.470 38.800,271.200 38.980,271.200 39.200 M123.533 40.700 C 123.460 40.865,122.545 41.433,121.500 41.963 C 119.603 42.924,119.066 43.600,120.200 43.600 C 120.530 43.600,120.800 43.420,120.800 43.200 C 120.800 42.980,121.160 42.800,121.600 42.800 C 122.040 42.800,122.400 42.620,122.400 42.400 C 122.400 42.180,122.760 42.000,123.200 42.000 C 123.640 42.000,124.000 41.820,124.000 41.600 C 124.000 41.380,124.270 41.200,124.600 41.200 C 124.930 41.200,125.200 41.020,125.200 40.800 C 125.200 40.338,123.733 40.250,123.533 40.700 M118.000 44.000 C 118.000 44.220,117.683 44.400,117.296 44.400 C 116.909 44.400,116.368 44.760,116.093 45.200 C 115.818 45.640,115.402 46.000,115.169 46.000 C 114.935 46.000,113.992 46.510,113.072 47.133 C 112.152 47.756,111.040 48.413,110.600 48.595 C 109.811 48.919,109.811 48.926,110.585 49.108 C 111.016 49.209,111.436 49.091,111.518 48.846 C 111.600 48.601,111.922 48.400,112.233 48.400 C 112.545 48.400,112.800 48.220,112.800 48.000 C 112.800 47.780,113.160 47.600,113.600 47.600 C 114.040 47.600,114.400 47.401,114.400 47.157 C 114.400 46.914,114.663 46.815,114.985 46.939 C 115.324 47.069,115.895 46.751,116.343 46.182 C 116.768 45.642,117.314 45.200,117.558 45.200 C 117.801 45.200,118.000 45.020,118.000 44.800 C 118.000 44.580,118.270 44.400,118.600 44.400 C 118.930 44.400,119.200 44.220,119.200 44.000 C 119.200 43.780,118.930 43.600,118.600 43.600 C 118.270 43.600,118.000 43.780,118.000 44.000 M280.000 44.000 C 280.000 44.220,280.270 44.400,280.600 44.400 C 280.930 44.400,281.200 44.580,281.200 44.800 C 281.200 45.020,281.448 45.200,281.751 45.200 C 282.054 45.200,282.517 45.459,282.780 45.776 C 283.043 46.093,283.560 46.244,283.929 46.112 C 284.298 45.981,284.480 46.006,284.333 46.170 C 283.927 46.622,285.241 47.959,285.859 47.722 C 286.156 47.608,286.400 47.694,286.400 47.914 C 286.400 48.134,286.670 48.418,287.000 48.545 C 287.365 48.685,287.600 48.545,287.600 48.187 C 287.600 47.864,287.336 47.600,287.014 47.600 C 286.692 47.600,285.837 47.086,285.114 46.459 C 284.391 45.831,283.575 45.396,283.300 45.492 C 283.025 45.588,282.800 45.382,282.800 45.033 C 282.800 44.667,282.463 44.400,282.000 44.400 C 281.560 44.400,281.200 44.220,281.200 44.000 C 281.200 43.780,280.930 43.600,280.600 43.600 C 280.270 43.600,280.000 43.780,280.000 44.000 M288.000 48.800 C 288.000 49.020,288.270 49.200,288.600 49.200 C 288.930 49.200,289.200 49.020,289.200 48.800 C 289.200 48.580,288.930 48.400,288.600 48.400 C 288.270 48.400,288.000 48.580,288.000 48.800 M106.107 50.147 C 104.374 51.020,103.932 51.600,105.000 51.600 C 105.330 51.600,105.600 51.420,105.600 51.200 C 105.600 50.980,105.960 50.800,106.400 50.800 C 106.840 50.800,107.200 50.620,107.200 50.400 C 107.200 50.180,107.740 50.000,108.400 50.000 C 109.060 50.000,109.600 49.820,109.600 49.600 C 109.600 48.962,107.943 49.221,106.107 50.147 M289.600 49.600 C 289.600 49.820,290.050 50.000,290.600 50.000 C 291.150 50.000,291.600 49.820,291.600 49.600 C 291.600 49.380,291.150 49.200,290.600 49.200 C 290.050 49.200,289.600 49.380,289.600 49.600 M292.200 50.400 C 292.064 50.620,292.308 50.800,292.743 50.800 C 293.178 50.800,293.616 51.025,293.717 51.300 C 293.859 51.687,294.024 51.674,294.450 51.241 C 294.752 50.934,294.795 50.797,294.545 50.937 C 294.295 51.077,293.868 50.923,293.596 50.596 C 293.021 49.903,292.548 49.836,292.200 50.400 M103.416 51.973 C 103.271 52.208,102.713 52.400,102.176 52.400 C 101.639 52.400,101.200 52.580,101.200 52.800 C 101.200 53.020,101.515 53.194,101.900 53.187 C 102.728 53.172,104.243 52.110,103.911 51.778 C 103.784 51.651,103.561 51.739,103.416 51.973 M295.200 52.000 C 295.200 52.220,295.393 52.400,295.629 52.400 C 295.864 52.400,296.329 52.672,296.661 53.004 C 296.993 53.336,297.430 53.505,297.632 53.380 C 297.835 53.255,298.000 53.343,298.000 53.576 C 298.000 53.809,298.371 54.000,298.824 54.000 C 299.277 54.000,299.536 54.180,299.400 54.400 C 299.264 54.620,299.523 54.800,299.976 54.800 C 300.429 54.800,300.800 54.980,300.800 55.200 C 300.800 55.420,301.070 55.600,301.400 55.600 C 302.469 55.600,302.037 54.909,300.500 54.162 C 299.675 53.760,298.860 53.472,298.689 53.520 C 298.518 53.568,298.273 53.336,298.146 53.004 C 298.019 52.672,297.574 52.400,297.157 52.400 C 296.741 52.400,296.400 52.220,296.400 52.000 C 296.400 51.780,296.130 51.600,295.800 51.600 C 295.470 51.600,295.200 51.780,295.200 52.000 M99.660 53.700 C 99.385 53.975,99.034 54.216,98.880 54.235 C 97.526 54.402,96.599 55.600,97.824 55.600 C 98.167 55.600,98.336 55.420,98.200 55.200 C 98.060 54.973,98.396 54.800,98.976 54.800 C 99.539 54.800,100.000 54.620,100.000 54.400 C 100.000 54.180,100.281 54.000,100.624 54.000 C 100.967 54.000,101.136 53.820,101.000 53.600 C 100.670 53.066,100.264 53.096,99.660 53.700 M302.400 56.000 C 302.400 56.220,302.670 56.400,303.000 56.400 C 303.330 56.400,303.600 56.220,303.600 56.000 C 303.600 55.780,303.330 55.600,303.000 55.600 C 302.670 55.600,302.400 55.780,302.400 56.000 M94.000 56.800 C 94.000 57.020,93.640 57.200,93.200 57.200 C 92.760 57.200,92.400 57.337,92.400 57.505 C 92.400 57.812,91.528 58.344,89.500 59.272 C 88.895 59.549,88.400 59.916,88.400 60.088 C 88.400 60.259,88.040 60.400,87.600 60.400 C 87.160 60.400,86.800 60.580,86.800 60.800 C 86.800 61.020,86.440 61.200,86.000 61.200 C 85.560 61.200,85.200 61.380,85.200 61.600 C 85.200 61.820,84.975 62.000,84.700 62.001 C 84.425 62.001,83.570 62.541,82.800 63.200 C 82.030 63.859,81.175 64.399,80.900 64.399 C 80.301 64.400,80.237 65.052,80.803 65.402 C 81.024 65.539,81.318 65.359,81.454 65.002 C 81.591 64.646,81.943 64.446,82.237 64.559 C 82.530 64.671,83.092 64.367,83.485 63.882 C 83.878 63.397,84.740 62.730,85.400 62.401 C 86.060 62.071,86.690 61.701,86.800 61.578 C 86.910 61.455,87.585 61.118,88.300 60.829 C 89.015 60.540,89.600 60.145,89.600 59.951 C 89.600 59.758,89.971 59.600,90.424 59.600 C 90.877 59.600,91.136 59.420,91.000 59.200 C 90.864 58.980,91.054 58.800,91.422 58.800 C 92.243 58.800,95.200 57.177,95.200 56.726 C 95.200 56.547,94.930 56.400,94.600 56.400 C 94.270 56.400,94.000 56.580,94.000 56.800 M304.000 56.800 C 304.000 57.020,304.270 57.200,304.600 57.200 C 304.930 57.200,305.200 57.346,305.200 57.525 C 305.200 57.704,305.830 58.098,306.600 58.400 C 307.370 58.702,308.000 59.096,308.000 59.275 C 308.000 59.454,308.405 59.596,308.900 59.591 L 309.800 59.582 308.811 58.822 C 308.267 58.404,307.703 58.137,307.557 58.227 C 307.410 58.317,307.068 58.123,306.796 57.796 C 306.524 57.468,306.054 57.200,305.751 57.200 C 305.448 57.200,305.200 57.020,305.200 56.800 C 305.200 56.580,304.930 56.400,304.600 56.400 C 304.270 56.400,304.000 56.580,304.000 56.800 M311.200 60.800 C 311.200 61.020,311.470 61.200,311.800 61.200 C 312.130 61.200,312.400 61.020,312.400 60.800 C 312.400 60.580,312.130 60.400,311.800 60.400 C 311.470 60.400,311.200 60.580,311.200 60.800 M312.600 61.600 C 312.464 61.820,312.723 62.000,313.176 62.000 C 313.629 62.000,314.000 62.180,314.000 62.400 C 314.000 62.620,314.270 62.800,314.600 62.800 C 314.930 62.800,315.200 62.980,315.200 63.200 C 315.200 63.420,315.470 63.600,315.800 63.600 C 316.130 63.600,316.400 63.439,316.400 63.243 C 316.400 62.860,315.204 62.229,314.689 62.340 C 314.518 62.377,314.273 62.136,314.146 61.804 C 313.883 61.119,312.972 60.999,312.600 61.600 M316.653 63.914 C 316.511 64.143,316.936 64.570,317.598 64.863 C 318.259 65.156,318.800 65.498,318.800 65.623 C 318.800 65.748,319.430 66.098,320.200 66.400 C 320.970 66.702,321.600 67.096,321.600 67.275 C 321.600 67.454,321.960 67.600,322.400 67.600 C 322.840 67.600,323.200 67.780,323.200 68.000 C 323.200 68.220,323.541 68.400,323.957 68.400 C 324.374 68.400,324.822 68.681,324.954 69.025 C 325.086 69.369,325.376 69.539,325.597 69.402 C 326.211 69.022,326.079 68.518,325.300 68.271 C 324.364 67.975,322.234 66.676,322.067 66.300 C 321.993 66.135,321.588 66.000,321.167 66.000 C 320.745 66.000,320.400 65.820,320.400 65.600 C 320.400 65.380,320.051 65.200,319.624 65.200 C 319.197 65.200,318.734 65.017,318.596 64.793 C 318.458 64.570,318.188 64.484,317.997 64.602 C 317.806 64.720,317.483 64.520,317.280 64.157 C 317.052 63.750,316.812 63.657,316.653 63.914 M78.800 65.600 C 78.800 65.820,78.440 66.000,78.000 66.000 C 77.560 66.000,77.200 66.137,77.200 66.305 C 77.200 66.612,76.328 67.144,74.300 68.072 C 73.140 68.603,72.937 68.990,73.603 69.402 C 73.824 69.539,74.114 69.369,74.246 69.025 C 74.378 68.681,74.826 68.400,75.243 68.400 C 75.659 68.400,76.001 68.265,76.001 68.100 C 76.002 67.935,76.978 67.355,78.170 66.810 C 79.361 66.266,80.250 65.681,80.145 65.510 C 79.866 65.059,78.800 65.130,78.800 65.600 M71.600 69.600 C 71.600 69.820,71.240 70.000,70.800 70.000 C 70.360 70.000,70.000 70.180,70.000 70.400 C 70.000 70.620,69.659 70.800,69.243 70.800 C 68.826 70.800,68.372 71.096,68.233 71.457 C 68.095 71.819,67.871 72.004,67.736 71.869 C 67.601 71.734,66.992 71.978,66.383 72.412 C 65.775 72.845,65.079 73.200,64.838 73.200 C 64.597 73.200,64.400 73.470,64.400 73.800 C 64.400 74.130,64.586 74.400,64.813 74.400 C 65.039 74.400,65.329 74.130,65.455 73.800 C 65.582 73.470,66.037 73.200,66.466 73.200 C 66.896 73.200,67.136 73.020,67.000 72.800 C 66.864 72.580,67.106 72.400,67.539 72.400 C 68.464 72.400,71.600 70.798,71.600 70.326 C 71.600 70.147,71.870 70.000,72.200 70.000 C 72.530 70.000,72.800 69.820,72.800 69.600 C 72.800 69.380,72.530 69.200,72.200 69.200 C 71.870 69.200,71.600 69.380,71.600 69.600 M326.400 69.600 C 326.400 69.820,326.670 70.000,327.000 70.000 C 327.330 70.000,327.600 70.180,327.600 70.400 C 327.600 70.620,327.960 70.800,328.400 70.800 C 328.840 70.800,329.200 70.980,329.200 71.200 C 329.200 71.420,329.470 71.600,329.800 71.600 C 330.130 71.600,330.401 71.735,330.403 71.900 C 330.406 72.223,332.314 73.200,332.942 73.200 C 333.691 73.200,331.993 71.746,330.609 71.203 C 329.834 70.899,329.200 70.504,329.200 70.325 C 329.200 70.146,328.840 70.000,328.400 70.000 C 327.960 70.000,327.600 69.820,327.600 69.600 C 327.600 69.380,327.330 69.200,327.000 69.200 C 326.670 69.200,326.400 69.380,326.400 69.600 M333.600 73.600 C 333.600 73.820,333.870 74.000,334.200 74.000 C 334.530 74.000,334.800 73.820,334.800 73.600 C 334.800 73.380,334.530 73.200,334.200 73.200 C 333.870 73.200,333.600 73.380,333.600 73.600 M62.800 74.400 C 62.800 74.620,62.440 74.800,62.000 74.800 C 61.560 74.800,61.200 74.937,61.200 75.105 C 61.200 75.412,60.328 75.944,58.300 76.872 C 57.695 77.149,57.200 77.516,57.200 77.688 C 57.200 77.859,56.840 78.000,56.400 78.000 C 55.960 78.000,55.600 78.180,55.600 78.400 C 55.600 78.620,55.240 78.800,54.800 78.800 C 54.360 78.800,54.000 78.980,54.000 79.200 C 54.000 79.420,53.640 79.600,53.200 79.600 C 52.760 79.600,52.400 79.780,52.400 80.000 C 52.400 80.220,52.175 80.400,51.900 80.400 C 51.366 80.401,49.200 82.123,49.200 82.547 C 49.200 83.134,50.433 82.736,50.893 82.000 C 51.168 81.560,51.709 81.200,52.096 81.200 C 52.483 81.200,52.800 81.054,52.800 80.875 C 52.800 80.696,53.430 80.302,54.200 80.000 C 54.970 79.698,55.600 79.338,55.600 79.200 C 55.600 79.062,56.230 78.702,57.000 78.400 C 57.770 78.098,58.400 77.704,58.400 77.525 C 58.400 77.346,58.760 77.200,59.200 77.200 C 59.640 77.200,60.000 77.020,60.000 76.800 C 60.000 76.580,60.270 76.400,60.600 76.400 C 60.930 76.400,61.200 76.220,61.200 76.000 C 61.200 75.780,61.515 75.594,61.900 75.587 C 63.216 75.563,64.693 74.000,63.400 74.000 C 63.070 74.000,62.800 74.180,62.800 74.400 M335.052 74.316 C 334.944 74.490,335.829 75.075,337.017 75.616 C 338.206 76.157,339.183 76.735,339.189 76.900 C 339.195 77.065,339.560 77.200,340.000 77.200 C 340.440 77.200,340.801 77.335,340.803 77.500 C 340.806 77.806,342.700 78.800,343.280 78.800 C 343.456 78.800,343.600 78.620,343.600 78.400 C 343.600 78.180,343.255 78.000,342.833 78.000 C 342.412 78.000,342.007 77.865,341.933 77.700 C 341.766 77.324,339.636 76.025,338.700 75.729 C 338.315 75.607,338.000 75.348,338.000 75.153 C 338.000 74.959,337.640 74.800,337.200 74.800 C 336.760 74.800,336.400 74.620,336.400 74.400 C 336.400 73.926,335.334 73.860,335.052 74.316 M343.829 79.154 C 343.709 79.348,344.193 79.742,344.905 80.030 C 345.617 80.318,346.340 80.781,346.511 81.060 C 346.681 81.339,347.086 81.465,347.411 81.341 C 347.735 81.216,348.000 81.314,348.000 81.557 C 348.000 81.801,348.270 82.000,348.600 82.000 C 349.734 82.000,349.197 81.324,347.300 80.363 C 346.255 79.833,345.340 79.265,345.267 79.100 C 345.083 78.686,344.095 78.723,343.829 79.154 M349.600 82.320 C 349.600 83.018,350.622 83.598,351.780 83.557 L 353.000 83.515 351.900 83.080 C 351.295 82.841,350.800 82.500,350.800 82.323 C 350.800 82.145,350.530 82.000,350.200 82.000 C 349.870 82.000,349.600 82.144,349.600 82.320 M44.969 83.899 C 44.106 84.413,43.085 84.937,42.700 85.064 C 42.315 85.190,42.000 85.452,42.000 85.647 C 42.000 85.841,41.640 86.000,41.200 86.000 C 40.760 86.000,40.400 86.180,40.400 86.400 C 40.400 87.082,42.409 86.485,43.200 85.568 C 43.310 85.440,43.985 85.081,44.700 84.770 C 45.415 84.459,46.000 84.069,46.000 83.902 C 46.000 83.736,46.641 83.600,47.424 83.600 C 48.256 83.600,48.746 83.436,48.604 83.206 C 48.220 82.586,46.678 82.879,44.969 83.899 M353.200 84.035 C 353.200 84.236,353.470 84.400,353.800 84.400 C 354.130 84.400,354.400 84.580,354.400 84.800 C 354.400 85.020,354.760 85.200,355.200 85.200 C 355.640 85.200,356.000 85.346,356.000 85.525 C 356.000 85.704,356.630 86.098,357.400 86.400 C 358.170 86.702,358.800 87.096,358.800 87.275 C 358.800 87.454,359.160 87.600,359.600 87.600 C 360.040 87.600,360.400 87.420,360.400 87.200 C 360.400 86.980,360.040 86.800,359.600 86.800 C 359.160 86.800,358.800 86.620,358.800 86.400 C 358.800 86.180,358.526 86.000,358.192 86.000 C 357.858 86.000,356.823 85.513,355.892 84.919 C 354.056 83.745,353.200 83.464,353.200 84.035 M38.733 87.100 C 38.660 87.265,37.745 87.833,36.700 88.363 C 34.803 89.324,34.266 90.000,35.400 90.000 C 35.730 90.000,36.000 89.820,36.000 89.600 C 36.000 89.380,36.360 89.200,36.800 89.200 C 37.240 89.200,37.600 89.054,37.600 88.875 C 37.600 88.696,38.231 88.302,39.002 87.999 C 39.956 87.625,40.243 87.348,39.902 87.131 C 39.267 86.728,38.903 86.718,38.733 87.100 M360.600 88.000 C 360.464 88.220,360.633 88.400,360.976 88.400 C 361.319 88.400,361.600 88.580,361.600 88.800 C 361.600 89.020,361.960 89.200,362.400 89.200 C 362.840 89.200,363.200 89.380,363.200 89.600 C 363.200 89.820,363.498 90.000,363.862 90.000 C 364.460 90.000,364.455 89.924,363.809 89.209 C 363.415 88.775,362.958 88.503,362.792 88.605 C 362.626 88.707,362.268 88.523,361.996 88.196 C 361.421 87.503,360.948 87.436,360.600 88.000 M33.277 90.430 C 33.355 90.666,33.591 90.860,33.800 90.860 C 34.009 90.860,34.245 90.666,34.323 90.430 C 34.402 90.194,34.167 90.000,33.800 90.000 C 33.433 90.000,33.198 90.194,33.277 90.430 M364.800 90.400 C 364.800 90.620,365.070 90.800,365.400 90.800 C 365.730 90.800,366.000 90.620,366.000 90.400 C 366.000 90.180,365.730 90.000,365.400 90.000 C 365.070 90.000,364.800 90.180,364.800 90.400 M31.600 91.200 C 31.600 91.420,31.240 91.600,30.800 91.600 C 30.360 91.600,30.000 91.737,30.000 91.905 C 30.000 92.212,29.128 92.744,27.100 93.672 C 25.940 94.203,25.737 94.590,26.403 95.002 C 26.624 95.139,26.914 94.969,27.046 94.625 C 27.178 94.281,27.637 94.000,28.066 94.000 C 28.496 94.000,28.736 93.820,28.600 93.600 C 28.464 93.380,28.598 93.200,28.897 93.200 C 29.651 93.200,31.593 92.265,31.597 91.900 C 31.599 91.735,31.960 91.600,32.400 91.600 C 32.840 91.600,33.200 91.420,33.200 91.200 C 33.200 90.980,32.840 90.800,32.400 90.800 C 31.960 90.800,31.600 90.980,31.600 91.200 M366.612 91.180 C 366.348 91.608,367.620 92.400,368.574 92.400 C 368.918 92.400,369.200 92.580,369.200 92.800 C 369.200 93.020,369.571 93.200,370.024 93.200 C 370.477 93.200,370.736 93.380,370.600 93.600 C 370.464 93.820,370.704 94.000,371.134 94.000 C 371.563 94.000,372.022 94.281,372.154 94.625 C 372.286 94.969,372.576 95.139,372.797 95.002 C 373.382 94.640,373.291 94.000,372.654 94.000 C 372.354 94.000,371.658 93.646,371.108 93.213 C 370.557 92.780,369.997 92.536,369.863 92.670 C 369.729 92.805,369.505 92.619,369.367 92.257 C 369.228 91.896,368.774 91.600,368.357 91.600 C 367.941 91.600,367.600 91.420,367.600 91.200 C 367.600 90.692,366.922 90.678,366.612 91.180 M24.400 95.200 C 24.400 95.420,24.040 95.600,23.600 95.600 C 23.160 95.600,22.800 95.780,22.800 96.000 C 22.800 96.220,22.552 96.400,22.249 96.400 C 21.946 96.400,21.476 96.668,21.204 96.996 C 20.932 97.323,20.577 97.509,20.415 97.409 C 20.253 97.309,19.779 97.546,19.361 97.934 C 18.942 98.323,18.285 98.761,17.900 98.908 C 16.810 99.324,16.810 300.681,17.900 301.083 C 18.285 301.225,18.690 301.448,18.800 301.579 C 18.910 301.709,19.526 302.083,20.169 302.408 C 22.416 303.546,22.800 303.792,22.800 304.095 C 22.800 304.263,23.160 304.400,23.600 304.400 C 24.040 304.400,24.400 304.580,24.400 304.800 C 24.400 305.020,24.805 305.207,25.300 305.216 C 25.795 305.225,26.814 305.758,27.565 306.400 C 28.316 307.042,29.060 307.486,29.220 307.388 C 29.379 307.289,29.732 307.477,30.004 307.804 C 30.276 308.132,30.746 308.400,31.049 308.400 C 31.352 308.400,31.600 308.580,31.600 308.800 C 31.600 309.020,31.960 309.200,32.400 309.200 C 32.840 309.200,33.200 309.380,33.200 309.600 C 33.200 309.820,33.605 310.000,34.100 310.000 C 34.595 310.001,35.540 310.469,36.200 311.040 C 36.860 311.612,38.075 312.374,38.900 312.734 C 39.725 313.094,40.400 313.526,40.400 313.694 C 40.400 313.862,40.760 314.000,41.200 314.000 C 41.640 314.000,42.000 314.180,42.000 314.400 C 42.000 314.620,42.360 314.800,42.800 314.800 C 43.240 314.800,43.600 314.980,43.600 315.200 C 43.600 315.420,43.960 315.600,44.400 315.600 C 44.840 315.600,45.200 315.780,45.200 316.000 C 45.200 316.220,45.560 316.400,46.000 316.400 C 46.440 316.400,46.800 316.580,46.800 316.800 C 46.800 317.020,47.308 317.200,47.928 317.200 C 48.632 317.200,49.382 317.575,49.925 318.200 C 50.404 318.750,51.516 319.513,52.397 319.894 C 53.279 320.276,54.000 320.726,54.000 320.894 C 54.000 321.062,54.360 321.200,54.800 321.200 C 55.240 321.200,55.600 321.380,55.600 321.600 C 55.600 321.820,55.945 322.000,56.367 322.000 C 56.788 322.000,57.193 322.135,57.267 322.300 C 57.434 322.676,59.564 323.975,60.500 324.271 C 60.885 324.393,61.200 324.652,61.200 324.847 C 61.200 325.041,61.560 325.200,62.000 325.200 C 62.440 325.200,62.800 325.380,62.800 325.600 C 62.800 325.820,63.160 326.000,63.600 326.000 C 64.040 326.000,64.400 326.180,64.400 326.400 C 64.400 326.620,64.760 326.800,65.200 326.800 C 65.640 326.800,66.000 326.953,66.000 327.140 C 66.000 327.327,67.215 328.091,68.700 328.838 C 70.185 329.585,71.460 330.332,71.533 330.498 C 71.607 330.664,72.012 330.800,72.433 330.800 C 72.855 330.800,73.200 330.980,73.200 331.200 C 73.200 331.420,73.478 331.600,73.817 331.600 C 74.156 331.600,74.813 331.954,75.277 332.386 C 75.741 332.819,76.253 333.091,76.415 332.991 C 76.577 332.891,76.932 333.077,77.204 333.404 C 77.476 333.732,77.946 334.000,78.249 334.000 C 78.552 334.000,78.800 334.180,78.800 334.400 C 78.800 334.620,79.160 334.800,79.600 334.800 C 80.040 334.800,80.400 334.980,80.400 335.200 C 80.400 335.420,80.720 335.600,81.112 335.600 C 81.503 335.600,82.083 335.960,82.400 336.400 C 82.717 336.840,83.183 337.200,83.434 337.200 C 83.686 337.200,84.342 337.554,84.892 337.987 C 85.443 338.420,86.003 338.664,86.137 338.530 C 86.271 338.395,86.495 338.581,86.633 338.943 C 86.772 339.304,87.226 339.600,87.643 339.600 C 88.059 339.600,88.400 339.780,88.400 340.000 C 88.400 340.220,88.760 340.400,89.200 340.400 C 89.640 340.400,90.000 340.580,90.000 340.800 C 90.000 341.020,90.197 341.200,90.438 341.200 C 90.679 341.200,91.375 341.555,91.983 341.988 C 92.592 342.422,93.201 342.666,93.336 342.531 C 93.471 342.396,93.695 342.581,93.833 342.943 C 93.972 343.304,94.426 343.600,94.843 343.600 C 95.259 343.600,95.600 343.780,95.600 344.000 C 95.600 344.220,95.960 344.400,96.400 344.400 C 96.840 344.400,97.200 344.580,97.200 344.800 C 97.200 345.020,97.397 345.200,97.638 345.200 C 97.879 345.200,98.575 345.555,99.183 345.988 C 99.792 346.422,100.379 346.687,100.488 346.579 C 100.597 346.470,100.914 346.655,101.192 346.990 C 101.470 347.326,101.946 347.600,102.249 347.600 C 102.552 347.600,102.800 347.780,102.800 348.000 C 102.800 348.220,103.160 348.400,103.600 348.400 C 104.040 348.400,104.400 348.580,104.400 348.800 C 104.400 349.020,104.816 349.200,105.325 349.200 C 105.833 349.200,106.636 349.560,107.108 350.000 C 107.580 350.440,108.424 350.800,108.983 350.800 C 109.542 350.800,110.000 350.980,110.000 351.200 C 110.000 351.420,110.360 351.600,110.800 351.600 C 111.240 351.600,111.600 351.780,111.600 352.000 C 111.600 352.220,111.960 352.400,112.400 352.400 C 112.840 352.400,113.200 352.550,113.200 352.732 C 113.200 352.915,113.695 353.320,114.300 353.632 C 114.905 353.945,115.749 354.515,116.175 354.900 C 116.602 355.285,117.187 355.600,117.475 355.600 C 117.764 355.600,118.000 355.780,118.000 356.000 C 118.000 356.220,118.360 356.400,118.800 356.400 C 119.240 356.400,119.600 356.580,119.600 356.800 C 119.600 357.020,119.878 357.200,120.217 357.200 C 120.556 357.200,121.213 357.554,121.677 357.986 C 122.141 358.419,122.675 358.677,122.863 358.561 C 123.052 358.444,123.314 358.631,123.446 358.975 C 123.578 359.319,124.026 359.600,124.443 359.600 C 124.859 359.600,125.200 359.780,125.200 360.000 C 125.200 360.220,125.560 360.400,126.000 360.400 C 126.440 360.400,126.800 360.580,126.800 360.800 C 126.800 361.020,127.145 361.200,127.567 361.200 C 127.988 361.200,128.393 361.335,128.467 361.500 C 128.634 361.876,130.764 363.175,131.700 363.471 C 132.085 363.593,132.400 363.852,132.400 364.047 C 132.400 364.241,132.760 364.400,133.200 364.400 C 133.640 364.400,134.000 364.580,134.000 364.800 C 134.000 365.020,134.345 365.200,134.767 365.200 C 135.188 365.200,135.593 365.335,135.667 365.500 C 135.834 365.876,137.964 367.175,138.900 367.471 C 139.285 367.593,139.600 367.852,139.600 368.047 C 139.600 368.241,139.960 368.400,140.400 368.400 C 140.840 368.400,141.200 368.580,141.200 368.800 C 141.200 369.020,141.545 369.200,141.967 369.200 C 142.388 369.200,142.793 369.335,142.867 369.500 C 143.034 369.876,145.164 371.175,146.100 371.471 C 146.485 371.593,146.800 371.852,146.800 372.047 C 146.800 372.241,147.078 372.400,147.417 372.400 C 147.756 372.400,148.420 372.760,148.892 373.200 C 149.364 373.640,150.043 374.000,150.400 374.000 C 150.757 374.000,151.398 374.316,151.825 374.703 C 152.251 375.089,153.126 375.674,153.769 376.003 C 156.049 377.168,156.400 377.393,156.400 377.695 C 156.400 377.863,156.760 378.000,157.200 378.000 C 157.640 378.000,158.000 378.180,158.000 378.400 C 158.000 378.620,158.360 378.800,158.800 378.800 C 159.240 378.800,159.601 378.935,159.603 379.100 C 159.605 379.265,160.010 379.601,160.503 379.846 C 163.850 381.509,166.620 383.045,166.733 383.300 C 166.807 383.465,167.201 383.600,167.610 383.600 C 168.018 383.600,168.464 383.780,168.600 384.000 C 168.736 384.220,169.287 384.400,169.824 384.400 C 170.361 384.400,170.800 384.580,170.800 384.800 C 170.800 385.020,171.160 385.200,171.600 385.200 C 172.040 385.200,172.400 385.380,172.400 385.600 C 172.400 385.820,172.760 386.000,173.200 386.000 C 173.640 386.000,174.000 386.180,174.000 386.400 C 174.000 386.620,174.197 386.800,174.438 386.800 C 174.679 386.800,175.375 387.155,175.983 387.588 C 176.592 388.022,177.201 388.266,177.336 388.131 C 177.471 387.996,177.695 388.181,177.833 388.543 C 177.972 388.904,178.426 389.200,178.843 389.200 C 179.259 389.200,179.600 389.380,179.600 389.600 C 179.600 389.820,179.960 390.000,180.400 390.000 C 180.840 390.000,181.200 390.180,181.200 390.400 C 181.200 390.620,181.516 390.800,181.901 390.800 C 182.287 390.800,183.112 391.340,183.735 392.000 C 184.358 392.660,185.123 393.200,185.434 393.200 C 185.745 393.200,186.000 393.380,186.000 393.600 C 186.000 393.820,186.360 394.000,186.800 394.000 C 187.240 394.000,187.600 394.180,187.600 394.400 C 187.600 394.620,187.960 394.800,188.400 394.800 C 188.840 394.800,189.200 394.980,189.200 395.200 C 189.200 395.420,189.560 395.600,190.000 395.600 C 190.440 395.600,190.800 395.780,190.800 396.000 C 190.800 396.220,191.160 396.400,191.600 396.400 C 192.040 396.400,192.400 396.552,192.400 396.737 C 192.400 396.923,193.255 397.505,194.300 398.032 C 195.345 398.558,196.290 399.104,196.400 399.244 C 196.510 399.385,197.182 399.626,197.893 399.780 L 199.187 400.061 199.093 293.764 L 199.000 187.467 195.800 185.812 C 194.040 184.902,191.700 183.907,190.600 183.601 C 188.595 183.044,185.267 181.446,183.268 180.079 C 182.681 179.677,175.041 175.782,166.292 171.423 C 157.543 167.065,150.301 163.363,150.199 163.199 C 149.890 162.699,125.115 150.502,123.400 150.005 C 121.388 149.423,118.672 148.139,116.600 146.789 C 115.720 146.216,108.070 142.268,99.600 138.017 C 91.130 133.765,83.750 129.974,83.200 129.591 C 81.182 128.188,58.602 117.112,56.239 116.366 C 54.898 115.943,52.900 115.068,51.800 114.422 C 50.700 113.776,43.380 110.004,35.533 106.039 C 19.676 98.027,19.879 98.195,23.821 96.394 C 26.084 95.360,26.569 94.800,25.200 94.800 C 24.760 94.800,24.400 94.980,24.400 95.200 M375.000 96.000 C 374.864 96.220,375.123 96.400,375.576 96.400 C 376.029 96.400,376.400 96.580,376.400 96.800 C 376.400 97.020,376.760 97.200,377.200 97.200 C 377.640 97.200,378.000 97.380,378.000 97.600 C 378.000 97.820,378.202 98.000,378.449 98.000 C 379.163 98.000,378.090 96.904,376.696 96.208 C 375.251 95.487,375.312 95.495,375.000 96.000 " stroke="none" fill="#e3e3e3" fill-rule="evenodd"></path><path id="path2" d="M364.714 105.746 C 357.168 109.520,350.455 112.978,349.797 113.431 C 348.169 114.552,344.465 116.287,343.000 116.616 C 341.606 116.929,316.905 129.106,316.573 129.644 C 316.450 129.842,309.116 133.624,300.275 138.047 C 291.434 142.470,283.922 146.333,283.583 146.632 C 282.683 147.422,276.211 150.397,275.341 150.419 C 274.933 150.429,268.930 153.333,262.000 156.871 C 227.035 174.722,216.325 180.221,213.400 181.828 C 211.640 182.794,209.567 183.694,208.794 183.828 C 208.021 183.962,205.771 184.911,203.794 185.936 L 200.200 187.800 200.098 293.000 C 200.041 350.860,200.076 398.413,200.175 398.673 C 200.371 399.190,202.391 398.487,202.397 397.900 C 202.399 397.735,202.760 397.600,203.200 397.600 C 203.640 397.600,204.000 397.399,204.000 397.153 C 204.000 396.904,204.353 396.799,204.800 396.916 C 205.259 397.036,205.601 396.928,205.603 396.663 C 205.605 396.408,206.010 396.001,206.503 395.759 C 206.996 395.516,208.394 394.782,209.608 394.128 C 210.823 393.474,212.038 393.013,212.308 393.103 C 212.579 393.193,212.800 392.961,212.800 392.587 C 212.800 392.108,213.032 391.967,213.586 392.112 C 214.052 392.234,214.337 392.131,214.286 391.859 C 214.239 391.607,214.596 391.413,215.080 391.430 C 215.564 391.446,215.884 391.336,215.791 391.186 C 215.546 390.789,217.884 388.800,218.597 388.800 C 218.928 388.800,219.200 388.599,219.200 388.353 C 219.200 388.104,219.553 387.999,220.000 388.116 C 220.461 388.236,220.800 388.128,220.800 387.860 C 220.800 387.604,221.385 387.141,222.100 386.830 C 222.815 386.519,223.490 386.150,223.600 386.011 C 223.959 385.558,226.988 384.232,227.454 384.324 C 227.704 384.374,228.021 384.121,228.159 383.763 C 228.353 383.257,228.721 383.171,229.811 383.376 C 230.847 383.570,231.185 383.504,231.106 383.124 C 231.048 382.840,231.585 382.434,232.300 382.221 C 233.015 382.009,233.600 381.692,233.600 381.517 C 233.600 381.343,233.791 381.200,234.024 381.200 C 234.257 381.200,234.336 381.380,234.200 381.600 C 234.064 381.820,234.115 382.000,234.312 382.000 C 234.510 382.000,234.870 381.564,235.113 381.031 C 235.436 380.321,235.775 380.121,236.383 380.280 C 237.051 380.454,237.159 380.358,236.938 379.784 C 236.715 379.203,236.825 379.113,237.533 379.298 C 238.011 379.423,238.300 379.361,238.175 379.160 C 238.051 378.959,238.276 378.676,238.675 378.532 C 239.074 378.388,239.894 377.928,240.497 377.510 C 241.101 377.092,241.757 376.850,241.955 376.972 C 242.154 377.095,242.418 376.929,242.543 376.604 C 242.668 376.279,243.023 376.111,243.333 376.230 C 243.643 376.349,244.003 376.169,244.133 375.830 C 244.282 375.442,244.623 375.311,245.050 375.475 C 245.481 375.640,245.634 375.579,245.467 375.309 C 245.315 375.062,246.089 374.419,247.302 373.786 C 248.456 373.183,249.710 372.333,250.088 371.897 C 250.478 371.448,251.041 371.207,251.388 371.340 C 251.751 371.479,252.000 371.355,252.000 371.034 C 252.000 370.737,252.315 370.390,252.700 370.264 C 253.085 370.138,254.148 369.590,255.061 369.045 C 255.975 368.501,256.843 368.177,256.991 368.325 C 257.139 368.472,257.431 368.287,257.641 367.913 C 257.850 367.539,258.263 367.326,258.559 367.440 C 258.855 367.553,259.203 367.369,259.333 367.030 C 259.470 366.674,259.829 366.513,260.185 366.650 C 260.561 366.794,260.800 366.664,260.800 366.317 C 260.800 365.694,263.880 363.879,264.396 364.198 C 264.572 364.306,264.818 364.129,264.943 363.804 C 265.072 363.469,265.435 363.315,265.785 363.450 C 266.191 363.605,266.400 363.453,266.400 363.000 C 266.400 362.571,266.613 362.396,266.971 362.533 C 267.285 362.654,267.748 362.504,268.000 362.200 C 268.252 361.896,268.723 361.749,269.046 361.873 C 269.381 362.001,269.583 361.896,269.516 361.626 C 269.383 361.086,272.678 359.077,273.183 359.390 C 273.366 359.503,273.618 359.329,273.743 359.004 C 273.868 358.679,274.223 358.511,274.533 358.630 C 274.843 358.749,275.209 358.554,275.346 358.198 C 275.482 357.841,275.776 357.661,275.997 357.798 C 276.219 357.935,276.400 357.847,276.400 357.603 C 276.400 357.359,277.018 356.901,277.773 356.586 C 278.528 356.270,279.266 355.817,279.413 355.579 C 279.560 355.340,279.918 355.236,280.207 355.347 C 280.497 355.459,280.837 355.279,280.964 354.949 C 281.091 354.619,281.354 354.448,281.548 354.568 C 281.743 354.688,282.523 354.205,283.283 353.493 C 285.046 351.842,287.839 350.363,288.625 350.665 C 289.009 350.812,289.190 350.696,289.116 350.349 C 289.035 349.967,289.360 349.826,290.185 349.887 C 290.836 349.935,291.466 349.837,291.585 349.669 C 291.943 349.162,294.808 347.600,295.380 347.600 C 295.674 347.600,296.017 347.333,296.142 347.007 C 296.267 346.680,296.623 346.511,296.933 346.630 C 297.243 346.749,297.609 346.554,297.746 346.198 C 297.882 345.841,298.163 345.654,298.370 345.781 C 298.576 345.909,299.247 345.548,299.861 344.979 C 300.474 344.410,301.465 343.847,302.063 343.727 C 302.660 343.608,303.244 343.263,303.359 342.962 C 303.475 342.660,303.823 342.511,304.133 342.630 C 304.443 342.749,304.803 342.569,304.933 342.230 C 305.070 341.874,305.429 341.713,305.785 341.850 C 306.187 342.004,306.400 341.854,306.400 341.416 C 306.400 340.915,306.614 340.814,307.250 341.016 C 307.807 341.193,308.009 341.138,307.836 340.858 C 307.557 340.406,310.665 338.576,311.454 338.727 C 311.704 338.775,312.013 338.544,312.139 338.214 C 312.266 337.884,312.623 337.711,312.933 337.830 C 313.243 337.949,313.609 337.754,313.746 337.398 C 313.882 337.041,314.173 336.860,314.392 336.995 C 314.610 337.130,315.315 336.641,315.958 335.909 C 316.600 335.177,317.773 334.324,318.563 334.014 C 319.353 333.704,320.000 333.292,320.000 333.098 C 320.000 332.905,320.360 332.860,320.800 333.000 C 321.379 333.184,321.600 333.072,321.600 332.594 C 321.600 332.230,321.825 332.009,322.100 332.102 C 322.375 332.194,322.780 332.052,323.000 331.785 C 323.600 331.057,327.895 328.829,328.170 329.103 C 328.301 329.234,328.631 329.054,328.904 328.702 C 329.177 328.351,330.120 327.661,331.000 327.170 C 333.998 325.496,336.817 324.033,336.909 324.105 C 336.959 324.144,337.810 323.626,338.800 322.953 C 339.790 322.281,341.185 321.477,341.900 321.168 C 342.615 320.858,343.200 320.457,343.200 320.275 C 343.200 320.094,343.539 320.054,343.953 320.185 C 344.436 320.338,344.793 320.195,344.950 319.787 C 345.084 319.436,345.357 319.250,345.555 319.372 C 345.754 319.495,346.019 319.326,346.146 318.998 C 346.272 318.669,346.651 318.400,346.987 318.400 C 347.324 318.400,347.600 318.234,347.600 318.032 C 347.600 317.829,348.125 317.548,348.767 317.407 C 349.408 317.266,350.033 316.892,350.154 316.576 C 350.276 316.259,350.760 316.000,351.230 316.000 C 351.826 316.000,352.016 316.182,351.855 316.600 C 351.466 317.614,352.243 317.263,352.724 316.208 C 353.042 315.509,353.376 315.293,353.853 315.476 C 354.301 315.648,354.436 315.582,354.251 315.283 C 353.962 314.815,356.668 313.200,357.741 313.200 C 358.056 313.200,358.417 312.933,358.542 312.607 C 358.667 312.280,359.023 312.111,359.333 312.230 C 359.643 312.349,360.003 312.169,360.133 311.830 C 360.270 311.474,360.629 311.313,360.985 311.450 C 361.381 311.602,361.600 311.457,361.600 311.043 C 361.600 310.689,361.797 310.400,362.038 310.400 C 362.279 310.400,362.999 310.028,363.638 309.573 C 364.277 309.118,364.800 308.876,364.800 309.035 C 364.800 309.194,365.130 309.026,365.532 308.661 C 365.935 308.297,366.399 308.132,366.562 308.296 C 366.726 308.459,367.031 308.287,367.241 307.913 C 367.451 307.537,367.884 307.334,368.211 307.459 C 368.535 307.584,368.800 307.501,368.800 307.275 C 368.800 307.050,369.406 306.491,370.147 306.033 C 371.660 305.098,373.014 304.911,372.559 305.700 C 372.395 305.986,372.426 306.059,372.631 305.872 C 372.828 305.691,372.992 305.241,372.995 304.872 C 372.998 304.404,373.276 304.238,373.909 304.327 C 374.495 304.408,374.779 304.266,374.709 303.927 C 374.645 303.619,374.891 303.449,375.300 303.518 C 375.685 303.582,376.000 303.401,376.000 303.115 C 376.000 302.829,376.585 302.341,377.300 302.030 C 378.015 301.719,378.690 301.360,378.800 301.232 C 379.206 300.760,380.808 300.000,381.395 300.000 C 381.934 300.000,382.000 289.021,382.000 200.000 C 382.000 101.280,381.990 100.000,381.224 100.000 C 380.797 100.000,380.349 99.842,380.230 99.648 C 379.533 98.520,377.799 99.202,364.714 105.746 " stroke="none" fill="#8c8c8c" fill-rule="evenodd"></path><path id="path3" d="M364.450 105.200 C 356.667 109.142,350.007 112.615,349.650 112.918 C 348.763 113.671,344.075 115.831,342.600 116.166 C 341.193 116.486,318.545 127.666,316.200 129.198 C 315.320 129.774,307.940 133.554,299.800 137.600 C 291.660 141.646,284.280 145.424,283.400 145.996 C 281.216 147.414,276.861 149.479,275.400 149.788 C 274.124 150.058,250.122 161.879,249.804 162.394 C 249.700 162.561,242.457 166.266,233.708 170.626 C 224.959 174.986,217.080 179.022,216.200 179.594 C 214.036 181.002,209.673 183.075,208.200 183.395 C 206.643 183.733,200.622 186.650,200.044 187.347 C 199.718 187.739,199.626 216.345,199.699 293.642 L 199.800 399.400 200.700 399.528 C 201.195 399.598,201.600 399.463,201.600 399.228 C 201.600 398.993,202.061 398.800,202.624 398.800 C 203.204 398.800,203.540 398.627,203.400 398.400 C 203.264 398.180,203.356 398.000,203.605 398.000 C 203.854 398.000,204.327 397.730,204.657 397.400 C 205.190 396.867,205.187 396.800,204.629 396.800 C 204.283 396.800,204.000 396.980,204.000 397.200 C 204.000 397.420,203.640 397.600,203.200 397.600 C 202.760 397.600,202.399 397.735,202.397 397.900 C 202.391 398.487,200.371 399.190,200.175 398.673 C 200.076 398.413,200.041 350.860,200.098 293.000 L 200.200 187.800 203.794 185.936 C 205.771 184.911,208.021 183.962,208.794 183.828 C 209.567 183.694,211.640 182.794,213.400 181.828 C 216.325 180.221,227.035 174.722,262.000 156.871 C 268.930 153.333,274.933 150.429,275.341 150.419 C 276.211 150.397,282.683 147.422,283.583 146.632 C 283.922 146.333,291.434 142.470,300.275 138.047 C 309.116 133.624,316.450 129.842,316.573 129.644 C 316.905 129.106,341.606 116.929,343.000 116.616 C 344.465 116.287,348.169 114.552,349.797 113.431 C 350.455 112.978,357.168 109.520,364.714 105.746 C 377.799 99.202,379.533 98.520,380.230 99.648 C 380.349 99.842,380.842 99.979,381.324 99.954 C 382.000 99.918,382.041 99.866,381.500 99.724 C 381.115 99.624,380.800 99.375,380.800 99.171 C 380.800 98.967,380.429 98.800,379.976 98.800 C 379.523 98.800,379.264 98.620,379.400 98.400 C 379.993 97.440,377.800 98.437,364.450 105.200 M379.800 300.524 C 379.360 300.786,378.910 301.104,378.800 301.232 C 378.690 301.360,378.015 301.719,377.300 302.030 C 376.585 302.341,376.014 302.866,376.032 303.198 C 376.053 303.608,376.127 303.641,376.265 303.300 C 376.376 303.025,376.812 302.800,377.233 302.800 C 377.655 302.800,378.000 302.620,378.000 302.400 C 378.000 302.180,378.360 302.000,378.800 302.000 C 379.240 302.000,379.600 301.820,379.600 301.600 C 379.600 301.380,379.870 301.200,380.200 301.200 C 380.530 301.200,380.800 301.033,380.800 300.829 C 380.800 300.625,381.115 300.376,381.500 300.276 C 382.082 300.124,382.065 300.089,381.400 300.070 C 380.960 300.057,380.240 300.261,379.800 300.524 M372.988 304.420 C 372.607 305.035,373.128 305.432,373.642 304.918 C 373.929 304.631,373.936 304.407,373.662 304.239 C 373.439 304.100,373.135 304.182,372.988 304.420 M370.100 306.046 C 369.385 306.504,368.803 307.086,368.806 307.339 C 368.810 307.632,368.919 307.654,369.106 307.400 C 369.544 306.804,371.101 306.000,371.818 306.000 C 372.164 306.000,372.336 305.820,372.200 305.600 C 371.854 305.040,371.580 305.098,370.100 306.046 M365.596 308.604 C 365.194 309.089,365.219 309.200,365.727 309.200 C 366.474 309.200,366.962 308.548,366.452 308.232 C 366.253 308.109,365.868 308.277,365.596 308.604 M363.600 309.600 C 363.050 310.030,362.375 310.386,362.100 310.391 C 361.825 310.396,361.614 310.715,361.632 311.100 C 361.650 311.518,361.744 311.599,361.865 311.300 C 361.976 311.025,362.322 310.800,362.633 310.800 C 362.945 310.800,363.200 310.620,363.200 310.400 C 363.200 310.180,363.560 310.000,364.000 310.000 C 364.444 310.000,364.800 309.733,364.800 309.400 C 364.800 308.654,364.812 308.652,363.600 309.600 M355.487 314.034 C 354.548 314.530,354.082 315.009,354.260 315.297 C 354.475 315.645,354.586 315.641,354.707 315.280 C 354.795 315.016,355.242 314.800,355.700 314.800 C 356.158 314.800,356.409 314.676,356.257 314.524 C 356.105 314.372,356.480 314.027,357.091 313.756 C 357.701 313.486,357.930 313.258,357.600 313.250 C 357.270 313.242,356.319 313.595,355.487 314.034 M350.154 316.576 C 350.033 316.892,349.408 317.266,348.767 317.407 C 348.125 317.548,347.600 317.808,347.600 317.985 C 347.600 318.162,347.240 318.401,346.800 318.516 C 345.988 318.728,345.667 319.600,346.400 319.600 C 346.620 319.600,346.800 319.420,346.800 319.200 C 346.800 318.980,347.160 318.800,347.600 318.800 C 348.040 318.800,348.400 318.620,348.400 318.400 C 348.400 318.180,348.694 318.000,349.053 318.000 C 349.412 318.000,349.997 317.668,350.353 317.263 C 350.709 316.857,351.270 316.421,351.600 316.294 C 351.999 316.140,351.895 316.053,351.287 316.032 C 350.786 316.014,350.276 316.259,350.154 316.576 M343.200 320.269 C 343.200 320.454,342.615 320.858,341.900 321.168 C 341.185 321.477,339.790 322.284,338.800 322.960 C 337.810 323.637,336.910 324.202,336.800 324.215 C 335.683 324.355,329.053 328.193,328.946 328.762 C 328.897 329.024,328.947 329.045,329.063 328.810 C 329.175 328.584,329.612 328.400,330.033 328.400 C 330.455 328.400,330.800 328.220,330.800 328.000 C 330.800 327.780,331.070 327.600,331.400 327.600 C 331.730 327.600,332.000 327.420,332.000 327.200 C 332.000 326.980,332.461 326.800,333.024 326.800 C 333.604 326.800,333.940 326.627,333.800 326.400 C 333.664 326.180,333.816 326.000,334.139 326.000 C 334.913 326.000,338.000 324.342,338.000 323.926 C 338.000 323.747,338.360 323.600,338.800 323.600 C 339.240 323.600,339.600 323.420,339.600 323.200 C 339.600 322.980,339.870 322.800,340.200 322.800 C 340.530 322.800,340.800 322.620,340.800 322.400 C 340.800 322.180,341.261 322.000,341.824 322.000 C 342.387 322.000,342.744 321.833,342.618 321.629 C 342.491 321.424,342.758 321.199,343.210 321.129 C 344.082 320.992,344.351 320.317,343.630 320.077 C 343.394 319.998,343.200 320.084,343.200 320.269 M325.411 330.225 C 324.097 330.945,322.957 331.729,322.878 331.967 C 322.671 332.586,323.156 332.501,323.861 331.796 C 324.193 331.464,324.658 331.312,324.894 331.458 C 325.149 331.615,325.207 331.536,325.038 331.262 C 324.850 330.958,325.110 330.800,325.800 330.800 C 326.396 330.800,326.741 330.628,326.600 330.400 C 326.464 330.180,326.713 330.000,327.153 330.000 C 327.989 330.000,328.636 329.379,328.107 329.085 C 327.938 328.992,326.725 329.504,325.411 330.225 M320.000 333.102 C 320.000 333.269,319.415 333.654,318.700 333.958 C 317.270 334.568,315.200 336.328,315.200 336.936 C 315.200 337.149,315.536 336.935,315.947 336.461 C 316.358 335.988,316.898 335.600,317.147 335.600 C 317.396 335.600,317.600 335.420,317.600 335.200 C 317.600 334.980,317.870 334.800,318.200 334.800 C 318.530 334.800,318.800 334.620,318.800 334.400 C 318.800 334.180,319.141 334.000,319.557 334.000 C 319.974 334.000,320.418 333.730,320.545 333.400 C 320.671 333.070,320.601 332.800,320.387 332.800 C 320.174 332.800,320.000 332.936,320.000 333.102 M312.188 338.020 C 311.807 338.635,312.328 339.032,312.842 338.518 C 313.129 338.231,313.136 338.007,312.862 337.839 C 312.639 337.700,312.335 337.782,312.188 338.020 M309.296 339.498 C 308.276 340.076,307.704 340.644,307.869 340.912 C 308.070 341.236,308.191 341.227,308.307 340.880 C 308.395 340.616,308.722 340.400,309.033 340.400 C 309.345 340.400,309.600 340.220,309.600 340.000 C 309.600 339.780,309.949 339.600,310.376 339.600 C 310.803 339.600,311.256 339.432,311.383 339.228 C 311.865 338.448,310.935 338.569,309.296 339.498 M304.988 342.020 C 304.607 342.635,305.128 343.032,305.642 342.518 C 305.929 342.231,305.936 342.007,305.662 341.839 C 305.439 341.700,305.135 341.782,304.988 342.020 M303.388 342.820 C 303.007 343.435,303.528 343.832,304.042 343.318 C 304.329 343.031,304.336 342.807,304.062 342.639 C 303.839 342.500,303.535 342.582,303.388 342.820 M300.500 344.446 C 299.785 344.904,299.203 345.486,299.206 345.739 C 299.210 346.032,299.319 346.054,299.506 345.800 C 299.944 345.204,301.501 344.400,302.218 344.400 C 302.564 344.400,302.736 344.220,302.600 344.000 C 302.254 343.440,301.980 343.498,300.500 344.446 M296.188 346.820 C 295.807 347.435,296.328 347.832,296.842 347.318 C 297.129 347.031,297.136 346.807,296.862 346.639 C 296.639 346.500,296.335 346.582,296.188 346.820 M293.400 348.427 C 292.740 348.850,292.020 349.262,291.800 349.343 C 291.580 349.424,291.545 349.645,291.722 349.834 C 291.899 350.023,292.168 349.993,292.322 349.768 C 292.475 349.542,293.275 349.044,294.100 348.660 C 294.925 348.277,295.600 347.881,295.600 347.781 C 295.600 347.386,294.538 347.698,293.400 348.427 M289.078 349.856 C 288.771 350.162,289.111 350.800,289.581 350.800 C 289.764 350.800,290.018 350.530,290.145 350.200 C 290.373 349.605,289.583 349.350,289.078 349.856 M286.400 351.268 C 284.169 352.560,282.399 354.001,282.406 354.520 C 282.410 354.822,282.521 354.851,282.706 354.599 C 282.868 354.379,283.495 353.944,284.100 353.632 C 284.705 353.320,285.200 352.915,285.200 352.732 C 285.200 352.550,285.470 352.400,285.800 352.400 C 286.130 352.400,286.400 352.220,286.400 352.000 C 286.400 351.780,286.820 351.600,287.333 351.600 C 287.896 351.600,288.267 351.362,288.267 351.000 C 288.267 350.249,288.124 350.269,286.400 351.268 M279.200 355.800 C 278.926 356.130,278.454 356.400,278.151 356.400 C 277.848 356.400,277.240 356.760,276.800 357.200 C 276.360 357.640,275.870 357.987,275.710 357.970 C 275.550 357.954,275.356 358.134,275.277 358.370 C 275.056 359.033,275.764 358.880,276.625 358.078 C 277.051 357.680,277.982 357.098,278.694 356.783 C 279.405 356.468,280.074 355.983,280.181 355.705 C 280.449 355.008,279.806 355.070,279.200 355.800 M273.788 358.820 C 273.407 359.435,273.928 359.832,274.442 359.318 C 274.729 359.031,274.736 358.807,274.462 358.639 C 274.239 358.500,273.935 358.582,273.788 358.820 M271.200 360.065 C 269.352 361.132,269.043 361.456,269.565 361.778 C 269.804 361.926,270.000 361.857,270.000 361.624 C 270.000 361.391,270.371 361.200,270.824 361.200 C 271.277 361.200,271.544 361.033,271.418 360.829 C 271.291 360.624,271.582 360.399,272.063 360.329 C 272.544 360.258,273.011 359.975,273.102 359.700 C 273.326 359.019,272.854 359.110,271.200 360.065 M262.300 364.906 C 261.475 365.365,260.803 366.024,260.806 366.370 C 260.810 366.736,260.936 366.832,261.106 366.600 C 261.538 366.012,263.097 365.200,263.795 365.200 C 264.128 365.200,264.400 364.930,264.400 364.600 C 264.400 363.841,264.146 363.878,262.300 364.906 M259.388 366.820 C 259.007 367.435,259.528 367.832,260.042 367.318 C 260.329 367.031,260.336 366.807,260.062 366.639 C 259.839 366.500,259.535 366.582,259.388 366.820 M257.788 367.620 C 257.407 368.235,257.928 368.632,258.442 368.118 C 258.729 367.831,258.736 367.607,258.462 367.439 C 258.239 367.300,257.935 367.382,257.788 367.620 M255.000 369.074 C 254.120 369.602,253.085 370.137,252.700 370.264 C 252.315 370.390,252.014 370.787,252.032 371.147 C 252.052 371.561,252.137 371.617,252.265 371.300 C 252.376 371.025,252.812 370.800,253.233 370.800 C 253.655 370.800,254.000 370.620,254.000 370.400 C 254.000 370.180,254.371 370.000,254.824 370.000 C 255.277 370.000,255.544 369.832,255.417 369.627 C 255.290 369.422,255.635 369.197,256.183 369.127 C 256.801 369.048,257.069 368.832,256.890 368.557 C 256.692 368.255,256.092 368.419,255.000 369.074 M250.000 371.954 C 249.670 372.363,248.456 373.189,247.302 373.790 C 246.148 374.390,245.315 375.063,245.452 375.284 C 245.603 375.529,245.798 375.539,245.950 375.311 C 246.088 375.105,246.785 374.681,247.500 374.370 C 248.215 374.059,248.800 373.669,248.800 373.502 C 248.800 373.336,248.988 373.200,249.218 373.200 C 249.448 373.200,250.086 372.750,250.636 372.200 C 251.202 371.634,251.411 371.202,251.118 371.205 C 250.833 371.208,250.330 371.545,250.000 371.954 M244.188 375.620 C 243.807 376.235,244.328 376.632,244.842 376.118 C 245.129 375.831,245.136 375.607,244.862 375.439 C 244.639 375.300,244.335 375.382,244.188 375.620 M240.600 377.445 C 240.160 377.786,239.125 378.363,238.300 378.727 C 237.475 379.091,236.800 379.533,236.800 379.708 C 236.800 379.884,237.136 379.848,237.547 379.628 C 237.958 379.408,238.408 379.342,238.547 379.481 C 238.686 379.620,238.800 379.523,238.800 379.267 C 238.800 379.010,239.070 378.800,239.400 378.800 C 239.730 378.800,240.000 378.633,240.000 378.428 C 240.000 378.223,240.391 377.998,240.869 377.928 C 241.346 377.858,241.811 377.575,241.902 377.300 C 242.123 376.628,241.576 376.689,240.600 377.445 M235.388 380.420 C 235.007 381.035,235.528 381.432,236.042 380.918 C 236.329 380.631,236.336 380.407,236.062 380.239 C 235.839 380.100,235.535 380.182,235.388 380.420 M231.416 382.539 C 230.905 382.912,230.820 383.165,231.139 383.363 C 231.393 383.519,231.600 383.457,231.600 383.224 C 231.600 382.991,231.859 382.800,232.176 382.800 C 232.493 382.800,232.864 382.620,233.000 382.400 C 233.361 381.816,232.274 381.911,231.416 382.539 M228.267 383.467 C 227.739 383.994,228.017 384.400,228.900 384.394 C 229.576 384.389,229.661 384.300,229.242 384.034 C 228.794 383.750,228.833 383.643,229.442 383.487 C 230.129 383.311,230.121 383.288,229.367 383.246 C 228.908 383.221,228.413 383.320,228.267 383.467 M225.400 384.935 C 224.520 385.411,223.710 385.904,223.600 386.032 C 223.490 386.160,222.815 386.519,222.100 386.830 C 221.385 387.141,220.803 387.666,220.806 387.998 C 220.810 388.380,220.919 388.442,221.106 388.168 C 221.268 387.930,221.985 387.481,222.700 387.170 C 223.415 386.859,224.000 386.469,224.000 386.302 C 224.000 386.136,224.360 386.000,224.800 386.000 C 225.240 386.000,225.600 385.820,225.600 385.600 C 225.600 385.380,225.851 385.200,226.157 385.200 C 226.464 385.200,226.818 384.930,226.945 384.600 C 227.071 384.270,227.136 384.016,227.087 384.035 C 227.039 384.055,226.280 384.460,225.400 384.935 M219.200 388.400 C 219.200 388.620,218.922 388.800,218.583 388.800 C 218.243 388.800,217.478 389.263,216.883 389.829 C 216.287 390.394,215.125 391.157,214.300 391.523 C 213.475 391.889,212.800 392.429,212.800 392.723 C 212.800 393.127,212.954 393.103,213.432 392.625 C 213.780 392.277,214.215 392.085,214.398 392.199 C 214.582 392.312,214.792 392.269,214.866 392.102 C 215.098 391.578,218.565 389.303,219.367 389.148 C 220.313 388.965,220.706 388.000,219.833 388.000 C 219.485 388.000,219.200 388.180,219.200 388.400 M209.400 394.265 C 208.080 395.008,206.685 395.723,206.300 395.855 C 205.915 395.986,205.603 396.387,205.606 396.747 C 205.610 397.151,205.724 397.235,205.906 396.968 C 206.068 396.730,206.785 396.281,207.500 395.970 C 208.215 395.659,208.800 395.269,208.800 395.102 C 208.800 394.936,209.160 394.800,209.600 394.800 C 210.040 394.800,210.400 394.620,210.400 394.400 C 210.400 394.180,210.749 394.000,211.176 394.000 C 211.994 394.000,212.629 393.375,212.107 393.085 C 211.938 392.991,210.720 393.522,209.400 394.265 " stroke="none" fill="#a7a7a7" fill-rule="evenodd"></path><path id="path4" d="M198.500 0.293 C 198.005 0.382,197.600 0.623,197.600 0.828 C 197.600 1.033,197.240 1.200,196.800 1.200 C 196.360 1.200,196.000 1.352,196.000 1.537 C 196.000 1.723,195.145 2.305,194.100 2.832 C 193.055 3.358,192.110 3.882,192.000 3.995 C 191.470 4.538,189.924 5.200,189.182 5.200 C 188.726 5.200,188.446 5.351,188.560 5.535 C 188.810 5.940,185.966 7.600,185.022 7.600 C 184.654 7.600,184.464 7.780,184.600 8.000 C 184.736 8.220,184.567 8.400,184.224 8.400 C 183.881 8.400,183.600 8.580,183.600 8.800 C 183.600 9.020,183.240 9.200,182.800 9.200 C 182.360 9.200,182.045 9.362,182.100 9.560 C 182.155 9.758,182.040 9.923,181.845 9.926 C 181.649 9.929,181.363 10.136,181.209 10.386 C 181.054 10.636,180.547 10.869,180.081 10.904 C 179.615 10.939,179.314 11.047,179.411 11.144 C 179.692 11.425,178.267 12.373,177.543 12.387 C 177.181 12.394,176.783 12.667,176.658 12.993 C 176.528 13.331,176.165 13.485,175.815 13.350 C 175.477 13.221,175.200 13.314,175.200 13.557 C 175.200 13.801,174.930 14.000,174.600 14.000 C 174.270 14.000,173.999 14.135,173.997 14.300 C 173.993 14.706,172.014 15.600,171.120 15.600 C 170.724 15.600,170.400 15.780,170.400 16.000 C 170.400 16.220,170.029 16.400,169.576 16.400 C 169.091 16.400,168.862 16.223,169.018 15.970 C 169.165 15.733,168.918 15.769,168.468 16.051 C 168.019 16.331,167.741 16.704,167.849 16.880 C 167.958 17.056,167.696 17.200,167.266 17.200 C 166.837 17.200,166.378 17.481,166.246 17.825 C 166.114 18.169,165.824 18.339,165.603 18.202 C 165.381 18.065,165.200 18.143,165.200 18.376 C 165.200 18.609,164.840 18.800,164.400 18.800 C 163.960 18.800,163.600 18.980,163.600 19.200 C 163.600 19.420,163.330 19.600,163.000 19.600 C 162.670 19.600,162.400 19.780,162.400 20.000 C 162.400 20.220,162.040 20.400,161.600 20.400 C 161.160 20.400,160.800 20.580,160.800 20.800 C 160.800 21.020,160.440 21.200,160.000 21.200 C 159.560 21.200,159.200 21.380,159.200 21.600 C 159.200 21.820,158.922 22.000,158.583 22.000 C 158.244 22.000,157.580 22.360,157.108 22.800 C 156.636 23.240,156.013 23.600,155.725 23.600 C 155.436 23.600,155.200 23.780,155.200 24.000 C 155.200 24.220,154.840 24.400,154.400 24.400 C 153.960 24.400,153.600 24.580,153.600 24.800 C 153.600 25.020,153.240 25.200,152.800 25.200 C 152.360 25.200,152.000 25.380,152.000 25.600 C 152.000 25.820,151.683 26.000,151.296 26.000 C 150.909 26.000,150.368 26.360,150.093 26.800 C 149.818 27.240,149.404 27.600,149.173 27.600 C 148.942 27.600,148.888 27.375,149.053 27.100 C 149.260 26.756,149.144 26.770,148.681 27.145 C 148.311 27.445,148.107 27.850,148.228 28.045 C 148.349 28.240,148.077 28.400,147.624 28.400 C 147.171 28.400,146.800 28.580,146.800 28.800 C 146.800 29.020,146.549 29.200,146.243 29.200 C 145.936 29.200,145.583 29.467,145.458 29.793 C 145.328 30.131,144.965 30.285,144.615 30.150 C 144.277 30.021,144.000 30.114,144.000 30.357 C 144.000 30.601,143.629 30.800,143.176 30.800 C 142.723 30.800,142.446 30.951,142.560 31.136 C 142.675 31.321,141.830 31.891,140.684 32.404 C 139.538 32.916,138.510 33.450,138.400 33.589 C 138.290 33.728,137.533 34.152,136.717 34.532 C 135.901 34.911,135.124 35.400,134.989 35.617 C 134.855 35.835,134.577 35.909,134.372 35.783 C 134.168 35.656,134.000 35.732,134.000 35.951 C 134.000 36.169,133.370 36.576,132.600 36.854 C 131.830 37.133,131.200 37.505,131.200 37.680 C 131.200 37.856,130.859 38.000,130.443 38.000 C 130.026 38.000,129.583 38.267,129.458 38.593 C 129.328 38.931,128.965 39.085,128.615 38.950 C 128.277 38.821,128.000 38.914,128.000 39.157 C 128.000 39.401,127.752 39.600,127.449 39.600 C 127.146 39.600,126.676 39.868,126.404 40.196 C 126.132 40.523,125.750 40.693,125.555 40.572 C 125.360 40.451,125.200 40.543,125.200 40.776 C 125.200 41.009,124.930 41.200,124.600 41.200 C 124.270 41.200,124.000 41.380,124.000 41.600 C 124.000 41.820,123.640 42.000,123.200 42.000 C 122.760 42.000,122.400 42.180,122.400 42.400 C 122.400 42.620,122.040 42.800,121.600 42.800 C 121.160 42.800,120.800 42.980,120.800 43.200 C 120.800 43.420,120.440 43.600,120.000 43.600 C 119.560 43.600,119.200 43.780,119.200 44.000 C 119.200 44.220,118.930 44.400,118.600 44.400 C 118.270 44.400,118.000 44.580,118.000 44.800 C 118.000 45.020,117.801 45.200,117.558 45.200 C 117.314 45.200,116.768 45.642,116.343 46.182 C 115.895 46.751,115.324 47.069,114.985 46.939 C 114.663 46.815,114.400 46.914,114.400 47.157 C 114.400 47.401,114.040 47.600,113.600 47.600 C 113.160 47.600,112.800 47.780,112.800 48.000 C 112.800 48.220,112.530 48.400,112.200 48.400 C 111.870 48.400,111.600 48.580,111.600 48.800 C 111.600 49.020,111.150 49.200,110.600 49.200 C 110.050 49.200,109.600 49.380,109.600 49.600 C 109.600 49.820,109.060 50.000,108.400 50.000 C 107.740 50.000,107.200 50.180,107.200 50.400 C 107.200 50.620,106.840 50.800,106.400 50.800 C 105.960 50.800,105.600 50.980,105.600 51.200 C 105.600 51.420,105.240 51.600,104.800 51.600 C 104.360 51.600,104.000 51.780,104.000 52.000 C 104.000 52.220,103.809 52.400,103.576 52.400 C 103.343 52.400,103.282 52.175,103.441 51.900 C 103.608 51.610,103.576 51.540,103.364 51.733 C 103.164 51.917,103.000 52.277,103.000 52.533 C 103.000 52.790,102.502 53.057,101.893 53.127 C 101.284 53.197,100.890 53.422,101.017 53.627 C 101.144 53.832,100.967 54.000,100.624 54.000 C 100.281 54.000,100.000 54.180,100.000 54.400 C 100.000 54.620,99.539 54.800,98.976 54.800 C 98.396 54.800,98.060 54.973,98.200 55.200 C 98.341 55.428,97.996 55.600,97.400 55.600 C 96.804 55.600,96.459 55.772,96.600 56.000 C 96.736 56.220,96.477 56.400,96.024 56.400 C 95.571 56.400,95.200 56.547,95.200 56.726 C 95.200 57.177,92.243 58.800,91.422 58.800 C 91.054 58.800,90.864 58.980,91.000 59.200 C 91.136 59.420,90.877 59.600,90.424 59.600 C 89.971 59.600,89.600 59.758,89.600 59.951 C 89.600 60.145,89.015 60.540,88.300 60.829 C 87.585 61.118,86.910 61.455,86.800 61.578 C 86.690 61.701,86.060 62.071,85.400 62.401 C 84.740 62.730,83.878 63.397,83.485 63.882 C 83.092 64.367,82.530 64.671,82.237 64.559 C 81.943 64.446,81.597 64.631,81.467 64.970 C 81.318 65.358,80.977 65.489,80.550 65.325 C 80.163 65.177,79.970 65.228,80.102 65.442 C 80.231 65.650,79.361 66.266,78.170 66.810 C 76.978 67.355,76.002 67.935,76.001 68.100 C 76.001 68.265,75.659 68.400,75.243 68.400 C 74.826 68.400,74.383 68.667,74.258 68.993 C 74.128 69.331,73.765 69.485,73.415 69.350 C 73.077 69.221,72.800 69.314,72.800 69.557 C 72.800 69.801,72.530 70.000,72.200 70.000 C 71.870 70.000,71.600 70.147,71.600 70.326 C 71.600 70.798,68.464 72.400,67.539 72.400 C 67.106 72.400,66.864 72.580,67.000 72.800 C 67.136 73.020,66.896 73.200,66.466 73.200 C 66.037 73.200,65.576 73.485,65.443 73.833 C 65.309 74.182,64.979 74.393,64.708 74.303 C 64.438 74.213,63.864 74.468,63.433 74.870 C 63.002 75.271,62.323 75.600,61.925 75.600 C 61.526 75.600,61.200 75.780,61.200 76.000 C 61.200 76.220,60.930 76.400,60.600 76.400 C 60.270 76.400,60.000 76.580,60.000 76.800 C 60.000 77.020,59.640 77.200,59.200 77.200 C 58.760 77.200,58.400 77.346,58.400 77.525 C 58.400 77.704,57.770 78.098,57.000 78.400 C 56.230 78.702,55.600 79.062,55.600 79.200 C 55.600 79.338,54.970 79.698,54.200 80.000 C 53.430 80.302,52.800 80.696,52.800 80.875 C 52.800 81.054,52.483 81.200,52.096 81.200 C 51.709 81.200,51.168 81.560,50.893 82.000 C 50.605 82.460,49.960 82.800,49.373 82.800 C 48.795 82.800,48.460 82.973,48.600 83.200 C 48.747 83.438,48.271 83.600,47.424 83.600 C 46.641 83.600,46.000 83.736,46.000 83.902 C 46.000 84.069,45.415 84.459,44.700 84.770 C 43.985 85.081,43.310 85.440,43.200 85.568 C 42.722 86.123,41.138 86.800,40.305 86.806 C 39.702 86.810,39.567 86.918,39.902 87.131 C 40.243 87.348,39.956 87.625,39.002 87.999 C 38.231 88.302,37.600 88.696,37.600 88.875 C 37.600 89.054,37.240 89.200,36.800 89.200 C 36.360 89.200,36.000 89.380,36.000 89.600 C 36.000 89.820,35.659 90.000,35.243 90.000 C 34.826 90.000,34.378 90.281,34.246 90.625 C 34.114 90.969,33.824 91.139,33.603 91.002 C 33.381 90.865,33.200 90.943,33.200 91.176 C 33.200 91.409,32.840 91.600,32.400 91.600 C 31.960 91.600,31.599 91.735,31.597 91.900 C 31.593 92.265,29.651 93.200,28.897 93.200 C 28.598 93.200,28.464 93.380,28.600 93.600 C 28.736 93.820,28.496 94.000,28.066 94.000 C 27.637 94.000,27.178 94.281,27.046 94.625 C 26.914 94.969,26.624 95.139,26.403 95.002 C 26.181 94.865,25.999 94.898,25.999 95.076 C 25.998 95.254,25.018 95.847,23.821 96.394 C 19.879 98.195,19.676 98.027,35.533 106.039 C 43.380 110.004,50.700 113.776,51.800 114.422 C 52.900 115.068,54.898 115.943,56.239 116.366 C 58.602 117.112,81.182 128.188,83.200 129.591 C 83.750 129.974,91.130 133.765,99.600 138.017 C 108.070 142.268,115.720 146.216,116.600 146.789 C 118.672 148.139,121.388 149.423,123.400 150.005 C 125.115 150.502,149.890 162.699,150.199 163.199 C 150.301 163.363,157.543 167.065,166.292 171.423 C 175.041 175.782,182.681 179.677,183.268 180.079 C 185.268 181.446,188.595 183.044,190.600 183.601 C 191.700 183.906,194.101 184.933,195.935 185.884 C 197.770 186.834,199.198 187.384,199.110 187.106 C 198.905 186.463,191.676 182.823,190.577 182.810 C 189.698 182.799,184.806 180.462,183.678 179.514 C 183.305 179.201,175.980 175.457,167.400 171.194 C 158.820 166.932,151.080 162.973,150.200 162.397 C 147.537 160.654,124.221 149.200,123.336 149.200 C 122.502 149.200,117.789 146.965,116.937 146.165 C 116.682 145.926,109.302 142.154,100.537 137.782 C 91.772 133.410,84.496 129.685,84.369 129.504 C 83.914 128.858,57.159 115.600,56.288 115.589 C 55.800 115.583,54.320 114.965,53.000 114.216 C 51.680 113.466,44.255 109.648,36.500 105.729 C 21.050 97.923,21.827 98.434,23.800 97.372 C 24.570 96.957,25.200 96.449,25.200 96.242 C 25.200 96.036,25.318 95.985,25.463 96.130 C 25.608 96.275,25.923 96.231,26.163 96.033 C 26.403 95.836,27.905 95.020,29.500 94.221 C 31.095 93.421,32.400 92.565,32.400 92.317 C 32.400 92.069,32.501 91.967,32.623 92.090 C 32.746 92.213,34.121 91.613,35.679 90.757 C 37.236 89.901,38.651 89.200,38.822 89.200 C 38.993 89.200,39.193 89.065,39.267 88.900 C 39.390 88.622,41.690 87.318,45.300 85.480 C 46.125 85.060,46.800 84.572,46.800 84.396 C 46.800 84.219,47.139 84.164,47.553 84.272 C 48.443 84.504,50.800 83.380,50.800 82.723 C 50.800 82.472,50.915 82.381,51.055 82.522 C 51.195 82.662,51.808 82.422,52.417 81.988 C 53.025 81.555,53.699 81.200,53.913 81.200 C 54.127 81.200,54.524 80.932,54.796 80.604 C 55.068 80.277,55.430 80.095,55.600 80.200 C 55.770 80.305,56.132 80.123,56.404 79.796 C 56.676 79.468,57.131 79.200,57.416 79.200 C 57.700 79.200,57.993 79.065,58.067 78.900 C 58.140 78.735,59.640 77.882,61.400 77.005 C 63.160 76.128,64.690 75.297,64.800 75.158 C 64.910 75.019,65.720 74.552,66.600 74.120 C 68.978 72.953,71.318 71.592,72.031 70.959 C 72.379 70.652,72.802 70.400,72.971 70.400 C 73.353 70.400,76.127 69.123,76.400 68.821 C 76.675 68.518,78.127 67.685,81.200 66.070 C 82.630 65.319,83.890 64.590,84.000 64.452 C 84.417 63.926,86.786 62.400,87.184 62.400 C 87.413 62.400,87.600 62.220,87.600 62.000 C 87.600 61.780,87.887 61.600,88.238 61.600 C 88.589 61.600,89.376 61.244,89.986 60.810 C 90.596 60.375,91.569 59.840,92.148 59.620 C 92.726 59.400,93.200 59.041,93.200 58.822 C 93.200 58.604,93.470 58.529,93.800 58.655 C 94.130 58.782,94.400 58.730,94.400 58.540 C 94.400 58.351,94.985 57.941,95.700 57.630 C 96.415 57.319,98.170 56.351,99.600 55.479 C 101.030 54.606,102.425 53.887,102.700 53.880 C 102.975 53.873,103.200 53.741,103.200 53.588 C 103.200 53.168,108.185 50.800,109.069 50.800 C 109.493 50.800,110.054 50.586,110.316 50.324 C 110.578 50.062,111.029 49.813,111.319 49.771 C 112.113 49.654,116.266 47.244,116.816 46.580 C 117.081 46.261,117.531 46.000,117.816 46.000 C 118.100 46.000,118.393 45.849,118.467 45.664 C 118.540 45.479,120.130 44.534,122.000 43.565 C 123.870 42.595,125.521 41.634,125.668 41.429 C 125.815 41.224,126.204 41.017,126.531 40.969 C 126.858 40.921,128.232 40.233,129.584 39.441 C 130.937 38.648,132.191 38.000,132.372 38.000 C 132.554 38.000,132.930 37.726,133.208 37.390 C 133.486 37.055,133.807 36.874,133.922 36.988 C 134.036 37.103,134.685 36.788,135.365 36.289 C 136.044 35.790,137.770 34.783,139.200 34.050 C 140.630 33.318,142.610 32.271,143.600 31.724 C 144.590 31.177,146.390 30.190,147.600 29.530 C 148.810 28.871,150.160 28.005,150.600 27.605 C 151.040 27.206,152.659 26.216,154.197 25.405 C 155.736 24.595,157.086 23.812,157.197 23.666 C 157.309 23.520,158.975 22.605,160.900 21.634 C 162.825 20.662,164.400 19.706,164.400 19.510 C 164.400 19.314,164.568 19.257,164.774 19.384 C 164.980 19.511,166.005 19.072,167.052 18.408 C 168.100 17.743,169.342 17.200,169.812 17.200 C 170.691 17.200,181.935 11.134,185.258 8.867 C 186.280 8.170,187.306 7.600,187.538 7.600 C 187.770 7.600,188.104 7.375,188.280 7.100 C 188.456 6.825,190.040 5.890,191.800 5.023 C 193.560 4.155,195.128 3.255,195.285 3.023 C 195.442 2.790,195.712 2.592,195.885 2.583 C 196.058 2.574,196.776 2.259,197.480 1.883 C 199.118 1.009,200.211 1.019,201.538 1.922 C 202.122 2.319,204.400 3.534,206.600 4.622 C 208.800 5.710,210.690 6.708,210.800 6.839 C 210.910 6.971,211.900 7.577,213.000 8.186 C 214.100 8.795,215.656 9.813,216.458 10.447 C 217.259 11.081,218.204 11.600,218.558 11.600 C 218.911 11.600,219.201 11.735,219.203 11.900 C 219.205 12.065,219.610 12.389,220.103 12.619 C 222.374 13.680,226.213 15.823,226.333 16.097 C 226.407 16.263,226.801 16.400,227.210 16.400 C 227.618 16.400,228.064 16.580,228.200 16.800 C 228.336 17.020,228.790 17.200,229.210 17.200 C 230.052 17.200,232.661 18.298,233.600 19.047 C 233.930 19.311,235.640 20.280,237.400 21.202 C 239.160 22.124,240.825 23.062,241.100 23.288 C 241.375 23.513,241.600 23.577,241.600 23.429 C 241.600 23.280,242.185 23.589,242.900 24.115 C 243.615 24.640,245.190 25.569,246.400 26.178 C 247.610 26.788,248.960 27.599,249.400 27.981 C 250.277 28.743,254.082 31.013,256.600 32.278 C 260.161 34.066,261.026 34.539,261.600 35.011 C 261.930 35.283,262.650 35.641,263.200 35.807 C 263.750 35.972,264.294 36.253,264.409 36.430 C 264.524 36.607,266.594 37.769,269.009 39.012 C 271.424 40.255,273.597 41.434,273.837 41.633 C 274.077 41.831,274.392 41.875,274.537 41.730 C 274.682 41.585,274.800 41.687,274.800 41.955 C 274.800 42.224,275.790 42.897,277.000 43.451 C 278.210 44.005,279.200 44.620,279.200 44.817 C 279.200 45.014,279.447 45.080,279.748 44.964 C 280.050 44.849,280.409 45.046,280.546 45.402 C 280.682 45.759,280.962 45.947,281.167 45.820 C 281.372 45.694,282.105 46.106,282.795 46.737 C 283.958 47.799,287.171 49.637,287.889 49.651 C 288.060 49.654,288.500 49.928,288.866 50.259 C 289.232 50.591,289.862 50.811,290.266 50.748 C 290.670 50.686,291.761 51.122,292.692 51.717 C 293.623 52.313,294.748 52.800,295.192 52.800 C 295.667 52.800,296.000 53.065,296.000 53.443 C 296.000 53.831,296.223 54.000,296.562 53.870 C 296.872 53.751,297.425 53.985,297.791 54.390 C 298.158 54.795,299.030 55.357,299.729 55.639 C 300.428 55.920,301.675 56.569,302.500 57.080 C 303.325 57.592,304.006 57.873,304.013 57.705 C 304.020 57.537,304.245 57.678,304.513 58.017 C 304.781 58.356,305.720 58.969,306.600 59.379 C 307.480 59.789,308.830 60.521,309.600 61.004 C 310.370 61.488,311.090 61.867,311.200 61.846 C 311.433 61.802,314.683 63.852,317.011 65.511 C 317.897 66.143,318.842 66.586,319.111 66.496 C 319.380 66.407,319.600 66.511,319.600 66.728 C 319.600 66.946,320.815 67.726,322.300 68.462 C 323.785 69.198,325.606 70.202,326.347 70.694 C 327.088 71.186,327.855 71.490,328.050 71.369 C 328.246 71.248,328.514 71.431,328.646 71.775 C 328.778 72.119,329.064 72.400,329.281 72.400 C 329.499 72.400,330.154 72.725,330.738 73.122 C 331.322 73.519,332.610 74.190,333.600 74.614 C 334.590 75.038,335.619 75.658,335.887 75.992 C 336.155 76.327,336.380 76.437,336.387 76.238 C 336.394 76.039,336.715 76.129,337.100 76.438 C 337.911 77.089,339.013 77.740,341.800 79.212 C 345.514 81.175,348.594 82.918,349.662 83.661 C 350.246 84.067,350.955 84.400,351.238 84.400 C 351.721 84.400,357.566 87.166,358.000 87.600 C 358.339 87.939,359.670 88.689,363.000 90.416 C 364.760 91.329,366.470 92.295,366.800 92.562 C 367.130 92.830,368.312 93.507,369.427 94.067 C 370.542 94.628,371.937 95.402,372.527 95.789 C 373.117 96.176,373.603 96.336,373.606 96.146 C 373.609 95.956,373.745 95.980,373.906 96.200 C 374.733 97.324,378.000 98.441,378.000 97.600 C 378.000 97.380,377.640 97.200,377.200 97.200 C 376.760 97.200,376.400 97.020,376.400 96.800 C 376.400 96.580,376.029 96.400,375.576 96.400 C 375.123 96.400,374.864 96.220,375.000 96.000 C 375.142 95.770,374.770 95.597,374.124 95.594 C 373.217 95.589,373.116 95.505,373.600 95.159 C 374.079 94.817,374.014 94.772,373.276 94.934 C 372.695 95.062,372.270 94.926,372.133 94.569 C 372.013 94.256,371.563 94.000,371.134 94.000 C 370.704 94.000,370.464 93.820,370.600 93.600 C 370.736 93.380,370.477 93.200,370.024 93.200 C 369.571 93.200,369.200 93.057,369.200 92.883 C 369.200 92.708,368.615 92.391,367.900 92.179 C 367.185 91.966,366.645 91.569,366.700 91.296 C 366.758 91.007,366.383 90.800,365.800 90.800 C 365.250 90.800,364.800 90.620,364.800 90.400 C 364.800 90.180,364.440 90.000,364.000 90.000 C 363.560 90.000,363.200 89.820,363.200 89.600 C 363.200 89.380,362.840 89.200,362.400 89.200 C 361.960 89.200,361.600 89.020,361.600 88.800 C 361.600 88.580,361.319 88.400,360.976 88.400 C 360.633 88.400,360.464 88.220,360.600 88.000 C 360.740 87.773,360.404 87.600,359.824 87.600 C 359.261 87.600,358.800 87.454,358.800 87.275 C 358.800 87.096,358.170 86.702,357.400 86.400 C 356.630 86.098,356.000 85.704,356.000 85.525 C 356.000 85.346,355.640 85.200,355.200 85.200 C 354.760 85.200,354.400 85.020,354.400 84.800 C 354.400 84.580,354.130 84.400,353.800 84.400 C 353.470 84.400,353.200 84.220,353.200 84.000 C 353.200 83.780,352.572 83.600,351.803 83.600 C 350.840 83.600,350.252 83.352,349.907 82.800 C 349.632 82.360,349.091 82.000,348.704 82.000 C 348.317 82.000,348.000 81.801,348.000 81.557 C 348.000 81.314,347.735 81.216,347.411 81.341 C 347.086 81.465,346.681 81.339,346.511 81.060 C 346.340 80.781,345.617 80.318,344.905 80.030 C 344.193 79.742,343.709 79.348,343.829 79.154 C 343.949 78.959,343.802 78.800,343.503 78.800 C 342.749 78.800,340.807 77.865,340.803 77.500 C 340.801 77.335,340.440 77.200,340.000 77.200 C 339.560 77.200,339.195 77.065,339.189 76.900 C 339.183 76.735,338.206 76.157,337.017 75.616 C 335.829 75.075,334.944 74.490,335.052 74.316 C 335.159 74.142,334.877 74.000,334.424 74.000 C 333.971 74.000,333.600 73.820,333.600 73.600 C 333.600 73.380,333.366 73.200,333.080 73.200 C 332.344 73.200,330.407 72.259,330.403 71.900 C 330.401 71.735,330.130 71.600,329.800 71.600 C 329.470 71.600,329.200 71.420,329.200 71.200 C 329.200 70.980,328.840 70.800,328.400 70.800 C 327.960 70.800,327.600 70.620,327.600 70.400 C 327.600 70.180,327.330 70.000,327.000 70.000 C 326.670 70.000,326.400 69.801,326.400 69.557 C 326.400 69.314,326.123 69.221,325.785 69.350 C 325.435 69.485,325.072 69.331,324.942 68.993 C 324.817 68.667,324.374 68.400,323.957 68.400 C 323.541 68.400,323.200 68.220,323.200 68.000 C 323.200 67.780,322.840 67.600,322.400 67.600 C 321.960 67.600,321.600 67.454,321.600 67.275 C 321.600 67.096,320.970 66.702,320.200 66.400 C 319.430 66.098,318.800 65.704,318.800 65.525 C 318.800 65.346,318.519 65.200,318.176 65.200 C 317.833 65.200,317.667 65.016,317.806 64.790 C 317.945 64.565,317.911 64.406,317.730 64.437 C 316.920 64.578,316.373 64.367,316.600 64.000 C 316.736 63.780,316.477 63.600,316.024 63.600 C 315.571 63.600,315.200 63.420,315.200 63.200 C 315.200 62.980,314.930 62.800,314.600 62.800 C 314.270 62.800,314.000 62.620,314.000 62.400 C 314.000 62.180,313.629 62.000,313.176 62.000 C 312.723 62.000,312.464 61.820,312.600 61.600 C 312.736 61.380,312.477 61.200,312.024 61.200 C 311.571 61.200,311.200 61.020,311.200 60.800 C 311.200 60.580,310.829 60.400,310.376 60.400 C 309.923 60.400,309.664 60.220,309.800 60.000 C 309.940 59.773,309.604 59.600,309.024 59.600 C 308.461 59.600,308.000 59.454,308.000 59.275 C 308.000 59.096,307.370 58.702,306.600 58.400 C 305.830 58.098,305.200 57.704,305.200 57.525 C 305.200 57.346,304.930 57.200,304.600 57.200 C 304.270 57.200,304.000 57.020,304.000 56.800 C 304.000 56.580,303.640 56.400,303.200 56.400 C 302.760 56.400,302.400 56.220,302.400 56.000 C 302.400 55.780,302.040 55.600,301.600 55.600 C 301.160 55.600,300.800 55.420,300.800 55.200 C 300.800 54.980,300.429 54.800,299.976 54.800 C 299.523 54.800,299.264 54.620,299.400 54.400 C 299.536 54.180,299.277 54.000,298.824 54.000 C 298.371 54.000,298.000 53.809,298.000 53.576 C 298.000 53.343,297.835 53.255,297.632 53.380 C 297.430 53.505,296.993 53.336,296.661 53.004 C 296.329 52.672,295.938 52.400,295.793 52.400 C 295.647 52.400,295.171 51.995,294.734 51.500 C 294.297 51.005,294.053 50.825,294.193 51.100 C 294.333 51.375,294.257 51.600,294.024 51.600 C 293.791 51.600,293.600 51.420,293.600 51.200 C 293.600 50.980,293.229 50.800,292.776 50.800 C 292.323 50.800,292.041 50.657,292.149 50.483 C 292.256 50.309,291.772 50.123,291.072 50.070 C 290.373 50.018,289.740 49.800,289.667 49.587 C 289.593 49.374,289.188 49.200,288.767 49.200 C 288.345 49.200,288.000 49.009,288.000 48.776 C 288.000 48.543,287.835 48.455,287.632 48.580 C 287.430 48.705,286.981 48.524,286.635 48.178 C 286.289 47.832,285.857 47.641,285.674 47.754 C 285.236 48.025,283.989 46.553,284.333 46.170 C 284.480 46.006,284.291 45.983,283.913 46.119 C 283.535 46.254,283.129 46.208,283.010 46.017 C 282.892 45.825,283.021 45.589,283.298 45.492 C 283.574 45.395,283.268 45.312,282.617 45.308 C 281.966 45.304,281.366 45.097,281.283 44.850 C 281.201 44.602,280.878 44.400,280.567 44.400 C 280.255 44.400,280.000 44.220,280.000 44.000 C 280.000 43.780,279.640 43.600,279.200 43.600 C 278.760 43.600,278.400 43.420,278.400 43.200 C 278.400 42.980,278.040 42.800,277.600 42.800 C 277.160 42.800,276.800 42.620,276.800 42.400 C 276.800 42.180,276.440 42.000,276.000 42.000 C 275.560 42.000,275.200 41.854,275.200 41.675 C 275.200 41.496,274.570 41.102,273.800 40.800 C 273.030 40.498,272.400 40.104,272.400 39.925 C 272.400 39.746,272.130 39.600,271.800 39.600 C 271.470 39.600,271.200 39.420,271.200 39.200 C 271.200 38.980,270.829 38.800,270.376 38.800 C 269.923 38.800,269.664 38.620,269.800 38.400 C 269.940 38.173,269.604 38.000,269.024 38.000 C 268.461 38.000,268.000 37.854,268.000 37.675 C 268.000 37.496,267.378 37.105,266.618 36.807 C 265.858 36.509,265.346 36.087,265.480 35.871 C 265.614 35.654,265.530 35.596,265.294 35.742 C 265.058 35.888,264.593 35.736,264.261 35.404 C 263.929 35.072,263.374 34.800,263.029 34.800 C 262.683 34.800,262.400 34.620,262.400 34.400 C 262.400 34.180,262.040 34.000,261.600 34.000 C 261.160 34.000,260.800 33.820,260.800 33.600 C 260.800 33.380,260.440 33.200,260.000 33.200 C 259.560 33.200,259.200 33.020,259.200 32.800 C 259.200 32.580,258.930 32.400,258.600 32.400 C 258.270 32.400,258.000 32.141,258.000 31.824 C 258.000 31.507,257.792 31.119,257.538 30.962 C 257.252 30.785,257.185 30.852,257.362 31.138 C 257.519 31.392,257.467 31.600,257.247 31.600 C 257.027 31.600,256.734 31.417,256.596 31.193 C 256.458 30.970,256.176 30.891,255.970 31.019 C 255.763 31.146,255.486 30.969,255.354 30.625 C 255.222 30.281,254.774 30.000,254.357 30.000 C 253.941 30.000,253.600 29.820,253.600 29.600 C 253.600 29.380,253.240 29.200,252.800 29.200 C 252.360 29.200,252.000 29.020,252.000 28.800 C 252.000 28.580,251.775 28.400,251.500 28.400 C 250.814 28.399,248.752 26.581,249.074 26.260 C 249.217 26.117,248.853 26.000,248.267 26.000 C 247.680 26.000,247.200 25.820,247.200 25.600 C 247.200 25.380,246.829 25.200,246.376 25.200 C 245.923 25.200,245.664 25.020,245.800 24.800 C 245.936 24.580,245.802 24.400,245.503 24.400 C 244.749 24.400,242.807 23.465,242.803 23.100 C 242.801 22.935,242.519 22.800,242.176 22.800 C 241.806 22.800,241.669 22.612,241.839 22.337 C 242.036 22.018,241.849 21.946,241.238 22.106 C 240.670 22.255,240.273 22.133,240.133 21.769 C 240.013 21.456,239.574 21.200,239.157 21.200 C 238.741 21.200,238.400 21.020,238.400 20.800 C 238.400 20.580,238.040 20.400,237.600 20.400 C 237.160 20.400,236.800 20.220,236.800 20.000 C 236.800 19.780,236.530 19.600,236.200 19.600 C 235.870 19.600,235.600 19.420,235.600 19.200 C 235.600 18.980,235.229 18.800,234.776 18.800 C 234.323 18.800,234.064 18.620,234.200 18.400 C 234.336 18.180,234.077 18.000,233.624 18.000 C 233.171 18.000,232.800 17.820,232.800 17.600 C 232.800 17.380,232.440 17.200,232.000 17.200 C 231.560 17.200,231.200 17.020,231.200 16.800 C 231.200 16.580,230.660 16.400,230.000 16.400 C 229.340 16.400,228.800 16.220,228.800 16.000 C 228.800 15.780,228.476 15.600,228.080 15.600 C 227.186 15.600,225.207 14.706,225.203 14.300 C 225.201 14.135,224.930 14.000,224.600 14.000 C 224.270 14.000,224.000 13.820,224.000 13.600 C 224.000 13.380,223.640 13.200,223.200 13.200 C 222.760 13.200,222.400 13.020,222.400 12.800 C 222.400 12.580,222.029 12.400,221.576 12.400 C 221.123 12.400,220.864 12.220,221.000 12.000 C 221.136 11.780,220.877 11.600,220.424 11.600 C 219.971 11.600,219.600 11.420,219.600 11.200 C 219.600 10.980,219.246 10.800,218.814 10.800 C 218.382 10.800,217.413 10.260,216.661 9.600 C 215.909 8.940,215.093 8.400,214.847 8.400 C 214.601 8.400,214.400 8.220,214.400 8.000 C 214.400 7.780,214.130 7.600,213.800 7.600 C 213.470 7.600,213.200 7.442,213.200 7.250 C 213.200 7.058,212.682 6.796,212.048 6.670 C 211.415 6.543,210.618 6.160,210.277 5.820 C 209.936 5.479,209.454 5.200,209.205 5.200 C 208.956 5.200,208.864 5.020,209.000 4.800 C 209.140 4.573,208.804 4.400,208.224 4.400 C 207.661 4.400,207.200 4.254,207.200 4.075 C 207.200 3.896,206.570 3.502,205.800 3.200 C 205.030 2.898,204.400 2.504,204.400 2.325 C 204.400 2.146,204.040 2.000,203.600 2.000 C 203.160 2.000,202.466 1.666,202.058 1.258 C 201.224 0.424,199.843 0.049,198.500 0.293 " stroke="none" fill="#cccccc" fill-rule="evenodd"></path></g></svg>