<?xml version="1.0" standalone="no"?>
<!DOCTYPE svg PUBLIC "-//W3C//DTD SVG 20010904//EN"
 "http://www.w3.org/TR/2001/REC-SVG-20010904/DTD/svg10.dtd">
<svg version="1.0" xmlns="http://www.w3.org/2000/svg"
 width="225.000000pt" height="225.000000pt" viewBox="0 0 225.000000 225.000000"
 preserveAspectRatio="xMidYMid meet">

<g transform="translate(0.000000,225.000000) scale(0.100000,-0.100000)"
fill="#ffffff" stroke="none">
<path d="M395 1631 c-78 -22 -119 -43 -180 -89 -216 -163 -271 -475 -125 -703
42 -64 140 -153 204 -184 239 -116 530 -36 667 183 13 21 21 22 124 22 l110 0
85 85 85 85 61 -61 62 -62 31 22 c17 12 31 26 31 30 0 5 16 21 36 36 l36 27
62 -61 62 -61 59 60 c33 33 64 60 69 60 6 0 38 -27 72 -61 l61 -60 116 121
c70 72 117 129 117 141 0 12 -40 61 -97 120 l-96 99 -532 0 -532 0 -25 38
c-14 20 -45 57 -69 82 -123 124 -330 179 -494 131z m-10 -395 c66 -51 69 -150
6 -210 -56 -54 -133 -53 -191 3 -37 35 -40 42 -40 90 0 64 20 101 69 130 47
28 108 23 156 -13z"/>
</g>
</svg>
