<svg id="Layer_1" data-name="Layer 1" xmlns="http://www.w3.org/2000/svg" viewBox="0 0 80 80"><defs><style>.cls-1{fill:#f3f3f3;}.cls-2{fill:#1e4065;}.cls-3{fill:#0c1f44;}.cls-4{fill:#fff;}.cls-5{fill:#cbcbcb;}.cls-6{fill:#eaaa3b;}</style></defs><title>icon-blockchain-full-color-80h</title><circle cx="40.4" cy="40.4" r="39.6"/><circle class="cls-1" cx="39.6" cy="39.6" r="39.6"/><path d="M76.14,38.94A37.18,37.18,0,1,1,39,1.77,37.18,37.18,0,0,1,76.14,38.94Z"/><path class="cls-2" d="M76.78,39.59A37.17,37.17,0,1,1,39.61,2.41,37.17,37.17,0,0,1,76.78,39.59Z"/><path class="cls-3" d="M69.87,22.51A34.75,34.75,0,1,0,20.12,68.35C23.94,43.8,44.77,24.28,69.87,22.51Z"/><path class="cls-4" d="M47.51,16.82,40.57,14.1a1.71,1.71,0,0,0-1.22,0l-6.94,2.72a.63.63,0,0,0,0,1.17l7.32,3.38a.64.64,0,0,0,.54,0L47.55,18A.63.63,0,0,0,47.51,16.82Z"/><path class="cls-4" d="M39.18,22.15,32.38,19a.57.57,0,0,0-.8.51V27a.56.56,0,0,0,.3.5l6.79,3.62a.57.57,0,0,0,.84-.5V22.66A.56.56,0,0,0,39.18,22.15Z"/><path class="cls-5" d="M47.54,19l-6.8,3.14a.56.56,0,0,0-.33.51V30.6a.57.57,0,0,0,.84.5L48,27.48a.56.56,0,0,0,.3-.5V19.52A.57.57,0,0,0,47.54,19Z"/><path class="cls-4" d="M28.44,34.09,21.5,31.37a1.74,1.74,0,0,0-1.23,0l-6.94,2.72a.64.64,0,0,0,0,1.17l7.32,3.39a.7.7,0,0,0,.53,0l7.32-3.39A.64.64,0,0,0,28.44,34.09Z"/><path class="cls-4" d="M20.1,39.42l-6.79-3.14a.57.57,0,0,0-.81.52v7.45a.58.58,0,0,0,.3.5l6.8,3.62a.57.57,0,0,0,.83-.5V39.94A.59.59,0,0,0,20.1,39.42Z"/><path class="cls-5" d="M28.46,36.28l-6.79,3.14a.59.59,0,0,0-.33.52v7.93a.56.56,0,0,0,.83.5L29,44.75a.58.58,0,0,0,.3-.5V36.8A.57.57,0,0,0,28.46,36.28Z"/><path class="cls-4" d="M47.51,50.61,40.57,47.9a1.61,1.61,0,0,0-1.22,0l-6.94,2.71a.64.64,0,0,0,0,1.18l7.32,3.38a.64.64,0,0,0,.54,0l7.32-3.38A.64.64,0,0,0,47.51,50.61Z"/><path class="cls-4" d="M39.18,55.94l-6.8-3.14a.57.57,0,0,0-.8.52v7.45a.56.56,0,0,0,.3.5l6.79,3.62a.57.57,0,0,0,.84-.5V56.46A.59.59,0,0,0,39.18,55.94Z"/><path class="cls-5" d="M47.54,52.8l-6.8,3.14a.59.59,0,0,0-.33.52v7.93a.57.57,0,0,0,.84.5L48,61.27a.56.56,0,0,0,.3-.5V53.32A.57.57,0,0,0,47.54,52.8Z"/><path class="cls-4" d="M66.89,34.09,60,31.37a1.74,1.74,0,0,0-1.23,0l-6.94,2.72a.64.64,0,0,0,0,1.17l7.32,3.39a.7.7,0,0,0,.53,0l7.32-3.39A.64.64,0,0,0,66.89,34.09Z"/><path class="cls-4" d="M58.55,39.42l-6.79-3.14a.57.57,0,0,0-.81.52v7.45a.58.58,0,0,0,.3.5l6.8,3.62a.56.56,0,0,0,.83-.5V39.94A.59.59,0,0,0,58.55,39.42Z"/><path class="cls-5" d="M66.91,36.28l-6.79,3.14a.59.59,0,0,0-.33.52v7.93a.57.57,0,0,0,.83.5l6.8-3.62a.58.58,0,0,0,.3-.5V36.8A.57.57,0,0,0,66.91,36.28Z"/><circle class="cls-6" cx="29.58" cy="32.32" r="0.81"/><circle class="cls-6" cx="31.19" cy="29.74" r="0.81"/><circle class="cls-6" cx="50.59" cy="32.32" r="0.81"/><circle class="cls-6" cx="48.97" cy="29.74" r="0.81"/><circle class="cls-6" cx="50.59" cy="46.71" r="0.81"/><circle class="cls-6" cx="48.97" cy="48.97" r="0.81"/><circle class="cls-6" cx="29.58" cy="46.71" r="0.81"/><circle class="cls-6" cx="31.19" cy="48.97" r="0.81"/></svg>