<svg id="Layer_1" data-name="Layer 1" xmlns="http://www.w3.org/2000/svg" viewBox="0 0 60 60"><defs><style>.cls-1{fill:#777;}</style></defs><title>icon-eye-show-password</title><path class="cls-1" d="M59.55,28.83C59,28.23,46.13,14.18,30,14.18S1,28.23.45,28.83a1.75,1.75,0,0,0,0,2.34C1,31.77,13.87,45.82,30,45.82s29-14,29.55-14.65A1.75,1.75,0,0,0,59.55,28.83ZM30,42.3A12.3,12.3,0,1,1,42.3,30,12.32,12.32,0,0,1,30,42.3Z"/><path class="cls-1" d="M31.76,26.48A5.28,5.28,0,0,1,34,22.2a8.71,8.71,0,0,0-4-1,8.79,8.79,0,1,0,8.64,10.27A5.24,5.24,0,0,1,31.76,26.48Z"/></svg>