<?xml version="1.0" encoding="utf-8"?>
<!-- Generator: Adobe Illustrator 23.1.1, SVG Export Plug-In . SVG Version: 6.00 Build 0)  -->
<svg version="1.1" id="Layer_1" xmlns="http://www.w3.org/2000/svg" xmlns:xlink="http://www.w3.org/1999/xlink" x="0px" y="0px"
	 viewBox="0 0 60 60" style="enable-background:new 0 0 60 60;" xml:space="preserve">
<style type="text/css">
	.st0{fill:#306EB3;}
</style>
<title>icon-address-green-book-16h-proximax-sirius-wallet</title>
<g>
	<path class="st0" d="M48.4,19H29.9c0.5,1.2,0.8,2.5,0.9,3.8c0.3,0.2,0.6,0.6,0.8,0.9h16.9c0.7,0,1.3-0.6,1.3-1.3v-2.1
		C49.7,19.6,49.1,19.1,48.4,19C48.4,19.1,48.4,19,48.4,19z"/>
</g>
<g>
	<path class="st0" d="M49.7,31v-2.1c0-0.7-0.6-1.3-1.3-1.3c0,0,0,0,0,0H31.9c-0.3,1.4-1.2,2.6-2.5,3.2c0,0.1-0.1,0.1-0.1,0.2v1.2
		h19.2C49.1,32.3,49.7,31.7,49.7,31z"/>
</g>
<g>
	<path class="st0" d="M48.4,36.2H34.8c0.7,1.1,1.1,2.5,1.2,3.8v0.9h12.4c0.7,0,1.3-0.6,1.3-1.3c0,0,0,0,0,0v-2.1
		C49.7,36.7,49.1,36.2,48.4,36.2z"/>
</g>
<g>
	<path class="st0" d="M52.2,6H7.8C3.5,6.1,0,9.6,0,14v32c0,4.4,3.4,7.9,7.8,8h44.4c4.4-0.1,7.8-3.6,7.8-8V14C60,9.6,56.6,6.1,52.2,6
		z M56.3,46c0,2.3-1.8,4.2-4.1,4.2H7.8c-2.3,0-4.1-1.9-4.1-4.2V14c0-2.3,1.8-4.2,4.1-4.2h44.4c2.3,0,4.1,1.9,4.1,4.2L56.3,46z"/>
</g>
<g>
	<path class="st0" d="M23.6,37c-0.7-0.3-1.1-1-1.1-1.7v-2c0.1-0.2,0.3-0.4,0.5-0.6c0.7-1,1.2-2,1.6-3.1c0.7-0.2,1.1-0.8,1.1-1.5V26
		c0-0.4-0.2-0.9-0.5-1.2v-3c0,0,0.6-4.7-5.9-4.7s-5.9,4.7-5.9,4.7v3c-0.3,0.3-0.5,0.7-0.5,1.2v2.1c0,0.5,0.3,1,0.7,1.3
		c0.4,1.4,1,2.8,1.9,3.9v1.9c0,0.7-0.4,1.3-1,1.7l-4.8,2.6c-0.3,0.1-0.5,0.3-0.7,0.5c6.1,4.4,14.2,4.4,20.3,0
		c-0.2-0.2-0.5-0.4-0.8-0.5L23.6,37z"/>
</g>
</svg>
