<?xml version="1.0" encoding="utf-8"?>
<!-- Generator: Adobe Illustrator 23.1.1, SVG Export Plug-In . SVG Version: 6.00 Build 0)  -->
<svg version="1.1" id="Layer_1" xmlns="http://www.w3.org/2000/svg" xmlns:xlink="http://www.w3.org/1999/xlink" x="0px" y="0px"
	 viewBox="0 0 60 60" style="enable-background:new 0 0 60 60;" xml:space="preserve">
<style type="text/css">
	.st0{fill:#306EB5;}
	.st1{fill:none;}
</style>
<title>icon-usd-blue</title>
<path class="st0" d="M32.4,27v-6.1c2,0.5,3.8,1.4,5.4,2.8l3.4-4.5c-2.4-2.2-5.5-3.5-8.8-3.8v-4.1h-4.1v4c-5.8,0.6-9.3,4.3-9.3,8.7
	c0,5.9,4.8,7.5,9.3,8.6v6.8c-2.6-0.5-5-1.8-6.9-3.7l-3.3,4.7c2.7,2.7,6.4,4.3,10.2,4.5v3.9h4.1v-3.9c6.3-0.7,9.4-4.3,9.4-9.1
	C41.9,29.8,36.9,28.1,32.4,27z M28.3,25.9c-1.8-0.5-3-1.2-3-2.5c0-1.5,1.1-2.5,3-2.8V25.9z M32.4,39.5v-5.8c1.9,0.6,3.2,1.3,3.2,2.8
	S34.6,39,32.4,39.5L32.4,39.5z M30,0C13.4,0,0,13.4,0,30s13.4,30,30,30s30-13.4,30-30S46.6,0,30,0z M30,58.1
	C14.5,58.1,1.9,45.5,1.9,30S14.5,1.9,30,1.9S58.1,14.5,58.1,30c0,0,0,0,0,0C58.1,45.5,45.5,58.1,30,58.1z"/>
<rect x="-245" y="-484" class="st1" width="1366" height="780"/>
</svg>
