<?xml version="1.0" standalone="no"?>
<!DOCTYPE svg PUBLIC "-//W3C//DTD SVG 20010904//EN"
 "http://www.w3.org/TR/2001/REC-SVG-20010904/DTD/svg10.dtd">
<svg version="1.0" xmlns="http://www.w3.org/2000/svg"
 width="128.000000pt" height="128.000000pt" viewBox="0 0 128.000000 128.000000"
 preserveAspectRatio="xMidYMid meet">

<g transform="translate(0.000000,128.000000) scale(0.100000,-0.100000)"
fill="#ffffff" stroke="none">
<path d="M300 1114 c-108 -47 -164 -181 -129 -308 13 -46 76 -118 125 -141 76
-36 187 -15 252 47 37 37 72 122 72 177 0 89 -57 183 -133 220 -52 25 -136 27
-187 5z"/>
<path d="M845 1081 c-72 -32 -125 -113 -125 -191 0 -76 55 -161 127 -195 54
-26 133 -17 181 22 81 65 106 140 78 235 -34 117 -156 177 -261 129z"/>
<path d="M788 611 c-25 -10 -60 -28 -77 -41 l-31 -22 49 -54 c60 -65 98 -141
114 -223 l12 -61 214 0 214 0 -6 81 c-12 151 -95 271 -222 318 -73 27 -200 28
-267 2z"/>
<path d="M275 547 c-145 -49 -237 -152 -265 -297 -5 -29 -10 -66 -10 -81 l0
-29 386 0 387 0 -5 75 c-9 138 -90 255 -216 313 -68 31 -210 41 -277 19z"/>
</g>
</svg>
