<svg id="Layer_1" data-name="Layer 1" xmlns="http://www.w3.org/2000/svg" viewBox="0 0 32 32"><defs><style>.cls-1{fill:#666;}</style></defs><title>icon-copy-notification-off-gray</title><path class="cls-1" d="M9.89,28.69H21C20.48,30.58,18.18,32,15.44,32S10.41,30.58,9.89,28.69ZM31,23.8c0,.1,0,.2,0,.31a1.84,1.84,0,0,1,0,.33.54.54,0,0,1,0,.1v.06c0,.06-.05.11-.07.17l-.06.16-.16.29a.56.56,0,0,0-.05.08,3.76,3.76,0,0,1-.25.31l0,0a2.93,2.93,0,0,1-2.08.85H3.78a2.93,2.93,0,0,1-2.08-.85l0,0a3.76,3.76,0,0,1-.25-.31.56.56,0,0,0,0-.08l-.16-.29-.06-.16c0-.06,0-.11-.07-.17v-.06a.54.54,0,0,1,0-.1,1.84,1.84,0,0,1,0-.33c0-.11,0-.21,0-.31a2.57,2.57,0,0,1,.07-.4c0-.1,0-.2.06-.3a2.26,2.26,0,0,1,.17-.35,2.44,2.44,0,0,1,.14-.28,3.28,3.28,0,0,1,.31-.34L1.91,22A9.87,9.87,0,0,0,4,19.51l.11-.19c.13-.23.26-.46.37-.69s.19-.44.28-.67.07-.16.1-.25c.11-.3.21-.62.29-.93v0a10,10,0,0,0,.29-2.05h0c0-.1,0-.21,0-.31V10.3A10.41,10.41,0,0,1,16,0h0A10.41,10.41,0,0,1,26.51,10.3v4.1c0,.1,0,.21,0,.31h0a10,10,0,0,0,.29,2.05v0c.08.31.18.63.29.93,0,.09.07.17.1.25s.18.45.28.67.24.46.37.69l.11.19A9.87,9.87,0,0,0,30.09,22l.16.18a3.28,3.28,0,0,1,.31.34,2.44,2.44,0,0,1,.14.28,2.26,2.26,0,0,1,.17.35c0,.1,0,.2.06.3A2.57,2.57,0,0,1,31,23.8ZM16,4.41Z"/></svg>