<?xml version="1.0" encoding="utf-8"?>
<!-- Generator: Adobe Illustrator 23.1.1, SVG Export Plug-In . SVG Version: 6.00 Build 0)  -->
<svg version="1.1" id="Layer_1" xmlns="http://www.w3.org/2000/svg" xmlns:xlink="http://www.w3.org/1999/xlink" x="0px" y="0px"
	 viewBox="0 0 60 60" style="enable-background:new 0 0 60 60;" xml:space="preserve">
<style type="text/css">
	.st0{fill:none;}
	.st1{fill:#306EB5;}
</style>
<title>icon-private-key-blue</title>
<rect x="-471" y="-347" class="st0" width="1366" height="780"/>
<rect x="-635" y="-347" class="st0" width="1366" height="780"/>
<rect x="-712" y="-347" class="st0" width="1366" height="780"/>
<g>
	<path class="st1" d="M30,0C13.4,0,0,13.4,0,30s13.4,30,30,30s30-13.4,30-30S46.6,0,30,0z M30,58.1C14.5,58.1,1.9,45.5,1.9,30
		S14.5,1.9,30,1.9S58.1,14.5,58.1,30c0,0,0,0,0,0C58.1,45.5,45.5,58.1,30,58.1z M39.9,14.6c-2.1-2.1-5.5-2.1-7.6,0L16.4,30.4
		c-0.5,0.5-0.5,1.4,0,1.9l1.9,1.9L13.4,39c-0.3,0.3-0.4,0.6-0.4,1c0,0.4,0.1,0.7,0.4,1l5.8,5.7c0.3,0.2,0.6,0.4,0.9,0.4
		c0.4,0,0.7-0.1,0.9-0.4l4.8-4.8l1.8,1.8c0.2,0.2,0.6,0.4,0.9,0.4l0,0c0.4,0,0.7-0.1,0.9-0.4l11.1-11.3c0.5-0.5,0.5-1.4-0.1-1.9
		c-0.5-0.5-1.3-0.5-1.8,0L28.6,40.7l-1.9-1.9l2.9-2.8c0.1,0,0.2,0,0.4,0c1.3,0,2.3-1,2.3-2.3c0-1.3-1-2.3-2.3-2.3
		c-1.3,0-2.3,1-2.3,2.3c0,0,0,0,0,0c0,0.1,0,0.3,0,0.5L24.9,37l-2-2l5.8-5.8h6c0.4,0,0.7-0.1,1-0.4l2.5-2.6c0.1,0,0.3,0,0.5,0
		c1.3,0,2.3-1.1,2.2-2.4s-1.1-2.3-2.4-2.2c-1.3,0-2.3,1.1-2.2,2.4c0,0.1,0,0.2,0,0.4l-2.2,2.2h-6c-0.3,0-0.7,0.1-0.9,0.4L21,33.1
		l-1.7-1.7l14.9-14.9c1.1-1,2.7-1,3.8,0l5.6,5.6c1,1,1,2.7,0,3.7c-0.5,0.5-0.5,1.4,0.1,1.9c0.5,0.5,1.3,0.5,1.8,0
		c2.1-2.1,2.1-5.4,0-7.5L39.9,14.6z M20.2,36L20.2,36l3.8,3.8l-3.9,3.9L16.2,40L20.2,36z"/>
</g>
<rect x="-558" y="-347" class="st0" width="1366" height="780"/>
<rect x="-555" y="-347" class="st0" width="1366" height="780"/>
</svg>
