<?xml version="1.0" standalone="no"?>
<!DOCTYPE svg PUBLIC "-//W3C//DTD SVG 20010904//EN"
 "http://www.w3.org/TR/2001/REC-SVG-20010904/DTD/svg10.dtd">
<svg version="1.0" xmlns="http://www.w3.org/2000/svg"
 width="2000.000000pt" height="2000.000000pt" viewBox="0 0 2000.000000 2000.000000"
 preserveAspectRatio="xMidYMid meet">

<g transform="translate(0.000000,2000.000000) scale(0.100000,-0.100000)"
fill="#ffffff" stroke="none">
<path d="M12550 16380 c-759 -78 -1467 -430 -2305 -1145 -289 -247 -455 -405
-1335 -1268 l-335 -329 55 7 c30 3 134 20 230 37 469 83 999 25 1511 -163 58
-21 110 -39 115 -39 4 0 134 125 289 278 438 434 644 610 920 786 121 77 367
197 491 240 527 180 1063 128 1634 -158 262 -132 451 -262 575 -396 451 -491
642 -1179 510 -1837 -64 -318 -204 -621 -413 -893 -77 -101 -2317 -2349 -2437
-2446 -357 -290 -941 -494 -1411 -494 -391 0 -778 101 -1064 277 -404 250
-717 626 -1006 1211 l-86 175 -539 -539 c-296 -296 -539 -542 -539 -546 0 -15
193 -343 276 -469 301 -458 656 -839 1034 -1109 462 -330 965 -516 1544 -571
185 -17 623 -7 796 19 420 63 740 164 1099 347 236 120 472 280 641 432 156
142 2626 2630 2717 2738 371 439 623 866 781 1326 148 429 218 925 177 1244
-135 1049 -761 2039 -1685 2667 -479 326 -991 524 -1555 604 -129 18 -560 27
-685 14z"/>
<path d="M8894 12875 c-669 -69 -1283 -313 -1769 -701 -121 -97 -2653 -2630
-2777 -2779 -459 -550 -733 -1193 -820 -1920 -17 -142 -16 -585 0 -730 81
-691 342 -1302 773 -1815 112 -133 363 -383 494 -491 778 -643 1805 -934 2800
-793 598 84 1168 335 1585 695 114 99 1890 1884 1865 1875 -53 -21 -265 -56
-390 -66 -178 -13 -533 -13 -740 0 -256 16 -432 53 -595 124 l-75 33 -410
-407 c-225 -223 -444 -431 -485 -462 -265 -196 -624 -350 -991 -424 -180 -36
-451 -45 -615 -20 -300 46 -627 166 -915 335 -263 154 -369 243 -510 424 -408
525 -552 1233 -384 1880 70 272 216 555 384 747 32 36 597 603 1257 1261 1020
1017 1212 1203 1284 1251 191 124 357 206 569 279 323 111 603 153 883 131
703 -56 1217 -386 1677 -1077 93 -140 141 -224 298 -512 19 -35 37 -63 41 -63
4 0 248 241 542 535 l534 534 -23 48 c-38 79 -188 329 -283 471 -186 278 -336
462 -567 692 -189 189 -325 301 -526 435 -415 276 -829 432 -1335 501 -161 21
-606 27 -776 9z"/>
</g>
</svg>
