<svg id="Layer_1" data-name="Layer 1" xmlns="http://www.w3.org/2000/svg" viewBox="0 0 182 50"><defs><style>.cls-1,.cls-6{fill:#e06e38;}.cls-1,.cls-2,.cls-3,.cls-4{fill-rule:evenodd;}.cls-2,.cls-9{fill:#84b5de;}.cls-3,.cls-8{fill:#54b1aa;}.cls-4,.cls-7{fill:#e8aa43;}.cls-5{fill:#393839;}.cls-10{fill:#bf5735;}.cls-11{fill:#bd873e;}.cls-12{fill:#449c90;}.cls-13{fill:#598dba;}.cls-14{fill:#3e6faf;}.cls-15{fill:#aaa;}</style></defs><title>logo-proximax-sirius-wallet-beta</title><path class="cls-1" d="M26.41,5.05C32.1,3.43,34.52,3.85,39,4.31A44.39,44.39,0,0,0,20,0c-1,0-1.95,0-2.92.1a17.36,17.36,0,0,1,3.93,2.95c.68.69,2.07,2.31,3,2.47a6,6,0,0,0,2.34-.47"/><path class="cls-2" d="M33.47,28.32C33,26.13,32.33,24,31.65,21.86c-.35-1.09-.74-2.17-1.12-3.25s-.79-2.1-1.21-3.14C27.42,11,27.61,11,31.09,9c2.35-1.2,6.06-2.9,8.71-2.77l.28,0a40.34,40.34,0,0,1-6.61,22.08"/><path class="cls-3" d="M4.25,24.23c2.26-1.78,4.78-3.47,6.62-4.64a82.06,82.06,0,0,1,7.57-4.12,9.14,9.14,0,0,1,2.66-1,1.87,1.87,0,0,1,.82.08c.84.36,2.23,2.61,2.23,2.61l0,0c.25.36.47.75.73,1.1s.53.81.78,1.21c.37.6.73,1.2,1.09,1.81.57,1,1.2,2,1.73,3,.86,1.68,2.07,4.06,3.11,6.6a40.31,40.31,0,0,1-11,9.81L20,41.1l-.58-.35A40.49,40.49,0,0,1,4.25,24.23"/><path class="cls-4" d="M12.94.59c.21.23.41.46.58.67.4.48.79,1,1.16,1.48A16.6,16.6,0,0,1,15.94,4.5a37.76,37.76,0,0,1,2,3.29,1.81,1.81,0,0,1,.13.87,1.21,1.21,0,0,1-.42.6c-.43.35-.64.47-1,.73-1.62,1.19-3.17,2.46-4.74,3.7-1.75,1.4-3.5,3-5.11,4.6C5.66,19.37,4.41,20.66,3.24,22A40.27,40.27,0,0,1,0,5.52V4.84l.61-.3A45.74,45.74,0,0,1,12.94.59"/><path class="cls-5" d="M48.23,10.25h8.53c4,0,6.69,2.92,6.69,7.06s-2.7,7.12-6.69,7.12h-3.5v6.34h-5Zm7.5,9.87a2.5,2.5,0,0,0,2.61-2.81c0-1.64-.86-2.76-2.53-2.76H53.26v5.57Z"/><path class="cls-5" d="M65.71,15.78h4.7v3.37a5.05,5.05,0,0,1,4.64-3.62,3.36,3.36,0,0,1,.57.05v4.81a5.11,5.11,0,0,0-1-.08c-2.72,0-4,1.73-4,4.39v5.66h-4.9Z"/><path class="cls-5" d="M85.55,15.44c4.61,0,8.29,3.09,8.29,7.67s-3.68,7.59-8.26,7.59-8.27-3-8.27-7.59,3.68-7.67,8.24-7.67m0,11.18a3.3,3.3,0,0,0,3.31-3.51,3.33,3.33,0,1,0-6.63,0,3.3,3.3,0,0,0,3.32,3.51"/><path class="cls-5" d="M153.76,21.27h.43V21c0-1.22-1-1.62-2.07-1.62a7.66,7.66,0,0,0-4,1.39l-1.7-3.45a11.2,11.2,0,0,1,6.17-1.9c4,0,6.51,2.24,6.51,6v9h-4.47V28.58a5.37,5.37,0,0,1-4.33,2.12,4.46,4.46,0,0,1-4.76-4.44c0-3.91,4.65-5,8.24-5m-2,5.78a2.66,2.66,0,0,0,2.49-2.58v-.39h-.45c-1.5,0-3.42.39-3.42,1.72a1.25,1.25,0,0,0,1.38,1.25"/><polygon class="cls-6" points="181.31 10.25 180 10.25 174.15 19.18 174.81 20.2 180.84 10.98 181.31 10.25"/><polygon class="cls-7" points="178.5 10.25 173.4 18.03 173.98 18.91 179.65 10.25 178.5 10.25"/><polygon class="cls-8" points="177.03 10.25 172.67 16.9 173.24 17.78 178.17 10.25 177.03 10.25"/><polygon class="cls-9" points="175.33 10.25 173.15 13.58 171.83 15.6 172.49 16.62 176.66 10.25 175.33 10.25"/><polygon class="cls-10" points="174.15 19.18 174.81 20.2 176.22 18.03 175.57 17.02 174.15 19.18"/><polygon class="cls-11" points="173.98 18.91 175.39 16.75 174.82 15.86 173.4 18.03 173.98 18.91"/><polygon class="cls-12" points="173.24 17.78 174.66 15.61 174.09 14.73 172.67 16.9 173.24 17.78"/><polygon class="cls-13" points="171.83 15.6 172.49 16.62 173.91 14.45 173.25 13.43 172.48 14.6 171.83 15.6"/><polygon class="cls-5" points="168.39 10.27 162.2 10.27 168.71 20.36 161.92 30.77 167.97 30.77 171.72 25 175.45 30.77 181.64 30.77 174.82 20.22 171.83 15.59 168.39 10.27"/><rect class="cls-5" x="112.4" y="15.78" width="4.9" height="14.58"/><rect class="cls-5" x="112.46" y="10.12" width="4.79" height="3.82"/><path class="cls-5" d="M120.7,15.93h4.91v1.92a5.12,5.12,0,0,1,4.16-2.23,4.28,4.28,0,0,1,4,2.28,5.89,5.89,0,0,1,4.68-2.28c3,0,4.78,1.86,4.78,5.12v9.78h-4.91v-8.2c0-1.53-.75-2.33-1.91-2.33s-2,.8-2,2.33v8.2h-4.91v-8.2c0-1.53-.75-2.33-1.91-2.33s-2,.8-2,2.33v8.2H120.7Z"/><polygon class="cls-5" points="109.69 30.35 104.7 22.95 109.59 15.79 104.17 15.79 102.01 18.96 99.87 15.79 94.35 15.79 99.25 23.03 94.27 30.35 99.65 30.35 101.94 27 104.2 30.35 109.69 30.35"/><path class="cls-14" d="M55,38.67a.64.64,0,0,1-.17.19.33.33,0,0,1-.23.07.58.58,0,0,1-.34-.15,5.43,5.43,0,0,0-.5-.33,4.3,4.3,0,0,0-.74-.33A3.07,3.07,0,0,0,52,38a3.11,3.11,0,0,0-1,.15,2.51,2.51,0,0,0-.74.42,1.9,1.9,0,0,0-.44.62,2,2,0,0,0-.15.77,1.44,1.44,0,0,0,.26.88,2.12,2.12,0,0,0,.69.59,4.72,4.72,0,0,0,1,.43l1.11.37c.38.13.75.28,1.11.44a3.71,3.71,0,0,1,1,.61,3,3,0,0,1,.69.91,3.07,3.07,0,0,1,.26,1.32A4.19,4.19,0,0,1,55.4,47a3.44,3.44,0,0,1-.82,1.26,3.85,3.85,0,0,1-1.33.85,5,5,0,0,1-1.79.31A5.42,5.42,0,0,1,49.23,49a5.12,5.12,0,0,1-1.72-1.2L48,47a.85.85,0,0,1,.17-.16.39.39,0,0,1,.23-.07.72.72,0,0,1,.42.2c.16.13.36.28.6.44a4.58,4.58,0,0,0,.86.43,3.44,3.44,0,0,0,1.23.2,3.33,3.33,0,0,0,1.09-.17,2.35,2.35,0,0,0,.8-.47,2.05,2.05,0,0,0,.51-.72,2.43,2.43,0,0,0,.17-1,1.51,1.51,0,0,0-.26-.93,2.14,2.14,0,0,0-.68-.62,4.7,4.7,0,0,0-1-.41l-1.11-.36A10.51,10.51,0,0,1,50,43a3.68,3.68,0,0,1-1-.62,2.78,2.78,0,0,1-.68-.95,3.46,3.46,0,0,1,.75-3.8,3.76,3.76,0,0,1,1.22-.78A4.51,4.51,0,0,1,52,36.55a5.39,5.39,0,0,1,1.93.34,4.25,4.25,0,0,1,1.52,1Z"/><path class="cls-14" d="M59.32,37.59a1,1,0,0,1-.09.43,1.24,1.24,0,0,1-.25.35,1.13,1.13,0,0,1-.36.24,1,1,0,0,1-.43.09,1,1,0,0,1-.42-.09,1.21,1.21,0,0,1-.35-.24,1.07,1.07,0,0,1-.25-.35,1,1,0,0,1-.09-.43,1,1,0,0,1,.09-.43,1,1,0,0,1,.25-.36,1.07,1.07,0,0,1,.35-.25,1.16,1.16,0,0,1,.42-.08,1.18,1.18,0,0,1,.43.08,1,1,0,0,1,.36.25,1.16,1.16,0,0,1,.25.36A1,1,0,0,1,59.32,37.59ZM59,40.39v8.92H57.4V40.39Z"/><path class="cls-14" d="M61.34,49.31V40.39h.9a.46.46,0,0,1,.35.1.57.57,0,0,1,.14.33l.1,1.39A4,4,0,0,1,64,40.76a2.51,2.51,0,0,1,1.58-.53,2.31,2.31,0,0,1,.67.09,2.28,2.28,0,0,1,.56.23l-.21,1.17a.26.26,0,0,1-.27.22,1.6,1.6,0,0,1-.38-.08,2.23,2.23,0,0,0-.71-.09,2,2,0,0,0-1.37.48,3.47,3.47,0,0,0-.92,1.38v5.68Z"/><path class="cls-14" d="M70.14,37.59a1,1,0,0,1-.09.43,1.21,1.21,0,0,1-.24.35,1.41,1.41,0,0,1-.36.24,1.07,1.07,0,0,1-.43.09,1,1,0,0,1-.43-.09A1.16,1.16,0,0,1,68,38a1,1,0,0,1-.09-.43,1,1,0,0,1,.09-.43,1.13,1.13,0,0,1,.24-.36,1.07,1.07,0,0,1,.35-.25,1.22,1.22,0,0,1,.43-.08,1.26,1.26,0,0,1,.43.08,1.23,1.23,0,0,1,.36.25,1.13,1.13,0,0,1,.24.36A1,1,0,0,1,70.14,37.59Zm-.35,2.8v8.92H68.23V40.39Z"/><path class="cls-14" d="M73.52,40.39v5.69A2.36,2.36,0,0,0,74,47.64a1.74,1.74,0,0,0,1.41.56,2.63,2.63,0,0,0,1.29-.33A4,4,0,0,0,77.81,47V40.39h1.57v8.92h-.94A.4.4,0,0,1,78,49l-.12-1a4.77,4.77,0,0,1-1.31,1,3.3,3.3,0,0,1-1.65.4,3.06,3.06,0,0,1-1.29-.25,2.56,2.56,0,0,1-.94-.68,2.83,2.83,0,0,1-.56-1.06A4.65,4.65,0,0,1,72,46.08V40.39Z"/><path class="cls-14" d="M86.67,41.86a.34.34,0,0,1-.32.19.64.64,0,0,1-.3-.09l-.41-.22a4.18,4.18,0,0,0-.58-.22,2.66,2.66,0,0,0-.79-.1,2.21,2.21,0,0,0-.71.1,1.67,1.67,0,0,0-.55.28,1.33,1.33,0,0,0-.34.41,1.06,1.06,0,0,0-.12.5.89.89,0,0,0,.2.58,1.77,1.77,0,0,0,.52.39A5.69,5.69,0,0,0,84,44l.85.27c.29.1.58.2.85.32a3,3,0,0,1,.74.44,1.94,1.94,0,0,1,.52.65,1.87,1.87,0,0,1,.2.92A2.86,2.86,0,0,1,87,47.72a2.31,2.31,0,0,1-.65.9,3.19,3.19,0,0,1-1,.61,4.82,4.82,0,0,1-3.14-.09,4.18,4.18,0,0,1-1.28-.78l.37-.59a.47.47,0,0,1,.16-.18.5.5,0,0,1,.26-.06.56.56,0,0,1,.33.12l.43.27a3.91,3.91,0,0,0,.61.28,2.82,2.82,0,0,0,.89.12,2.41,2.41,0,0,0,.8-.12,1.73,1.73,0,0,0,.57-.32,1.18,1.18,0,0,0,.34-.47,1.3,1.3,0,0,0,.11-.56.88.88,0,0,0-.2-.61,1.71,1.71,0,0,0-.52-.42,4.23,4.23,0,0,0-.74-.29l-.86-.27c-.29-.1-.57-.2-.85-.32a2.89,2.89,0,0,1-.74-.46,2.07,2.07,0,0,1-.53-.67,2.21,2.21,0,0,1-.19-1A2.42,2.42,0,0,1,81.89,41a2.94,2.94,0,0,1,1-.57,4,4,0,0,1,1.34-.21,4.12,4.12,0,0,1,1.58.28,3.66,3.66,0,0,1,1.21.76Z"/><path class="cls-14" d="M93.67,36.69h1.42a.6.6,0,0,1,.38.12.53.53,0,0,1,.2.29l2.61,8.76c0,.16.09.33.13.52s.07.37.1.57c0-.2.09-.39.13-.58s.09-.35.14-.51l3-8.76a.76.76,0,0,1,.21-.28.6.6,0,0,1,.38-.13h.49a.55.55,0,0,1,.37.12.61.61,0,0,1,.21.29l2.95,8.76a9.84,9.84,0,0,1,.28,1c0-.19.07-.38.1-.55a2.61,2.61,0,0,1,.11-.5l2.61-8.76a.54.54,0,0,1,.2-.28.6.6,0,0,1,.38-.13h1.32l-3.93,12.62h-1.53l-3.19-9.62a4.49,4.49,0,0,1-.18-.64c0,.12-.06.23-.08.34s-.06.21-.09.3l-3.21,9.62H97.61Z"/><path class="cls-14" d="M118.16,49.31h-.7a.81.81,0,0,1-.37-.08.37.37,0,0,1-.18-.29l-.18-.83a8.66,8.66,0,0,1-.69.57,4.48,4.48,0,0,1-.7.42,4.06,4.06,0,0,1-.79.26,4.38,4.38,0,0,1-.93.09,3.12,3.12,0,0,1-1-.15,2.14,2.14,0,0,1-.78-.44,2,2,0,0,1-.54-.73,2.64,2.64,0,0,1-.2-1.06,2,2,0,0,1,.29-1,2.57,2.57,0,0,1,.94-.87,6.15,6.15,0,0,1,1.7-.62,11.59,11.59,0,0,1,2.56-.24v-.7a2.38,2.38,0,0,0-.45-1.58,1.59,1.59,0,0,0-1.31-.54,2.75,2.75,0,0,0-1,.15,3.21,3.21,0,0,0-.67.32l-.5.33a.75.75,0,0,1-.41.14.5.5,0,0,1-.27-.08.63.63,0,0,1-.19-.21l-.28-.5a5.06,5.06,0,0,1,1.59-1.07,5,5,0,0,1,1.89-.35,3.29,3.29,0,0,1,1.33.25,2.64,2.64,0,0,1,1,.69,3,3,0,0,1,.6,1.06,4.58,4.58,0,0,1,.2,1.37Zm-4.07-1a3,3,0,0,0,.76-.09,2.54,2.54,0,0,0,.65-.24,3.33,3.33,0,0,0,.58-.37,6.15,6.15,0,0,0,.54-.5V45.31a10.61,10.61,0,0,0-1.84.14,4.78,4.78,0,0,0-1.23.36,1.61,1.61,0,0,0-.69.52,1.08,1.08,0,0,0-.22.67,1.58,1.58,0,0,0,.11.61,1.21,1.21,0,0,0,.31.42,1.19,1.19,0,0,0,.46.24A2.12,2.12,0,0,0,114.09,48.35Z"/><path class="cls-14" d="M121.89,36.34v13h-1.57v-13Z"/><path class="cls-14" d="M126,36.34v13h-1.57v-13Z"/><path class="cls-14" d="M131.91,40.25a3.94,3.94,0,0,1,1.48.27,3.45,3.45,0,0,1,1.17.77,3.52,3.52,0,0,1,.77,1.25,5,5,0,0,1,.28,1.7,1.05,1.05,0,0,1-.08.49.33.33,0,0,1-.3.12H129.3a4.82,4.82,0,0,0,.23,1.47,2.82,2.82,0,0,0,.58,1A2.3,2.3,0,0,0,131,48a3,3,0,0,0,1.14.21,3.44,3.44,0,0,0,1-.14,5.28,5.28,0,0,0,.73-.29c.21-.11.38-.21.52-.3a.69.69,0,0,1,.35-.14.34.34,0,0,1,.3.15l.44.58a3.14,3.14,0,0,1-.69.61,4.37,4.37,0,0,1-.87.42,4.59,4.59,0,0,1-1,.25,5.5,5.5,0,0,1-1,.09,4.67,4.67,0,0,1-1.7-.31A3.82,3.82,0,0,1,129,48.2a4.15,4.15,0,0,1-.88-1.49,5.83,5.83,0,0,1-.32-2,4.93,4.93,0,0,1,.29-1.74,4.12,4.12,0,0,1,.82-1.41,3.76,3.76,0,0,1,1.31-.93A4.22,4.22,0,0,1,131.91,40.25Zm0,1.15a2.39,2.39,0,0,0-1.79.66,3.14,3.14,0,0,0-.81,1.82h4.85a3.13,3.13,0,0,0-.15-1,2.25,2.25,0,0,0-.44-.79,1.93,1.93,0,0,0-.71-.51A2.4,2.4,0,0,0,132,41.4Z"/><path class="cls-14" d="M139.92,49.45a2.13,2.13,0,0,1-1.62-.59,2.36,2.36,0,0,1-.57-1.7V41.7h-1.08a.36.36,0,0,1-.23-.08.31.31,0,0,1-.1-.26v-.63l1.46-.18.36-2.76a.3.3,0,0,1,.12-.21.32.32,0,0,1,.24-.08h.79v3.07h2.56V41.7h-2.56v5.35a1.11,1.11,0,0,0,.28.84.94.94,0,0,0,.7.27,1.35,1.35,0,0,0,.43-.06L141,48a1.39,1.39,0,0,0,.22-.15.35.35,0,0,1,.17-.06.28.28,0,0,1,.22.15l.46.75a3,3,0,0,1-1,.59A3.43,3.43,0,0,1,139.92,49.45Z"/><path class="cls-15" d="M149.66,49.31V36.69h4a7.75,7.75,0,0,1,2,.23,4,4,0,0,1,1.38.65,2.73,2.73,0,0,1,.81,1,3.57,3.57,0,0,1,.25,1.38,2.63,2.63,0,0,1-.14.89,2.51,2.51,0,0,1-.44.8,3,3,0,0,1-.74.66,3.83,3.83,0,0,1-1,.48,3.87,3.87,0,0,1,2.08,1,2.61,2.61,0,0,1,.71,1.9,3.51,3.51,0,0,1-.3,1.47,3,3,0,0,1-.86,1.13,4.09,4.09,0,0,1-1.39.74,6.33,6.33,0,0,1-1.88.26Zm1.71-7h2.25a4.6,4.6,0,0,0,1.25-.15,2.73,2.73,0,0,0,.87-.44,1.67,1.67,0,0,0,.52-.69,2.21,2.21,0,0,0,.17-.87,2,2,0,0,0-.67-1.63,3.37,3.37,0,0,0-2.08-.52h-2.31Zm0,1.22V48h2.72a4.22,4.22,0,0,0,1.26-.17,2.37,2.37,0,0,0,.86-.47,1.8,1.8,0,0,0,.5-.72,2.69,2.69,0,0,0,.16-.92,1.88,1.88,0,0,0-.69-1.54,3.26,3.26,0,0,0-2.09-.57Z"/><path class="cls-15" d="M163.94,40.25a3.94,3.94,0,0,1,1.48.27,3.45,3.45,0,0,1,1.17.77,3.52,3.52,0,0,1,.77,1.25,5,5,0,0,1,.28,1.7,1.05,1.05,0,0,1-.08.49.33.33,0,0,1-.3.12h-5.93a4.82,4.82,0,0,0,.23,1.47,2.82,2.82,0,0,0,.58,1A2.3,2.3,0,0,0,163,48a3,3,0,0,0,1.14.21,3.44,3.44,0,0,0,1-.14,5.28,5.28,0,0,0,.73-.29c.21-.11.38-.21.52-.3a.69.69,0,0,1,.35-.14.34.34,0,0,1,.3.15l.44.58a3.14,3.14,0,0,1-.69.61,4.37,4.37,0,0,1-.87.42,4.59,4.59,0,0,1-1,.25,5.5,5.5,0,0,1-1,.09,4.67,4.67,0,0,1-1.7-.31A3.82,3.82,0,0,1,161,48.2a4.15,4.15,0,0,1-.88-1.49,5.83,5.83,0,0,1-.32-2,4.93,4.93,0,0,1,.29-1.74,4.12,4.12,0,0,1,.82-1.41,3.76,3.76,0,0,1,1.31-.93A4.22,4.22,0,0,1,163.94,40.25Zm0,1.15a2.39,2.39,0,0,0-1.79.66,3.14,3.14,0,0,0-.81,1.82h4.85a3.13,3.13,0,0,0-.15-1,2.25,2.25,0,0,0-.44-.79,1.93,1.93,0,0,0-.71-.51A2.4,2.4,0,0,0,164,41.4Z"/><path class="cls-15" d="M172,49.45a2.15,2.15,0,0,1-1.62-.59,2.36,2.36,0,0,1-.57-1.7V41.7h-1.08a.36.36,0,0,1-.23-.08.31.31,0,0,1-.1-.26v-.63l1.46-.18.36-2.76a.3.3,0,0,1,.12-.21.32.32,0,0,1,.24-.08h.79v3.07h2.56V41.7h-2.56v5.35a1.15,1.15,0,0,0,.28.84.94.94,0,0,0,.7.27,1.35,1.35,0,0,0,.43-.06L173,48a1.39,1.39,0,0,0,.22-.15.35.35,0,0,1,.17-.06.28.28,0,0,1,.22.15l.46.75a3,3,0,0,1-1,.59A3.43,3.43,0,0,1,172,49.45Z"/><path class="cls-15" d="M182,49.31h-.69a.75.75,0,0,1-.37-.08.36.36,0,0,1-.19-.29l-.17-.83q-.36.31-.69.57a5,5,0,0,1-.7.42,4.06,4.06,0,0,1-.79.26,4.45,4.45,0,0,1-.93.09,3,3,0,0,1-1-.15,2.18,2.18,0,0,1-.79-.44,2.09,2.09,0,0,1-.53-.73,2.64,2.64,0,0,1-.2-1.06,2,2,0,0,1,.29-1,2.5,2.5,0,0,1,.94-.87,6.07,6.07,0,0,1,1.69-.62,11.66,11.66,0,0,1,2.56-.24v-.7A2.44,2.44,0,0,0,180,42a1.62,1.62,0,0,0-1.32-.54,2.69,2.69,0,0,0-1,.15A3.31,3.31,0,0,0,177,42l-.49.33a.78.78,0,0,1-.41.14.51.51,0,0,1-.28-.08.76.76,0,0,1-.19-.21l-.28-.5A5.18,5.18,0,0,1,177,40.58a5,5,0,0,1,1.9-.35,3.29,3.29,0,0,1,1.33.25,2.61,2.61,0,0,1,1,.69,2.82,2.82,0,0,1,.6,1.06,4.28,4.28,0,0,1,.2,1.37Zm-4.06-1a3,3,0,0,0,.75-.09,2.41,2.41,0,0,0,.65-.24,3,3,0,0,0,.58-.37,4.21,4.21,0,0,0,.54-.5V45.31a10.69,10.69,0,0,0-1.84.14,5,5,0,0,0-1.23.36,1.61,1.61,0,0,0-.69.52,1.13,1.13,0,0,0-.21.67,1.42,1.42,0,0,0,.11.61,1.17,1.17,0,0,0,.76.66A2.14,2.14,0,0,0,177.91,48.35Z"/></svg>