<svg xmlns="http://www.w3.org/2000/svg" width="152.66" height="37" viewBox="0 0 152.66 37">
  <g id="logo" transform="translate(-141 -26)">
    <g id="ProximaX_Logo_RGB" transform="translate(141 27)">
      <g id="Group_1" data-name="Group 1" transform="translate(0)">
        <path id="Path_1" data-name="Path 1" d="M105,57.306c4.848-1.38,6.9-1.024,10.686-.631A37.8,37.8,0,0,0,99.573,53c-.829,0-1.661.03-2.483.086a14.9,14.9,0,0,1,3.348,2.516c.575.588,1.76,1.965,2.569,2.107a5.314,5.314,0,0,0,1.995-.4" transform="translate(-82.503 -53)" fill="#f06623" fill-rule="evenodd"/>
        <path id="Path_2" data-name="Path 2" d="M130,87.857c-.419-1.866-.977-3.722-1.555-5.5-.3-.931-.631-1.849-.954-2.771-.317-.9-.667-1.793-1.034-2.678-1.618-3.794-1.45-3.811,1.509-5.518,2.008-1.024,5.165-2.47,7.423-2.358.079,0,.155.01.234.016A34.376,34.376,0,0,1,130,87.857" transform="translate(-101.491 -63.731)" fill="#79b6e3" fill-rule="evenodd"/>
        <path id="Path_3" data-name="Path 3" d="M63.9,98.658c1.922-1.512,4.072-2.959,5.634-3.946a67.628,67.628,0,0,1,6.446-3.51,7.934,7.934,0,0,1,2.265-.835,1.625,1.625,0,0,1,.7.076c.71.3,1.9,2.219,1.9,2.219l.013.02c.211.31.4.634.624.935.234.324.452.69.66,1.03q.471.768.925,1.539c.5.835,1.03,1.707,1.473,2.566.736,1.43,1.767,3.454,2.652,5.62a34.353,34.353,0,0,1-9.365,8.355l-.489.3-.489-.3A34.336,34.336,0,0,1,63.9,98.658" transform="translate(-60.273 -78.023)" fill="#1fb4ac" fill-rule="evenodd"/>
        <path id="Path_4" data-name="Path 4" d="M63.94,54.54c.178.195.347.386.5.568.34.406.667.835.987,1.258a14.67,14.67,0,0,1,1.067,1.5,31.5,31.5,0,0,1,1.691,2.807,1.528,1.528,0,0,1,.109.736.989.989,0,0,1-.357.512c-.37.3-.548.4-.862.627-1.38,1.01-2.7,2.087-4.035,3.147-1.5,1.189-2.982,2.589-4.356,3.92-.944.918-2.014,2.018-3.008,3.183A34.35,34.35,0,0,1,52.92,58.734l.01-.581.522-.254A38.9,38.9,0,0,1,63.94,54.54" transform="translate(-52.915 -54.031)" fill="#f3a91d" fill-rule="evenodd"/>
      </g>
    </g>
    <text id="ProximaX_Sirius_Wallet" data-name="ProximaX
Sirius Wallet" transform="translate(187.66 40)" font-size="13" font-family="SegoeUI-Bold, Segoe UI" font-weight="700"><tspan x="0" y="0">ProximaX</tspan><tspan font-size="18"><tspan x="0" y="18">Sirius Wallet</tspan></tspan></text>
  </g>
</svg>
