<?xml version="1.0" standalone="no"?>
<!DOCTYPE svg PUBLIC "-//W3C//DTD SVG 20010904//EN"
 "http://www.w3.org/TR/2001/REC-SVG-20010904/DTD/svg10.dtd">
<svg version="1.0" xmlns="http://www.w3.org/2000/svg"
 width="512.000000pt" height="512.000000pt" viewBox="0 0 512.000000 512.000000"
 preserveAspectRatio="xMidYMid meet">

<g transform="translate(0.000000,512.000000) scale(0.100000,-0.100000)"
fill="#ffffff" stroke="none">
<path d="M821 4674 c-178 -48 -329 -201 -376 -379 -12 -46 -15 -119 -15 -333
l0 -274 29 -29 c32 -31 79 -38 124 -18 49 22 52 35 57 329 5 267 6 277 30 325
31 64 91 124 155 155 48 24 58 25 325 30 294 5 307 8 329 57 20 45 13 92 -18
124 l-29 29 -279 -1 c-210 0 -291 -4 -332 -15z"/>
<path d="M3659 4661 c-31 -32 -38 -79 -18 -124 22 -49 35 -52 329 -57 259 -5
278 -7 320 -28 71 -35 114 -75 151 -144 l34 -63 5 -275 c5 -294 8 -307 57
-329 45 -20 92 -13 124 18 l29 29 0 274 c0 304 -6 344 -63 452 -41 78 -135
172 -213 213 -108 57 -148 63 -452 63 l-274 0 -29 -29z"/>
<path d="M1215 4031 c-52 -23 -103 -74 -126 -126 -16 -35 -19 -69 -19 -269 0
-145 4 -243 12 -267 15 -51 69 -114 122 -142 39 -21 52 -22 291 -22 l250 0 48
28 c55 33 102 93 118 150 6 24 9 127 7 266 -3 256 -8 276 -88 343 -61 53 -92
58 -346 58 -200 0 -234 -3 -269 -19z m485 -210 c6 -12 10 -95 10 -200 0 -150
-3 -182 -16 -195 -13 -13 -45 -16 -195 -16 -105 0 -188 4 -200 10 -18 10 -19
23 -19 203 0 137 3 196 12 205 9 9 68 12 205 12 180 0 193 -1 203 -19z"/>
<path d="M2177 4030 c-38 -30 -52 -80 -33 -123 26 -64 42 -67 351 -67 l275 0
0 -166 c0 -188 9 -222 65 -248 41 -20 49 -20 90 0 59 28 65 55 65 303 0 238
-6 273 -51 305 -21 14 -67 16 -380 16 -342 0 -357 -1 -382 -20z"/>
<path d="M3361 4036 c-48 -17 -108 -71 -134 -119 -21 -40 -22 -52 -22 -292 l0
-250 28 -48 c33 -55 93 -102 150 -118 24 -6 127 -9 266 -7 256 3 276 8 343 88
53 61 58 92 58 346 0 255 -5 277 -71 343 -66 66 -87 71 -349 70 -158 0 -246
-4 -269 -13z m467 -208 c9 -9 12 -68 12 -205 0 -180 -1 -193 -19 -203 -12 -6
-95 -10 -200 -10 -150 0 -182 3 -195 16 -13 13 -16 45 -16 195 0 105 4 188 10
200 10 18 23 19 203 19 137 0 196 -3 205 -12z"/>
<path d="M2193 3614 c-29 -15 -63 -65 -63 -94 0 -30 34 -80 65 -94 44 -21 250
-22 300 -2 35 15 65 59 65 96 0 37 -30 81 -65 96 -49 20 -259 19 -302 -2z"/>
<path d="M2184 3181 c-44 -27 -60 -77 -41 -124 27 -63 41 -67 239 -67 l178 0
0 -110 0 -110 -76 0 c-70 0 -78 -2 -105 -29 -47 -48 -37 -130 21 -164 41 -24
485 -25 531 -1 42 21 64 75 49 119 -18 55 -43 69 -129 75 l-76 5 0 105 0 105
76 5 c86 6 111 20 129 75 9 26 8 41 -4 68 -27 66 -35 67 -418 67 -321 0 -345
-1 -374 -19z"/>
<path d="M1134 2976 c-57 -25 -64 -45 -64 -198 0 -80 5 -147 11 -162 28 -60
122 -71 170 -20 23 24 24 34 27 164 4 159 -6 192 -63 216 -41 17 -42 17 -81 0z"/>
<path d="M1553 2974 c-29 -15 -63 -65 -63 -94 0 -7 7 -27 16 -45 21 -44 67
-65 143 -65 l61 0 0 -65 c0 -128 25 -145 210 -145 105 0 138 3 160 17 58 34
68 116 21 164 -27 27 -35 29 -105 29 l-76 0 0 65 c0 80 -19 121 -65 141 -49
20 -259 19 -302 -2z"/>
<path d="M3263 2975 c-58 -25 -63 -47 -63 -310 0 -203 2 -241 17 -265 34 -58
116 -68 164 -21 l29 29 0 254 c0 281 -1 287 -66 314 -40 17 -41 17 -81 -1z"/>
<path d="M3903 2975 c-44 -19 -63 -61 -63 -140 l0 -65 -76 0 c-70 0 -78 -2
-105 -29 -21 -21 -29 -39 -29 -65 0 -81 43 -116 144 -116 l66 0 0 -66 c0 -101
35 -144 116 -144 26 0 44 8 65 29 l29 29 0 254 c0 281 -1 287 -66 314 -40 17
-41 17 -81 -1z"/>
<path d="M1134 2336 c-41 -18 -64 -52 -64 -96 0 -45 23 -78 66 -96 51 -21 463
-20 509 2 31 14 65 64 65 94 0 30 -34 80 -65 94 -45 22 -463 23 -511 2z"/>
<path d="M1983 2335 c-33 -14 -63 -59 -63 -95 0 -37 30 -81 65 -96 50 -20 256
-19 300 2 31 14 65 64 65 94 0 30 -34 80 -65 94 -44 21 -255 22 -302 1z"/>
<path d="M2623 2335 c-33 -14 -63 -59 -63 -95 0 -37 30 -81 65 -96 19 -8 59
-14 90 -14 l55 0 0 -105 0 -105 -275 0 c-309 0 -325 -3 -351 -67 -19 -43 -5
-93 33 -123 25 -19 40 -20 382 -20 313 0 359 2 380 16 45 32 51 67 51 305 0
248 -6 275 -65 303 -44 21 -255 22 -302 1z"/>
<path d="M3254 2119 c-44 -22 -54 -58 -54 -199 0 -143 10 -178 57 -199 32 -15
494 -15 526 0 39 18 57 60 57 133 l0 66 66 0 c101 0 144 35 144 116 0 26 -8
44 -29 65 l-29 29 -152 0 -152 0 -29 -29 c-27 -27 -29 -35 -29 -105 l0 -76
-110 0 -110 0 0 76 c0 70 -2 78 -29 105 -31 31 -84 38 -127 18z"/>
<path d="M1250 1911 c-77 -24 -148 -90 -168 -160 -8 -24 -12 -122 -12 -267 0
-255 5 -277 71 -343 66 -66 88 -71 343 -71 145 0 243 4 267 12 51 15 114 69
142 122 21 39 22 52 22 291 l0 250 -28 47 c-31 53 -79 94 -134 114 -42 15
-457 19 -503 5z m444 -217 c13 -13 16 -45 16 -195 0 -105 -4 -188 -10 -200
-10 -18 -23 -19 -203 -19 -137 0 -196 3 -205 12 -9 9 -12 68 -12 205 0 172 2
193 18 202 10 6 94 11 199 11 152 0 184 -3 197 -16z"/>
<path d="M459 1461 l-29 -29 0 -274 c0 -214 3 -287 15 -333 47 -181 199 -333
380 -380 46 -12 119 -15 333 -15 l274 0 29 29 c49 49 33 145 -28 169 -17 7
-129 12 -293 14 l-265 3 -63 34 c-69 37 -109 80 -144 151 -21 42 -23 61 -28
320 -5 294 -8 307 -57 329 -45 20 -92 13 -124 -18z"/>
<path d="M2181 1474 c-39 -28 -51 -73 -51 -194 0 -157 28 -210 110 -210 71 0
110 55 110 155 l0 55 171 0 c142 0 176 3 199 17 58 34 68 116 21 164 l-29 29
-254 0 c-218 0 -257 -2 -277 -16z"/>
<path d="M3019 1461 l-29 -29 0 -152 0 -152 29 -29 29 -29 472 0 472 0 29 29
29 29 0 152 0 152 -29 29 c-21 21 -39 29 -65 29 -81 0 -116 -43 -116 -144 l0
-66 -105 0 -105 0 0 55 c0 100 -39 155 -110 155 -71 0 -110 -55 -110 -155 l0
-55 -105 0 -105 0 0 66 c0 101 -35 144 -116 144 -26 0 -44 -8 -65 -29z"/>
<path d="M4535 1479 c-47 -23 -50 -38 -55 -329 l-5 -275 -34 -63 c-38 -70 -69
-100 -145 -140 -51 -27 -51 -27 -326 -32 -294 -5 -307 -8 -329 -57 -20 -45
-13 -92 18 -124 l29 -29 274 0 c214 0 287 3 333 15 181 47 333 199 380 380 12
46 15 119 15 333 l0 274 -29 29 c-23 22 -38 29 -68 28 -21 0 -47 -5 -58 -10z"/>
</g>
</svg>
