<?xml version="1.0" standalone="no"?>
<!DOCTYPE svg PUBLIC "-//W3C//DTD SVG 1.1//EN" "http://www.w3.org/Graphics/SVG/1.1/DTD/svg11.dtd">
<!--Generator: Xara Designer (www.xara.com), SVG filter version: 6.6.0.1-->
<svg fill="none" fill-rule="evenodd" stroke="black" stroke-width="0.501" stroke-linejoin="bevel" stroke-miterlimit="10" font-family="Times New Roman" font-size="16" style="font-variant-ligatures:none" xmlns:xlink="http://www.w3.org/1999/xlink" xmlns="http://www.w3.org/2000/svg" version="1.1" overflow="visible" width="375pt" height="375pt" viewBox="0 -375 375 375">
 <defs>
	</defs>
 <g id="Layer 1" transform="scale(1 -1)">
  <g id="Group" stroke="none">
   <g id="Group_1" stroke-linejoin="miter" stroke-width="0.324">
    <path d="M 78.653,231.362 L 99.35,207.638 L 63.921,186.334 L 61.8,223.698 L 78.653,231.362 Z" fill="#0049e3" marker-start="none" marker-end="none"/>
    <path d="M 92.272,237.551 L 119.277,219.036 L 110.253,212.463 L 90.412,236.705 L 92.272,237.551 Z" fill="#64abff" marker-start="none" marker-end="none"/>
    <path d="M 123.82,209.194 L 126.532,190.022 L 116.645,202.965 L 123.82,209.194 Z" fill="#44fff1" marker-start="none" marker-end="none"/>
    <path d="M 108.553,195.2 L 121.535,177.861 L 98.901,163.799 L 84.382,173.095 L 108.553,195.2 Z" fill="#44fff1" marker-start="none" marker-end="none"/>
   </g>
   <g id="Group_2" fill="#191919" letter-spacing="0.05em" font-weight="bold" font-family="Orbitron SemiBold" fill-rule="nonzero" stroke-linejoin="round" stroke-linecap="round" stroke-width="0.805">
    <g id="Group_3">
     <g id="Group_4">
      <path d="M 155.199,203.922 C 153.888,203.922 152.766,204.39 151.831,205.324 C 150.896,206.259 150.429,207.381 150.429,208.693 L 150.429,210.852 L 155.425,210.852 L 155.425,210.013 C 155.425,209.304 155.425,208.95 155.425,208.95 C 155.425,208.95 155.78,208.95 156.489,208.95 L 167.511,208.95 C 168.22,208.95 168.575,208.95 168.575,208.95 C 168.575,208.95 168.575,209.304 168.575,210.013 L 168.575,211.948 C 168.575,212.657 168.575,213.011 168.575,213.011 C 168.575,213.011 168.22,213.011 167.511,213.011 L 155.199,213.011 C 153.888,213.011 152.766,213.479 151.831,214.414 C 150.896,215.348 150.429,216.471 150.429,217.782 L 150.429,222.358 C 150.429,223.669 150.896,224.791 151.831,225.726 C 152.766,226.661 153.888,227.128 155.199,227.128 L 168.865,227.128 C 170.154,227.128 171.272,226.661 172.217,225.726 C 173.162,224.791 173.635,223.669 173.635,222.358 L 173.635,220.199 L 168.575,220.199 L 168.575,221.037 C 168.575,221.746 168.575,222.101 168.575,222.101 C 168.575,222.101 168.22,222.101 167.511,222.101 L 156.489,222.101 C 155.78,222.101 155.425,222.101 155.425,222.101 C 155.425,222.101 155.425,221.746 155.425,221.037 L 155.425,219.103 C 155.425,218.394 155.425,218.039 155.425,218.039 C 155.425,218.039 155.78,218.039 156.489,218.039 L 168.865,218.039 C 170.154,218.039 171.272,217.572 172.217,216.637 C 173.162,215.703 173.635,214.58 173.635,213.269 L 173.635,208.693 C 173.635,207.381 173.162,206.259 172.217,205.324 C 171.272,204.39 170.154,203.922 168.865,203.922 L 155.199,203.922 Z" marker-start="none" marker-end="none"/>
      <path d="M 178.552,203.922 L 178.552,227.128 L 183.482,227.128 L 183.482,203.922 L 178.552,203.922 Z" marker-start="none" marker-end="none"/>
      <path d="M 187.037,203.922 L 187.037,227.096 L 205.44,227.096 C 206.751,227.096 207.879,226.623 208.825,225.678 C 209.77,224.733 210.243,223.615 210.243,222.325 L 210.243,216.331 C 210.243,215.042 209.77,213.924 208.825,212.979 C 207.879,212.034 206.751,211.561 205.44,211.561 L 205.214,211.561 L 210.243,205.631 L 210.243,203.922 L 205.086,203.922 L 198.672,211.561 L 192.032,211.529 L 192.032,203.922 L 187.037,203.922 Z M 193.096,216.589 L 204.119,216.589 C 204.828,216.589 205.183,216.589 205.183,216.589 C 205.183,216.589 205.183,216.943 205.183,217.652 L 205.183,221.037 C 205.183,221.746 205.183,222.101 205.183,222.101 C 205.183,222.101 204.828,222.101 204.119,222.101 L 193.096,222.101 C 192.387,222.101 192.032,222.101 192.032,222.101 C 192.032,222.101 192.032,221.746 192.032,221.037 L 192.032,217.652 C 192.032,216.943 192.032,216.589 192.032,216.589 C 192.032,216.589 192.387,216.589 193.096,216.589 Z" marker-start="none" marker-end="none"/>
      <path d="M 215.032,203.922 L 215.032,227.128 L 219.963,227.128 L 219.963,203.922 L 215.032,203.922 Z" marker-start="none" marker-end="none"/>
      <path d="M 228.256,203.922 C 226.944,203.922 225.822,204.39 224.887,205.324 C 223.953,206.259 223.485,207.381 223.485,208.693 L 223.485,227.128 L 228.481,227.128 L 228.481,210.013 C 228.481,209.304 228.481,208.95 228.481,208.95 C 228.481,208.95 228.836,208.95 229.545,208.95 L 240.568,208.95 C 241.277,208.95 241.631,208.95 241.631,208.95 C 241.631,208.95 241.631,209.304 241.631,210.013 L 241.631,227.128 L 246.691,227.128 L 246.691,208.693 C 246.691,207.381 246.219,206.259 245.273,205.324 C 244.328,204.39 243.21,203.922 241.921,203.922 L 228.256,203.922 Z" marker-start="none" marker-end="none"/>
      <path d="M 256.442,203.922 C 255.131,203.922 254.009,204.39 253.074,205.324 C 252.139,206.259 251.672,207.381 251.672,208.693 L 251.672,210.852 L 256.668,210.852 L 256.668,210.013 C 256.668,209.304 256.668,208.95 256.668,208.95 C 256.668,208.95 257.022,208.95 257.731,208.95 L 268.754,208.95 C 269.463,208.95 269.818,208.95 269.818,208.95 C 269.818,208.95 269.818,209.304 269.818,210.013 L 269.818,211.948 C 269.818,212.657 269.818,213.011 269.818,213.011 C 269.818,213.011 269.463,213.011 268.754,213.011 L 256.442,213.011 C 255.131,213.011 254.009,213.479 253.074,214.414 C 252.139,215.348 251.672,216.471 251.672,217.782 L 251.672,222.358 C 251.672,223.669 252.139,224.791 253.074,225.726 C 254.009,226.661 255.131,227.128 256.442,227.128 L 270.107,227.128 C 271.397,227.128 272.514,226.661 273.46,225.726 C 274.405,224.791 274.878,223.669 274.878,222.358 L 274.878,220.199 L 269.818,220.199 L 269.818,221.037 C 269.818,221.746 269.818,222.101 269.818,222.101 C 269.818,222.101 269.463,222.101 268.754,222.101 L 257.731,222.101 C 257.022,222.101 256.668,222.101 256.668,222.101 C 256.668,222.101 256.668,221.746 256.668,221.037 L 256.668,219.103 C 256.668,218.394 256.668,218.039 256.668,218.039 C 256.668,218.039 257.022,218.039 257.731,218.039 L 270.107,218.039 C 271.397,218.039 272.514,217.572 273.46,216.637 C 274.405,215.703 274.878,214.58 274.878,213.269 L 274.878,208.693 C 274.878,207.381 274.405,206.259 273.46,205.324 C 272.514,204.39 271.397,203.922 270.107,203.922 L 256.442,203.922 Z" marker-start="none" marker-end="none"/>
     </g>
    </g>
    <g id="Group_5">
     <g id="Group_6">
      <path d="M 158.874,174.221 L 150.429,197.427 L 155.747,197.427 L 160.807,183.599 L 165.868,197.427 L 170.477,197.427 L 175.569,183.599 L 180.629,197.427 L 185.915,197.427 L 177.471,174.221 L 173.635,174.221 L 168.156,189.144 L 162.709,174.221 L 158.874,174.221 Z" marker-start="none" marker-end="none"/>
      <path d="M 189.093,174.221 L 189.093,192.656 C 189.093,193.967 189.56,195.09 190.495,196.024 C 191.43,196.959 192.553,197.427 193.863,197.427 L 207.497,197.427 C 208.807,197.427 209.936,196.959 210.881,196.024 C 211.826,195.09 212.299,193.967 212.299,192.656 L 212.299,174.221 L 207.239,174.221 L 207.239,181.698 L 194.089,181.698 L 194.089,174.221 L 189.093,174.221 Z M 194.089,186.726 L 207.239,186.726 L 207.239,191.335 C 207.239,192.044 207.239,192.399 207.239,192.399 C 207.239,192.399 206.884,192.399 206.175,192.399 L 195.153,192.399 C 194.444,192.399 194.089,192.399 194.089,192.399 C 194.089,192.399 194.089,192.044 194.089,191.335 L 194.089,186.726 Z" marker-start="none" marker-end="none"/>
      <path d="M 217.5,174.221 L 217.5,197.459 L 222.495,197.459 L 222.495,179.248 L 240.705,179.248 L 240.705,174.221 L 217.5,174.221 Z" marker-start="none" marker-end="none"/>
      <path d="M 244.097,174.221 L 244.097,197.459 L 249.092,197.459 L 249.092,179.248 L 267.302,179.248 L 267.302,174.221 L 244.097,174.221 Z" marker-start="none" marker-end="none"/>
      <path d="M 270.725,174.221 L 270.725,197.427 L 292.159,197.427 L 292.159,192.399 L 275.785,192.399 L 275.785,188.337 L 288.968,188.337 L 288.968,183.31 L 275.785,183.31 L 275.785,179.248 L 292.159,179.248 L 292.159,174.221 L 270.725,174.221 Z" marker-start="none" marker-end="none"/>
      <path d="M 304.778,174.221 L 304.778,192.399 L 295.689,192.399 L 295.689,197.427 L 318.895,197.427 L 318.895,192.399 L 309.806,192.399 L 309.806,174.221 L 304.778,174.221 Z" marker-start="none" marker-end="none"/>
     </g>
    </g>
   </g>
  </g>
 </g>
</svg>
