<?xml version="1.0" standalone="no"?>
<!DOCTYPE svg PUBLIC "-//W3C//DTD SVG 1.1//EN" "http://www.w3.org/Graphics/SVG/1.1/DTD/svg11.dtd">
<!--Generator: Xara Designer (www.xara.com), SVG filter version: 6.6.0.1-->
<svg fill="none" fill-rule="evenodd" stroke="black" stroke-width="0.501" stroke-linejoin="bevel" stroke-miterlimit="10" font-family="Times New Roman" font-size="16" style="font-variant-ligatures:none" xmlns:xlink="http://www.w3.org/1999/xlink" xmlns="http://www.w3.org/2000/svg" version="1.1" overflow="visible" width="375pt" height="375pt" viewBox="0 -375 375 375">
 <defs>
	</defs>
 <g id="Layer 1" transform="scale(1 -1)">
  <g id="Group" stroke="none">
   <g id="Group_1" stroke-linejoin="miter" stroke-width="0.324">
    <path d="M 92.603,214.563 L 113.3,190.839 L 77.871,169.535 L 75.75,206.899 L 92.603,214.563 Z" fill="#0049e3" marker-start="none" marker-end="none"/>
    <path d="M 106.222,220.752 L 133.227,202.237 L 124.203,195.664 L 104.362,219.906 L 106.222,220.752 Z" fill="#64abff" marker-start="none" marker-end="none"/>
    <path d="M 137.77,192.395 L 140.482,173.223 L 130.595,186.166 L 137.77,192.395 Z" fill="#44fff1" marker-start="none" marker-end="none"/>
    <path d="M 122.503,178.401 L 135.485,161.062 L 112.851,147 L 98.332,156.296 L 122.503,178.401 Z" fill="#44fff1" marker-start="none" marker-end="none"/>
   </g>
   <g id="Group_2" letter-spacing="0.05em" font-weight="bold" font-family="Orbitron SemiBold" fill-rule="nonzero" stroke-linejoin="round" stroke-linecap="round" stroke-width="0.805" fill="#ffffff">
    <g id="Group_3">
     <g id="Group_4">
      <path d="M 169.149,187.123 C 167.838,187.123 166.716,187.591 165.781,188.525 C 164.846,189.46 164.379,190.582 164.379,191.894 L 164.379,194.053 L 169.375,194.053 L 169.375,193.214 C 169.375,192.505 169.375,192.151 169.375,192.151 C 169.375,192.151 169.73,192.151 170.439,192.151 L 181.461,192.151 C 182.17,192.151 182.525,192.151 182.525,192.151 C 182.525,192.151 182.525,192.505 182.525,193.214 L 182.525,195.149 C 182.525,195.858 182.525,196.212 182.525,196.212 C 182.525,196.212 182.17,196.212 181.461,196.212 L 169.149,196.212 C 167.838,196.212 166.716,196.68 165.781,197.615 C 164.846,198.549 164.379,199.672 164.379,200.983 L 164.379,205.559 C 164.379,206.87 164.846,207.992 165.781,208.927 C 166.716,209.862 167.838,210.329 169.149,210.329 L 182.815,210.329 C 184.104,210.329 185.222,209.862 186.167,208.927 C 187.112,207.992 187.585,206.87 187.585,205.559 L 187.585,203.4 L 182.525,203.4 L 182.525,204.238 C 182.525,204.947 182.525,205.302 182.525,205.302 C 182.525,205.302 182.17,205.302 181.461,205.302 L 170.439,205.302 C 169.73,205.302 169.375,205.302 169.375,205.302 C 169.375,205.302 169.375,204.947 169.375,204.238 L 169.375,202.304 C 169.375,201.595 169.375,201.24 169.375,201.24 C 169.375,201.24 169.73,201.24 170.439,201.24 L 182.815,201.24 C 184.104,201.24 185.222,200.773 186.167,199.838 C 187.112,198.904 187.585,197.781 187.585,196.47 L 187.585,191.894 C 187.585,190.582 187.112,189.46 186.167,188.525 C 185.222,187.591 184.104,187.123 182.815,187.123 L 169.149,187.123 Z" marker-start="none" marker-end="none"/>
      <path d="M 192.502,187.123 L 192.502,210.329 L 197.432,210.329 L 197.432,187.123 L 192.502,187.123 Z" marker-start="none" marker-end="none"/>
      <path d="M 200.987,187.123 L 200.987,210.297 L 219.39,210.297 C 220.701,210.297 221.829,209.824 222.775,208.879 C 223.72,207.934 224.193,206.816 224.193,205.526 L 224.193,199.532 C 224.193,198.243 223.72,197.125 222.775,196.18 C 221.829,195.235 220.701,194.762 219.39,194.762 L 219.164,194.762 L 224.193,188.832 L 224.193,187.123 L 219.036,187.123 L 212.622,194.762 L 205.982,194.73 L 205.982,187.123 L 200.987,187.123 Z M 207.046,199.79 L 218.069,199.79 C 218.778,199.79 219.133,199.79 219.133,199.79 C 219.133,199.79 219.133,200.144 219.133,200.853 L 219.133,204.238 C 219.133,204.947 219.133,205.302 219.133,205.302 C 219.133,205.302 218.778,205.302 218.069,205.302 L 207.046,205.302 C 206.337,205.302 205.982,205.302 205.982,205.302 C 205.982,205.302 205.982,204.947 205.982,204.238 L 205.982,200.853 C 205.982,200.144 205.982,199.79 205.982,199.79 C 205.982,199.79 206.337,199.79 207.046,199.79 Z" marker-start="none" marker-end="none"/>
      <path d="M 228.982,187.123 L 228.982,210.329 L 233.913,210.329 L 233.913,187.123 L 228.982,187.123 Z" marker-start="none" marker-end="none"/>
      <path d="M 242.206,187.123 C 240.894,187.123 239.772,187.591 238.837,188.525 C 237.903,189.46 237.435,190.582 237.435,191.894 L 237.435,210.329 L 242.431,210.329 L 242.431,193.214 C 242.431,192.505 242.431,192.151 242.431,192.151 C 242.431,192.151 242.786,192.151 243.495,192.151 L 254.518,192.151 C 255.227,192.151 255.581,192.151 255.581,192.151 C 255.581,192.151 255.581,192.505 255.581,193.214 L 255.581,210.329 L 260.641,210.329 L 260.641,191.894 C 260.641,190.582 260.169,189.46 259.223,188.525 C 258.278,187.591 257.16,187.123 255.871,187.123 L 242.206,187.123 Z" marker-start="none" marker-end="none"/>
      <path d="M 270.392,187.123 C 269.081,187.123 267.959,187.591 267.024,188.525 C 266.089,189.46 265.622,190.582 265.622,191.894 L 265.622,194.053 L 270.618,194.053 L 270.618,193.214 C 270.618,192.505 270.618,192.151 270.618,192.151 C 270.618,192.151 270.972,192.151 271.681,192.151 L 282.704,192.151 C 283.413,192.151 283.768,192.151 283.768,192.151 C 283.768,192.151 283.768,192.505 283.768,193.214 L 283.768,195.149 C 283.768,195.858 283.768,196.212 283.768,196.212 C 283.768,196.212 283.413,196.212 282.704,196.212 L 270.392,196.212 C 269.081,196.212 267.959,196.68 267.024,197.615 C 266.089,198.549 265.622,199.672 265.622,200.983 L 265.622,205.559 C 265.622,206.87 266.089,207.992 267.024,208.927 C 267.959,209.862 269.081,210.329 270.392,210.329 L 284.057,210.329 C 285.347,210.329 286.464,209.862 287.41,208.927 C 288.355,207.992 288.828,206.87 288.828,205.559 L 288.828,203.4 L 283.768,203.4 L 283.768,204.238 C 283.768,204.947 283.768,205.302 283.768,205.302 C 283.768,205.302 283.413,205.302 282.704,205.302 L 271.681,205.302 C 270.972,205.302 270.618,205.302 270.618,205.302 C 270.618,205.302 270.618,204.947 270.618,204.238 L 270.618,202.304 C 270.618,201.595 270.618,201.24 270.618,201.24 C 270.618,201.24 270.972,201.24 271.681,201.24 L 284.057,201.24 C 285.347,201.24 286.464,200.773 287.41,199.838 C 288.355,198.904 288.828,197.781 288.828,196.47 L 288.828,191.894 C 288.828,190.582 288.355,189.46 287.41,188.525 C 286.464,187.591 285.347,187.123 284.057,187.123 L 270.392,187.123 Z" marker-start="none" marker-end="none"/>
     </g>
    </g>
    <g id="Group_5">
     <g id="Group_6">
      <path d="M 172.824,157.422 L 164.379,180.628 L 169.697,180.628 L 174.757,166.8 L 179.818,180.628 L 184.427,180.628 L 189.519,166.8 L 194.579,180.628 L 199.865,180.628 L 191.421,157.422 L 187.585,157.422 L 182.106,172.345 L 176.659,157.422 L 172.824,157.422 Z" marker-start="none" marker-end="none"/>
      <path d="M 203.043,157.422 L 203.043,175.857 C 203.043,177.168 203.51,178.291 204.445,179.225 C 205.38,180.16 206.503,180.628 207.813,180.628 L 221.447,180.628 C 222.757,180.628 223.886,180.16 224.831,179.225 C 225.776,178.291 226.249,177.168 226.249,175.857 L 226.249,157.422 L 221.189,157.422 L 221.189,164.899 L 208.039,164.899 L 208.039,157.422 L 203.043,157.422 Z M 208.039,169.927 L 221.189,169.927 L 221.189,174.536 C 221.189,175.245 221.189,175.6 221.189,175.6 C 221.189,175.6 220.834,175.6 220.125,175.6 L 209.103,175.6 C 208.394,175.6 208.039,175.6 208.039,175.6 C 208.039,175.6 208.039,175.245 208.039,174.536 L 208.039,169.927 Z" marker-start="none" marker-end="none"/>
      <path d="M 231.45,157.422 L 231.45,180.66 L 236.445,180.66 L 236.445,162.449 L 254.655,162.449 L 254.655,157.422 L 231.45,157.422 Z" marker-start="none" marker-end="none"/>
      <path d="M 258.047,157.422 L 258.047,180.66 L 263.042,180.66 L 263.042,162.449 L 281.252,162.449 L 281.252,157.422 L 258.047,157.422 Z" marker-start="none" marker-end="none"/>
      <path d="M 284.675,157.422 L 284.675,180.628 L 306.109,180.628 L 306.109,175.6 L 289.735,175.6 L 289.735,171.538 L 302.918,171.538 L 302.918,166.511 L 289.735,166.511 L 289.735,162.449 L 306.109,162.449 L 306.109,157.422 L 284.675,157.422 Z" marker-start="none" marker-end="none"/>
      <path d="M 318.728,157.422 L 318.728,175.6 L 309.639,175.6 L 309.639,180.628 L 332.845,180.628 L 332.845,175.6 L 323.756,175.6 L 323.756,157.422 L 318.728,157.422 Z" marker-start="none" marker-end="none"/>
     </g>
    </g>
   </g>
  </g>
 </g>
</svg>
