<?xml version="1.0" standalone="no"?>
<!DOCTYPE svg PUBLIC "-//W3C//DTD SVG 1.1//EN" "http://www.w3.org/Graphics/SVG/1.1/DTD/svg11.dtd">
<!--Generator: Xara Designer (www.xara.com), SVG filter version: 6.6.0.1-->
<svg fill="none" fill-rule="evenodd" stroke="black" stroke-width="0.501" stroke-linejoin="bevel" stroke-miterlimit="10" font-family="Times New Roman" font-size="16" style="font-variant-ligatures:none" xmlns:xlink="http://www.w3.org/1999/xlink" xmlns="http://www.w3.org/2000/svg" version="1.1" overflow="visible" width="1350pt" height="1350pt" viewBox="0 -1350 1350 1350">
 <defs>
	</defs>
 <g id="Layer 1" transform="scale(1 -1)">
  <g id="Group" stroke-linejoin="miter" stroke="none" stroke-width="0.928">
   <path d="M 400.613,807.169 L 459.917,739.195 L 358.407,678.158 L 352.327,785.211 L 400.613,807.169 Z" fill="#0049e3" marker-start="none" marker-end="none"/>
   <path d="M 439.632,824.906 L 517.01,771.855 L 491.154,753.027 L 434.303,822.481 L 439.632,824.906 Z" fill="#64abff" marker-start="none" marker-end="none"/>
   <path d="M 530.031,743.654 L 537.795,688.724 L 509.467,725.807 L 530.031,743.654 Z" fill="#44fff1" marker-start="none" marker-end="none"/>
   <path d="M 486.282,703.568 L 523.483,653.883 L 458.629,613.591 L 417.027,640.229 L 486.282,703.568 Z" fill="#44fff1" marker-start="none" marker-end="none"/>
   <path d="M 595.858,674.384 C 590.844,674.384 586.545,676.173 582.972,679.746 C 579.403,683.319 577.618,687.653 577.618,692.758 L 577.618,700.539 L 595.858,700.539 L 595.858,697.093 C 595.858,694.544 595.947,693.181 596.115,693.019 C 596.291,692.845 597.645,692.758 600.199,692.758 L 646.509,692.758 C 649.149,692.758 650.53,692.845 650.657,693.019 C 650.786,693.181 650.856,694.544 650.856,697.093 L 650.856,706.788 C 650.856,709.344 650.786,710.707 650.657,710.878 C 650.53,711.045 649.149,711.129 646.509,711.129 L 595.858,711.129 C 590.844,711.129 586.545,712.914 582.972,716.487 C 579.403,720.062 577.618,724.353 577.618,729.373 L 577.618,747.877 C 577.618,752.98 579.403,757.312 582.972,760.885 C 586.545,764.463 590.844,766.25 595.858,766.25 L 651.107,766.25 C 656.039,766.25 660.334,764.463 663.989,760.885 C 667.648,757.312 669.478,752.98 669.478,747.877 L 669.478,740.097 L 650.856,740.097 L 650.856,743.536 C 650.856,746.087 650.786,747.449 650.657,747.622 C 650.53,747.791 649.149,747.877 646.509,747.877 L 600.199,747.877 C 597.645,747.877 596.291,747.791 596.115,747.622 C 595.947,747.449 595.858,746.087 595.858,743.536 L 595.858,733.843 C 595.858,731.288 595.947,729.924 596.115,729.762 C 596.291,729.584 597.645,729.506 600.199,729.506 L 651.107,729.506 C 656.039,729.506 660.334,727.715 663.989,724.142 C 667.648,720.567 669.478,716.272 669.478,711.256 L 669.478,692.758 C 669.478,687.653 667.648,683.319 663.989,679.746 C 660.334,676.173 656.039,674.384 651.107,674.384 L 595.858,674.384 Z" fill="#191919" fill-rule="nonzero" marker-start="none" marker-end="none"/>
   <path d="M 690,674.384 L 690,766.25 L 708.118,766.25 L 708.118,674.384 L 690,674.384 Z" fill="#191919" fill-rule="nonzero" marker-start="none" marker-end="none"/>
   <path d="M 724.772,674.384 L 724.772,766.115 L 798.264,766.115 C 803.28,766.115 807.595,764.31 811.214,760.697 C 814.831,757.086 816.635,752.769 816.635,747.746 L 816.635,723.505 C 816.635,718.572 814.831,714.293 811.214,710.685 C 807.595,707.07 803.28,705.263 798.264,705.263 L 795.326,705.263 L 816.51,680.124 L 816.51,674.384 L 797.24,674.384 L 771.344,705.263 L 743.145,705.129 L 743.145,674.384 L 724.772,674.384 Z M 747.357,723.635 L 793.796,723.635 C 796.352,723.635 797.713,723.718 797.882,723.891 C 798.048,724.062 798.139,725.421 798.139,727.972 L 798.139,743.536 C 798.139,746.087 798.048,747.429 797.882,747.553 C 797.713,747.684 796.352,747.746 793.796,747.746 L 747.357,747.746 C 744.808,747.746 743.465,747.684 743.34,747.553 C 743.214,747.429 743.145,746.087 743.145,743.536 L 743.145,727.972 C 743.145,725.421 743.214,724.062 743.34,723.891 C 743.465,723.718 744.808,723.635 747.357,723.635 Z" fill="#191919" fill-rule="nonzero" marker-start="none" marker-end="none"/>
   <path d="M 836.782,674.384 L 836.782,766.25 L 854.897,766.25 L 854.897,674.384 L 836.782,674.384 Z" fill="#191919" fill-rule="nonzero" marker-start="none" marker-end="none"/>
   <path d="M 889.802,674.384 C 884.697,674.384 880.364,676.173 876.785,679.746 C 873.217,683.319 871.427,687.653 871.427,692.758 L 871.427,766.25 L 889.802,766.25 L 889.802,697.093 C 889.802,694.544 889.866,693.181 889.988,693.019 C 890.122,692.845 891.46,692.758 894.01,692.758 L 940.453,692.758 C 943.004,692.758 944.366,692.845 944.534,693.019 C 944.707,693.181 944.79,694.544 944.79,697.093 L 944.79,766.25 L 963.284,766.25 L 963.284,692.758 C 963.284,687.653 961.484,683.319 957.871,679.746 C 954.254,676.173 949.934,674.384 944.918,674.384 L 889.802,674.384 Z" fill="#191919" fill-rule="nonzero" marker-start="none" marker-end="none"/>
   <path d="M 1002.44,674.384 C 997.421,674.384 993.124,676.173 989.551,679.746 C 985.977,683.319 984.193,687.653 984.193,692.758 L 984.193,700.539 L 1002.44,700.539 L 1002.44,697.093 C 1002.44,694.544 1002.52,693.181 1002.69,693.019 C 1002.86,692.845 1004.23,692.758 1006.77,692.758 L 1053.09,692.758 C 1055.73,692.758 1057.11,692.845 1057.24,693.019 C 1057.36,693.181 1057.43,694.544 1057.43,697.093 L 1057.43,706.788 C 1057.43,709.344 1057.36,710.707 1057.24,710.878 C 1057.11,711.045 1055.73,711.129 1053.09,711.129 L 1002.44,711.129 C 997.421,711.129 993.124,712.914 989.551,716.487 C 985.977,720.062 984.193,724.353 984.193,729.373 L 984.193,747.877 C 984.193,752.98 985.977,757.312 989.551,760.885 C 993.124,764.463 997.421,766.25 1002.44,766.25 L 1057.68,766.25 C 1062.61,766.25 1066.91,764.463 1070.57,760.885 C 1074.23,757.312 1076.05,752.98 1076.05,747.877 L 1076.05,740.097 L 1057.43,740.097 L 1057.43,743.536 C 1057.43,746.087 1057.36,747.449 1057.24,747.622 C 1057.11,747.791 1055.73,747.877 1053.09,747.877 L 1006.77,747.877 C 1004.23,747.877 1002.86,747.791 1002.69,747.622 C 1002.52,747.449 1002.44,746.087 1002.44,743.536 L 1002.44,733.843 C 1002.44,731.288 1002.52,729.924 1002.69,729.762 C 1002.86,729.584 1004.23,729.506 1006.77,729.506 L 1057.68,729.506 C 1062.61,729.506 1066.91,727.715 1070.57,724.142 C 1074.23,720.567 1076.05,716.272 1076.05,711.256 L 1076.05,692.758 C 1076.05,687.653 1074.23,683.319 1070.57,679.746 C 1066.91,676.173 1062.61,674.384 1057.68,674.384 L 1002.44,674.384 Z" fill="#191919" fill-rule="nonzero" marker-start="none" marker-end="none"/>
  </g>
 </g>
</svg>
