<?xml version="1.0" standalone="no"?>
<!DOCTYPE svg PUBLIC "-//W3C//DTD SVG 1.1//EN" "http://www.w3.org/Graphics/SVG/1.1/DTD/svg11.dtd">
<!--Generator: Xara Designer (www.xara.com), SVG filter version: 6.6.0.1-->
<svg fill="none" fill-rule="evenodd" stroke="black" stroke-width="0.501" stroke-linejoin="bevel" stroke-miterlimit="10" font-family="Times New Roman" font-size="16" style="font-variant-ligatures:none" xmlns:xlink="http://www.w3.org/1999/xlink" xmlns="http://www.w3.org/2000/svg" version="1.1" overflow="visible" width="1350pt" height="1350pt" viewBox="0 -1350 1350 1350">
 <defs>
	</defs>
 <g id="Layer 1" transform="scale(1 -1)">
  <g id="Group" stroke-linejoin="miter" stroke="none" stroke-width="0.928">
   <path d="M 394.786,818.329 L 454.089,750.354 L 352.58,689.317 L 346.5,796.37 L 394.786,818.329 Z" fill="#0049e3" marker-start="none" marker-end="none"/>
   <path d="M 433.804,836.065 L 511.183,783.014 L 485.327,764.186 L 428.475,833.64 L 433.804,836.065 Z" fill="#64abff" marker-start="none" marker-end="none"/>
   <path d="M 524.203,754.813 L 531.968,699.883 L 503.64,736.966 L 524.203,754.813 Z" fill="#44fff1" marker-start="none" marker-end="none"/>
   <path d="M 480.455,714.727 L 517.656,665.042 L 452.801,624.75 L 411.199,651.388 L 480.455,714.727 Z" fill="#44fff1" marker-start="none" marker-end="none"/>
   <path d="M 590.031,685.544 C 585.017,685.544 580.718,687.332 577.145,690.905 C 573.575,694.478 571.791,698.812 571.791,703.917 L 571.791,711.698 L 590.031,711.698 L 590.031,708.252 C 590.031,705.703 590.12,704.341 590.287,704.179 C 590.464,704.004 591.817,703.917 594.372,703.917 L 640.682,703.917 C 643.322,703.917 644.703,704.004 644.83,704.179 C 644.959,704.341 645.028,705.703 645.028,708.252 L 645.028,717.947 C 645.028,720.503 644.959,721.866 644.83,722.037 C 644.703,722.204 643.322,722.288 640.682,722.288 L 590.031,722.288 C 585.017,722.288 580.718,724.073 577.145,727.646 C 573.575,731.221 571.791,735.512 571.791,740.532 L 571.791,759.036 C 571.791,764.139 573.575,768.471 577.145,772.044 C 580.718,775.623 585.017,777.409 590.031,777.409 L 645.279,777.409 C 650.211,777.409 654.507,775.623 658.162,772.044 C 661.82,768.471 663.651,764.139 663.651,759.036 L 663.651,751.257 L 645.028,751.257 L 645.028,754.695 C 645.028,757.246 644.959,758.608 644.83,758.781 C 644.703,758.95 643.322,759.036 640.682,759.036 L 594.372,759.036 C 591.817,759.036 590.464,758.95 590.287,758.781 C 590.12,758.608 590.031,757.246 590.031,754.695 L 590.031,745.002 C 590.031,742.448 590.12,741.083 590.287,740.921 C 590.464,740.743 591.817,740.665 594.372,740.665 L 645.279,740.665 C 650.211,740.665 654.507,738.875 658.162,735.301 C 661.82,731.727 663.651,727.431 663.651,722.415 L 663.651,703.917 C 663.651,698.812 661.82,694.478 658.162,690.905 C 654.507,687.332 650.211,685.544 645.279,685.544 L 590.031,685.544 Z" fill="#ffffff" fill-rule="nonzero" marker-start="none" marker-end="none"/>
   <path d="M 684.172,685.544 L 684.172,777.409 L 702.291,777.409 L 702.291,685.544 L 684.172,685.544 Z" fill="#ffffff" fill-rule="nonzero" marker-start="none" marker-end="none"/>
   <path d="M 718.944,685.544 L 718.944,777.274 L 792.437,777.274 C 797.453,777.274 801.768,775.47 805.387,771.857 C 809.003,768.245 810.808,763.928 810.808,758.905 L 810.808,734.665 C 810.808,729.731 809.003,725.452 805.387,721.844 C 801.768,718.229 797.453,716.423 792.437,716.423 L 789.499,716.423 L 810.683,691.284 L 810.683,685.544 L 791.413,685.544 L 765.517,716.423 L 737.318,716.288 L 737.318,685.544 L 718.944,685.544 Z M 741.529,734.794 L 787.969,734.794 C 790.525,734.794 791.886,734.878 792.055,735.05 C 792.22,735.221 792.311,736.58 792.311,739.131 L 792.311,754.695 C 792.311,757.246 792.22,758.588 792.055,758.712 C 791.886,758.843 790.525,758.905 787.969,758.905 L 741.529,758.905 C 738.98,758.905 737.638,758.843 737.512,758.712 C 737.387,758.588 737.318,757.246 737.318,754.695 L 737.318,739.131 C 737.318,736.58 737.387,735.221 737.512,735.05 C 737.638,734.878 738.98,734.794 741.529,734.794 Z" fill="#ffffff" fill-rule="nonzero" marker-start="none" marker-end="none"/>
   <path d="M 830.955,685.544 L 830.955,777.409 L 849.07,777.409 L 849.07,685.544 L 830.955,685.544 Z" fill="#ffffff" fill-rule="nonzero" marker-start="none" marker-end="none"/>
   <path d="M 883.975,685.544 C 878.87,685.544 874.536,687.332 870.958,690.905 C 867.39,694.478 865.6,698.812 865.6,703.917 L 865.6,777.409 L 883.975,777.409 L 883.975,708.252 C 883.975,705.703 884.038,704.341 884.16,704.179 C 884.295,704.004 885.632,703.917 888.183,703.917 L 934.626,703.917 C 937.176,703.917 938.539,704.004 938.707,704.179 C 938.879,704.341 938.963,705.703 938.963,708.252 L 938.963,777.409 L 957.456,777.409 L 957.456,703.917 C 957.456,698.812 955.657,694.478 952.044,690.905 C 948.427,687.332 944.106,685.544 939.09,685.544 L 883.975,685.544 Z" fill="#ffffff" fill-rule="nonzero" marker-start="none" marker-end="none"/>
   <path d="M 996.607,685.544 C 991.593,685.544 987.296,687.332 983.723,690.905 C 980.15,694.478 978.365,698.812 978.365,703.917 L 978.365,711.698 L 996.607,711.698 L 996.607,708.252 C 996.607,705.703 996.689,704.341 996.862,704.179 C 997.035,704.004 998.398,703.917 1000.95,703.917 L 1047.26,703.917 C 1049.9,703.917 1051.28,704.004 1051.41,704.179 C 1051.53,704.341 1051.6,705.703 1051.6,708.252 L 1051.6,717.947 C 1051.6,720.503 1051.53,721.866 1051.41,722.037 C 1051.28,722.204 1049.9,722.288 1047.26,722.288 L 996.607,722.288 C 991.593,722.288 987.296,724.073 983.723,727.646 C 980.15,731.221 978.365,735.512 978.365,740.532 L 978.365,759.036 C 978.365,764.139 980.15,768.471 983.723,772.044 C 987.296,775.623 991.593,777.409 996.607,777.409 L 1051.86,777.409 C 1056.79,777.409 1061.08,775.623 1064.74,772.044 C 1068.4,768.471 1070.22,764.139 1070.22,759.036 L 1070.22,751.257 L 1051.6,751.257 L 1051.6,754.695 C 1051.6,757.246 1051.53,758.608 1051.41,758.781 C 1051.28,758.95 1049.9,759.036 1047.26,759.036 L 1000.95,759.036 C 998.398,759.036 997.035,758.95 996.862,758.781 C 996.689,758.608 996.607,757.246 996.607,754.695 L 996.607,745.002 C 996.607,742.448 996.689,741.083 996.862,740.921 C 997.035,740.743 998.398,740.665 1000.95,740.665 L 1051.86,740.665 C 1056.79,740.665 1061.08,738.875 1064.74,735.301 C 1068.4,731.727 1070.22,727.431 1070.22,722.415 L 1070.22,703.917 C 1070.22,698.812 1068.4,694.478 1064.74,690.905 C 1061.08,687.332 1056.79,685.544 1051.86,685.544 L 996.607,685.544 Z" fill="#ffffff" fill-rule="nonzero" marker-start="none" marker-end="none"/>
  </g>
 </g>
</svg>
