<svg id="Layer_1" data-name="Layer 1" xmlns="http://www.w3.org/2000/svg" viewBox="0 0 15 12"><defs><style>.cls-1{fill:#ee6723;}</style></defs><title>arrow-transaction-sender-out-orange-proximax-sirius-explorer</title><path class="cls-1" d="M14.36,3.34,11.93,9.8a.68.68,0,0,1-.36.4.71.71,0,0,1-.93-.35L9.76,8,5,10.1H5L1,11.94a.72.72,0,0,1-.94-.35.7.7,0,0,1,.35-.92L3.21,9.4h0l6.6-3a.7.7,0,0,1,.93.34l.47,1,1.58-4.23L8.52,1.93l.47,1a.7.7,0,0,1-.35.92L3.53,6.19a.71.71,0,0,1-.93-.35A.69.69,0,0,1,3,4.92l4.47-2L6.54,1a.68.68,0,0,1,0-.54A.7.7,0,0,1,7.42,0l6.52,2.4A.7.7,0,0,1,14.36,3.34Z"/></svg>