<?xml version="1.0" standalone="no"?>
<!DOCTYPE svg PUBLIC "-//W3C//DTD SVG 20010904//EN"
 "http://www.w3.org/TR/2001/REC-SVG-20010904/DTD/svg10.dtd">
<svg version="1.0" xmlns="http://www.w3.org/2000/svg"
 width="612.000000pt" height="612.000000pt" viewBox="0 0 612.000000 612.000000"
 preserveAspectRatio="xMidYMid meet">

<g transform="translate(0.000000,612.000000) scale(0.100000,-0.100000)"
fill="#000000" stroke="none">
<path d="M1396 4182 c5 -5 169 -108 364 -229 195 -121 558 -347 807 -502 249
-154 457 -281 463 -281 6 0 68 34 138 77 70 42 444 267 832 501 388 233 709
428 715 433 5 5 -657 9 -1660 9 -918 0 -1665 -4 -1659 -8z"/>
<path d="M1190 3000 l0 -1070 1870 0 1870 0 0 1071 c0 853 -3 1070 -12 1066
-12 -4 -862 -515 -1606 -964 -175 -106 -280 -163 -291 -160 -16 4 -553 334
-841 517 -195 123 -981 610 -986 610 -2 0 -4 -481 -4 -1070z m3252 8 l3 -162
50 -1 50 0 3 -292 2 -293 -385 0 -385 0 2 293 3 292 48 0 47 0 0 163 0 162
280 0 280 0 2 -162z"/>
<path d="M4000 2960 l0 -90 162 2 161 3 -1 85 0 85 -161 3 -161 2 0 -90z"/>
</g>
</svg>
