<svg xmlns="http://www.w3.org/2000/svg" width="17.556" height="18" viewBox="0 0 17.556 18">
  <g id="xpx" transform="translate(-1450 -107.043)">
    <g id="ProximaX_Logo_RGB" transform="translate(1450 107.043)">
      <g id="Group_1" data-name="Group 1" transform="translate(0)">
        <path id="Path_1" data-name="Path 1" d="M101.159,55.215a11.6,11.6,0,0,1,5.5-.324A19.441,19.441,0,0,0,98.367,53c-.426,0-.854.015-1.277.044a7.663,7.663,0,0,1,1.722,1.294c.3.3.905,1.01,1.321,1.084a2.733,2.733,0,0,0,1.026-.207" transform="translate(-89.588 -53)" fill="#f06623" fill-rule="evenodd"/>
        <path id="Path_2" data-name="Path 2" d="M127.787,78.708c-.216-.96-.5-1.914-.8-2.831-.155-.479-.324-.951-.491-1.425s-.343-.922-.532-1.377c-.832-1.951-.746-1.96.776-2.838a9.087,9.087,0,0,1,3.818-1.213c.041,0,.08.005.121.008a17.68,17.68,0,0,1-2.892,9.675" transform="translate(-113.124 -66.3)" fill="#79b6e3" fill-rule="evenodd"/>
        <path id="Path_3" data-name="Path 3" d="M63.9,94.627c.988-.778,2.094-1.522,2.9-2.029a34.78,34.78,0,0,1,3.315-1.805,4.08,4.08,0,0,1,1.165-.43.836.836,0,0,1,.362.039c.365.155.977,1.141.977,1.141l.007.01c.109.16.207.326.321.481s.233.355.34.53q.242.395.476.791c.255.43.53.878.757,1.32.379.735.909,1.776,1.364,2.89a17.667,17.667,0,0,1-4.816,4.3l-.251.153-.251-.153A17.658,17.658,0,0,1,63.9,94.627" transform="translate(-62.035 -84.015)" fill="#1fb4ac" fill-rule="evenodd"/>
        <path id="Path_4" data-name="Path 4" d="M58.585,54.54c.092.1.178.2.256.292.175.209.343.43.508.647a7.545,7.545,0,0,1,.549.769,16.2,16.2,0,0,1,.87,1.444.786.786,0,0,1,.056.379.509.509,0,0,1-.183.263c-.19.156-.282.2-.443.323-.71.52-1.387,1.073-2.075,1.618-.769.611-1.534,1.331-2.24,2.016-.486.472-1.036,1.038-1.547,1.637A17.666,17.666,0,0,1,52.918,56.7l.005-.3.268-.131a20,20,0,0,1,5.394-1.727" transform="translate(-52.915 -54.278)" fill="#f3a91d" fill-rule="evenodd"/>
      </g>
    </g>
  </g>
</svg>
