<svg xmlns="http://www.w3.org/2000/svg" xmlns:xlink="http://www.w3.org/1999/xlink" width="20" height="20" viewBox="0 0 400 400">
  <defs>
    <clipPath id="clip-SDA-icon">
      <rect width="400" height="400"/>
    </clipPath>
  </defs>
  <g id="SDA-icon" clip-path="url(#clip-SDA-icon)">
    <rect width="400" height="400" fill="#fff"/>
    <circle id="Ellipse_1" data-name="Ellipse 1" cx="200" cy="200" r="200" fill="#eee"/>
    <g id="Group_11" transform="translate(-398.708 869.844)">
      <path id="Path_1" data-name="Path 1" d="M678.343-751.387c36.94-10.517,52.618-7.8,81.43-4.807a288.081,288.081,0,0,0-122.8-28.008c-6.317,0-12.659.228-18.924.652a113.5,113.5,0,0,1,25.516,19.175c4.38,4.483,13.418,14.976,19.578,16.06,4.681.807,11.626-2.059,15.2-3.07" transform="translate(-38.246)" fill="#bfc8d1" fill-rule="evenodd"/>
      <path id="Path_2" data-name="Path 2" d="M748.713-586.479c-3.2-14.219-7.448-28.36-11.852-41.95-2.29-7.095-4.807-14.095-7.273-21.111-2.415-6.9-5.082-13.662-7.876-20.409-12.331-28.914-11.046-29.039,11.5-42.048,15.3-7.807,39.357-18.823,56.567-17.967.6.024,1.183.074,1.787.124a261.961,261.961,0,0,1-42.855,143.361" transform="translate(-62.792 -13.872)" fill="#bfc8d1" fill-rule="evenodd"/>
      <path id="Path_3" data-name="Path 3" d="M505.794-594.612c14.646-11.526,31.028-22.552,42.934-30.071a515.634,515.634,0,0,1,49.115-26.75c5.235-2.466,12.206-5.963,17.263-6.367a12.419,12.419,0,0,1,5.36.578c5.41,2.29,14.47,16.914,14.47,16.914l.1.151c1.611,2.366,3.071,4.832,4.757,7.121,1.787,2.467,3.448,5.259,5.032,7.85q3.587,5.856,7.047,11.727c3.775,6.366,7.852,13.011,11.224,19.553,5.611,10.9,13.462,26.322,20.206,42.825a261.8,261.8,0,0,1-71.364,63.666l-3.724,2.265-3.724-2.265a261.665,261.665,0,0,1-98.7-107.2" transform="translate(-9.51 -32.338)" fill="#bfc8d1" fill-rule="evenodd"/>
      <path id="Path_4" data-name="Path 4" d="M552.652-778.992c1.359,1.485,2.642,2.945,3.794,4.329,2.592,3.1,5.082,6.367,7.524,9.587,2.566,3.423,6.064,7.674,8.132,11.4,3.447,6.215,10.719,15.626,12.883,21.39,0,0,1.359,3.323.831,5.612a7.54,7.54,0,0,1-2.719,3.9c-2.819,2.315-4.176,3.018-6.567,4.781-10.517,7.7-20.56,15.9-30.751,23.981-11.4,9.06-22.721,19.733-33.191,29.871-7.2,7-15.351,15.375-22.924,24.256a261.753,261.753,0,0,1-20.985-107.15l.076-4.429,3.976-1.937a296.374,296.374,0,0,1,79.921-25.593" transform="translate(0 -1.334)" fill="#bfc8d1" fill-rule="evenodd"/>
    </g>
  </g>
</svg>
