<svg xmlns="http://www.w3.org/2000/svg" width="13.047" height="15" viewBox="0 0 13.047 15">
  <g id="cube" transform="translate(-33.336)">
    <g id="Group_84" data-name="Group 84" transform="translate(33.336 0)">
      <path id="Path_3617" data-name="Path 3617" d="M46.383,11.18a.151.151,0,0,1-.076.131l-.318.183L39.859,7.956,33.74,11.5l-.318-.183a.15.15,0,0,1-.076-.131l-.011-7.357a.151.151,0,0,1,.076-.131L39.789.022a.151.151,0,0,1,.151,0l.227.131,0,7.137,6.22,3.591Z" transform="translate(-33.336 -0.002)" fill="#6d81d5"/>
    </g>
    <g id="Group_85" data-name="Group 85" transform="translate(33.367 7.5)">
      <path id="Path_3618" data-name="Path 3618" d="M47.386,259.756a.152.152,0,0,1-.056.055l-6.377,3.67a.152.152,0,0,1-.151,0l-6.356-3.67a.149.149,0,0,1-.055-.055L40.882,256Z" transform="translate(-34.39 -256.001)" fill="#2944ae"/>
    </g>
    <g id="Group_86" data-name="Group 86" transform="translate(33.367 7.5)">
      <path id="Path_3619" data-name="Path 3619" d="M47.386,259.756a.152.152,0,0,1-.056.055l-6.377,3.67a.152.152,0,0,1-.151,0l-6.356-3.67a.149.149,0,0,1-.055-.055L40.882,256Z" transform="translate(-34.39 -256.001)" fill="#2944ae"/>
    </g>
    <path id="Path_3620" data-name="Path 3620" d="M141.185,258.064v.007l-3.345,1.938a.454.454,0,0,1-.455,0l-3.345-1.938v0L137.612,256Z" transform="translate(-97.753 -248.501)" fill="#213993"/>
    <g id="Group_87" data-name="Group 87" transform="translate(39.111 7.5)">
      <path id="Path_3621" data-name="Path 3621" d="M237.715,259.756a.152.152,0,0,1-.056.055l-6.377,3.67a.152.152,0,0,1-.151,0l-.667-.385,5.556-3.2a.152.152,0,0,0,0-.262l-5.551-3.2h0l.743-.43Z" transform="translate(-230.464 -256.001)" fill="#213993"/>
    </g>
    <g id="Group_88" data-name="Group 88" transform="translate(39.859)">
      <path id="Path_3622" data-name="Path 3622" d="M262.523,11.178a.153.153,0,0,1-.02.076L256,7.5l.005-7.5a.15.15,0,0,1,.076.02l6.356,3.67a.151.151,0,0,1,.076.131Z" transform="translate(-256)" fill="#5169cd"/>
    </g>
    <path id="Path_3623" data-name="Path 3623" d="M262.674,11.178a.153.153,0,0,1-.02.076l-.912-.526V4.28l-5.587-3.236V0a.149.149,0,0,1,.075.02l6.356,3.67a.151.151,0,0,1,.076.131Z" transform="translate(-216.291 0)" fill="#3351c5"/>
    <path id="Path_3624" data-name="Path 3624" d="M157.828,199.6v3.421l-.076.044a.151.151,0,0,1-.152,0l-2.816-1.631a.151.151,0,0,1-.076-.131v-3.334l2.968,1.719Z" transform="translate(-117.817 -192.166)" fill="#26d192"/>
    <g id="Group_89" data-name="Group 89" transform="translate(39.099 7.078)">
      <path id="Path_3625" data-name="Path 3625" d="M230.811,242.046v3.4a.15.15,0,0,1-.076-.02l-.684-.4v-3.421Z" transform="translate(-230.051 -241.606)" fill="#1ec186"/>
    </g>
    <g id="Group_90" data-name="Group 90" transform="translate(39.859 5.8)">
      <path id="Path_3626" data-name="Path 3626" d="M258.967,197.966V201.3a.151.151,0,0,1-.075.131l-2.816,1.631a.151.151,0,0,1-.076.02v-3.4Z" transform="translate(-256 -197.966)" fill="#23f1a8"/>
    </g>
    <g id="Group_91" data-name="Group 91" transform="translate(42.185 5.8)">
      <path id="Path_3627" data-name="Path 3627" d="M336.016,197.966V201.3a.151.151,0,0,1-.075.131l-.566.328v-3.421Z" transform="translate(-335.374 -197.966)" fill="#26d192"/>
    </g>
    <g id="Group_92" data-name="Group 92" transform="translate(36.892 4.016)">
      <path id="Path_3628" data-name="Path 3628" d="M154.785,138.74l2.814-1.63a.154.154,0,0,1,.154,0l2.814,1.63a.154.154,0,0,1,0,.266l-2.814,1.63a.154.154,0,0,1-.154,0l-2.814-1.63A.154.154,0,0,1,154.785,138.74Z" transform="translate(-154.709 -137.089)" fill="#9ff7d3"/>
    </g>
    <g id="Group_93" data-name="Group 93" transform="translate(39.125 4.016)">
      <path id="Path_3629" data-name="Path 3629" d="M234.555,139l-.567.328-3.058-1.843.658-.381a.153.153,0,0,1,.154,0l2.814,1.63A.153.153,0,0,1,234.555,139Z" transform="translate(-230.93 -137.087)" fill="#23f1a8"/>
    </g>
  </g>
</svg>
