<svg id="icon-waiting-for-transaction" xmlns="http://www.w3.org/2000/svg" width="20" height="20" viewBox="0 0 20 20">
  <path id="Path_757" data-name="Path 757" d="M20,0H0V20H20Z" fill="none"/>
  <path id="Path_758" data-name="Path 758" d="M3.667,2H17a1.672,1.672,0,0,1,1.667,1.667v15l-3.333-3.333H3.667A1.672,1.672,0,0,1,2,13.667v-10A1.672,1.672,0,0,1,3.667,2Zm6.667,7.5a.836.836,0,0,0,.833-.833V5.333a.833.833,0,1,0-1.667,0V8.667A.836.836,0,0,0,10.333,9.5ZM9.5,12.833h1.667V11.167H9.5Z" transform="translate(-0.333 -0.333)" fill="#f06623"/>
</svg>
