<svg id="swap_horiz_black_24dp" xmlns="http://www.w3.org/2000/svg" width="17" height="17" viewBox="0 0 17 17">
  <path id="Path_3710" data-name="Path 3710" d="M0,0H17V17H0Z" fill="none"/>
  <path id="Path_3711" data-name="Path 3711" d="M5.684,10.9,3.338,13.255a.433.433,0,0,0,0,.6L5.684,16.21a.42.42,0,0,0,.717-.3V14.395h5.072a.844.844,0,1,0,0-1.688H6.4V11.2A.418.418,0,0,0,5.684,10.9ZM17.931,8.191,15.584,5.837a.42.42,0,0,0-.717.3V7.643H9.786a.844.844,0,0,0,0,1.688h5.072v1.511a.418.418,0,0,0,.717.3l2.346-2.355a.415.415,0,0,0,.008-.591Z" transform="translate(-2.001 -2.728)" fill="#fff"/>
</svg>
