<svg id="Layer_1" data-name="Layer 1" xmlns="http://www.w3.org/2000/svg" viewBox="0 0 60 60"><defs><style>.cls-1{fill:#fff;}.cls-2{fill:none;}</style></defs><title>icon-transaction-partial-white</title><path class="cls-1" d="M30,0A30,30,0,1,0,60,30,30,30,0,0,0,30,0Zm0,58.12A28.12,28.12,0,1,1,58.12,30,28.15,28.15,0,0,1,30,58.12Z"/><path class="cls-1" d="M31.5,9.08V28.5H50.92A21,21,0,0,0,31.5,9.08Z"/><path class="cls-1" d="M9.08,28.5H28.5V9.08A21,21,0,0,0,9.08,28.5ZM26.5,11.35V26.5H11.35A19.07,19.07,0,0,1,26.5,11.35Z"/><path class="cls-1" d="M28.5,50.92V31.5H9.08A21,21,0,0,0,28.5,50.92Zm-2-2.27A19.07,19.07,0,0,1,11.35,33.5H26.5Z"/><path class="cls-1" d="M31.5,50.92A21,21,0,0,0,50.92,31.5H31.5Zm2-17.42H48.65A19.07,19.07,0,0,1,33.5,48.65Z"/><rect class="cls-2" x="-480" y="-347" width="1366" height="780"/></svg>