<svg id="account_balance_wallet_black_24dp" xmlns="http://www.w3.org/2000/svg" width="17" height="17" viewBox="0 0 17 17">
  <path id="Path_3670" data-name="Path 3670" d="M0,0H17V17H0Z" fill="none"/>
  <path id="Path_3671" data-name="Path 3671" d="M15.75,6.032V4.417A1.421,1.421,0,0,0,14.333,3H4.417A1.416,1.416,0,0,0,3,4.417v9.917A1.416,1.416,0,0,0,4.417,15.75h9.917a1.421,1.421,0,0,0,1.417-1.417V12.718a1.417,1.417,0,0,0,.708-1.218V7.25a1.417,1.417,0,0,0-.708-1.218ZM15.042,7.25V11.5H10.083V7.25ZM4.417,14.333V4.417h9.917V5.833h-4.25A1.421,1.421,0,0,0,8.667,7.25V11.5a1.421,1.421,0,0,0,1.417,1.417h4.25v1.417Z" transform="translate(-0.875 -0.875)" fill="#fff"/>
  <circle id="Ellipse_36" data-name="Ellipse 36" cx="1.063" cy="1.063" r="1.063" transform="translate(10.271 7.438)" fill="#fff"/>
</svg>
