<svg id="swap_horiz_black_24dp" xmlns="http://www.w3.org/2000/svg" width="20" height="20" viewBox="0 0 20 20">
  <path id="Path_3710" data-name="Path 3710" d="M0,0H20V20H0Z" fill="none"/>
  <path id="Path_3711" data-name="Path 3711" d="M6.119,11.817l-2.76,2.77a.51.51,0,0,0,0,.7l2.76,2.77a.494.494,0,0,0,.844-.348V15.927h5.968a.993.993,0,1,0,0-1.986H6.963V12.164A.491.491,0,0,0,6.119,11.817ZM20.527,8.629l-2.76-2.77a.494.494,0,0,0-.844.348V7.984H10.945a.993.993,0,0,0,0,1.986h5.968v1.777a.491.491,0,0,0,.844.348l2.76-2.77a.489.489,0,0,0,.01-.7Z" transform="translate(-1.786 -2.202)" fill="#007cff"/>
</svg>
