<svg id="supervisor_account_black_24dp" xmlns="http://www.w3.org/2000/svg" width="20" height="20" viewBox="0 0 20 20">
  <path id="Path_3765" data-name="Path 3765" d="M0,0H20V20H0Z" fill="none"/>
  <path id="Path_3766" data-name="Path 3766" d="M14.083,10.833A2.083,2.083,0,1,0,12,8.75,2.077,2.077,0,0,0,14.083,10.833ZM7.833,10a2.5,2.5,0,1,0-2.5-2.5A2.49,2.49,0,0,0,7.833,10Zm6.25,2.5c-1.525,0-4.583.767-4.583,2.292v1.042a.836.836,0,0,0,.833.833h7.5a.836.836,0,0,0,.833-.833V14.792C18.667,13.267,15.608,12.5,14.083,12.5Zm-6.25-.833C5.892,11.667,2,12.642,2,14.583v1.25a.836.836,0,0,0,.833.833h5V14.792A3.284,3.284,0,0,1,9.808,11.9,10.236,10.236,0,0,0,7.833,11.667Z" transform="translate(-0.333 -0.833)" fill="#007cff"/>
</svg>
