<?xml version="1.0" standalone="no"?>
<!DOCTYPE svg PUBLIC "-//W3C//DTD SVG 20010904//EN"
 "http://www.w3.org/TR/2001/REC-SVG-20010904/DTD/svg10.dtd">
<svg version="1.0" xmlns="http://www.w3.org/2000/svg"
 width="225.000000pt" height="225.000000pt" viewBox="0 0 225.000000 225.000000"
 preserveAspectRatio="xMidYMid meet">

<g transform="translate(0.000000,225.000000) scale(0.100000,-0.100000)"
fill="#000000" stroke="none">
<path d="M610 2234 c-38 -17 -75 -48 -93 -79 -7 -11 -14 -83 -17 -165 l-5
-145 -201 -5 c-249 -6 -246 -5 -242 -119 l3 -76 92 -3 c88 -3 93 -4 93 -25 0
-133 72 -1482 81 -1504 15 -40 48 -73 94 -94 38 -17 80 -19 710 -19 630 0 672
2 710 19 46 21 79 54 94 94 9 22 81 1371 81 1504 0 21 5 22 93 25 l92 3 3 71
c2 58 -1 75 -17 95 -19 24 -22 24 -223 29 l-203 5 -5 145 c-5 149 -10 168 -52
207 -56 53 -61 53 -575 53 -404 -1 -483 -3 -513 -16z m945 -192 c-3 -8 -5 -56
-5 -108 l0 -94 -425 0 -425 0 0 94 c0 52 -2 100 -5 108 -4 11 72 13 430 13
358 0 434 -2 430 -13z m252 -499 c-4 -54 -18 -359 -32 -678 -14 -319 -28 -599
-31 -622 l-5 -43 -614 0 -614 0 -5 43 c-3 23 -17 301 -31 617 -14 316 -28 621
-32 678 l-6 102 688 0 688 0 -6 -97z"/>
</g>
</svg>