<?xml version="1.0" standalone="no"?>
<!DOCTYPE svg PUBLIC "-//W3C//DTD SVG 20010904//EN"
 "http://www.w3.org/TR/2001/REC-SVG-20010904/DTD/svg10.dtd">
<svg version="1.0" xmlns="http://www.w3.org/2000/svg"
 width="200.000000pt" height="200.000000pt" viewBox="0 0 200.000000 200.000000"
 preserveAspectRatio="xMidYMid meet">

<g transform="translate(0.000000,200.000000) scale(0.100000,-0.100000)"
fill="#000000" stroke="none">
<path d="M947 1828 c-142 -38 -168 -245 -40 -315 83 -45 143 -37 210 29 83 82
81 159 -7 242 -27 25 -57 46 -67 46 -10 0 -27 2 -38 4 -11 3 -37 0 -58 -6z"/>
<path d="M925 1123 c-104 -54 -131 -150 -70 -244 44 -67 156 -99 224 -64 70
36 113 126 92 195 -14 46 -52 95 -92 115 -37 19 -116 18 -154 -2z"/>
<path d="M958 510 c-87 -27 -132 -85 -133 -170 0 -68 28 -117 82 -147 83 -45
143 -37 210 29 83 82 81 159 -7 242 -27 25 -57 46 -67 46 -10 0 -27 2 -38 5
-11 2 -32 0 -47 -5z"/>
</g>
</svg>
