<?xml version="1.0" standalone="no"?>
<!DOCTYPE svg PUBLIC "-//W3C//DTD SVG 20010904//EN"
 "http://www.w3.org/TR/2001/REC-SVG-20010904/DTD/svg10.dtd">
<svg version="1.0" xmlns="http://www.w3.org/2000/svg"
 width="225.000000pt" height="225.000000pt" viewBox="0 0 225.000000 225.000000"
 preserveAspectRatio="xMidYMid meet">

<g transform="translate(0.000000,225.000000) scale(0.100000,-0.100000)"
fill="#3B82F6" stroke="none">
<path d="M1018 1683 l-3 -448 -217 -3 c-120 -1 -218 -5 -218 -7 0 -6 540 -655
545 -655 5 0 545 649 545 655 0 2 -98 6 -217 7 l-218 3 -3 448 -2 447 -105 0
-105 0 -2 -447z"/>
<path d="M120 590 c0 -266 2 -316 16 -343 23 -45 63 -86 106 -108 36 -18 70
-19 883 -19 927 0 871 -3 938 59 66 60 67 68 67 411 l0 310 -105 0 -105 0 -2
-282 -3 -283 -790 0 -790 0 -3 283 -2 282 -105 0 -105 0 0 -310z"/>
</g>
</svg>
