<?xml version="1.0" standalone="no"?>
<!DOCTYPE svg PUBLIC "-//W3C//DTD SVG 20010904//EN"
 "http://www.w3.org/TR/2001/REC-SVG-20010904/DTD/svg10.dtd">
<svg version="1.0" xmlns="http://www.w3.org/2000/svg"
 width="219.000000pt" height="230.000000pt" viewBox="0 0 219.000000 230.000000"
 preserveAspectRatio="xMidYMid meet">

<g transform="translate(0.000000,230.000000) scale(0.100000,-0.100000)"
fill="#000000" stroke="none">
<path d="M1451 2065 l-126 -125 267 -267 268 -268 111 110 c122 121 139 146
139 202 0 36 -11 48 -218 255 l-218 218 -48 0 -49 0 -126 -125z"/>
<path d="M642 1257 l-562 -562 0 -273 0 -272 267 0 267 0 141 143 c78 78 331
333 563 567 l421 426 -267 267 -267 267 -563 -563z"/>
</g>
</svg>
