<?xml version="1.0" standalone="no"?>
<!DOCTYPE svg PUBLIC "-//W3C//DTD SVG 20010904//EN"
 "http://www.w3.org/TR/2001/REC-SVG-20010904/DTD/svg10.dtd">
<svg version="1.0" xmlns="http://www.w3.org/2000/svg"
 width="225.000000pt" height="225.000000pt" viewBox="0 0 225.000000 225.000000"
 preserveAspectRatio="xMidYMid meet">

<g transform="translate(0.000000,225.000000) scale(0.100000,-0.100000)"
fill="#000000" stroke="none">
<path d="M62 1725 c-43 -19 -67 -73 -53 -118 13 -40 1042 -1071 1084 -1087 16
-5 40 -7 55 -4 38 9 1078 1047 1093 1091 22 68 -42 140 -114 126 -21 -4 -158
-136 -511 -489 -266 -266 -486 -484 -491 -484 -4 0 -226 218 -492 485 -267
267 -491 485 -498 485 -7 0 -19 2 -27 5 -7 2 -28 -2 -46 -10z"/>
</g>
</svg>