<?xml version="1.0" standalone="no"?>
<!DOCTYPE svg PUBLIC "-//W3C//DTD SVG 20010904//EN"
 "http://www.w3.org/TR/2001/REC-SVG-20010904/DTD/svg10.dtd">
<svg version="1.0" xmlns="http://www.w3.org/2000/svg"
 width="225.000000pt" height="225.000000pt" viewBox="0 0 225.000000 225.000000"
 preserveAspectRatio="xMidYMid meet">

<g transform="translate(0.000000,225.000000) scale(0.100000,-0.100000)"
fill="#000000" stroke="none">
<path d="M699 1867 c-98 -41 -161 -98 -204 -184 -96 -194 -14 -429 183 -521
50 -24 70 -27 157 -27 93 0 105 2 167 33 137 67 212 187 212 342 0 112 -27
180 -100 259 -76 82 -149 115 -269 119 -76 2 -99 -1 -146 -21z"/>
<path d="M1585 1281 l-40 -6 -3 -57 c-3 -49 -6 -58 -25 -64 -12 -4 -38 -17
-56 -30 l-35 -24 -44 26 -44 26 -24 -23 c-14 -13 -40 -54 -59 -93 -32 -64 -34
-71 -19 -87 8 -9 29 -23 45 -29 30 -13 30 -13 27 -84 -3 -71 -3 -71 -40 -91
-21 -11 -40 -25 -42 -31 -6 -16 45 -122 78 -161 l27 -33 49 25 49 25 36 -25
c20 -13 45 -27 56 -30 16 -5 19 -16 19 -60 0 -64 2 -65 115 -65 113 0 115 1
115 65 0 44 3 55 19 60 11 3 36 17 56 30 l36 25 49 -25 49 -25 27 33 c33 39
84 145 78 161 -2 6 -21 20 -42 31 -37 20 -37 20 -40 91 -3 71 -3 71 27 84 16
6 37 20 45 29 15 16 13 23 -19 87 -19 39 -45 80 -59 93 l-24 23 -44 -26 -44
-25 -44 29 c-25 17 -51 30 -57 30 -9 0 -13 18 -13 54 0 30 -3 57 -7 59 -15 9
-139 15 -178 8z m149 -320 c46 -30 66 -70 66 -129 0 -48 -4 -57 -39 -95 -39
-41 -41 -42 -104 -42 -56 0 -69 4 -92 25 -43 40 -58 77 -52 134 4 42 10 55 45
88 37 34 47 38 94 38 35 0 63 -7 82 -19z"/>
<path d="M496 1019 c-75 -12 -167 -62 -220 -119 -80 -85 -116 -191 -116 -340
0 -86 13 -130 51 -166 l30 -29 577 -3 c317 -1 587 0 600 3 17 4 22 12 22 40 0
43 -12 50 -51 29 -42 -21 -94 -13 -132 23 -43 40 -103 136 -123 195 -22 66 -8
116 42 154 l34 27 -39 36 c-39 36 -53 74 -48 131 3 35 -37 38 -111 9 -48 -20
-76 -23 -177 -23 -101 0 -129 3 -175 22 -58 23 -84 25 -164 11z"/>
</g>
</svg>
