<?xml version="1.0" encoding="utf-8"?>
<!-- Generator: Adobe Illustrator 23.1.1, SVG Export Plug-In . SVG Version: 6.00 Build 0)  -->
<svg version="1.1" id="Layer_1" xmlns="http://www.w3.org/2000/svg" xmlns:xlink="http://www.w3.org/1999/xlink" x="0px" y="0px"
	 viewBox="0 0 60 60" style="enable-background:new 0 0 60 60;" xml:space="preserve">
<style type="text/css">
	.st0{fill:#306EB3;}
</style>
<title>icon-mosaics-green-16h_1</title>
<g>
	<path class="st0" d="M47.8,22.1c-0.2,0-0.3,0-0.5,0.1L31.6,29c-0.4,0.2-0.7,0.6-0.7,1l0,17.3c0,0.7,0.5,1.2,1.2,1.2l0,0
		c0.2,0,0.3,0,0.5-0.1l15.7-6.8c0.4-0.2,0.7-0.6,0.7-1.1V23.2C49,22.6,48.5,22.1,47.8,22.1C47.8,22.1,47.8,22.1,47.8,22.1z
		 M32.7,46.4v-16l14.5-6.3v16L32.7,46.4z M29.1,30v17.3c0,0.7-0.5,1.2-1.2,1.2c-0.2,0-0.3,0-0.5-0.1l-15.7-6.7
		c-0.4-0.2-0.8-0.6-0.8-1.1V23.3c0-0.7,0.5-1.2,1.2-1.2c0.2,0,0.3,0,0.5,0.1L28.4,29C28.8,29.2,29.1,29.6,29.1,30z M47,17.9
		l-16.6-7.3c-0.3-0.1-0.7-0.1-1,0L12.8,18c-0.6,0.3-0.9,1-0.6,1.6c0.1,0.3,0.3,0.5,0.6,0.6l16.6,7.3c0.2,0.1,0.3,0.1,0.5,0.1
		c0.2,0,0.3,0,0.5-0.1L47,20c0.6-0.3,0.9-1,0.6-1.6C47.5,18.2,47.3,18,47,17.9z M30,25.7L14.8,19l15.1-6.7L45,19L30,25.7z M30,0
		C13.4,0,0,13.4,0,30s13.4,30,30,30s30-13.4,30-30S46.6,0,30,0z M30,58.1C14.5,58.1,1.9,45.5,1.9,30S14.5,1.9,30,1.9
		S58.1,14.5,58.1,30c0,0,0,0,0,0C58.1,45.5,45.5,58.1,30,58.1z"/>
</g>
</svg>
