<?xml version="1.0" standalone="no"?>
<!DOCTYPE svg PUBLIC "-//W3C//DTD SVG 20010904//EN"
 "http://www.w3.org/TR/2001/REC-SVG-20010904/DTD/svg10.dtd">
<svg version="1.0" xmlns="http://www.w3.org/2000/svg"
 width="200.000000pt" height="200.000000pt" viewBox="0 0 200.000000 200.000000"
 preserveAspectRatio="xMidYMid meet">

<g transform="translate(0.000000,200.000000) scale(0.100000,-0.100000)"
fill="#000000" stroke="none">
<path d="M802 1975 c-431 -97 -742 -446 -793 -889 -10 -84 -9 -118 4 -207 68
-455 411 -801 852 -860 112 -15 157 -15 267 -1 453 61 803 424 858 890 21 168
-25 389 -113 552 -44 82 -145 218 -198 265 -107 96 -251 178 -398 227 -89 29
-108 31 -256 34 -113 3 -179 -1 -223 -11z m433 -109 c86 -24 229 -96 306 -154
119 -90 247 -261 297 -393 86 -232 64 -545 -54 -748 -122 -208 -296 -351 -521
-427 -102 -35 -313 -45 -439 -21 -318 60 -600 326 -691 652 -21 74 -28 280
-13 372 57 360 344 661 695 729 93 18 338 12 420 -10z"/>
<path d="M915 1547 c-19 -19 -37 -46 -41 -60 -23 -95 66 -182 160 -156 99 27
128 150 50 218 -29 26 -43 31 -85 31 -44 0 -55 -4 -84 -33z"/>
<path d="M932 1230 c-61 -37 -63 -55 -60 -415 3 -306 4 -324 23 -345 68 -76
177 -64 219 24 23 48 24 627 2 681 -18 42 -69 75 -116 75 -19 0 -50 -9 -68
-20z"/>
</g>
</svg>
