<?xml version="1.0" standalone="no"?>
<!DOCTYPE svg PUBLIC "-//W3C//DTD SVG 20010904//EN"
 "http://www.w3.org/TR/2001/REC-SVG-20010904/DTD/svg10.dtd">
<svg version="1.0" xmlns="http://www.w3.org/2000/svg"
 width="225.000000pt" height="225.000000pt" viewBox="0 0 225.000000 225.000000"
 preserveAspectRatio="xMidYMid meet">

<g transform="translate(0.000000,225.000000) scale(0.100000,-0.100000)"
fill="#000000" stroke="none">
<path d="M344 1761 c-23 -10 -54 -36 -70 -57 l-29 -37 0 -542 0 -542 29 -37
c59 -77 42 -76 665 -76 541 0 556 1 598 21 37 18 69 57 258 324 118 166 215
306 215 310 0 4 -97 144 -215 310 -189 267 -221 306 -258 324 -42 20 -57 21
-598 21 -519 0 -557 -2 -595 -19z m1276 -400 c89 -126 162 -232 162 -236 0 -4
-73 -110 -162 -236 l-163 -229 -518 0 -519 0 0 465 0 465 519 0 518 0 163
-229z"/>
</g>
</svg>
