<?xml version="1.0" standalone="no"?>
<!DOCTYPE svg PUBLIC "-//W3C//DTD SVG 20010904//EN"
 "http://www.w3.org/TR/2001/REC-SVG-20010904/DTD/svg10.dtd">
<svg version="1.0" xmlns="http://www.w3.org/2000/svg"
 width="225.000000pt" height="225.000000pt" viewBox="0 0 225.000000 225.000000"
 preserveAspectRatio="xMidYMid meet">

<g transform="translate(0.000000,225.000000) scale(0.100000,-0.100000)"
fill="#000000" stroke="none">
<path d="M218 1663 c-223 -222 -235 -241 -205 -299 9 -16 105 -118 215 -226
187 -186 201 -198 236 -198 70 0 116 72 85 133 -6 12 -59 70 -117 130 l-107
107 543 0 c597 0 597 0 621 59 15 35 9 68 -18 102 l-19 24 -568 3 -567 2 121
124 c109 110 122 126 122 158 0 52 -37 88 -91 88 -42 0 -46 -3 -251 -207z"/>
<path d="M1719 1281 c-21 -22 -29 -39 -29 -66 0 -33 11 -48 117 -156 l116
-119 -540 0 c-369 0 -550 -4 -572 -11 -61 -21 -78 -111 -30 -155 20 -18 49
-19 587 -22 l565 -2 -121 -124 c-109 -110 -122 -126 -122 -158 0 -52 37 -88
91 -88 42 0 46 3 251 207 223 222 235 241 205 299 -9 16 -105 118 -215 227
-187 185 -201 197 -236 197 -28 0 -45 -7 -67 -29z"/>
</g>
</svg>
