<svg xmlns="http://www.w3.org/2000/svg" xmlns:xlink="http://www.w3.org/1999/xlink" width="800" height="800" viewBox="0 0 800 800">
  <defs>
    <clipPath id="clip-xar">
      <rect width="800" height="800"/>
    </clipPath>
  </defs>
  <g id="xar" clip-path="url(#clip-xar)">
    <rect width="800" height="800" fill="#fff"/>
    <g id="Group_114" data-name="Group 114" transform="translate(-92.904 -91.748)">
      <path id="Path_3895" data-name="Path 3895" d="M542.665,289.2l-37.565.819,31.362,44.823Z" transform="translate(162.084 67.462)" fill="#0070ff"/>
      <path id="Path_3896" data-name="Path 3896" d="M334.91,529.83l70.375-25L347.663,460.62Z" transform="translate(64.33 165.924)" fill="#0070ff"/>
      <path id="Path_3897" data-name="Path 3897" d="M662.634,629.346,694,584.523l6.2,45.641Zm-105.625-.2L438.363,773.481,284.152,673.161,437.324,523.122l119.7-5.6V629.141ZM400.767,356.93l-12.753-69.21,70.391,25.017Zm196.578,10.155,80.53-78.892,67.289,104-66.707,81.175-81.128-3.794V367.085Zm91.787,126.329,71.084-89.535c3.574-4.5,3.574-12.69,0-18.389L685.951,267.505a15.489,15.489,0,0,0-8.061-6.77,8,8,0,0,0-8.218,1.685L576.61,349.609v-1.763l.283-.236L446.377,183.228c-8.061-10.155-21.38-14.421-29.787-9.32l-184.88,112.38c-11.729,7.132-11.729,22.057,0,33.046l184.88,173.2h0l2.739,2.094L238.369,664.171c-11.729,10.989-11.729,25.914,0,33.046l184.9,112.38c4.2,2.55,9.667,2.755,15.083,1.023a31.143,31.143,0,0,0,14.689-10.344L579.995,640.4l89.677,84.009c4.566,4.282,11.855,1.952,16.279-5.085l74.264-117.984c3.574-5.684,3.574-13.87,0-18.389Z" fill="#0070ff"/>
    </g>
  </g>
</svg>
