<?xml version="1.0" encoding="utf-8"?>
<!-- Generator: Adobe Illustrator 23.1.1, SVG Export Plug-In . SVG Version: 6.00 Build 0)  -->
<svg version="1.1" id="Layer_1" xmlns="http://www.w3.org/2000/svg" xmlns:xlink="http://www.w3.org/1999/xlink" x="0px" y="0px"
	 viewBox="0 0 60 60" style="enable-background:new 0 0 60 60;" xml:space="preserve">
<style type="text/css">
	.st0{fill:#306EB3;}
</style>
<title>icon-namespace-mosaic-duration-02</title>
<g>
	<path class="st0" d="M1.1,34.4c0.2,0.4,0.6,0.7,1.1,0.7h3.6C8.1,48.1,19.1,58,32.2,58C47,58,59,45.4,59,30S47,2,32.2,2
		C22.5,2.1,13.6,7.5,9,16c-0.7,1.2-0.3,2.7,0.9,3.5c1.1,0.7,2.6,0.3,3.3-0.8c0,0,0.1-0.1,0.1-0.1c3.8-7,11.1-11.4,19-11.4
		c12.1,0,21.9,10.3,21.9,22.9s-9.9,22.9-21.9,22.9c-10.4,0-19.1-7.6-21.4-17.8h3.6c0.5,0,0.9-0.3,1.1-0.7c0.2-0.4,0.1-1-0.2-1.4
		l-6.1-7.6c-0.4-0.5-1.2-0.6-1.7-0.2c-0.1,0.1-0.1,0.1-0.2,0.2L1.3,33C1,33.4,0.9,33.9,1.1,34.4z"/>
</g>
<g>
	<path class="st0" d="M34,10.1v12.3c3.4,0.2,6.1,3,6.1,6.4c0,1.7-0.7,3.3-1.8,4.5v14.5c0,0.1,0,0.1,0,0.2
		c10.3-3.2,16-14.1,12.9-24.3C48.8,16.1,42,10.7,34,10.1L34,10.1z"/>
</g>
<g>
	<path class="st0" d="M33.8,50.5c1.4,0,2.5-1.2,2.4-2.5c0,0,0,0,0,0V32.5c1.2-0.9,1.8-2.2,1.8-3.6c0-2.4-1.9-4.4-4.3-4.4
		c-0.6,0-1.2,0.2-1.8,0.4l-8.5-5.1c-0.4-0.2-0.8-0.3-1.2-0.4c-0.9,0-1.7,0.5-2.1,1.3c-0.7,1.2-0.3,2.7,0.9,3.5l8.5,5.1
		c0.1,1.3,0.7,2.5,1.8,3.3v15.4C31.4,49.3,32.5,50.4,33.8,50.5C33.8,50.5,33.8,50.5,33.8,50.5z M33.8,26.9c1.1,0,1.9,0.8,2,1.8
		c0,1.1-0.8,1.9-1.8,2c-1.1,0-1.9-0.8-2-1.8c0,0,0-0.1,0-0.1C32,27.8,32.8,27,33.8,26.9C33.8,26.9,33.8,26.9,33.8,26.9z"/>
</g>
</svg>
