<?xml version="1.0" encoding="utf-8"?>
<!-- Generator: Adobe Illustrator 23.1.1, SVG Export Plug-In . SVG Version: 6.00 Build 0)  -->
<svg version="1.1" id="Layer_1" xmlns="http://www.w3.org/2000/svg" xmlns:xlink="http://www.w3.org/1999/xlink" x="0px" y="0px"
	 viewBox="0 0 60 60" style="enable-background:new 0 0 60 60;" xml:space="preserve">
<style type="text/css">
	.st0{fill:#306EB3;}
</style>
<title>icon-namespace-mosaic-duration-01</title>
<g>
	<path class="st0" d="M58.9,25.6c-0.2-0.4-0.6-0.7-1.1-0.7h-3.6C51.9,11.9,40.9,2,27.8,2C13,2,1,14.6,1,30s12,28,26.8,28
		c9.7-0.1,18.6-5.5,23.2-14c0.7-1.2,0.3-2.7-0.9-3.5c-1.1-0.7-2.6-0.3-3.3,0.8c0,0-0.1,0.1-0.1,0.1c-3.8,7-11.1,11.4-19,11.5
		C15.7,52.9,5.9,42.6,5.9,30S15.7,7.1,27.8,7.1c10.4,0,19.1,7.6,21.4,17.8h-3.6c-0.5,0-0.9,0.3-1.1,0.7c-0.2,0.4-0.1,1,0.2,1.4
		l6.1,7.6c0.4,0.5,1.2,0.6,1.7,0.2c0.1-0.1,0.1-0.1,0.2-0.2l6.1-7.6C59,26.6,59.1,26.1,58.9,25.6z"/>
</g>
<g>
	<path class="st0" d="M27.8,8.4c-1.4,0-2.5,1.2-2.4,2.5c0,0,0,0,0,0v15.4c-1.2,0.9-1.8,2.2-1.8,3.6c-0.1,2.4,1.9,4.4,4.3,4.5
		c0.6,0,1.2-0.1,1.8-0.4l8.5,5.1c0.4,0.2,0.8,0.3,1.2,0.3c0.9,0,1.7-0.5,2.1-1.3c0.7-1.2,0.3-2.7-0.9-3.5L32,29.6
		c-0.1-1.3-0.8-2.5-1.8-3.2V10.9C30.2,9.5,29.2,8.4,27.8,8.4z M27.8,31.9c-1.1,0-1.9-0.8-2-1.8c0-1.1,0.8-1.9,1.8-2
		c1.1,0,1.9,0.8,2,1.8c0,0,0,0.1,0,0.1C29.7,31,28.8,31.9,27.8,31.9C27.8,31.9,27.8,31.9,27.8,31.9z"/>
</g>
</svg>
