<svg id="widgets_black_24dp" xmlns="http://www.w3.org/2000/svg" width="30" height="30" viewBox="0 0 30 30">
  <path id="Path_666" data-name="Path 666" d="M0,0H30V30H0Z" fill="none"/>
  <path id="Path_667" data-name="Path 667" d="M15.5,16.973v7.5a1.254,1.254,0,0,0,1.25,1.25h7.5a1.254,1.254,0,0,0,1.25-1.25v-7.5a1.254,1.254,0,0,0-1.25-1.25h-7.5A1.254,1.254,0,0,0,15.5,16.973ZM4.25,25.723h7.5A1.254,1.254,0,0,0,13,24.473v-7.5a1.254,1.254,0,0,0-1.25-1.25H4.25A1.254,1.254,0,0,0,3,16.973v7.5A1.254,1.254,0,0,0,4.25,25.723ZM3,4.473v7.5a1.254,1.254,0,0,0,1.25,1.25h7.5A1.254,1.254,0,0,0,13,11.973v-7.5a1.254,1.254,0,0,0-1.25-1.25H4.25A1.254,1.254,0,0,0,3,4.473Zm16.188-2-5.312,5.3a1.245,1.245,0,0,0,0,1.762l5.313,5.313a1.245,1.245,0,0,0,1.763,0l5.313-5.313a1.245,1.245,0,0,0,0-1.762l-5.3-5.3a1.26,1.26,0,0,0-1.775,0Z" transform="translate(0.75 0.527)" fill="#007cff"/>
</svg>
