<?xml version="1.0" encoding="utf-8"?>
<!-- Generator: Adobe Illustrator 23.1.1, SVG Export Plug-In . SVG Version: 6.00 Build 0)  -->
<svg version="1.1" id="Layer_1" xmlns="http://www.w3.org/2000/svg" xmlns:xlink="http://www.w3.org/1999/xlink" x="0px" y="0px"
	 viewBox="0 0 60 60" style="enable-background:new 0 0 60 60;" xml:space="preserve">
<style type="text/css">
	.st0{fill:#306EB3;}
</style>
<title>icon-namespace-mosaic-duration-03</title>
<g>
	<path class="st0" d="M58.9,25.8c-0.2-0.4-0.6-0.7-1.1-0.7h-3.6C51.5,10.5,37.4,0.8,22.8,3.5S-1.5,20.3,1.2,34.9S18,59.2,32.6,56.5
		c7.7-1.4,14.5-6.2,18.4-13c0.7-1.2,0.3-2.7-0.9-3.4c-1.2-0.7-2.6-0.3-3.3,0.9c0,0,0,0,0,0c-6.1,10.6-19.6,14.3-30.2,8.2
		S2.3,29.6,8.4,19S28,4.8,38.6,10.8c5.3,3.1,9.2,8.2,10.5,14.2h-3.5c-0.7,0-1.2,0.6-1.2,1.2c0,0.3,0.1,0.5,0.3,0.8l6.1,7.4
		c0.2,0.3,0.6,0.4,0.9,0.4c0.4,0,0.7-0.2,0.9-0.4l6.1-7.4C59,26.7,59.1,26.2,58.9,25.8z"/>
</g>
<g>
	<path class="st0" d="M43.2,29c-0.8-1-0.9-2.3-0.4-3.4c0.5-1.2,1.7-1.9,2.9-1.9H46c-2.2-6.1-7.3-10.8-13.7-12.3c0,0.1,0,0.2,0,0.3
		v14.6c0.8,0.8,1.4,1.8,1.7,2.9l7.7,4.6c2.1,1.3,2.8,4,1.6,6.2c-0.8,1.4-2.2,2.3-3.9,2.3c-0.8,0-1.6-0.2-2.3-0.6L29.5,37
		c-0.5,0.1-1.1,0.2-1.6,0.2c-3.5-0.1-6.3-2.9-6.3-6.5c0-1.7,0.7-3.3,1.8-4.5V11.6c0-0.2,0-0.3,0-0.5C13,13.4,6.3,23.8,8.5,34.3
		s12.6,17.2,23.1,15c7.8-1.7,13.8-7.9,15.1-15.8L43.2,29z"/>
</g>
<g>
	<path class="st0" d="M27.9,9.1c-1.4,0-2.5,1.2-2.4,2.5c0,0,0,0,0,0v15.4c-1.2,0.9-1.8,2.2-1.8,3.6c-0.1,2.4,1.9,4.4,4.3,4.4
		c0.6,0,1.2-0.1,1.8-0.4l8.5,5.1c0.4,0.2,0.8,0.4,1.2,0.3c0.9,0,1.7-0.5,2.1-1.3c0.7-1.2,0.3-2.7-0.9-3.5l-8.5-5.1
		c-0.1-1.3-0.7-2.5-1.8-3.3V11.6C30.4,10.3,29.3,9.1,27.9,9.1C27.9,9.1,27.9,9.1,27.9,9.1z M27.9,32.7c-1.1,0-1.9-0.8-2-1.8
		c0-1.1,0.8-1.9,1.8-2c1.1,0,1.9,0.8,2,1.8c0,0,0,0.1,0,0.1C29.8,31.8,29,32.6,27.9,32.7C27.9,32.6,27.9,32.6,27.9,32.7z"/>
</g>
</svg>
