<svg xmlns="http://www.w3.org/2000/svg" xmlns:xlink="http://www.w3.org/1999/xlink" width="758" height="198" viewBox="0 0 758 198">
  <defs>
    <filter id="Rectangle_234" x="-9" y="-6" width="776" height="216" filterUnits="userSpaceOnUse">
      <feOffset dy="3" input="SourceAlpha"/>
      <feGaussianBlur stdDeviation="3" result="blur"/>
      <feFlood flood-color="#cfd6dd" flood-opacity="0.651"/>
      <feComposite operator="in" in2="blur"/>
      <feComposite in="SourceGraphic"/>
    </filter>
    <clipPath id="clip-path">
      <g transform="matrix(1, 0, 0, 1, 0, 0)" filter="url(#Rectangle_234)">
        <rect id="Rectangle_234-2" data-name="Rectangle 234" width="758" height="198" rx="10" transform="translate(1163 80)" fill="#fff" stroke="#e7e7ef" stroke-width="1"/>
      </g>
    </clipPath>
  </defs>
  <g id="content" transform="translate(-1163 -80)" clip-path="url(#clip-path)">
    <g id="successful" transform="translate(0 11)">
      <g id="gpp_good_black_24dp" transform="translate(1254 136)">
        <g id="Group_50" data-name="Group 50">
          <path id="Path_755" data-name="Path 755" d="M0,0H20V20H0Z" fill="none"/>
        </g>
        <g id="Group_51" data-name="Group 51" transform="translate(3.333 1.778)">
          <path id="Path_756" data-name="Path 756" d="M10.083,2.239l-5,1.875A1.678,1.678,0,0,0,4,5.681V9.606c0,4.208,2.842,8.133,6.667,9.092,3.825-.958,6.667-4.883,6.667-9.092V5.681A1.667,1.667,0,0,0,16.25,4.122l-5-1.875A1.61,1.61,0,0,0,10.083,2.239ZM9.192,12.714,7.425,10.947a.83.83,0,0,1,0-1.175h0a.83.83,0,0,1,1.175,0l1.175,1.175L12.725,8A.83.83,0,0,1,13.9,8h0a.83.83,0,0,1,0,1.175l-3.533,3.533A.822.822,0,0,1,9.192,12.714Z" transform="translate(-4 -2.134)" fill="#007cff"/>
        </g>
      </g>
      <text id="_300" data-name="300" transform="translate(1300 154)" font-size="24" font-family="SegoeUI, Segoe UI"><tspan x="-19.406" y="0">300</tspan></text>
      <text id="Successful_Transactions" data-name="Successful
Transactions" transform="translate(1289 186)" font-size="12" font-family="SegoeUI, Segoe UI"><tspan x="-27.082" y="0">Successful</tspan><tspan x="-32.47" y="16">Transactions</tspan></text>
    </g>
    <g id="pending" transform="translate(73.335 11)">
      <text id="_1" data-name="1" transform="translate(1479.665 154)" font-size="24" font-family="SegoeUI, Segoe UI"><tspan x="-6.469" y="0">1</tspan></text>
      <g id="pending_black_24dp" transform="translate(1451.665 136)">
        <g id="Group_48" data-name="Group 48">
          <rect id="Rectangle_231" data-name="Rectangle 231" width="20" height="20" fill="none"/>
          <rect id="Rectangle_232" data-name="Rectangle 232" width="20" height="20" fill="none"/>
        </g>
        <g id="Group_49" data-name="Group 49" transform="translate(1.667 1.667)">
          <path id="Path_754" data-name="Path 754" d="M10.333,2a8.333,8.333,0,1,0,8.333,8.333A8.336,8.336,0,0,0,10.333,2ZM6.167,11.583a1.25,1.25,0,1,1,1.25-1.25A1.248,1.248,0,0,1,6.167,11.583Zm4.167,0a1.25,1.25,0,1,1,1.25-1.25A1.248,1.248,0,0,1,10.333,11.583Zm4.167,0a1.25,1.25,0,1,1,1.25-1.25A1.248,1.248,0,0,1,14.5,11.583Z" transform="translate(-2 -2)" fill="#f3a91d"/>
        </g>
      </g>
      <text id="Unconfirmed_Transactions" data-name="Unconfirmed
Transactions" transform="translate(1468.665 186)" font-size="12" font-family="SegoeUI, Segoe UI"><tspan x="-34.456" y="0">Unconfirmed</tspan><tspan x="-32.47" y="16">Transactions</tspan></text>
    </g>
    <g id="action_required" data-name="action required" transform="translate(146.665 11)">
      <g id="announcement_black_24dp" transform="translate(1629.665 136)">
        <path id="Path_757" data-name="Path 757" d="M20,0H0V20H20Z" fill="none"/>
        <path id="Path_758" data-name="Path 758" d="M3.667,2H17a1.672,1.672,0,0,1,1.667,1.667v15l-3.333-3.333H3.667A1.672,1.672,0,0,1,2,13.667v-10A1.672,1.672,0,0,1,3.667,2Zm6.667,7.5a.836.836,0,0,0,.833-.833V5.333a.833.833,0,1,0-1.667,0V8.667A.836.836,0,0,0,10.333,9.5ZM9.5,12.833h1.667V11.167H9.5Z" transform="translate(-0.333 -0.333)" fill="#f06623"/>
      </g>
      <text id="_0" data-name="0" transform="translate(1659.665 154)" font-size="24" font-family="SegoeUI, Segoe UI"><tspan x="-6.469" y="0">0</tspan></text>
      <text id="Waiting_for_Signing" data-name="Waiting for
Signing" transform="translate(1650.665 186)" font-size="12" font-family="SegoeUI, Segoe UI"><tspan x="-29.414" y="0">Waiting for</tspan><tspan x="-19.951" y="16">Signing</tspan></text>
    </g>
  </g>
</svg>
