<svg xmlns="http://www.w3.org/2000/svg" xmlns:xlink="http://www.w3.org/1999/xlink" width="365" height="200" viewBox="0 0 365 200">
  <defs>
    <filter id="Rectangle_235" x="-9" y="-6" width="383" height="218" filterUnits="userSpaceOnUse">
      <feOffset dy="3" input="SourceAlpha"/>
      <feGaussianBlur stdDeviation="3" result="blur"/>
      <feFlood flood-color="#cfd6dd" flood-opacity="0.651"/>
      <feComposite operator="in" in2="blur"/>
      <feComposite in="SourceGraphic"/>
    </filter>
    <clipPath id="clip-path">
      <g transform="matrix(1, 0, 0, 1, 0, 0)" filter="url(#Rectangle_235)">
        <rect id="Rectangle_235-2" data-name="Rectangle 235" width="365" height="200" rx="10" transform="translate(352 68)" fill="#33344a" stroke="#e7e7ef" stroke-width="1"/>
      </g>
    </clipPath>
  </defs>
  <g id="Mask_Group_5" data-name="Mask Group 5" transform="translate(-352 -68)" opacity="0.1" clip-path="url(#clip-path)">
    <g id="xpx" transform="translate(-850.571 -39.614)">
      <g id="ProximaX_Logo_RGB" transform="translate(1450 107.043)">
        <g id="Group_1" data-name="Group 1" transform="translate(0)">
          <path id="Path_1" data-name="Path 1" d="M124.572,67.957c16.838-4.794,23.984-3.556,37.117-2.191A131.3,131.3,0,0,0,105.715,53c-2.879,0-5.77.1-8.625.3a51.757,51.757,0,0,1,11.63,8.74c2,2.042,6.114,6.825,8.924,7.318,2.133.367,5.3-.941,6.928-1.4" transform="translate(-46.422 -53)" fill="#f06623" fill-rule="evenodd"/>
          <path id="Path_2" data-name="Path 2" d="M141.291,134.444c-1.457-6.481-3.4-12.927-5.4-19.121-1.043-3.235-2.19-6.423-3.314-9.623-1.1-3.143-2.317-6.228-3.59-9.3-5.62-13.179-5.035-13.236,5.242-19.166,6.974-3.556,17.939-8.58,25.784-8.19.275.011.539.034.815.057a119.407,119.407,0,0,1-19.533,65.345" transform="translate(-42.254 -50.645)" fill="#79b6e3" fill-rule="evenodd"/>
          <path id="Path_3" data-name="Path 3" d="M63.9,119.184c6.676-5.253,14.142-10.277,19.568-13.707a234.9,234.9,0,0,1,22.389-12.193c2.386-1.124,5.563-2.719,7.868-2.9a5.648,5.648,0,0,1,2.443.264c2.466,1.044,6.6,7.708,6.6,7.708l.046.069c.734,1.078,1.4,2.2,2.168,3.246.814,1.124,1.571,2.4,2.294,3.579q1.635,2.667,3.212,5.345c1.721,2.9,3.579,5.93,5.116,8.912,2.558,4.967,6.136,12,9.21,19.522a119.324,119.324,0,0,1-32.529,29.019l-1.7,1.032-1.7-1.032A119.263,119.263,0,0,1,63.9,119.184" transform="translate(-51.301 -47.508)" fill="#1fb4ac" fill-rule="evenodd"/>
          <path id="Path_4" data-name="Path 4" d="M91.207,54.54c.619.677,1.2,1.342,1.732,1.973,1.181,1.411,2.317,2.9,3.43,4.37a50.963,50.963,0,0,1,3.7,5.2c1.571,2.833,4.886,7.123,5.873,9.749a5.308,5.308,0,0,1,.378,2.558,3.437,3.437,0,0,1-1.239,1.778c-1.285,1.055-1.9,1.377-2.994,2.179-4.794,3.51-9.371,7.249-14.016,10.931-5.2,4.129-10.357,8.992-15.129,13.615-3.28,3.189-7,7.008-10.449,11.057a119.312,119.312,0,0,1-9.566-48.839l.034-2.019,1.812-.883A135.1,135.1,0,0,1,91.207,54.54" transform="translate(-52.915 -52.774)" fill="#f3a91d" fill-rule="evenodd"/>
        </g>
      </g>
    </g>
  </g>
</svg>
