<?xml version="1.0" standalone="no"?>
<!DOCTYPE svg PUBLIC "-//W3C//DTD SVG 20010904//EN"
 "http://www.w3.org/TR/2001/REC-SVG-20010904/DTD/svg10.dtd">
<svg version="1.0" xmlns="http://www.w3.org/2000/svg"
 width="225.000000pt" height="225.000000pt" viewBox="0 0 225.000000 225.000000"
 preserveAspectRatio="xMidYMid meet">

<g transform="translate(0.000000,225.000000) scale(0.100000,-0.100000)"
fill="#ffffff" stroke="none">
<path d="M238 2030 c-43 -13 -84 -47 -102 -84 -14 -30 -16 -116 -16 -824 l0
-789 23 -34 c12 -18 38 -44 56 -56 l34 -23 829 0 c930 0 875 -4 926 73 26 40
27 45 30 224 l4 183 52 0 c90 0 86 -22 86 427 0 447 5 423 -88 423 l-52 0 0
163 c0 89 -5 180 -11 202 -14 50 -64 100 -114 114 -47 13 -1614 14 -1657 1z
m1646 -126 c13 -13 16 -44 16 -185 l0 -169 -369 0 c-365 0 -368 0 -401 -22
-18 -13 -43 -36 -54 -51 -20 -27 -21 -42 -24 -335 -3 -303 -2 -308 20 -352 17
-33 35 -51 68 -67 43 -23 51 -23 402 -23 l358 0 0 -167 c0 -141 -3 -169 -17
-185 -15 -17 -54 -18 -816 -18 -731 0 -802 1 -819 17 -17 15 -18 53 -18 776 0
694 1 762 17 779 15 17 54 18 819 18 716 0 804 -2 818 -16z m161 -779 l0 -310
-427 0 c-337 0 -430 3 -440 13 -10 10 -13 78 -13 298 0 272 1 286 20 300 16
12 88 14 440 12 l420 -3 0 -310z"/>
<path d="M1354 1241 c-45 -27 -71 -98 -56 -149 35 -118 191 -138 250 -33 26
46 28 81 5 128 -32 69 -131 96 -199 54z"/>
</g>
</svg>
