<svg id="delete_outline_black_24dp" xmlns="http://www.w3.org/2000/svg" width="20" height="20" viewBox="0 0 20 20">
  <path id="Path_3684" data-name="Path 3684" d="M0,0H20V20H0Z" fill="none"/>
  <path id="Path_3685" data-name="Path 3685" d="M5.833,16.333A1.672,1.672,0,0,0,7.5,18h6.667a1.672,1.672,0,0,0,1.667-1.667V8a1.672,1.672,0,0,0-1.667-1.667H7.5A1.672,1.672,0,0,0,5.833,8ZM8.333,8h5a.836.836,0,0,1,.833.833V15.5a.836.836,0,0,1-.833.833h-5A.836.836,0,0,1,7.5,15.5V8.833A.836.836,0,0,1,8.333,8ZM13.75,3.833l-.592-.592A.841.841,0,0,0,12.575,3H9.092a.841.841,0,0,0-.583.242l-.592.592H5.833a.833.833,0,1,0,0,1.667h10a.833.833,0,0,0,0-1.667Z" transform="translate(-0.833 -0.5)" fill="#d12020"/>
</svg>
