<?xml version="1.0" encoding="utf-8"?>
<!-- Generator: Adobe Illustrator 23.1.1, SVG Export Plug-In . SVG Version: 6.00 Build 0)  -->
<svg version="1.1" id="Layer_1" xmlns="http://www.w3.org/2000/svg" xmlns:xlink="http://www.w3.org/1999/xlink" x="0px" y="0px"
	 viewBox="0 0 60 60" style="enable-background:new 0 0 60 60;" xml:space="preserve">
<style type="text/css">
	.st0{fill:none;}
	.st1{fill-rule:evenodd;clip-rule:evenodd;fill:#306EB3;}
	.st2{fill:#306EB3;}
</style>
<title>icon-add-new-blue</title>
<rect x="-394" y="-347" class="st0" width="1366" height="780"/>
<rect x="-558" y="-347" class="st0" width="1366" height="780"/>
<g>
	<path class="st1" d="M30,0C13.4,0,0,13.4,0,30s13.4,30,30,30s30-13.4,30-30S46.6,0,30,0z M30,58.1C14.5,58.1,1.9,45.5,1.9,30
		S14.5,1.9,30,1.9S58.1,14.5,58.1,30c0,0,0,0,0,0C58.1,45.5,45.5,58.1,30,58.1z"/>
</g>
<rect x="-635" y="-347" class="st0" width="1366" height="780"/>
<g>
	<polygon class="st2" points="47,25.4 35.1,25.4 35.1,13.5 25.9,13.5 25.9,25.4 14,25.4 14,34.6 25.9,34.6 25.9,46.5 35.1,46.5 
		35.1,34.6 47,34.6 	"/>
</g>
<rect x="-481" y="-347" class="st0" width="1366" height="780"/>
<rect x="-478" y="-347" class="st0" width="1366" height="780"/>
</svg>
