<?xml version="1.0" encoding="utf-8"?>
<!-- Generator: Adobe Illustrator 23.1.1, SVG Export Plug-In . SVG Version: 6.00 Build 0)  -->
<svg version="1.1" id="Layer_1" xmlns="http://www.w3.org/2000/svg" xmlns:xlink="http://www.w3.org/1999/xlink" x="0px" y="0px"
	 viewBox="0 0 60 60" style="enable-background:new 0 0 60 60;" xml:space="preserve">
<style type="text/css">
	.st0{fill:none;}
	.st1{fill:#306EB5;}
</style>
<title>icon-wallet-import-blue</title>
<rect x="-551" y="-347" class="st0" width="1366" height="780"/>
<rect x="-715" y="-347" class="st0" width="1366" height="780"/>
<rect x="-792" y="-347" class="st0" width="1366" height="780"/>
<rect x="-638" y="-347" class="st0" width="1366" height="780"/>
<rect x="-635" y="-347" class="st0" width="1366" height="780"/>
<path class="st1" d="M30,0C13.4,0,0,13.4,0,30s13.4,30,30,30s30-13.4,30-30S46.6,0,30,0z M30,58.1C14.5,58.1,1.9,45.5,1.9,30
	S14.5,1.9,30,1.9S58.1,14.5,58.1,30c0,0,0,0,0,0C58.1,45.5,45.5,58.1,30,58.1z M37.6,36.8h7.1v5.2c0,1-0.8,1.9-1.9,1.9H29.5
	c0.7-0.2,1.3-0.8,1.6-1.5c0.4-1,0.3-2.1-0.4-2.9l-5.2-6.4c-1-1.2-2.7-1.4-3.9-0.4c-0.2,0.1-0.3,0.3-0.4,0.4L16,39.5
	c-0.7,0.8-0.8,2-0.4,2.9c0.3,0.7,0.9,1.2,1.6,1.5h-2.1c-1,0-1.9-0.8-1.9-1.9V21.2c0-0.3,0-0.6,0.1-0.9c0.1-0.2,0.2-0.4,0.3-0.6
	c0.4-0.4,0.9-0.7,1.5-0.6h4.7l-3,1.7c-1.8,1.2-1,2.4-0.3,2.4h25.8c0.3,0,0.6-0.3,0.6-0.6c0-0.1,0-0.2,0-0.2l-1.3-3h1.3
	c1,0,1.9,0.8,1.9,1.9v5.1h-7.1c-0.1,0-0.3,0-0.4,0c-0.7,0.1-1.4,0.4-1.9,0.9c-0.6,0.6-0.9,1.4-0.9,2.2v4.2
	C34.4,35.4,35.8,36.8,37.6,36.8C37.6,36.8,37.6,36.8,37.6,36.8z M18.7,21l16.6-8.7c0.8-0.4,1.9-0.1,2.3,0.7c0,0,0,0.1,0.1,0.1
	l3.3,8.1c0.1,0.2,0,0.5-0.2,0.6c-0.1,0-0.1,0-0.2,0H19c-0.3,0-0.5-0.1-0.5-0.4C18.4,21.3,18.5,21.1,18.7,21z M45.4,27.7
	c-0.2-0.1-0.4-0.1-0.6-0.1h-7.2c-1,0-1.9,0.8-1.9,1.9v4.2c0,1,0.8,1.9,1.9,1.9h7.2c0.2,0,0.4,0,0.6-0.1c0.2-0.1,0.5-0.2,0.7-0.4
	c0.4-0.4,0.6-0.9,0.6-1.4v-4.2c0-0.5-0.2-1-0.6-1.4C45.9,27.9,45.7,27.8,45.4,27.7L45.4,27.7z M41.6,32c0,0.5-0.4,0.9-0.9,0.9H40
	c-0.5,0-0.9-0.4-0.9-0.9v-0.6c0-0.3,0.1-0.6,0.4-0.7c0.2-0.1,0.4-0.2,0.6-0.2h0.6c0.5,0,0.9,0.4,0.9,0.9V32z M29.6,41.8
	c-0.2,0.4-0.5,0.6-1,0.6h-3.1v7.5c0,0.6-0.5,1.1-1,1.1c0,0,0,0,0,0h-2.1c-0.6,0-1.1-0.5-1.1-1.1c0,0,0,0,0,0v-7.5h-3.1
	c-0.4,0-0.8-0.2-1-0.6c-0.2-0.4-0.1-0.8,0.1-1.1l5.2-6.4c0.2-0.2,0.5-0.4,0.8-0.4c0.3,0,0.6,0.1,0.8,0.4l5.2,6.4
	c0.2,0.2,0.2,0.4,0.2,0.7C29.7,41.5,29.6,41.6,29.6,41.8L29.6,41.8z"/>
</svg>
