<svg xmlns="http://www.w3.org/2000/svg" xmlns:xlink="http://www.w3.org/1999/xlink" viewBox="0 0 80 80"><defs><style>.cls-1{isolation:isolate;}.cls-10,.cls-2{fill:#fff;}.cls-3{fill:#1e4065;}.cls-4{fill:#0c1f44;}.cls-5{opacity:0.5;mix-blend-mode:screen;fill:url(#linear-gradient);}.cls-6{fill:#eaaa3b;}.cls-7{fill:#cbcbcb;}.cls-8{fill:#e18f36;}.cls-10,.cls-9{fill-rule:evenodd;}</style><linearGradient id="linear-gradient" x1="44.28" y1="46.06" x2="57.74" y2="59.52" gradientUnits="userSpaceOnUse"><stop offset="0" stop-color="#e6bc5c"/><stop offset="0.11" stop-color="#f1d681"/><stop offset="0.21" stop-color="#fbeba0"/><stop offset="0.45" stop-color="#986634"/><stop offset="0.67" stop-color="#e2a55c"/><stop offset="1" stop-color="#e6bc5c"/></linearGradient></defs><title>icon-attestation-full-color-80h</title><g class="cls-1"><g id="Layer_1" data-name="Layer 1"><circle cx="40.4" cy="40.4" r="39.6"/><circle class="cls-2" cx="39.6" cy="39.6" r="39.6"/><path d="M76.14,38.94A37.18,37.18,0,1,1,39,1.77,37.18,37.18,0,0,1,76.14,38.94Z"/><path class="cls-3" d="M76.78,39.59A37.17,37.17,0,1,1,39.61,2.41,37.17,37.17,0,0,1,76.78,39.59Z"/><path class="cls-4" d="M69.87,22.51A34.75,34.75,0,1,0,20.12,68.35C23.94,43.8,44.77,24.28,69.87,22.51Z"/><path d="M56,65.54a1.39,1.39,0,0,1-2.32.57,2.39,2.39,0,0,0-3.06,0,1.39,1.39,0,0,1-2.34-.52,2.43,2.43,0,0,0-2.77-1.33,1.41,1.41,0,0,1-1.89-1.5,2.47,2.47,0,0,0-1.93-2.42,1.44,1.44,0,0,1-1.06-2.2,2.5,2.5,0,0,0-.71-3,1.46,1.46,0,0,1,0-2.45,2.5,2.5,0,0,0,.65-3,1.44,1.44,0,0,1,1-2.21A2.45,2.45,0,0,0,43.43,45a1.42,1.42,0,0,1,1.86-1.55A2.41,2.41,0,0,0,48,42a1.4,1.4,0,0,1,2.33-.57,2.39,2.39,0,0,0,3.06,0,1.39,1.39,0,0,1,2.34.52,2.4,2.4,0,0,0,2.77,1.32,1.42,1.42,0,0,1,1.89,1.51,2.46,2.46,0,0,0,1.93,2.42,1.44,1.44,0,0,1,1.06,2.19,2.51,2.51,0,0,0,.71,3,1.45,1.45,0,0,1,0,2.45,2.51,2.51,0,0,0-.65,3,1.44,1.44,0,0,1-1,2.21,2.47,2.47,0,0,0-1.89,2.46,1.41,1.41,0,0,1-1.85,1.55A2.41,2.41,0,0,0,56,65.54Z"/><path class="cls-5" d="M51,43.32a9.47,9.47,0,1,1-9.27,9.47A9.39,9.39,0,0,1,51,43.32m0-.15a9.62,9.62,0,1,0,9.42,9.62A9.52,9.52,0,0,0,51,43.17Z"/><path class="cls-6" d="M55,64.54a1.39,1.39,0,0,1-2.32.57,2.39,2.39,0,0,0-3.06,0,1.39,1.39,0,0,1-2.34-.52,2.43,2.43,0,0,0-2.77-1.33,1.41,1.41,0,0,1-1.89-1.5,2.47,2.47,0,0,0-1.93-2.42,1.44,1.44,0,0,1-1.06-2.2,2.5,2.5,0,0,0-.71-3,1.46,1.46,0,0,1,0-2.45,2.5,2.5,0,0,0,.65-3,1.44,1.44,0,0,1,1-2.21A2.45,2.45,0,0,0,42.43,44a1.42,1.42,0,0,1,1.86-1.55A2.41,2.41,0,0,0,47,41a1.4,1.4,0,0,1,2.33-.57,2.39,2.39,0,0,0,3.06,0,1.39,1.39,0,0,1,2.34.52,2.4,2.4,0,0,0,2.77,1.32,1.42,1.42,0,0,1,1.89,1.51,2.46,2.46,0,0,0,1.93,2.42,1.44,1.44,0,0,1,1.06,2.19,2.51,2.51,0,0,0,.71,3,1.45,1.45,0,0,1,0,2.45,2.51,2.51,0,0,0-.65,3,1.44,1.44,0,0,1-1,2.21,2.47,2.47,0,0,0-1.89,2.46,1.41,1.41,0,0,1-1.85,1.55A2.41,2.41,0,0,0,55,64.54Z"/><path d="M40.09,52.79A10.92,10.92,0,1,1,51,63.94,11,11,0,0,1,40.09,52.79Z"/><path class="cls-7" d="M61,52.79A10,10,0,1,1,51,42.6,10.09,10.09,0,0,1,61,52.79Z"/><path class="cls-8" d="M60.43,52.79A9.42,9.42,0,1,1,51,43.17,9.52,9.52,0,0,1,60.43,52.79Z"/><path class="cls-6" d="M59.21,48.06A9.37,9.37,0,0,0,51,43.17a9.52,9.52,0,0,0-9.41,9.62,9.67,9.67,0,0,0,4.13,8A15,15,0,0,1,59.21,48.06Z"/><path class="cls-9" d="M53.57,48.55a8.12,8.12,0,0,1,3.85-.23A13.72,13.72,0,0,0,51.61,47c-.3,0-.6,0-.89,0a4.93,4.93,0,0,1,1.2.91c.21.21.64.7.93.76a2.05,2.05,0,0,0,.72-.15"/><path class="cls-9" d="M55.74,55.69c-.16-.67-.36-1.34-.56-2-.11-.33-.23-.67-.35-1s-.24-.64-.37-1c-.58-1.37-.52-1.38.54-2a6.38,6.38,0,0,1,2.68-.85h.08a12.34,12.34,0,0,1-2,6.77"/><path class="cls-9" d="M46.77,54.44c.69-.55,1.47-1.07,2-1.43a25.94,25.94,0,0,1,2.32-1.26,2.82,2.82,0,0,1,.82-.3.48.48,0,0,1,.25,0c.26.1.69.8.69.8h0l.23.34.23.37c.12.18.23.37.34.56s.37.61.53.92c.26.51.64,1.25.95,2a12.33,12.33,0,0,1-3.37,3l-.18.1-.17-.1a12.44,12.44,0,0,1-4.67-5.07"/><path class="cls-9" d="M49.43,47.18a1.68,1.68,0,0,1,.18.21c.13.14.24.3.36.45a4,4,0,0,1,.38.54,10.44,10.44,0,0,1,.61,1,.51.51,0,0,1,0,.27.31.31,0,0,1-.13.18,2.74,2.74,0,0,1-.31.23c-.49.36-1,.75-1.45,1.13s-1.07.93-1.57,1.41c-.34.34-.72.73-1.08,1.15a12.39,12.39,0,0,1-1-5.06v-.21l.19-.1a14,14,0,0,1,3.77-1.21"/><path class="cls-10" d="M52.83,48.55a8.11,8.11,0,0,1,3.85-.23A13.75,13.75,0,0,0,50.87,47q-.45,0-.9,0a5,5,0,0,1,1.21.91c.21.21.63.7.93.76a2.05,2.05,0,0,0,.72-.15"/><path class="cls-10" d="M55,55.69c-.15-.67-.35-1.34-.56-2-.1-.33-.22-.67-.34-1s-.24-.64-.37-1c-.59-1.37-.52-1.38.54-2a6.34,6.34,0,0,1,2.68-.85H57a12.35,12.35,0,0,1-2,6.77"/><path class="cls-10" d="M46,54.44a23.76,23.76,0,0,1,2-1.43,25.94,25.94,0,0,1,2.32-1.26,2.87,2.87,0,0,1,.81-.3.52.52,0,0,1,.26,0c.25.1.68.8.68.8h0c.07.11.14.23.22.34a3.87,3.87,0,0,1,.24.37l.33.56c.18.3.38.61.54.92.26.51.63,1.25,1,2a12.48,12.48,0,0,1-3.37,3l-.18.1-.18-.1A12.48,12.48,0,0,1,46,54.44"/><path class="cls-10" d="M48.69,47.18a1.68,1.68,0,0,1,.18.21c.12.14.24.3.36.45a5.22,5.22,0,0,1,.38.54c.16.3.51.74.61,1a.64.64,0,0,1,0,.27.37.37,0,0,1-.13.18c-.13.11-.2.15-.31.23-.5.36-1,.75-1.45,1.13a21,21,0,0,0-1.57,1.41c-.34.34-.73.73-1.09,1.15a12.38,12.38,0,0,1-1-5.06v-.21l.18-.1a14,14,0,0,1,3.78-1.21"/><path class="cls-9" d="M41.32,62.33a3.22,3.22,0,0,1-.69-.2A3.55,3.55,0,0,0,41.3,64H26.45a4,4,0,0,1-2.27-.72A4,4,0,0,0,27.45,65H42.3a3.65,3.65,0,0,1-.69-2.26A.53.53,0,0,0,41.32,62.33Z"/><path class="cls-9" d="M54.75,14.72A3.92,3.92,0,0,1,55.46,17V38.7a3.26,3.26,0,0,0-2-.7,3.59,3.59,0,0,0-2.38,1,.33.33,0,0,1-.21.06.29.29,0,0,1-.2-.06,3.6,3.6,0,0,0-2.33-.9,3.43,3.43,0,0,0-3.16,2.22.44.44,0,0,1-.38.22h0a3.72,3.72,0,0,0-1-.13,3.34,3.34,0,0,0-2.44,1,3.6,3.6,0,0,0-1,2.68.51.51,0,0,1-.28.41,3.43,3.43,0,0,0-2.38,5.11.55.55,0,0,1-.11.53,3.44,3.44,0,0,0,.06,5.64.53.53,0,0,1,.11.52,3.56,3.56,0,0,0-.07,3.21A3.39,3.39,0,0,0,39,60.79a3.37,3.37,0,0,1-.21-.31,3.56,3.56,0,0,1,.07-3.21.53.53,0,0,0-.11-.52,3.44,3.44,0,0,1-.06-5.64.55.55,0,0,0,.11-.53,3.43,3.43,0,0,1,2.38-5.11.51.51,0,0,0,.28-.41,3.6,3.6,0,0,1,1-2.68,3.34,3.34,0,0,1,2.44-1,3.72,3.72,0,0,1,1,.13h0a.44.44,0,0,0,.38-.22,3.43,3.43,0,0,1,3.16-2.22,3.6,3.6,0,0,1,2.33.9.29.29,0,0,0,.2.06.33.33,0,0,0,.21-.06,3.59,3.59,0,0,1,2.38-1,3.26,3.26,0,0,1,2,.7V18A4,4,0,0,0,54.75,14.72Z"/><path class="cls-10" d="M51.48,13h-25a4,4,0,0,0-4,4V60a4,4,0,0,0,4,4H41.3a3.65,3.65,0,0,1-.69-2.26.53.53,0,0,0-.29-.41,3.5,3.5,0,0,1-2.56-1.85,3.56,3.56,0,0,1,.07-3.21.53.53,0,0,0-.11-.52,3.44,3.44,0,0,1-.06-5.64.55.55,0,0,0,.11-.53,3.43,3.43,0,0,1,2.38-5.11.51.51,0,0,0,.28-.41,3.6,3.6,0,0,1,1-2.68,3.34,3.34,0,0,1,2.44-1,3.72,3.72,0,0,1,1,.13h0a.44.44,0,0,0,.38-.22,3.43,3.43,0,0,1,3.16-2.22,3.6,3.6,0,0,1,2.33.9.29.29,0,0,0,.2.06.33.33,0,0,0,.21-.06,3.59,3.59,0,0,1,2.38-1,3.26,3.26,0,0,1,2,.7V17A4,4,0,0,0,51.48,13ZM37,40H28a1.5,1.5,0,0,1,0-3h9a1.5,1.5,0,1,1,0,3Zm14-6H28a1.5,1.5,0,0,1,0-3H51a1.5,1.5,0,1,1,0,3Zm0-6H28a1.5,1.5,0,0,1,0-3H51a1.5,1.5,0,1,1,0,3Zm0-6H28a1.5,1.5,0,0,1,0-3H51a1.5,1.5,0,1,1,0,3Z"/></g></g></svg>