<?xml version="1.0" encoding="utf-8"?>
<!-- Generator: Adobe Illustrator 23.1.1, SVG Export Plug-In . SVG Version: 6.00 Build 0)  -->
<svg version="1.1" id="Layer_1" xmlns="http://www.w3.org/2000/svg" xmlns:xlink="http://www.w3.org/1999/xlink" x="0px" y="0px"
	 viewBox="0 0 80 80" style="enable-background:new 0 0 80 80;" xml:space="preserve">
<style type="text/css">
	.st0{fill:#FFFFFF;}
	.st1{fill:#1E4065;}
	.st2{fill:#0C1F44;}
	.st3{fill:#23417B;}
	.st4{fill:#EAAA3B;}
	.st5{fill:#CBCBCB;}
</style>
<title>icon-streaming-full-color-80h copy</title>
<circle cx="40.4" cy="40.4" r="39.6"/>
<circle class="st0" cx="39.6" cy="39.6" r="39.6"/>
<path d="M76.1,38.9c0,20.5-16.6,37.2-37.2,37.2C18.4,76.1,1.8,59.5,1.8,39S18.4,1.8,39,1.8c0,0,0,0,0,0
	C59.5,1.8,76.1,18.4,76.1,38.9z"/>
<path class="st1" d="M76.8,39.6c0,20.5-16.7,37.2-37.2,37.2S2.4,60.1,2.4,39.6C2.4,19,19.1,2.4,39.6,2.4
	C60.1,2.4,76.8,19.1,76.8,39.6C76.8,39.6,76.8,39.6,76.8,39.6z"/>
<path class="st2" d="M69.9,22.5C60.4,5.8,39.3-0.1,22.5,9.3S-0.1,39.9,9.3,56.6c2.6,4.7,6.3,8.7,10.8,11.7
	C23.9,43.8,44.8,24.3,69.9,22.5z"/>
<path class="st0" d="M14.4,22.6V53h50.8V22.6c0-1.1-0.9-1.9-1.9-1.9H16.3C15.3,20.7,14.4,21.5,14.4,22.6
	C14.4,22.6,14.4,22.6,14.4,22.6z"/>
<rect x="16.2" y="22.7" class="st3" width="47.1" height="28.5"/>
<circle cx="40.4" cy="37.2" r="8.9"/>
<circle class="st4" cx="39.8" cy="36.3" r="8.9"/>
<polygon points="37,42.3 37,32.3 45.2,37.3 "/>
<polygon class="st0" points="36.3,41.4 36.3,31.4 44.6,36.4 "/>
<path class="st5" d="M43.9,54.2V56h-8.1v-1.8H13v1.7c0,1.1,0.9,1.9,1.9,1.9h49.8c1.1,0,1.9-0.9,1.9-1.9l0,0v-1.7H43.9z"/>
</svg>
