<svg id="Layer_1" data-name="Layer 1" xmlns="http://www.w3.org/2000/svg" viewBox="0 0 80 80"><defs><style>.cls-1{fill:#fff;}.cls-2{fill:#1e4065;}.cls-3{fill:#0c1f44;}.cls-4{fill:#cbcbcb;}.cls-5{fill:#eaaa3b;}</style></defs><title>icon-accounts-full-color-80h</title><circle cx="40.4" cy="40.4" r="39.6"/><circle class="cls-1" cx="39.6" cy="39.6" r="39.6"/><path d="M76.14,38.94A37.18,37.18,0,1,1,39,1.77,37.18,37.18,0,0,1,76.14,38.94Z"/><path class="cls-2" d="M76.78,39.59A37.17,37.17,0,1,1,39.61,2.41,37.17,37.17,0,0,1,76.78,39.59Z"/><path class="cls-3" d="M69.87,22.51A34.75,34.75,0,1,0,20.12,68.35C23.94,43.8,44.77,24.28,69.87,22.51Z"/><path d="M27,26.82H52.68A5.14,5.14,0,0,0,47.56,22H17.88a5.16,5.16,0,0,0-5.16,5.16V41.84A5.16,5.16,0,0,0,17.88,47h2V34A7.16,7.16,0,0,1,27,26.82Z"/><path d="M64.69,34.82H35A5.16,5.16,0,0,0,29.84,40V54.66A5.16,5.16,0,0,0,35,59.82H64.69a5.16,5.16,0,0,0,5.15-5.16V40A5.16,5.16,0,0,0,64.69,34.82ZM49.46,38a19.58,19.58,0,0,1,8.31,1.89,11.69,11.69,0,0,0-5.51.33,2.59,2.59,0,0,1-1,.2c-.42-.07-1-.78-1.32-1.08A8,8,0,0,0,48.18,38C48.61,38,49,38,49.46,38Zm-8.79,2.42v-.29l.27-.14a19.91,19.91,0,0,1,5.4-1.73c.1.1.18.2.26.29s.35.43.51.65.41.52.55.77c.23.43.72,1.06.87,1.45a.87.87,0,0,1,.06.38.5.5,0,0,1-.19.26c-.19.16-.28.21-.44.33-.71.52-1.39,1.07-2.08,1.62a28.55,28.55,0,0,0-2.24,2c-.49.47-1,1-1.55,1.64A17.44,17.44,0,0,1,40.67,40.42Zm9,15.47-.25.15-.25-.15a17.74,17.74,0,0,1-6.68-7.26,35.3,35.3,0,0,1,2.91-2,34.31,34.31,0,0,1,3.32-1.81,4,4,0,0,1,1.16-.43.82.82,0,0,1,.37,0c.36.16,1,1.14,1,1.14v0c.11.15.21.32.33.48s.23.35.34.53l.47.79c.26.43.53.88.76,1.32.38.74.91,1.78,1.37,2.9A17.68,17.68,0,0,1,49.71,55.89Zm5.65-5.46c-.22-1-.51-1.91-.8-2.83-.16-.48-.33-1-.49-1.43s-.35-.92-.54-1.38c-.83-2-.74-2,.78-2.84a9,9,0,0,1,3.83-1.22h.12A17.78,17.78,0,0,1,55.36,50.43Z"/><path d="M35,32.82H61.7a5.15,5.15,0,0,0-5-4H27A5.16,5.16,0,0,0,21.84,34V48.66A5.16,5.16,0,0,0,27,53.82h.85V40A7.16,7.16,0,0,1,35,32.82Z"/><path class="cls-4" d="M18.85,33A7.16,7.16,0,0,1,26,25.82H51.68A5.14,5.14,0,0,0,46.56,21H16.88a5.16,5.16,0,0,0-5.16,5.16V40.84A5.16,5.16,0,0,0,16.88,46h2Z"/><path class="cls-5" d="M26.85,39A7.16,7.16,0,0,1,34,31.82H60.7a5.15,5.15,0,0,0-5-4H26A5.16,5.16,0,0,0,20.84,33V47.66A5.16,5.16,0,0,0,26,52.82h.85Z"/><path class="cls-1" d="M63.69,33.82H34A5.16,5.16,0,0,0,28.84,39V53.66A5.16,5.16,0,0,0,34,58.82H63.69a5.16,5.16,0,0,0,5.15-5.16V39A5.16,5.16,0,0,0,63.69,33.82ZM49.46,38a19.58,19.58,0,0,1,8.31,1.89,11.69,11.69,0,0,0-5.51.33,2.59,2.59,0,0,1-1,.2c-.42-.07-1-.78-1.32-1.08A8,8,0,0,0,48.18,38C48.61,38,49,38,49.46,38Zm-8.79,2.42v-.29l.27-.14a19.91,19.91,0,0,1,5.4-1.73c.1.1.18.2.26.29s.35.43.51.65.41.52.55.77c.23.43.72,1.06.87,1.45a.87.87,0,0,1,.06.38.5.5,0,0,1-.19.26c-.19.16-.28.21-.44.33-.71.52-1.39,1.07-2.08,1.62a28.55,28.55,0,0,0-2.24,2c-.49.47-1,1-1.55,1.64A17.44,17.44,0,0,1,40.67,40.42Zm9,15.47-.25.15-.25-.15a17.74,17.74,0,0,1-6.68-7.26,35.3,35.3,0,0,1,2.91-2,34.31,34.31,0,0,1,3.32-1.81,4,4,0,0,1,1.16-.43.82.82,0,0,1,.37,0c.36.16,1,1.14,1,1.14v0c.11.15.21.32.33.48s.23.35.34.53l.47.79c.26.43.53.88.76,1.32.38.74.91,1.78,1.37,2.9A17.68,17.68,0,0,1,49.71,55.89Zm5.65-5.46c-.22-1-.51-1.91-.8-2.83-.16-.48-.33-1-.49-1.43s-.35-.92-.54-1.38c-.83-2-.74-2,.78-2.84a9,9,0,0,1,3.83-1.22h.12A17.78,17.78,0,0,1,55.36,50.43Z"/></svg>