<svg id="Layer_1" data-name="Layer 1" xmlns="http://www.w3.org/2000/svg" viewBox="0 0 80 80"><defs><style>.cls-1{fill:#f3f3f3;}.cls-2{fill:#1e4065;}.cls-3{fill:#0c1f44;}.cls-4{fill:#fff;}.cls-5{fill:#cbcbcb;}.cls-6{fill:#eaaa3b;}.cls-7{fill:#e18f36;}</style></defs><title>icon-cross-chain-swap-full-color-80h</title><circle cx="40.4" cy="40.4" r="39.6"/><circle class="cls-1" cx="39.6" cy="39.6" r="39.6"/><path d="M76.14,38.94A37.18,37.18,0,1,1,39,1.77,37.18,37.18,0,0,1,76.14,38.94Z"/><path class="cls-2" d="M76.78,39.59A37.17,37.17,0,1,1,39.61,2.41,37.17,37.17,0,0,1,76.78,39.59Z"/><path class="cls-3" d="M69.87,22.51A34.75,34.75,0,1,0,20.12,68.35C23.94,43.8,44.77,24.28,69.87,22.51Z"/><path class="cls-4" d="M45.88,16.61l-6.2-2.43a1.57,1.57,0,0,0-1.09,0l-6.2,2.43a.57.57,0,0,0,0,1.05l6.54,3a.57.57,0,0,0,.48,0l6.53-3A.57.57,0,0,0,45.88,16.61Z"/><path class="cls-4" d="M38.44,21.37l-6.07-2.8a.5.5,0,0,0-.72.46v6.65a.5.5,0,0,0,.27.45L38,29.37a.51.51,0,0,0,.74-.45V21.83A.51.51,0,0,0,38.44,21.37Z"/><path class="cls-5" d="M45.9,18.57l-6.06,2.8a.52.52,0,0,0-.3.46v7.09a.51.51,0,0,0,.75.45l6.06-3.24a.5.5,0,0,0,.27-.45V19A.5.5,0,0,0,45.9,18.57Z"/><path class="cls-4" d="M28.84,32l-6.2-2.43a1.57,1.57,0,0,0-1.09,0L15.35,32a.57.57,0,0,0,0,1.05l6.54,3a.57.57,0,0,0,.48,0l6.53-3A.57.57,0,0,0,28.84,32Z"/><path class="cls-4" d="M21.4,36.8,15.33,34a.5.5,0,0,0-.72.46v6.65a.5.5,0,0,0,.27.45L21,44.8a.51.51,0,0,0,.74-.45V37.26A.5.5,0,0,0,21.4,36.8Z"/><path class="cls-5" d="M28.86,34,22.8,36.8a.51.51,0,0,0-.3.46v7.09a.51.51,0,0,0,.75.45l6.07-3.24a.51.51,0,0,0,.26-.45V34.46A.5.5,0,0,0,28.86,34Z"/><circle class="cls-6" cx="29.86" cy="30.46" r="0.72"/><circle class="cls-6" cx="31.3" cy="28.15" r="0.72"/><path class="cls-6" d="M48.56,53.05l-6.2-2.43a1.57,1.57,0,0,0-1.09,0l-6.2,2.43a.57.57,0,0,0,0,1.05l6.54,3a.57.57,0,0,0,.48,0l6.53-3A.57.57,0,0,0,48.56,53.05Z"/><path class="cls-6" d="M41.12,57.81,35.05,55a.5.5,0,0,0-.72.46v6.65a.5.5,0,0,0,.27.45l6.07,3.24a.51.51,0,0,0,.74-.45V58.27A.51.51,0,0,0,41.12,57.81Z"/><path class="cls-7" d="M48.58,55l-6.07,2.8a.52.52,0,0,0-.29.46v7.09a.51.51,0,0,0,.75.45L49,62.57a.5.5,0,0,0,.27-.45V55.47A.5.5,0,0,0,48.58,55Z"/><path class="cls-6" d="M65.87,38.29l-6.2-2.42a1.47,1.47,0,0,0-1.09,0l-6.2,2.42a.57.57,0,0,0,0,1.05l6.53,3a.57.57,0,0,0,.48,0l6.54-3A.57.57,0,0,0,65.87,38.29Z"/><path class="cls-6" d="M58.42,43.05l-6.06-2.8a.5.5,0,0,0-.72.46v6.66a.51.51,0,0,0,.26.44L58,51.05a.51.51,0,0,0,.75-.45V43.51A.53.53,0,0,0,58.42,43.05Z"/><path class="cls-7" d="M65.89,40.25l-6.07,2.8a.52.52,0,0,0-.29.46V50.6a.51.51,0,0,0,.74.45l6.07-3.24a.5.5,0,0,0,.27-.44V40.71A.5.5,0,0,0,65.89,40.25Z"/><circle class="cls-4" cx="51.31" cy="49.56" r="0.72"/><circle class="cls-4" cx="49.86" cy="51.58" r="0.72"/><path class="cls-4" d="M48.88,44.51l-4.74-2.43a.26.26,0,0,0-.3,0,.27.27,0,0,0-.09.29l.42,1.33A8.1,8.1,0,0,1,37.08,37l1.35.35a.29.29,0,0,0,.29-.09.31.31,0,0,0,0-.31l-2.67-4.61a.3.3,0,0,0-.25-.14.28.28,0,0,0-.24.15l-2.43,4.74a.27.27,0,0,0,0,.3.29.29,0,0,0,.3.09l.37-.12a1.24,1.24,0,0,1,1.56.89A10,10,0,0,0,43,45.47,1.23,1.23,0,0,1,44,47l-.1.38a.27.27,0,0,0,.4.31L48.89,45a.29.29,0,0,0,.14-.25A.28.28,0,0,0,48.88,44.51Z"/><path class="cls-4" d="M26.38,26.86,26,25.67H22.69l-.41,1.19H19.85L23,18.56h2.69l3.14,8.3Zm-2.05-6.19L23.27,23.8h2.12Z"/><path class="cls-6" d="M52.34,61.15V52.84h4.71A2.18,2.18,0,0,1,59.48,55a1.87,1.87,0,0,1-1.42,1.91,2,2,0,0,1,1.58,2,2.21,2.21,0,0,1-2.44,2.25Zm5-5.82a.68.68,0,0,0-.74-.68H54.48V56h2.08A.68.68,0,0,0,57.3,55.33Zm.16,3.27a.75.75,0,0,0-.82-.75H54.48v1.5h2.16A.73.73,0,0,0,57.46,58.6Z"/></svg>