<svg id="Layer_1" data-name="Layer 1" xmlns="http://www.w3.org/2000/svg" viewBox="0 0 80 80"><defs><style>.cls-1{fill:#f3f3f3;}.cls-2{fill:#1e4065;}.cls-3{fill:#0c1f44;}.cls-4{fill:#fff;}.cls-5{fill:#c9c9c9;}.cls-6{fill:#e8a83b;}.cls-7{fill:#df8d36;}</style></defs><title>icon-gift-sirius-full-color-80h</title><circle cx="40.4" cy="40.4" r="39.6"/><circle class="cls-1" cx="39.6" cy="39.6" r="39.6"/><path d="M76.14,38.94A37.18,37.18,0,1,1,39,1.77,37.18,37.18,0,0,1,76.14,38.94Z"/><path class="cls-2" d="M76.78,39.59A37.17,37.17,0,1,1,39.61,2.41,37.17,37.17,0,0,1,76.78,39.59Z"/><path class="cls-3" d="M69.87,22.51A34.75,34.75,0,1,0,20.12,68.35C23.94,43.8,44.77,24.28,69.87,22.51Z"/><path class="cls-4" d="M31.62,35.31,17.43,28.75a1.19,1.19,0,0,0-1.69,1.07V45.39a1.16,1.16,0,0,0,.63,1L30.56,54a1.18,1.18,0,0,0,1.74-1V36.38A1.17,1.17,0,0,0,31.62,35.31Z"/><path class="cls-5" d="M49.08,28.75,34.89,35.31a1.18,1.18,0,0,0-.69,1.07V53a1.18,1.18,0,0,0,1.74,1l14.19-7.57a1.16,1.16,0,0,0,.63-1V29.82A1.18,1.18,0,0,0,49.08,28.75Z"/><polygon class="cls-6" points="19.68 18.3 19.67 18.3 19.67 18.3 19.68 18.3"/><path class="cls-4" d="M34.84,20.73l2.72-1.05-3-1.18a3.54,3.54,0,0,0-1.28-.24A11.71,11.71,0,0,1,34.84,20.73Z"/><path class="cls-7" d="M22.36,18.26a6.77,6.77,0,0,0,1.51,3.07,30.13,30.13,0,0,0,5.43,3.42C27.44,20.67,24.32,18.44,22.36,18.26Z"/><path class="cls-4" d="M22.81,22.39c-.07-.07-.12-.16-.19-.23l-5.14,2a1.33,1.33,0,0,0-.07,2.45l4.11,1.9a3.64,3.64,0,0,1,1.29-2.27,13.87,13.87,0,0,1,3-1.74A17.71,17.71,0,0,1,22.81,22.39Z"/><path class="cls-7" d="M40.3,28.8c0-.27-1.22-1.27-4.06-1.63l-.79-.1a3.9,3.9,0,0,1-.89.61,19,19,0,0,0,2.75,1.12,8.66,8.66,0,0,0,3,.22Z"/><polygon class="cls-6" points="30.14 28.67 30.13 28.68 30.14 28.68 30.14 28.67"/><path class="cls-4" d="M39.38,30.55a9,9,0,0,1-2.47-.31,20,20,0,0,1-3-1.21l-1.34-.64c-1.3.6-2.53,1.2-3.55,1.75-.36.19-.14,1.12.18,1.93l3.49,1.62a1.37,1.37,0,0,0,1.12,0l6.49-3v-.18A9,9,0,0,1,39.38,30.55Z"/><path class="cls-4" d="M49,24.17l-3.43-1.35-.68.3-.44.17a4,4,0,0,1,2.14,2.64A2.86,2.86,0,0,1,46.14,28l3-1.37A1.33,1.33,0,0,0,49,24.17Z"/><path class="cls-7" d="M36.37,22.26A16.7,16.7,0,0,1,39.29,22a11.32,11.32,0,0,1,3.34.48l1.69-.73L40.4,20.21s-2,.74-4.57,1.75a3.27,3.27,0,0,1,.25.36Z"/><path class="cls-6" d="M43.29,24.32a11,11,0,0,0-6.66-.59,3.46,3.46,0,0,1-.2,2c2.72.34,5.37,1.45,5.37,3.11l3-1.49S46.28,25.81,43.29,24.32Z"/><path class="cls-6" d="M27.41,25.42a16.89,16.89,0,0,0-3.54,1.89,1.91,1.91,0,0,0-.57,2l3.78,1.74a2,2,0,0,1,1.27-2.29c.58-.29,1.55-.74,2.73-1.27A3.78,3.78,0,0,1,30.4,27C29.86,26.74,28.69,26.14,27.41,25.42Z"/><path class="cls-6" d="M33,20.59h.14a11.51,11.51,0,0,0-1.76-2.26,9.28,9.28,0,0,0-6-3l-3.79,1.41c2.26-.36,5.81,1.69,8.2,5.64A3.71,3.71,0,0,1,33,20.59Z"/><circle class="cls-7" cx="32.96" cy="24.32" r="2.24"/><path class="cls-4" d="M50.26,49.64,55,51.33a1.71,1.71,0,0,0-.11.59c0,1.4,1.62,2.49,3.7,2.49s3.69-1.09,3.69-2.49-1.62-2.49-3.69-2.49A4.77,4.77,0,0,0,56,50.1l-5.25-1.89a.76.76,0,1,0-.51,1.43Zm10.48,2.28c0,.39-.87,1-2.18,1s-2.18-.59-2.18-1,.86-1,2.18-1S60.74,51.53,60.74,51.92Z"/><path class="cls-4" d="M47.22,55.76a4.79,4.79,0,0,0-2.53.66l-5.26-1.88A.75.75,0,0,0,38.92,56l4.71,1.69a1.72,1.72,0,0,0-.1.6c0,1.39,1.62,2.49,3.69,2.49s3.69-1.1,3.69-2.49S49.29,55.76,47.22,55.76Zm0,3.46c-1.31,0-2.18-.58-2.18-1s.87-1,2.18-1,2.18.59,2.18,1S48.53,59.22,47.22,59.22Z"/><path class="cls-6" d="M61.32,56.48a4.5,4.5,0,0,0-2.89.93l-5.18-2-1-2.07a.77.77,0,0,0-.43-.38l-5.62-2a.75.75,0,1,0-.51,1.42L51,54.24l1,2a.8.8,0,0,0,.41.38l5.23,2a1.06,1.06,0,0,0,0,.25c0,1.4,1.62,2.49,3.69,2.49S65,60.37,65,59,63.39,56.48,61.32,56.48Zm0,3.47c-1.31,0-2.18-.59-2.18-1a.72.72,0,0,0,.3-.36l0-.1A3.11,3.11,0,0,1,61.32,58c1.31,0,2.18.59,2.18,1S62.63,60,61.32,60Z"/></svg>