<svg id="Layer_1" data-name="Layer 1" xmlns="http://www.w3.org/2000/svg" viewBox="0 0 16 16"><defs><style>.cls-1{fill:#666;}.cls-2{fill:#fff;}</style></defs><title>icon-doc-type-unknown-16h-proximax-sirius-wallet</title><path class="cls-1" d="M16,4V14a2,2,0,0,1-2,2H6a2,2,0,0,1-2-2H1a1,1,0,0,1-1-1V8A1,1,0,0,1,1,7H15V4a1,1,0,0,0-1-1V6H13V2a1,1,0,0,0-1-1H4A1,1,0,0,0,3,2V6H2V2A2,2,0,0,1,4,0h8a2,2,0,0,1,2,2A2,2,0,0,1,16,4ZM15,14H5a1,1,0,0,0,1,1h8A1,1,0,0,0,15,14Z"/><path class="cls-1" d="M5.78,6.17l.29-.85H5.6l-.29.85H4.84l.29-.85H4.65l.13-.4h.49l.27-.84H5.05l.12-.4h.51L6,2.83h.47l-.28.85h.47l.28-.85h.48l-.3.85h.49l-.12.4H7l-.28.84h.51l-.13.4H6.54l-.28.85Zm.7-2.09H6l-.27.84H6.2Z"/><path class="cls-1" d="M7.78,3.62a.85.85,0,0,1,1.7,0,.81.81,0,0,1-.85.82A.81.81,0,0,1,7.78,3.62ZM9,3.62a.4.4,0,0,0-.39-.45.4.4,0,0,0-.4.45.4.4,0,0,0,.4.43A.39.39,0,0,0,9,3.62ZM8.3,6.17l2.14-3.34h.38L8.68,6.17ZM9.62,5.4a.85.85,0,1,1,.84.83A.81.81,0,0,1,9.62,5.4Zm1.25,0A.4.4,0,0,0,10.46,5a.39.39,0,0,0-.39.44.39.39,0,0,0,.39.44A.4.4,0,0,0,10.87,5.4Z"/><path class="cls-2" d="M5.31,10.71c0-.6.73-.67.73-1,0-.15-.12-.28-.39-.28A.8.8,0,0,0,5,9.72l-.41-.46a1.44,1.44,0,0,1,1.1-.48c.65,0,1,.32,1,.79,0,.73-.83.79-.83,1.21A.31.31,0,0,0,6,11l-.55.16A.68.68,0,0,1,5.31,10.71Zm0,1.11a.41.41,0,0,1,.4-.41.42.42,0,0,1,.41.41.41.41,0,0,1-.41.4A.4.4,0,0,1,5.31,11.82Z"/><path class="cls-2" d="M7.59,10.71c0-.6.73-.67.73-1,0-.15-.12-.28-.39-.28a.8.8,0,0,0-.62.31l-.4-.46A1.41,1.41,0,0,1,8,8.78c.65,0,1,.32,1,.79,0,.73-.83.79-.83,1.21A.31.31,0,0,0,8.3,11l-.55.16A.68.68,0,0,1,7.59,10.71Zm0,1.11a.41.41,0,0,1,.4-.41.42.42,0,0,1,.41.41.41.41,0,0,1-.41.4A.4.4,0,0,1,7.59,11.82Z"/><path class="cls-2" d="M9.87,10.71c0-.6.73-.67.73-1,0-.15-.12-.28-.39-.28a.8.8,0,0,0-.62.31l-.4-.46a1.41,1.41,0,0,1,1.09-.48c.65,0,1,.32,1,.79,0,.73-.83.79-.83,1.21a.31.31,0,0,0,.09.21l-.55.16A.68.68,0,0,1,9.87,10.71Zm0,1.11a.41.41,0,0,1,.4-.41.42.42,0,0,1,.41.41.41.41,0,0,1-.41.4A.4.4,0,0,1,9.87,11.82Z"/></svg>