<?xml version="1.0" encoding="utf-8"?>
<!-- Generator: Adobe Illustrator 23.1.1, SVG Export Plug-In . SVG Version: 6.00 Build 0)  -->
<svg version="1.1" id="Layer_1" xmlns="http://www.w3.org/2000/svg" xmlns:xlink="http://www.w3.org/1999/xlink" x="0px" y="0px"
	 viewBox="0 0 60 60" style="enable-background:new 0 0 60 60;" xml:space="preserve">
<style type="text/css">
	.st0{fill:#306EB3;}
</style>
<title>icon-duration-green-16h-proximax-sirius-wallet</title>
<g>
	<path class="st0" d="M30,0C13.4,0,0,13.4,0,30s13.4,30,30,30s30-13.4,30-30S46.6,0,30,0z M30,58.1C14.5,58.1,1.9,45.5,1.9,30
		S14.5,1.9,30,1.9c15.5,0,28.1,12.6,28.1,28.1C58.1,45.5,45.5,58.1,30,58.1z"/>
</g>
<g>
	<path class="st0" d="M52.9,26c-0.1-0.3-0.5-0.5-0.8-0.5h-2.7c-1.7-9.7-9.9-17.2-19.7-17.2c-11.1,0-20.1,9.4-20.1,21s9,21,20.1,21
		C37,50.2,43.6,46.2,47,39.7c0.5-0.9,0.2-2-0.7-2.6c-0.8-0.5-1.9-0.2-2.4,0.6c0,0,0,0.1-0.1,0.1c-2.8,5.2-8.3,8.5-14.2,8.6
		c-9,0-16.4-7.7-16.4-17.1s7.4-17.1,16.4-17.1c7.8,0.1,14.5,5.7,16,13.3H43c-0.4,0-0.7,0.2-0.8,0.5c-0.1,0.3-0.1,0.7,0.1,1l4.5,5.7
		c0.3,0.4,0.9,0.5,1.3,0.1c0.1,0,0.1-0.1,0.1-0.1l4.5-5.7C53,26.7,53.1,26.3,52.9,26z"/>
</g>
<g>
	<path class="st0" d="M29.7,13.1c-1,0-1.8,0.9-1.8,1.9c0,0,0,0,0,0v11.5c-0.9,0.6-1.4,1.7-1.4,2.7c0,1.8,1.4,3.3,3.2,3.3
		c0.5,0,0.9-0.1,1.3-0.3l6.3,3.8c0.3,0.2,0.6,0.2,0.9,0.2c0.7,0,1.3-0.4,1.6-1c0.5-0.9,0.2-2-0.7-2.6L32.8,29
		c-0.1-1-0.6-1.9-1.3-2.4V15C31.5,14,30.7,13.1,29.7,13.1C29.7,13.1,29.7,13.1,29.7,13.1z M29.7,30.7c-0.8,0-1.5-0.6-1.5-1.4
		s0.6-1.5,1.4-1.5s1.5,0.6,1.5,1.4c0,0,0,0,0,0.1C31.1,30,30.5,30.7,29.7,30.7z"/>
</g>
</svg>
