<?xml version="1.0" encoding="utf-8"?>
<!-- Generator: Adobe Illustrator 23.1.1, SVG Export Plug-In . SVG Version: 6.00 Build 0)  -->
<svg version="1.1" id="Layer_1" xmlns="http://www.w3.org/2000/svg" xmlns:xlink="http://www.w3.org/1999/xlink" x="0px" y="0px"
	 viewBox="0 0 60 60" style="enable-background:new 0 0 60 60;" xml:space="preserve">
<style type="text/css">
	.st0{fill:#306EB3;}
</style>
<title>icon-namespaces-green-16h-proximax-sirius-wallet</title>
<g>
	<path class="st0" d="M30,0C13.4,0,0,13.4,0,30s13.4,30,30,30s30-13.4,30-30S46.6,0,30,0z M30,58.1C14.5,58.1,1.9,45.5,1.9,30
		S14.5,1.9,30,1.9c15.5,0,28.1,12.6,28.1,28.1C58.1,45.5,45.5,58.1,30,58.1z"/>
</g>
<g>
	<path class="st0" d="M35.8,34.3V24.2h-11V14.1H12.5v31.9h35.1V34.3H35.8z M23.4,44.5h-9.5v-8.7h9.5V44.5z M23.4,34.4h-9.5v-8.7h9.5
		V34.4z M23.4,24.2h-9.5v-8.7h9.5V24.2z M34.4,44.5h-9.5v-8.7h9.5L34.4,44.5z M34.4,34.4h-9.5v-8.7h9.5L34.4,34.4z M46.1,44.5H35.8
		v-8.7h10.2V44.5z M14.7,22.8V17c0-0.4,0.3-0.7,0.7-0.7H22c0.4,0,0.7,0.3,0.7,0.7c0,0.4-0.3,0.7-0.7,0.7h-5.9v5.1
		c0,0.4-0.4,0.7-0.8,0.6C15,23.4,14.7,23.1,14.7,22.8L14.7,22.8z M14.7,32.9v-5.8c0-0.4,0.3-0.7,0.7-0.7H22c0.4,0,0.7,0.3,0.7,0.7
		c0,0.4-0.3,0.7-0.7,0.7h-5.9v5.1c0,0.4-0.4,0.7-0.8,0.6C15,33.5,14.7,33.2,14.7,32.9z M14.7,43v-5.8c0-0.4,0.3-0.7,0.7-0.7H22
		c0.4,0,0.7,0.3,0.7,0.7c0,0.4-0.3,0.7-0.7,0.8c0,0,0,0,0,0h-5.9v5c0,0.4-0.4,0.7-0.8,0.6C15,43.6,14.7,43.3,14.7,43L14.7,43z
		 M25.7,32.9v-5.8c0-0.4,0.3-0.7,0.7-0.7H33c0.4,0,0.7,0.3,0.7,0.7c0,0.4-0.3,0.7-0.7,0.7h-5.9v5.1c0,0.4-0.3,0.7-0.7,0.7
		C25.9,33.6,25.6,33.3,25.7,32.9L25.7,32.9z M25.7,43v-5.8c0-0.4,0.3-0.7,0.7-0.7H33c0.4,0,0.7,0.3,0.7,0.7c0,0.4-0.3,0.7-0.7,0.7
		h-5.9v5c0,0.4-0.3,0.7-0.7,0.7C25.9,43.7,25.6,43.4,25.7,43L25.7,43L25.7,43z M36.7,43v-5.8c0-0.4,0.3-0.7,0.7-0.7h7.3
		c0.4,0,0.7,0.3,0.7,0.7c0,0.4-0.3,0.7-0.7,0.7H38v5c0,0.4-0.3,0.7-0.7,0.7c-0.4,0-0.7-0.3-0.7-0.7L36.7,43z"/>
</g>
</svg>
