<svg id="grain_black_24dp" xmlns="http://www.w3.org/2000/svg" width="24" height="24" viewBox="0 0 24 24">
  <path id="Path_664" data-name="Path 664" d="M0,0H24V24H0Z" fill="none"/>
  <path id="Path_665" data-name="Path 665" d="M10.75,13A2.25,2.25,0,1,0,13,15.25,2.257,2.257,0,0,0,10.75,13ZM6.25,8.5A2.25,2.25,0,1,0,8.5,10.75,2.257,2.257,0,0,0,6.25,8.5Zm0,9A2.25,2.25,0,1,0,8.5,19.75,2.257,2.257,0,0,0,6.25,17.5Zm13.5-9A2.25,2.25,0,1,0,17.5,6.25,2.257,2.257,0,0,0,19.75,8.5Zm-4.5,9a2.25,2.25,0,1,0,2.25,2.25A2.257,2.257,0,0,0,15.25,17.5Zm4.5-4.5A2.25,2.25,0,1,0,22,15.25,2.257,2.257,0,0,0,19.75,13Zm-4.5-4.5a2.25,2.25,0,1,0,2.25,2.25A2.257,2.257,0,0,0,15.25,8.5ZM10.75,4A2.25,2.25,0,1,0,13,6.25,2.257,2.257,0,0,0,10.75,4Z" transform="translate(-1 -1)" fill="#007cff"/>
</svg>
