<?xml version="1.0" encoding="utf-8"?>
<!-- Generator: Adobe Illustrator 23.1.1, SVG Export Plug-In . SVG Version: 6.00 Build 0)  -->
<svg version="1.1" id="Layer_1" xmlns="http://www.w3.org/2000/svg" xmlns:xlink="http://www.w3.org/1999/xlink" x="0px" y="0px"
	 viewBox="0 0 60 60" style="enable-background:new 0 0 60 60;" xml:space="preserve">
<style type="text/css">
	.st0{fill-rule:evenodd;clip-rule:evenodd;fill:#306EB5;}
	.st1{fill:none;}
</style>
<title>icon-prx-xpx-blue</title>
<g>
	<path class="st0" d="M30,0C13.4,0,0,13.4,0,30s13.4,30,30,30s30-13.4,30-30S46.6,0,30,0z M30,58.1C14.5,58.1,1.9,45.5,1.9,30
		S14.5,1.9,30,1.9S58.1,14.5,58.1,30c0,0,0,0,0,0C58.1,45.5,45.5,58.1,30,58.1z M30.8,16.5c-1-1-2.1-1.8-3.2-2.4
		C28.4,14,29.2,14,30,14c5.4,0,10.8,1.2,15.7,3.6c-3.7-0.4-5.7-0.7-10.4,0.6c-0.6,0.3-1.3,0.4-1.9,0.4
		C32.5,18.4,31.4,17.1,30.8,16.5z M46.3,19.1h0.2c0,6.5-1.9,12.8-5.5,18.3c-0.4-1.8-1-3.6-1.5-5.3c-0.3-0.9-0.6-1.8-0.9-2.7
		s-0.7-1.7-1-2.6c-1.6-3.7-1.4-3.7,1.5-5.4C41.1,20.4,44.2,19,46.3,19.1z M37,34.1c0.7,1.4,1.7,3.3,2.6,5.5c-2.5,3.2-5.6,6-9.1,8.1
		L30,48l-0.5-0.3c-5.4-3.3-9.8-8-12.6-13.7c1.9-1.5,4-2.9,5.5-3.8c2-1.2,4.1-2.4,6.3-3.4c0.7-0.4,1.4-0.6,2.2-0.8
		c0.2,0,0.5,0,0.7,0.1c0.7,0.3,1.8,2.1,1.8,2.1l0,0c0.2,0.3,0.4,0.6,0.6,0.9s0.4,0.7,0.7,1c0.3,0.5,0.6,1,0.9,1.5
		C36,32.5,36.6,33.3,37,34.1z M16.1,32.2c-1.8-4.3-2.7-9-2.7-13.7V18l0.5-0.2c3.2-1.6,6.7-2.7,10.2-3.3l0.5,0.6
		c0.3,0.4,0.6,0.8,1,1.2c0.4,0.5,0.7,0.9,1,1.5c0.4,0.8,1.4,2,1.6,2.7c0.1,0.2,0.1,0.5,0.1,0.7c-0.1,0.2-0.2,0.4-0.3,0.5
		c-0.4,0.3-0.5,0.4-0.8,0.6c-1.3,1-2.6,2-3.9,3.1s-2.9,2.5-4.2,3.8C18.1,30,17.1,31.1,16.1,32.2z"/>
</g>
<rect x="-245" y="-347" class="st1" width="1366" height="780"/>
</svg>
