<svg id="Layer_1" data-name="Layer 1" xmlns="http://www.w3.org/2000/svg" viewBox="0 0 80 80"><defs><style>.cls-1{fill:#fff;}.cls-2{fill:#1e4065;}.cls-3{fill:#0c1f44;}.cls-4{fill:#eaaa3b;}.cls-5{fill:#e18f36;}.cls-6{fill:#cbcbcb;}</style></defs><title>icon-storage-full-color-80h</title><circle cx="40.4" cy="40.4" r="39.6"/><circle class="cls-1" cx="39.6" cy="39.6" r="39.6"/><path d="M76.14,38.94A37.18,37.18,0,1,1,39,1.77,37.18,37.18,0,0,1,76.14,38.94Z"/><path class="cls-2" d="M76.78,39.59A37.17,37.17,0,1,1,39.61,2.41,37.17,37.17,0,0,1,76.78,39.59Z"/><path class="cls-3" d="M69.87,22.51A34.75,34.75,0,1,0,20.12,68.35C23.94,43.8,44.77,24.28,69.87,22.51Z"/><rect x="17.62" y="29.54" width="43.96" height="28.96"/><rect class="cls-4" x="33.13" y="18.75" width="12.93" height="4.33"/><rect class="cls-5" x="33.13" y="18.75" width="6.39" height="4.33"/><rect class="cls-1" x="15.35" y="25.21" width="48.48" height="4.33" rx="2.16"/><path class="cls-6" d="M17.52,25.21H39.32a0,0,0,0,1,0,0v4.33a0,0,0,0,1,0,0H17.52a2.16,2.16,0,0,1-2.16-2.16v0A2.16,2.16,0,0,1,17.52,25.21Z"/><rect class="cls-1" x="15.35" y="32.48" width="48.48" height="4.33" rx="2.16"/><path class="cls-6" d="M17.52,32.48H39.32a0,0,0,0,1,0,0v4.33a0,0,0,0,1,0,0H17.52a2.16,2.16,0,0,1-2.16-2.16v0A2.16,2.16,0,0,1,17.52,32.48Z"/><rect class="cls-1" x="15.35" y="39.6" width="48.48" height="4.33" rx="2.16"/><path class="cls-6" d="M17.52,39.6H39.32a0,0,0,0,1,0,0v4.33a0,0,0,0,1,0,0H17.52a2.16,2.16,0,0,1-2.16-2.16v0A2.16,2.16,0,0,1,17.52,39.6Z"/><rect class="cls-1" x="15.35" y="46.87" width="48.48" height="4.33" rx="2.16"/><path class="cls-6" d="M17.52,46.87H39.32a0,0,0,0,1,0,0V51.2a0,0,0,0,1,0,0H17.52A2.16,2.16,0,0,1,15.35,49v0A2.16,2.16,0,0,1,17.52,46.87Z"/><rect class="cls-1" x="15.35" y="54.14" width="48.48" height="4.33" rx="2.16"/><path class="cls-6" d="M17.52,54.14H39.32a0,0,0,0,1,0,0v4.33a0,0,0,0,1,0,0H17.52a2.16,2.16,0,0,1-2.16-2.16v0A2.16,2.16,0,0,1,17.52,54.14Z"/></svg>