<?xml version="1.0" standalone="no"?>
<!DOCTYPE svg PUBLIC "-//W3C//DTD SVG 20010904//EN"
 "http://www.w3.org/TR/2001/REC-SVG-20010904/DTD/svg10.dtd">
<svg version="1.0" xmlns="http://www.w3.org/2000/svg"
 width="225.000000pt" height="225.000000pt" viewBox="0 0 225.000000 225.000000"
 preserveAspectRatio="xMidYMid meet">

<g transform="translate(0.000000,225.000000) scale(0.100000,-0.100000)"
fill="rgba(248, 113, 113)" stroke="none">
<path d="M523 1770 c-25 -10 -53 -58 -53 -92 0 -16 74 -96 260 -283 143 -143
260 -265 260 -270 0 -5 -118 -127 -261 -272 l-262 -262 6 -37 c8 -48 33 -73
81 -81 l37 -6 262 262 c145 143 267 261 272 261 5 0 127 -118 272 -261 l262
-262 37 6 c48 8 73 33 81 81 l6 37 -262 262 c-143 145 -261 267 -261 272 0 5
117 127 260 270 186 187 260 267 260 283 0 56 -46 102 -103 102 -14 0 -103
-82 -282 -260 -143 -143 -265 -260 -270 -260 -5 0 -127 117 -270 260 -271 270
-275 273 -332 250z"/>
</g>
</svg>
