<svg id="manage_accounts_black_24dp" xmlns="http://www.w3.org/2000/svg" width="16" height="16" viewBox="0 0 16 16">
  <g id="Group_70" data-name="Group 70">
    <path id="Path_3581" data-name="Path 3581" d="M0,0H16V16H0Z" fill="none"/>
  </g>
  <g id="Group_72" data-name="Group 72" transform="translate(1.333 2.667)">
    <g id="Group_71" data-name="Group 71">
      <path id="Path_3582" data-name="Path 3582" d="M7.78,13.013C7.633,13.007,7.487,13,7.333,13a8.584,8.584,0,0,0-4.407,1.213A1.948,1.948,0,0,0,2,15.9V17a.669.669,0,0,0,.667.667H8.173A4.642,4.642,0,0,1,7.333,15,4.715,4.715,0,0,1,7.78,13.013Z" transform="translate(-2 -7)" fill="#fff"/>
      <circle id="Ellipse_32" data-name="Ellipse 32" cx="2.667" cy="2.667" r="2.667" transform="translate(2.667)" fill="#fff"/>
      <path id="Path_3583" data-name="Path 3583" d="M17.94,14.337a2.892,2.892,0,0,0-.04-.42l.56-.487a.335.335,0,0,0,.067-.42l-.393-.68a.326.326,0,0,0-.393-.147l-.707.24a2.431,2.431,0,0,0-.72-.42l-.147-.727a.335.335,0,0,0-.327-.267h-.787a.335.335,0,0,0-.327.267L14.58,12a2.431,2.431,0,0,0-.72.42l-.707-.24a.331.331,0,0,0-.393.147l-.393.68a.335.335,0,0,0,.067.42l.56.487a2.225,2.225,0,0,0,0,.84l-.56.487a.335.335,0,0,0-.067.42l.393.68a.326.326,0,0,0,.393.147l.707-.24a2.431,2.431,0,0,0,.72.42l.147.727a.335.335,0,0,0,.327.267h.787a.335.335,0,0,0,.327-.267l.147-.727a2.431,2.431,0,0,0,.72-.42l.707.24a.331.331,0,0,0,.393-.147l.393-.68a.335.335,0,0,0-.067-.42l-.56-.487A2.892,2.892,0,0,0,17.94,14.337Zm-2.5,1.333a1.333,1.333,0,1,1,1.333-1.333A1.337,1.337,0,0,1,15.44,15.67Z" transform="translate(-5.44 -6.337)" fill="#fff"/>
    </g>
  </g>
</svg>
