<svg id="widgets_black_24dp" xmlns="http://www.w3.org/2000/svg" width="16" height="16" viewBox="0 0 16 16">
  <path id="Path_666" data-name="Path 666" d="M0,0H16V16H0Z" fill="none"/>
  <path id="Path_667" data-name="Path 667" d="M9.667,10.036v4a.669.669,0,0,0,.667.667h4A.669.669,0,0,0,15,14.036v-4a.669.669,0,0,0-.667-.667h-4A.669.669,0,0,0,9.667,10.036Zm-6,4.667h4a.669.669,0,0,0,.667-.667v-4a.669.669,0,0,0-.667-.667h-4A.669.669,0,0,0,3,10.036v4A.669.669,0,0,0,3.667,14.7ZM3,3.369v4a.669.669,0,0,0,.667.667h4a.669.669,0,0,0,.667-.667v-4A.669.669,0,0,0,7.667,2.7h-4A.669.669,0,0,0,3,3.369ZM11.633,2.3,8.8,5.129a.664.664,0,0,0,0,.94L11.633,8.9a.664.664,0,0,0,.94,0l2.833-2.833a.664.664,0,0,0,0-.94L12.58,2.3a.672.672,0,0,0-.947,0Z" transform="translate(-1 -0.703)" fill="#33344a"/>
</svg>
