<svg xmlns="http://www.w3.org/2000/svg" width="28.557" height="31.25" viewBox="0 0 28.557 31.25">
  <g id="block_height" data-name="block height" transform="translate(-476.001 -60.5)">
    <g id="block_-_filled" data-name="block - filled" transform="translate(449.699 60.5)">
      <path id="Path_642" data-name="Path 642" d="M34.81,123.342l-.508.132v7.25l6.279,3.625,6.279-3.625v-7.25l-.508-.132Z" transform="translate(0 -119.849)" fill="#007cff"/>
      <path id="Path_643" data-name="Path 643" d="M256,123.342v11.007l6.279-3.625v-7.25l-.508-.132Z" transform="translate(-215.419 -119.849)" fill="#0065d0"/>
      <path id="Path_644" data-name="Path 644" d="M45.245,3.625,40.581,7.249,34.3,3.625h0L40.581,0Z" fill="#4aa2ff"/>
      <path id="Path_645" data-name="Path 645" d="M262.279,3.625h0L256,7.249V0Z" transform="translate(-215.419 0)" fill="#007cff"/>
    </g>
    <g id="block_-_filled-2" data-name="block - filled" transform="translate(441.699 73)">
      <path id="Path_642-2" data-name="Path 642" d="M34.81,123.342l-.508.132v7.25l6.279,3.625,6.279-3.625v-7.25l-.508-.132Z" transform="translate(0 -119.849)" fill="#007cff"/>
      <path id="Path_643-2" data-name="Path 643" d="M256,123.342v11.007l6.279-3.625v-7.25l-.508-.132Z" transform="translate(-215.419 -119.849)" fill="#0065d0"/>
      <path id="Path_644-2" data-name="Path 644" d="M45.245,3.625,40.581,7.249,34.3,3.625h0L40.581,0Z" fill="#4aa2ff"/>
      <path id="Path_645-2" data-name="Path 645" d="M262.279,3.625h0L256,7.249V0Z" transform="translate(-215.419 0)" fill="#007cff"/>
    </g>
    <g id="block_-_filled-3" data-name="block - filled" transform="translate(457.699 73)">
      <path id="Path_642-3" data-name="Path 642" d="M34.81,123.342l-.508.132v7.25l6.279,3.625,6.279-3.625v-7.25l-.508-.132Z" transform="translate(0 -119.849)" fill="#007cff"/>
      <path id="Path_643-3" data-name="Path 643" d="M256,123.342v11.007l6.279-3.625v-7.25l-.508-.132Z" transform="translate(-215.419 -119.849)" fill="#0065d0"/>
      <path id="Path_644-3" data-name="Path 644" d="M45.245,3.625,40.581,7.249,34.3,3.625h0L40.581,0Z" fill="#4aa2ff"/>
      <path id="Path_645-3" data-name="Path 645" d="M262.279,3.625h0L256,7.249V0Z" transform="translate(-215.419 0)" fill="#007cff"/>
    </g>
    <g id="block_-_filled-4" data-name="block - filled" transform="translate(465.699 63)">
      <path id="Path_642-4" data-name="Path 642" d="M34.477,123.342l-.175.045v2.5l2.165,1.25,2.165-1.25v-2.5l-.175-.045Z" transform="translate(0 -122.138)" fill="#007cff"/>
      <path id="Path_643-4" data-name="Path 643" d="M256,123.342v3.8l2.165-1.25v-2.5l-.175-.045Z" transform="translate(-219.533 -122.138)" fill="#0065d0"/>
      <path id="Path_644-4" data-name="Path 644" d="M38.075,1.25,36.467,2.5,34.3,1.25h0L36.467,0Z" fill="#4aa2ff"/>
      <path id="Path_645-4" data-name="Path 645" d="M258.165,1.25h0L256,2.5V0Z" transform="translate(-219.533 0)" fill="#007cff"/>
    </g>
    <g id="block_-_filled-5" data-name="block - filled" transform="translate(451.115 88.75)">
      <path id="Path_642-5" data-name="Path 642" d="M34.407,123.342l-.105.027v1.5l1.3.75,1.3-.75v-1.5l-.105-.027Z" transform="translate(0 -122.619)" fill="#007cff"/>
      <path id="Path_643-5" data-name="Path 643" d="M256,123.342v2.277l1.3-.75v-1.5l-.105-.027Z" transform="translate(-220.399 -122.619)" fill="#0065d0"/>
      <path id="Path_644-5" data-name="Path 644" d="M36.566.75,35.6,1.5,34.3.75h0L35.6,0Z" fill="#4aa2ff"/>
      <path id="Path_645-5" data-name="Path 645" d="M257.3.75h0L256,1.5V0Z" transform="translate(-220.399 0)" fill="#007cff"/>
    </g>
    <g id="block_-_filled-6" data-name="block - filled" transform="translate(445.115 66.75)">
      <path id="Path_642-6" data-name="Path 642" d="M34.407,123.342l-.105.027v1.5l1.3.75,1.3-.75v-1.5l-.105-.027Z" transform="translate(0 -122.619)" fill="#007cff"/>
      <path id="Path_643-6" data-name="Path 643" d="M256,123.342v2.277l1.3-.75v-1.5l-.105-.027Z" transform="translate(-220.399 -122.619)" fill="#0065d0"/>
      <path id="Path_644-6" data-name="Path 644" d="M36.566.75,35.6,1.5,34.3.75h0L35.6,0Z" fill="#4aa2ff"/>
      <path id="Path_645-6" data-name="Path 645" d="M257.3.75h0L256,1.5V0Z" transform="translate(-220.399 0)" fill="#007cff"/>
    </g>
  </g>
</svg>
