<svg id="announcement_black_24dp" xmlns="http://www.w3.org/2000/svg" width="15" height="15" viewBox="0 0 15 15">
  <path id="Path_757" data-name="Path 757" d="M15,0H0V15H15Z" fill="none"/>
  <path id="Path_758" data-name="Path 758" d="M3.25,2h10A1.254,1.254,0,0,1,14.5,3.25V14.5L12,12H3.25A1.254,1.254,0,0,1,2,10.75V3.25A1.254,1.254,0,0,1,3.25,2Zm5,5.625A.627.627,0,0,0,8.875,7V4.5a.625.625,0,0,0-1.25,0V7A.627.627,0,0,0,8.25,7.625Zm-.625,2.5h1.25V8.875H7.625Z" transform="translate(-0.75 -0.75)" fill="#fff"/>
</svg>
