<?xml version="1.0" encoding="utf-8"?>
<!-- Generator: Adobe Illustrator 23.1.1, SVG Export Plug-In . SVG Version: 6.00 Build 0)  -->
<svg version="1.1" id="Layer_1" xmlns="http://www.w3.org/2000/svg" xmlns:xlink="http://www.w3.org/1999/xlink" x="0px" y="0px"
	 viewBox="0 0 60 60" style="enable-background:new 0 0 60 60;" xml:space="preserve">
<style type="text/css">
	.st0{fill:#306EB5;}
</style>
<title>icon-voting-green-60h_1</title>
<path class="st0" d="M30,0C13.4,0,0,13.4,0,30s13.4,30,30,30s30-13.4,30-30S46.6,0,30,0z M30,58.1C14.5,58.1,1.9,45.5,1.9,30
	S14.5,1.9,30,1.9S58.1,14.5,58.1,30c0,0,0,0,0,0C58.1,45.5,45.5,58.1,30,58.1z"/>
<path class="st0" d="M37.2,45.5h-25c-0.4,0-0.8,0.2-0.8,0.6S11.6,47,12,47c0.1,0,0.1,0,0.2,0h25c0.4,0,0.7-0.4,0.6-0.8
	C37.8,45.8,37.5,45.6,37.2,45.5z"/>
<path class="st0" d="M32.7,36.6l-5,3c-2,1.2-4.6,0.6-5.8-1.4c-0.6-0.9-0.7-2-0.5-3.1c0.2-1.1,0.9-2.1,1.9-2.7
	c0.9-0.6,1.7-1.1,2.3-1.4h-9.1c-1.2,0-2.2,1-2.2,2.2v11.2h20.6v-8.7C34.2,36.1,33.4,36.4,32.7,36.6z"/>
<path class="st0" d="M43.9,22.2l-0.1-0.1L33,16.7h-0.2l-0.2-0.1c-0.1-0.1-0.2-0.2-0.3-0.3L24,19.4c-0.8,0.3-1.5,0.8-1.9,1.6l-3,5.1
	c-0.7,1.1-0.7,2.4-0.1,3.5l0.2,0.4l0.7,0.1h5.4c0.1-0.2,0.1-0.3,0-0.5c-0.2-0.5-0.4-1-0.8-1.5c1.3-0.5,2.4-1.3,3.4-2.2l0,0
	c0.2,0.1,0.4,0.2,0.6,0.3l0,0c0.6,0.3,1.3,0.5,2,0.7c-0.8,1-1.5,2.1-2,3.3c-1.7,0.9-3.3,1.8-4.8,2.9c-0.8,0.5-1.3,1.3-1.5,2.2
	c-0.4,1.8,0.8,3.7,2.6,4.1c0.9,0.2,1.7,0,2.5-0.4l5.1-3c3.3-1,6-3.2,7.7-6.2C41.5,27.3,42.8,24.8,43.9,22.2L43.9,22.2z"/>
<path class="st0" d="M47.1,15.4L36.8,11c-0.3-0.1-0.7,0-0.9,0.2L33,14.9c-0.1,0.2-0.2,0.4-0.1,0.6c0,0.2,0.2,0.3,0.3,0.4h0.1
	l11.1,5.5l0.1,0.1c0.3,0.1,0.6,0.2,0.9,0.2c1.2,0,2.2-1,2.2-2.2c0,0,0,0,0,0v-3.5C47.5,15.8,47.3,15.5,47.1,15.4z"/>
</svg>
