<svg id="Layer_1" data-name="Layer 1" xmlns="http://www.w3.org/2000/svg" viewBox="0 0 30 30"><defs><style>.cls-1{fill:#54b1aa;}</style></defs><title>icon-nodes-green-30h</title><path class="cls-1" d="M15,0A15,15,0,1,0,30,15,15,15,0,0,0,15,0Zm0,29.06A14.06,14.06,0,1,1,29.06,15,14.08,14.08,0,0,1,15,29.06ZM21.94,6.8H8.06A1.28,1.28,0,0,0,6.8,8.08v3.28a1.26,1.26,0,0,0,.23.72H23a1.26,1.26,0,0,0,.23-.72V8.08A1.28,1.28,0,0,0,21.94,6.8ZM9.67,11A1.25,1.25,0,1,1,10.9,9.72,1.24,1.24,0,0,1,9.67,11Zm6.42-1.39a.28.28,0,0,1,0-.55.28.28,0,1,1,0,.55Zm.55.83a.28.28,0,1,1,.27-.27A.27.27,0,0,1,16.64,10.41Zm.55-.83a.28.28,0,1,1,0-.55.28.28,0,0,1,0,.55Zm.54.83a.28.28,0,0,1,0-.55.28.28,0,1,1,0,.55Zm.55-.83a.28.28,0,1,1,.27-.28A.27.27,0,0,1,18.28,9.58Zm.55.83a.28.28,0,1,1,.27-.27A.27.27,0,0,1,18.83,10.41Zm.54-.83a.28.28,0,0,1,0-.55.28.28,0,1,1,0,.55Zm.55.83a.28.28,0,1,1,.27-.27A.27.27,0,0,1,19.92,10.41Zm.54-.83a.28.28,0,1,1,.28-.28A.27.27,0,0,1,20.46,9.58Zm.55.83a.28.28,0,1,1,.27-.27A.27.27,0,0,1,21,10.41ZM7,12.64a1.26,1.26,0,0,0-.23.72v3.28a1.26,1.26,0,0,0,.23.72H23a1.26,1.26,0,0,0,.23-.72V13.36a1.26,1.26,0,0,0-.23-.72Zm2.64,3.61A1.25,1.25,0,1,1,10.9,15,1.24,1.24,0,0,1,9.67,16.25Zm6.42-1.39a.28.28,0,0,1,0-.55.28.28,0,1,1,0,.55Zm.55.83a.28.28,0,1,1,.27-.27A.27.27,0,0,1,16.64,15.69Zm.55-.83a.28.28,0,1,1,0-.55.28.28,0,0,1,0,.55Zm.54.83a.28.28,0,0,1,0-.55.28.28,0,1,1,0,.55Zm.55-.83a.28.28,0,1,1,.27-.28A.27.27,0,0,1,18.28,14.86Zm.55.83a.28.28,0,1,1,.27-.27A.27.27,0,0,1,18.83,15.69Zm.54-.83a.28.28,0,0,1,0-.55.28.28,0,1,1,0,.55Zm.55.83a.28.28,0,1,1,.27-.27A.27.27,0,0,1,19.92,15.69Zm.54-.83a.28.28,0,1,1,.28-.28A.27.27,0,0,1,20.46,14.86Zm.55.83a.28.28,0,1,1,.27-.27A.27.27,0,0,1,21,15.69ZM7,17.92a1.26,1.26,0,0,0-.23.72v3.28A1.28,1.28,0,0,0,8.06,23.2H21.94a1.28,1.28,0,0,0,1.26-1.28V18.64a1.26,1.26,0,0,0-.23-.72Zm2.64,3.61a1.25,1.25,0,1,1,1.23-1.25A1.24,1.24,0,0,1,9.67,21.53Zm6.42-1.39a.28.28,0,0,1,0-.55.28.28,0,1,1,0,.55Zm.55.83a.28.28,0,1,1,.27-.27A.27.27,0,0,1,16.64,21Zm.55-.83a.28.28,0,1,1,0-.55.28.28,0,0,1,0,.55Zm.54.83a.28.28,0,0,1,0-.55.28.28,0,1,1,0,.55Zm.55-.83a.28.28,0,1,1,.27-.28A.27.27,0,0,1,18.28,20.14Zm.55.83a.28.28,0,1,1,.27-.27A.27.27,0,0,1,18.83,21Zm.54-.83a.28.28,0,0,1,0-.55.28.28,0,1,1,0,.55Zm.55.83a.28.28,0,1,1,.27-.27A.27.27,0,0,1,19.92,21Zm.54-.83a.28.28,0,1,1,.28-.28A.27.27,0,0,1,20.46,20.14ZM21,21a.28.28,0,1,1,.27-.27A.27.27,0,0,1,21,21Z"/></svg>