<svg id="Layer_1" data-name="Layer 1" xmlns="http://www.w3.org/2000/svg" viewBox="0 0 60 60"><defs><style>.cls-1{fill:#fff;}.cls-2{fill:none;}</style></defs><title>icon-transaction-confirmed-white</title><path class="cls-1" d="M30,0A30,30,0,1,0,60,30,30,30,0,0,0,30,0Zm0,58.12A28.12,28.12,0,1,1,58.12,30,28.15,28.15,0,0,1,30,58.12ZM45.19,17a4.26,4.26,0,0,1,.49,6L29,42.61a4.22,4.22,0,0,1-2.9,1.48l-.34,0a4.3,4.3,0,0,1-2.77-1l-10.2-8.77a4.24,4.24,0,1,1,5.53-6.44l7,6,14-16.36A4.24,4.24,0,0,1,45.19,17Z"/><rect class="cls-2" x="-328" y="-347" width="1366" height="780"/></svg>