<svg id="email_black_24dp" xmlns="http://www.w3.org/2000/svg" width="15" height="15" viewBox="0 0 15 15">
  <path id="Path_3545" data-name="Path 3545" d="M0,0H15V15H0Z" fill="none"/>
  <path id="Path_3546" data-name="Path 3546" d="M13.25,4h-10A1.248,1.248,0,0,0,2.006,5.25L2,12.75A1.254,1.254,0,0,0,3.25,14h10a1.254,1.254,0,0,0,1.25-1.25V5.25A1.254,1.254,0,0,0,13.25,4ZM13,6.656,8.581,9.419a.632.632,0,0,1-.662,0L3.5,6.656a.531.531,0,1,1,.563-.9L8.25,8.375l4.188-2.619a.531.531,0,1,1,.563.9Z" transform="translate(-0.75 -1.5)"/>
</svg>
