<?xml version="1.0" standalone="no"?>
<!DOCTYPE svg PUBLIC "-//W3C//DTD SVG 20010904//EN"
 "http://www.w3.org/TR/2001/REC-SVG-20010904/DTD/svg10.dtd">
<svg version="1.0" xmlns="http://www.w3.org/2000/svg"
 width="225.000000pt" height="225.000000pt" viewBox="0 0 225.000000 225.000000"
 preserveAspectRatio="xMidYMid meet">

<g transform="translate(0.000000,225.000000) scale(0.100000,-0.100000)"
fill="#3B82F6" stroke="none">
<path d="M955 2046 c-361 -70 -640 -330 -737 -687 -33 -121 -33 -347 0 -468
91 -333 341 -583 673 -673 122 -33 348 -33 468 0 333 91 582 340 673 673 33
121 33 347 0 468 -90 331 -340 582 -667 671 -102 28 -307 36 -410 16z m343
-192 c255 -53 484 -278 553 -541 28 -107 28 -269 0 -376 -68 -259 -279 -470
-538 -538 -107 -28 -269 -28 -376 0 -259 68 -470 279 -538 538 -28 107 -28
269 0 376 53 202 195 380 380 476 166 86 323 105 519 65z"/>
<path d="M1030 1500 l0 -90 95 0 95 0 0 90 0 90 -95 0 -95 0 0 -90z"/>
<path d="M1030 940 l0 -280 95 0 95 0 0 280 0 280 -95 0 -95 0 0 -280z"/>
</g>
</svg>
