<svg id="logo" xmlns="http://www.w3.org/2000/svg" width="172.66" height="41.001" viewBox="0 0 172.66 41.001">
  <g id="ProximaX_Logo_RGB" transform="translate(0)">
    <g id="Group_1" data-name="Group 1" transform="translate(0)">
      <path id="Path_1" data-name="Path 1" d="M106.359,58.044c5.679-1.617,8.089-1.2,12.518-.739A44.283,44.283,0,0,0,100,53c-.971,0-1.946.035-2.909.1a17.457,17.457,0,0,1,3.923,2.948c.673.689,2.062,2.3,3.01,2.468a6.225,6.225,0,0,0,2.336-.472" transform="translate(-80.002 -53)" fill="#f06623" fill-rule="evenodd"/>
      <path id="Path_2" data-name="Path 2" d="M130.786,91.086c-.491-2.186-1.145-4.36-1.822-6.449-.352-1.091-.739-2.166-1.118-3.246-.371-1.06-.781-2.1-1.211-3.137-1.9-4.445-1.7-4.464,1.768-6.464,2.352-1.2,6.05-2.894,8.7-2.762.093,0,.182.012.275.019a40.27,40.27,0,0,1-6.588,22.038" transform="translate(-97.385 -62.824)" fill="#79b6e3" fill-rule="evenodd"/>
      <path id="Path_3" data-name="Path 3" d="M63.9,100.081c2.251-1.772,4.77-3.466,6.6-4.623a79.22,79.22,0,0,1,7.551-4.112,9.294,9.294,0,0,1,2.654-.979,1.9,1.9,0,0,1,.824.089c.832.352,2.224,2.6,2.224,2.6l.015.023c.248.364.472.743.731,1.095.275.379.53.808.774,1.207q.551.9,1.083,1.8c.58.979,1.207,2,1.725,3.006.863,1.675,2.07,4.046,3.106,6.584a40.242,40.242,0,0,1-10.971,9.787l-.573.348-.573-.348A40.222,40.222,0,0,1,63.9,100.081" transform="translate(-59.651 -75.908)" fill="#1fb4ac" fill-rule="evenodd"/>
      <path id="Path_4" data-name="Path 4" d="M65.83,54.54c.209.228.406.453.584.665.4.476.781.979,1.157,1.474a17.185,17.185,0,0,1,1.249,1.752A36.9,36.9,0,0,1,70.8,61.72a1.79,1.79,0,0,1,.128.863,1.159,1.159,0,0,1-.418.6c-.433.356-.642.464-1.01.735-1.617,1.184-3.16,2.445-4.727,3.687C63.021,69,61.28,70.636,59.671,72.2c-1.106,1.075-2.36,2.364-3.524,3.729a40.239,40.239,0,0,1-3.226-16.471l.012-.681.611-.3A45.565,45.565,0,0,1,65.83,54.54" transform="translate(-52.915 -53.944)" fill="#f3a91d" fill-rule="evenodd"/>
    </g>
  </g>
  <text id="ProximaX_Sirius_Wallet" data-name="ProximaX
Sirius Wallet" transform="translate(54.66 14)" fill="#fff" font-size="13" font-family="SegoeUI-Bold, Segoe UI" font-weight="700"><tspan x="0" y="0">ProximaX</tspan><tspan font-size="20"><tspan x="0" y="21">Sirius Wallet</tspan></tspan></text>
</svg>
