<?xml version="1.0" standalone="no"?>
<!DOCTYPE svg PUBLIC "-//W3C//DTD SVG 1.1//EN" "http://www.w3.org/Graphics/SVG/1.1/DTD/svg11.dtd">
<!--Generator: Xara Designer (www.xara.com), SVG filter version: 6.6.0.0-->
<svg fill="none" fill-rule="evenodd" stroke="black" stroke-width="0.501" stroke-linejoin="bevel" stroke-miterlimit="10" font-family="Times New Roman" font-size="16" style="font-variant-ligatures:none" xmlns:xlink="http://www.w3.org/1999/xlink" xmlns="http://www.w3.org/2000/svg" version="1.1" overflow="visible" width="129.495pt" height="30.75pt" viewBox="0 -30.75 129.495 30.75">
 <defs>
	</defs>
 <g id="Layer 1" transform="scale(1 -1)">
  <g id="Group" style="-moz-font-feature-settings:'liga' on;-ms-font-feature-settings:'liga' on;-webkit-font-feature-settings:'liga' on;font-feature-settings:'liga' on;font-variant-ligatures: common-ligatures no-discretionary-ligatures no-historical-ligatures" font-size="9.812" font-family="Inter Extra Bold" stroke-linejoin="miter" stroke="none">
   <path d="M 19.767,26.967 C 24.027,28.179 25.834,27.867 29.156,27.521 C 24.732,29.628 19.898,30.731 14.998,30.749 C 14.27,30.75 13.539,30.723 12.816,30.675 C 13.896,30.08 14.887,29.335 15.759,28.464 C 16.263,27.947 17.305,26.739 18.016,26.613 C 18.617,26.617 19.212,26.737 19.768,26.967" stroke-width="0.75" fill="#f06623"/>
   <path d="M 25.05,9.553 C 24.682,11.193 24.191,12.823 23.684,14.39 C 23.42,15.208 23.129,16.014 22.845,16.824 C 22.567,17.619 22.259,18.399 21.937,19.177 C 20.512,22.511 20.662,22.525 23.263,24.025 C 25.027,24.925 27.801,26.195 29.788,26.097 C 29.858,26.097 29.925,26.088 29.994,26.082 C 29.989,20.21 28.272,14.466 25.053,9.554" stroke-width="0.75" fill="#79b6e3"/>
   <path d="M 3.186,12.62 C 4.875,13.949 6.764,15.219 8.136,16.087 C 9.967,17.217 11.857,18.246 13.799,19.171 C 14.422,19.516 15.093,19.763 15.79,19.905 C 15.998,19.929 16.209,19.906 16.408,19.838 C 17.032,19.574 18.076,17.888 18.076,17.888 L 18.087,17.871 C 18.273,17.598 18.441,17.314 18.636,17.05 C 18.842,16.766 19.033,16.444 19.216,16.145 C 19.492,15.695 19.762,15.245 20.028,14.795 C 20.463,14.06 20.934,13.295 21.322,12.54 C 21.969,11.284 22.875,9.506 23.652,7.602 C 21.383,4.671 18.593,2.183 15.423,0.262 L 14.994,0.001 L 14.564,0.262 C 9.678,3.221 5.732,7.506 3.186,12.62" stroke-width="0.75" fill="#1fb4ac"/>
   <path d="M 9.686,30.303 C 9.843,30.131 9.99,29.963 10.124,29.804 C 10.424,29.447 10.709,29.069 10.991,28.698 C 11.331,28.28 11.644,27.841 11.928,27.384 C 12.466,26.588 12.961,25.765 13.413,24.917 C 13.498,24.713 13.531,24.491 13.509,24.27 C 13.456,24.09 13.346,23.932 13.196,23.82 C 12.871,23.553 12.714,23.472 12.438,23.269 C 11.226,22.381 10.068,21.435 8.893,20.504 C 7.579,19.458 6.273,18.23 5.067,17.058 C 4.237,16.251 3.297,15.285 2.424,14.261 C 0.758,18.163 -0.066,22.372 0.004,26.614 L 0.013,27.125 L 0.471,27.35 C 3.387,28.766 6.49,29.76 9.686,30.303" stroke-width="0.75" fill="#f3a91d"/>
   <g id="Group_1" fill-rule="nonzero" stroke-width="0.755" fill="#000000">
    <g id="Group_2">
     <path d="M 41.586,20.216 L 43.311,20.216 L 43.311,22.432 L 44.481,22.432 C 45.029,22.435 45.5,22.537 45.896,22.738 C 46.292,22.939 46.597,23.222 46.811,23.588 C 47.026,23.954 47.134,24.385 47.137,24.881 C 47.134,25.373 47.028,25.804 46.818,26.174 C 46.608,26.543 46.309,26.831 45.921,27.037 C 45.533,27.243 45.07,27.348 44.534,27.352 L 41.586,27.352 L 41.586,20.216 Z M 43.311,23.791 L 43.311,25.961 L 44.161,25.961 C 44.549,25.958 44.844,25.86 45.045,25.67 C 45.247,25.479 45.348,25.216 45.349,24.881 C 45.349,24.66 45.303,24.469 45.213,24.306 C 45.123,24.143 44.989,24.017 44.813,23.927 C 44.636,23.837 44.419,23.792 44.161,23.791 L 43.311,23.791 Z" marker-start="none" marker-end="none"/>
     <path d="M 47.982,20.216 L 49.686,20.216 L 49.686,23.122 C 49.689,23.334 49.735,23.52 49.823,23.677 C 49.911,23.835 50.029,23.957 50.176,24.045 C 50.323,24.132 50.487,24.176 50.668,24.177 C 50.771,24.176 50.864,24.163 50.949,24.137 C 51.034,24.112 51.113,24.081 51.188,24.045 L 51.689,25.446 C 51.586,25.506 51.471,25.553 51.344,25.588 C 51.216,25.622 51.082,25.64 50.94,25.641 C 50.644,25.641 50.388,25.555 50.17,25.382 C 49.953,25.208 49.794,24.945 49.693,24.592 L 49.637,24.592 L 49.637,25.568 L 47.982,25.568 L 47.982,20.216 Z" marker-start="none" marker-end="none"/>
     <path d="M 54.835,20.115 C 55.398,20.118 55.881,20.235 56.284,20.464 C 56.687,20.693 56.996,21.014 57.212,21.426 C 57.428,21.839 57.537,22.321 57.539,22.874 C 57.537,23.428 57.428,23.912 57.212,24.325 C 56.996,24.737 56.687,25.059 56.284,25.288 C 55.881,25.517 55.398,25.634 54.835,25.637 C 54.272,25.634 53.789,25.517 53.386,25.288 C 52.984,25.059 52.674,24.737 52.458,24.325 C 52.243,23.912 52.134,23.428 52.132,22.874 C 52.134,22.321 52.243,21.839 52.458,21.426 C 52.674,21.014 52.984,20.693 53.386,20.464 C 53.789,20.235 54.272,20.118 54.835,20.115 Z M 54.846,21.4 C 54.635,21.402 54.457,21.465 54.312,21.589 C 54.166,21.712 54.056,21.885 53.98,22.106 C 53.905,22.328 53.867,22.588 53.867,22.885 C 53.867,23.183 53.905,23.443 53.98,23.666 C 54.056,23.889 54.166,24.063 54.312,24.187 C 54.457,24.311 54.635,24.374 54.846,24.376 C 55.049,24.374 55.223,24.311 55.365,24.187 C 55.508,24.063 55.616,23.889 55.691,23.666 C 55.766,23.443 55.803,23.183 55.804,22.885 C 55.803,22.588 55.766,22.328 55.691,22.106 C 55.616,21.885 55.508,21.712 55.365,21.589 C 55.223,21.465 55.049,21.402 54.846,21.4 Z" marker-start="none" marker-end="none"/>
     <path d="M 59.861,25.568 L 58.133,25.568 L 59.611,22.892 L 58.057,20.216 L 59.785,20.216 L 60.743,21.993 L 61.726,20.216 L 63.429,20.216 L 61.879,22.892 L 63.374,25.568 L 61.656,25.568 L 60.743,23.804 L 59.861,25.568 Z" marker-start="none" marker-end="none"/>
     <path d="M 64.156,20.216 L 65.86,20.216 L 65.86,25.568 L 64.156,25.568 L 64.156,20.216 Z M 65.01,26.191 C 65.173,26.193 65.32,26.23 65.452,26.303 C 65.583,26.375 65.688,26.473 65.765,26.595 C 65.843,26.718 65.882,26.855 65.884,27.007 C 65.882,27.158 65.843,27.295 65.765,27.417 C 65.688,27.539 65.583,27.636 65.452,27.708 C 65.32,27.78 65.173,27.817 65.01,27.819 C 64.847,27.817 64.701,27.78 64.569,27.708 C 64.438,27.636 64.333,27.539 64.255,27.417 C 64.177,27.295 64.137,27.158 64.135,27.007 C 64.137,26.855 64.177,26.718 64.255,26.595 C 64.333,26.473 64.438,26.375 64.569,26.303 C 64.701,26.23 64.847,26.193 65.01,26.191 Z" marker-start="none" marker-end="none"/>
     <path d="M 66.94,20.216 L 68.644,20.216 L 68.644,23.383 C 68.648,23.651 68.718,23.862 68.855,24.015 C 68.992,24.169 69.173,24.247 69.4,24.251 C 69.624,24.248 69.802,24.176 69.933,24.034 C 70.065,23.892 70.132,23.696 70.135,23.446 L 70.135,20.216 L 71.773,20.216 L 71.773,23.411 C 71.775,23.67 71.841,23.874 71.973,24.023 C 72.104,24.172 72.288,24.248 72.525,24.251 C 72.745,24.25 72.922,24.179 73.057,24.039 C 73.191,23.899 73.26,23.696 73.264,23.428 L 73.264,20.216 L 74.968,20.216 L 74.968,23.818 C 74.965,24.198 74.893,24.522 74.75,24.793 C 74.607,25.064 74.408,25.272 74.152,25.417 C 73.897,25.562 73.6,25.636 73.261,25.637 C 72.995,25.636 72.753,25.592 72.535,25.506 C 72.316,25.42 72.131,25.298 71.978,25.141 C 71.825,24.984 71.715,24.799 71.647,24.585 L 71.592,24.585 C 71.542,24.8 71.45,24.986 71.314,25.143 C 71.179,25.3 71.01,25.421 70.808,25.507 C 70.606,25.593 70.381,25.636 70.132,25.637 C 69.763,25.634 69.447,25.54 69.185,25.355 C 68.923,25.171 68.734,24.914 68.619,24.585 L 68.56,24.585 L 68.56,25.568 L 66.94,25.568 L 66.94,20.216 Z" marker-start="none" marker-end="none"/>
     <path d="M 77.538,20.125 C 77.91,20.126 78.226,20.197 78.485,20.338 C 78.743,20.479 78.946,20.687 79.092,20.961 L 79.134,20.961 L 79.134,20.216 L 80.736,20.216 L 80.736,23.853 C 80.735,24.137 80.675,24.389 80.558,24.61 C 80.44,24.831 80.275,25.017 80.063,25.17 C 79.85,25.323 79.6,25.439 79.312,25.518 C 79.024,25.597 78.709,25.637 78.367,25.637 C 77.887,25.634 77.477,25.56 77.138,25.413 C 76.799,25.267 76.532,25.066 76.337,24.811 C 76.143,24.556 76.022,24.265 75.977,23.937 L 77.548,23.881 C 77.586,24.053 77.673,24.188 77.809,24.284 C 77.946,24.381 78.128,24.43 78.353,24.432 C 78.564,24.431 78.73,24.382 78.851,24.286 C 78.972,24.189 79.034,24.051 79.036,23.871 L 79.036,23.853 C 79.037,23.746 78.995,23.662 78.91,23.602 C 78.825,23.542 78.689,23.495 78.502,23.463 C 78.316,23.43 78.071,23.401 77.768,23.376 C 77.495,23.355 77.239,23.31 77,23.242 C 76.76,23.175 76.549,23.077 76.367,22.948 C 76.184,22.82 76.04,22.653 75.937,22.449 C 75.833,22.245 75.78,21.995 75.778,21.7 C 75.781,21.347 75.857,21.054 76.007,20.821 C 76.156,20.588 76.363,20.413 76.626,20.298 C 76.89,20.183 77.193,20.125 77.538,20.125 Z M 78.064,21.24 C 77.864,21.241 77.702,21.287 77.58,21.379 C 77.458,21.47 77.395,21.605 77.391,21.784 C 77.393,21.956 77.458,22.095 77.588,22.199 C 77.718,22.304 77.904,22.374 78.148,22.411 C 78.255,22.426 78.365,22.444 78.479,22.464 C 78.592,22.485 78.699,22.509 78.799,22.536 C 78.898,22.563 78.981,22.593 79.046,22.627 L 79.046,22.118 C 79.044,21.943 79,21.789 78.912,21.658 C 78.825,21.527 78.708,21.425 78.56,21.352 C 78.412,21.278 78.247,21.241 78.064,21.24 Z" marker-start="none" marker-end="none"/>
     <path d="M 83.519,27.352 L 81.574,27.352 L 83.731,23.784 L 81.519,20.216 L 83.484,20.216 L 84.822,22.494 L 84.878,22.494 L 86.215,20.216 L 88.195,20.216 L 85.972,23.784 L 88.125,27.352 L 86.195,27.352 L 84.878,25.097 L 84.822,25.097 L 83.519,27.352 Z" marker-start="none" marker-end="none"/>
    </g>
   </g>
   <path d="M 47.507,11.506 L 49.904,11.506 C 49.893,12.155 49.725,12.723 49.401,13.209 C 49.076,13.694 48.619,14.071 48.03,14.34 C 47.44,14.611 46.742,14.747 45.935,14.751 C 45.341,14.75 44.796,14.672 44.302,14.52 C 43.807,14.367 43.378,14.151 43.015,13.867 C 42.653,13.584 42.373,13.245 42.176,12.852 C 41.979,12.458 41.881,12.02 41.882,11.537 C 41.882,11.014 41.998,10.563 42.23,10.185 C 42.461,9.808 42.792,9.495 43.223,9.246 C 43.654,8.997 44.169,8.805 44.768,8.67 L 45.849,8.417 C 46.417,8.291 46.834,8.138 47.101,7.961 C 47.37,7.783 47.505,7.551 47.507,7.265 C 47.499,6.943 47.356,6.686 47.078,6.492 C 46.8,6.297 46.407,6.198 45.9,6.192 C 45.529,6.193 45.206,6.25 44.93,6.363 C 44.655,6.477 44.437,6.646 44.279,6.87 C 44.12,7.094 44.03,7.373 44.01,7.705 L 41.613,7.705 C 41.628,6.898 41.813,6.23 42.168,5.701 C 42.523,5.171 43.02,4.776 43.661,4.515 C 44.302,4.255 45.058,4.124 45.93,4.125 C 46.794,4.127 47.53,4.253 48.141,4.501 C 48.753,4.749 49.221,5.107 49.547,5.574 C 49.874,6.04 50.039,6.602 50.046,7.26 C 50.036,8.085 49.762,8.754 49.223,9.268 C 48.684,9.782 47.901,10.15 46.876,10.373 L 45.986,10.575 C 45.51,10.672 45.137,10.81 44.867,10.987 C 44.598,11.164 44.466,11.404 44.47,11.709 C 44.473,11.997 44.595,12.23 44.838,12.408 C 45.081,12.587 45.445,12.679 45.93,12.684 C 46.42,12.681 46.797,12.577 47.06,12.372 C 47.325,12.166 47.474,11.878 47.507,11.506 Z" fill-rule="nonzero" stroke-width="0.763" fill="#000000" marker-start="none" marker-end="none"/>
   <path d="M 51.316,4.257 L 53.788,4.257 L 53.788,12.022 L 51.316,12.022 L 51.316,4.257 Z M 52.554,12.927 C 52.792,12.93 53.005,12.983 53.195,13.088 C 53.386,13.194 53.538,13.335 53.65,13.513 C 53.763,13.691 53.821,13.89 53.823,14.11 C 53.821,14.329 53.763,14.528 53.65,14.705 C 53.538,14.882 53.386,15.023 53.195,15.127 C 53.005,15.231 52.792,15.285 52.554,15.288 C 52.319,15.285 52.107,15.231 51.916,15.127 C 51.725,15.023 51.573,14.882 51.46,14.705 C 51.346,14.528 51.288,14.329 51.286,14.11 C 51.288,13.89 51.346,13.691 51.46,13.513 C 51.573,13.335 51.725,13.194 51.916,13.088 C 52.107,12.983 52.319,12.93 52.554,12.927 Z" fill-rule="nonzero" stroke-width="0.763" fill="#000000" marker-start="none" marker-end="none"/>
   <path d="M 55.355,4.257 L 57.826,4.257 L 57.826,8.473 C 57.829,8.783 57.897,9.054 58.029,9.286 C 58.163,9.517 58.345,9.697 58.576,9.825 C 58.807,9.954 59.071,10.018 59.369,10.02 C 59.468,10.02 59.578,10.015 59.697,10.004 C 59.817,9.994 59.934,9.979 60.047,9.959 C 60.16,9.94 60.257,9.916 60.339,9.889 L 60.339,12.037 C 60.234,12.065 60.121,12.088 60,12.104 C 59.879,12.12 59.762,12.128 59.646,12.129 C 59.218,12.129 58.845,12.004 58.53,11.752 C 58.213,11.501 57.983,11.119 57.836,10.607 L 57.755,10.607 L 57.755,12.022 L 55.355,12.022 L 55.355,4.257 Z" fill-rule="nonzero" stroke-width="0.763" fill="#000000" marker-start="none" marker-end="none"/>
   <path d="M 61.354,4.257 L 63.824,4.257 L 63.824,12.022 L 61.354,12.022 L 61.354,4.257 Z M 62.591,12.927 C 62.829,12.93 63.042,12.983 63.233,13.088 C 63.424,13.194 63.576,13.335 63.687,13.513 C 63.8,13.691 63.858,13.89 63.86,14.11 C 63.858,14.329 63.8,14.528 63.687,14.705 C 63.576,14.882 63.424,15.023 63.233,15.127 C 63.042,15.231 62.829,15.285 62.591,15.288 C 62.356,15.285 62.143,15.231 61.952,15.127 C 61.761,15.023 61.61,14.882 61.496,14.705 C 61.384,14.528 61.326,14.329 61.324,14.11 C 61.326,13.89 61.384,13.691 61.496,13.513 C 61.61,13.335 61.761,13.194 61.952,13.088 C 62.143,12.983 62.356,12.93 62.591,12.927 Z" fill-rule="nonzero" stroke-width="0.763" fill="#000000" marker-start="none" marker-end="none"/>
   <path d="M 70.401,7.609 C 70.398,7.306 70.339,7.051 70.224,6.84 C 70.109,6.631 69.953,6.471 69.758,6.362 C 69.561,6.253 69.34,6.198 69.092,6.197 C 68.709,6.201 68.411,6.323 68.195,6.561 C 67.98,6.8 67.869,7.132 67.863,7.558 L 67.863,12.022 L 65.392,12.022 L 65.392,7.073 C 65.396,6.484 65.51,5.972 65.73,5.537 C 65.951,5.102 66.262,4.763 66.66,4.522 C 67.058,4.281 67.525,4.16 68.06,4.155 C 68.646,4.161 69.145,4.3 69.554,4.573 C 69.962,4.846 70.254,5.223 70.431,5.703 L 70.512,5.703 L 70.512,4.257 L 72.869,4.257 L 72.869,12.022 L 70.401,12.022 L 70.401,7.609 Z" fill-rule="nonzero" stroke-width="0.763" fill="#000000" marker-start="none" marker-end="none"/>
   <path d="M 81.221,9.651 C 81.176,10.165 81.01,10.607 80.725,10.975 C 80.439,11.344 80.045,11.627 79.539,11.824 C 79.035,12.022 78.43,12.121 77.729,12.123 C 77.024,12.122 76.415,12.023 75.902,11.829 C 75.389,11.634 74.992,11.352 74.713,10.984 C 74.435,10.616 74.296,10.171 74.296,9.651 C 74.29,9.053 74.479,8.565 74.862,8.187 C 75.246,7.809 75.825,7.547 76.601,7.401 L 77.956,7.144 C 78.275,7.082 78.512,6.997 78.665,6.889 C 78.818,6.781 78.897,6.641 78.901,6.471 C 78.891,6.273 78.789,6.117 78.596,6.001 C 78.402,5.885 78.145,5.827 77.825,5.824 C 77.47,5.825 77.182,5.898 76.958,6.046 C 76.735,6.193 76.596,6.41 76.54,6.694 L 74.098,6.633 C 74.158,6.118 74.341,5.673 74.647,5.296 C 74.953,4.92 75.371,4.629 75.904,4.422 C 76.436,4.217 77.073,4.113 77.815,4.11 C 78.512,4.113 79.131,4.222 79.669,4.438 C 80.207,4.654 80.629,4.958 80.937,5.351 C 81.245,5.745 81.404,6.209 81.414,6.744 C 81.41,7.308 81.218,7.763 80.837,8.108 C 80.457,8.454 79.881,8.699 79.109,8.847 L 77.612,9.13 C 77.288,9.197 77.062,9.287 76.931,9.399 C 76.802,9.512 76.74,9.643 76.747,9.793 C 76.748,9.924 76.794,10.039 76.885,10.133 C 76.975,10.228 77.098,10.3 77.253,10.352 C 77.407,10.403 77.581,10.429 77.774,10.429 C 78.105,10.425 78.373,10.346 78.581,10.193 C 78.788,10.042 78.912,9.841 78.952,9.591 L 81.221,9.651 Z" fill-rule="nonzero" stroke-width="0.763" fill="#000000" marker-start="none" marker-end="none"/>
   <path d="M 88.172,4.257 L 90.579,4.257 L 92.444,10.535 L 92.525,10.535 L 94.391,4.257 L 96.801,4.257 L 99.809,14.61 L 97.05,14.61 L 95.481,7.811 L 95.395,7.811 L 93.611,14.61 L 91.357,14.61 L 89.572,7.826 L 89.486,7.826 L 87.924,14.61 L 85.158,14.61 L 88.172,4.257 Z" fill-rule="nonzero" stroke-width="0.763" fill="#000000" marker-start="none" marker-end="none"/>
   <path d="M 102.157,4.125 C 102.698,4.126 103.156,4.229 103.531,4.434 C 103.906,4.64 104.2,4.941 104.412,5.339 L 104.473,5.339 L 104.473,4.257 L 106.798,4.257 L 106.798,9.535 C 106.796,9.947 106.709,10.312 106.539,10.632 C 106.368,10.952 106.129,11.223 105.82,11.445 C 105.511,11.667 105.149,11.835 104.732,11.95 C 104.314,12.065 103.856,12.123 103.36,12.123 C 102.664,12.119 102.069,12.011 101.577,11.799 C 101.085,11.585 100.697,11.294 100.415,10.924 C 100.133,10.554 99.958,10.132 99.893,9.657 L 102.172,9.576 C 102.227,9.825 102.353,10.02 102.551,10.16 C 102.75,10.299 103.013,10.371 103.34,10.373 C 103.646,10.372 103.888,10.301 104.062,10.162 C 104.238,10.022 104.327,9.822 104.331,9.561 L 104.331,9.535 C 104.332,9.379 104.272,9.257 104.148,9.17 C 104.024,9.082 103.827,9.016 103.556,8.968 C 103.286,8.921 102.931,8.878 102.491,8.842 C 102.095,8.81 101.723,8.747 101.376,8.649 C 101.03,8.55 100.724,8.408 100.458,8.221 C 100.193,8.035 99.985,7.795 99.834,7.497 C 99.683,7.201 99.607,6.838 99.604,6.41 C 99.608,5.898 99.719,5.474 99.935,5.135 C 100.152,4.796 100.453,4.544 100.835,4.376 C 101.218,4.208 101.658,4.125 102.157,4.125 Z M 102.921,5.744 C 102.63,5.745 102.396,5.811 102.219,5.944 C 102.041,6.077 101.95,6.273 101.945,6.532 C 101.947,6.782 102.042,6.983 102.23,7.134 C 102.418,7.286 102.689,7.389 103.042,7.442 C 103.198,7.464 103.358,7.49 103.523,7.52 C 103.687,7.55 103.842,7.584 103.987,7.624 C 104.131,7.663 104.25,7.707 104.346,7.755 L 104.346,7.017 C 104.343,6.762 104.278,6.54 104.151,6.349 C 104.025,6.159 103.854,6.01 103.64,5.904 C 103.426,5.799 103.187,5.746 102.921,5.744 Z" fill-rule="nonzero" stroke-width="0.763" fill="#000000" marker-start="none" marker-end="none"/>
   <path d="M 110.774,14.61 L 108.303,14.61 L 108.303,4.257 L 110.774,4.257 L 110.774,14.61 Z" fill-rule="nonzero" stroke-width="0.763" fill="#000000" marker-start="none" marker-end="none"/>
   <path d="M 114.813,14.61 L 112.341,14.61 L 112.341,4.257 L 114.813,4.257 L 114.813,14.61 Z" fill-rule="nonzero" stroke-width="0.763" fill="#000000" marker-start="none" marker-end="none"/>
   <path d="M 120.01,4.11 C 120.69,4.113 121.288,4.217 121.801,4.422 C 122.313,4.628 122.729,4.918 123.047,5.293 C 123.366,5.669 123.573,6.11 123.67,6.623 L 121.4,6.689 C 121.299,6.43 121.133,6.233 120.898,6.097 C 120.663,5.963 120.382,5.895 120.055,5.894 C 119.737,5.896 119.463,5.963 119.234,6.093 C 119.005,6.225 118.829,6.408 118.705,6.644 C 118.581,6.881 118.519,7.159 118.518,7.477 L 118.518,7.543 L 123.695,7.543 L 123.695,8.159 C 123.689,9.014 123.527,9.735 123.209,10.324 C 122.892,10.913 122.451,11.36 121.889,11.664 C 121.326,11.968 120.674,12.122 119.934,12.123 C 119.147,12.118 118.467,11.949 117.893,11.618 C 117.318,11.285 116.873,10.819 116.559,10.219 C 116.244,9.62 116.085,8.917 116.08,8.109 C 116.085,7.277 116.243,6.562 116.557,5.967 C 116.871,5.372 117.321,4.914 117.906,4.594 C 118.49,4.275 119.192,4.113 120.01,4.11 Z M 118.518,8.978 C 118.532,9.239 118.604,9.472 118.732,9.675 C 118.86,9.879 119.032,10.041 119.247,10.157 C 119.464,10.275 119.709,10.336 119.984,10.338 C 120.257,10.336 120.499,10.277 120.709,10.162 C 120.919,10.048 121.084,9.888 121.205,9.684 C 121.326,9.481 121.389,9.245 121.395,8.978 L 118.518,8.978 Z" fill-rule="nonzero" stroke-width="0.763" fill="#000000" marker-start="none" marker-end="none"/>
   <path d="M 129.348,12.022 L 127.948,12.022 L 127.948,13.883 L 125.475,13.883 L 125.475,12.022 L 124.448,12.022 L 124.448,10.201 L 125.475,10.201 L 125.475,6.426 C 125.472,5.9 125.578,5.466 125.794,5.118 C 126.01,4.77 126.323,4.514 126.734,4.352 C 127.144,4.188 127.642,4.119 128.226,4.145 C 128.524,4.164 128.779,4.196 128.991,4.241 C 129.203,4.287 129.37,4.329 129.489,4.368 L 129.115,6.152 C 129.058,6.138 128.978,6.123 128.875,6.104 C 128.772,6.087 128.672,6.078 128.574,6.076 C 128.373,6.073 128.219,6.12 128.112,6.215 C 128.003,6.31 127.949,6.471 127.948,6.699 L 127.948,10.201 L 129.348,10.201 L 129.348,12.022 Z" fill-rule="nonzero" stroke-width="0.763" fill="#000000" marker-start="none" marker-end="none"/>
  </g>
 </g>
</svg>
