<?xml version="1.0" standalone="no"?>
<!DOCTYPE svg PUBLIC "-//W3C//DTD SVG 1.1//EN" "http://www.w3.org/Graphics/SVG/1.1/DTD/svg11.dtd">
<!--Generator: Xara Designer (www.xara.com), SVG filter version: 6.6.0.0-->
<svg fill="none" fill-rule="evenodd" stroke="black" stroke-width="0.501" stroke-linejoin="bevel" stroke-miterlimit="10" font-family="Times New Roman" font-size="16" style="font-variant-ligatures:none" xmlns:xlink="http://www.w3.org/1999/xlink" xmlns="http://www.w3.org/2000/svg" version="1.1" overflow="visible" width="129.495pt" height="30.75pt" viewBox="0 -30.75 129.495 30.75">
 <defs>
	</defs>
 <g id="Layer 1" transform="scale(1 -1)">
  <g id="Group" stroke-linejoin="miter" stroke="none">
   <path d="M 19.764,26.967 C 24.024,28.179 25.831,27.867 29.153,27.521 C 24.729,29.628 19.895,30.731 14.995,30.749 C 14.267,30.75 13.536,30.723 12.813,30.675 C 13.893,30.08 14.884,29.335 15.756,28.464 C 16.26,27.947 17.302,26.739 18.013,26.613 C 18.614,26.617 19.209,26.737 19.765,26.967" stroke-width="0.75" fill="#f06623"/>
   <path d="M 25.047,9.553 C 24.679,11.193 24.188,12.823 23.681,14.39 C 23.417,15.208 23.126,16.014 22.842,16.824 C 22.564,17.619 22.256,18.399 21.934,19.177 C 20.509,22.511 20.659,22.525 23.26,24.025 C 25.024,24.925 27.798,26.195 29.785,26.097 C 29.855,26.097 29.922,26.088 29.991,26.082 C 29.986,20.21 28.269,14.466 25.05,9.554" stroke-width="0.75" fill="#79b6e3"/>
   <path d="M 3.183,12.62 C 4.872,13.949 6.761,15.219 8.133,16.087 C 9.964,17.217 11.854,18.246 13.796,19.171 C 14.419,19.516 15.09,19.763 15.787,19.905 C 15.995,19.929 16.206,19.906 16.405,19.838 C 17.029,19.574 18.073,17.888 18.073,17.888 L 18.084,17.871 C 18.27,17.598 18.438,17.314 18.633,17.05 C 18.839,16.766 19.03,16.444 19.213,16.145 C 19.489,15.695 19.759,15.245 20.025,14.795 C 20.46,14.06 20.931,13.295 21.319,12.54 C 21.966,11.284 22.872,9.506 23.649,7.602 C 21.38,4.671 18.59,2.183 15.42,0.262 L 14.991,0.001 L 14.561,0.262 C 9.675,3.221 5.729,7.506 3.183,12.62" stroke-width="0.75" fill="#1fb4ac"/>
   <path d="M 9.683,30.303 C 9.84,30.131 9.987,29.963 10.121,29.804 C 10.421,29.447 10.706,29.069 10.988,28.698 C 11.328,28.28 11.641,27.841 11.925,27.384 C 12.463,26.588 12.958,25.765 13.41,24.917 C 13.495,24.713 13.528,24.491 13.506,24.27 C 13.453,24.09 13.343,23.932 13.193,23.82 C 12.868,23.553 12.711,23.472 12.435,23.269 C 11.223,22.381 10.065,21.435 8.89,20.504 C 7.576,19.458 6.27,18.23 5.064,17.058 C 4.234,16.251 3.294,15.285 2.421,14.261 C 0.755,18.163 -0.069,22.372 0.001,26.614 L 0.01,27.125 L 0.468,27.35 C 3.384,28.766 6.487,29.76 9.683,30.303" stroke-width="0.75" fill="#f3a91d"/>
   <path d="M 41.583,20.264 L 43.297,20.264 L 43.297,22.466 L 44.46,22.466 C 45.004,22.469 45.472,22.57 45.866,22.77 C 46.259,22.97 46.562,23.252 46.775,23.615 C 46.988,23.979 47.096,24.407 47.098,24.9 C 47.096,25.389 46.99,25.818 46.782,26.185 C 46.573,26.552 46.276,26.838 45.89,27.043 C 45.505,27.248 45.045,27.352 44.512,27.355 L 41.583,27.355 L 41.583,20.264 Z M 43.297,23.817 L 43.297,25.974 L 44.141,25.974 C 44.527,25.97 44.82,25.873 45.02,25.684 C 45.22,25.494 45.321,25.233 45.322,24.9 C 45.322,24.681 45.277,24.49 45.187,24.328 C 45.097,24.167 44.965,24.041 44.789,23.952 C 44.614,23.863 44.398,23.818 44.141,23.817 L 43.297,23.817 Z" stroke-width="0.75" fill-rule="nonzero" fill="#ffffff" marker-start="none" marker-end="none"/>
   <path d="M 47.939,20.264 L 49.632,20.264 L 49.632,23.152 C 49.635,23.363 49.68,23.547 49.768,23.704 C 49.856,23.861 49.972,23.982 50.119,24.069 C 50.265,24.156 50.428,24.199 50.608,24.201 C 50.71,24.2 50.803,24.186 50.887,24.161 C 50.971,24.136 51.05,24.105 51.124,24.069 L 51.623,25.461 C 51.52,25.521 51.405,25.568 51.279,25.602 C 51.153,25.637 51.019,25.654 50.878,25.655 C 50.584,25.656 50.329,25.57 50.113,25.398 C 49.897,25.225 49.739,24.964 49.639,24.613 L 49.583,24.613 L 49.583,25.582 L 47.939,25.582 L 47.939,20.264 Z" stroke-width="0.75" fill-rule="nonzero" fill="#ffffff" marker-start="none" marker-end="none"/>
   <path d="M 54.749,20.164 C 55.309,20.167 55.789,20.283 56.189,20.511 C 56.589,20.738 56.897,21.057 57.111,21.467 C 57.326,21.877 57.434,22.356 57.436,22.906 C 57.434,23.456 57.326,23.937 57.111,24.347 C 56.897,24.757 56.589,25.077 56.189,25.305 C 55.789,25.532 55.309,25.648 54.749,25.652 C 54.19,25.648 53.71,25.532 53.309,25.305 C 52.909,25.077 52.602,24.757 52.387,24.347 C 52.173,23.937 52.065,23.456 52.062,22.906 C 52.065,22.356 52.173,21.877 52.387,21.467 C 52.602,21.057 52.909,20.738 53.309,20.511 C 53.71,20.283 54.19,20.167 54.749,20.164 Z M 54.76,21.441 C 54.55,21.443 54.373,21.506 54.229,21.628 C 54.084,21.751 53.975,21.923 53.9,22.143 C 53.825,22.363 53.787,22.621 53.787,22.916 C 53.787,23.212 53.825,23.471 53.9,23.693 C 53.975,23.914 54.084,24.087 54.229,24.21 C 54.373,24.334 54.55,24.396 54.76,24.398 C 54.962,24.396 55.134,24.334 55.276,24.21 C 55.417,24.087 55.525,23.914 55.6,23.693 C 55.674,23.471 55.711,23.212 55.712,22.916 C 55.711,22.621 55.674,22.363 55.6,22.143 C 55.525,21.923 55.417,21.751 55.276,21.628 C 55.134,21.506 54.962,21.443 54.76,21.441 Z" stroke-width="0.75" fill-rule="nonzero" fill="#ffffff" marker-start="none" marker-end="none"/>
   <path d="M 59.744,25.582 L 58.027,25.582 L 59.495,22.923 L 57.95,20.264 L 59.668,20.264 L 60.62,22.03 L 61.596,20.264 L 63.29,20.264 L 61.749,22.923 L 63.234,25.582 L 61.527,25.582 L 60.62,23.83 L 59.744,25.582 Z" stroke-width="0.75" fill-rule="nonzero" fill="#ffffff" marker-start="none" marker-end="none"/>
   <path d="M 64.012,20.264 L 65.705,20.264 L 65.705,25.582 L 64.012,25.582 L 64.012,20.264 Z M 64.86,26.202 C 65.022,26.204 65.169,26.241 65.299,26.313 C 65.43,26.385 65.534,26.482 65.611,26.604 C 65.688,26.726 65.727,26.862 65.729,27.012 C 65.727,27.163 65.688,27.299 65.611,27.42 C 65.534,27.541 65.43,27.638 65.299,27.709 C 65.169,27.781 65.022,27.818 64.86,27.819 C 64.699,27.818 64.553,27.781 64.422,27.709 C 64.292,27.638 64.188,27.541 64.11,27.42 C 64.033,27.299 63.993,27.163 63.991,27.012 C 63.993,26.862 64.033,26.726 64.11,26.604 C 64.188,26.482 64.292,26.385 64.422,26.313 C 64.553,26.241 64.699,26.204 64.86,26.202 Z" stroke-width="0.75" fill-rule="nonzero" fill="#ffffff" marker-start="none" marker-end="none"/>
   <path d="M 66.778,20.264 L 68.471,20.264 L 68.471,23.411 C 68.475,23.678 68.544,23.887 68.68,24.04 C 68.816,24.193 68.997,24.27 69.222,24.274 C 69.445,24.271 69.622,24.199 69.752,24.058 C 69.883,23.917 69.95,23.722 69.953,23.474 L 69.953,20.264 L 71.58,20.264 L 71.58,23.439 C 71.582,23.697 71.648,23.899 71.779,24.047 C 71.909,24.195 72.092,24.271 72.328,24.274 C 72.547,24.273 72.723,24.203 72.856,24.064 C 72.99,23.925 73.058,23.722 73.062,23.456 L 73.062,20.264 L 74.755,20.264 L 74.755,23.844 C 74.753,24.221 74.681,24.544 74.539,24.813 C 74.396,25.082 74.198,25.289 73.945,25.433 C 73.691,25.577 73.396,25.65 73.059,25.652 C 72.795,25.65 72.555,25.607 72.338,25.521 C 72.12,25.436 71.936,25.315 71.784,25.159 C 71.632,25.003 71.523,24.818 71.456,24.606 L 71.4,24.606 C 71.351,24.819 71.259,25.004 71.125,25.16 C 70.99,25.316 70.822,25.437 70.622,25.522 C 70.421,25.607 70.197,25.65 69.949,25.652 C 69.583,25.649 69.269,25.555 69.008,25.372 C 68.748,25.188 68.561,24.933 68.447,24.606 L 68.388,24.606 L 68.388,25.582 L 66.778,25.582 L 66.778,20.264 Z" stroke-width="0.75" fill-rule="nonzero" fill="#ffffff" marker-start="none" marker-end="none"/>
   <path d="M 77.308,20.174 C 77.678,20.175 77.992,20.245 78.249,20.386 C 78.506,20.526 78.707,20.733 78.852,21.005 L 78.894,21.005 L 78.894,20.264 L 80.487,20.264 L 80.487,23.879 C 80.485,24.161 80.426,24.411 80.309,24.631 C 80.192,24.85 80.028,25.035 79.817,25.187 C 79.605,25.339 79.357,25.454 79.071,25.533 C 78.785,25.612 78.472,25.651 78.132,25.652 C 77.655,25.649 77.248,25.574 76.911,25.429 C 76.573,25.283 76.308,25.084 76.115,24.831 C 75.921,24.578 75.802,24.288 75.757,23.962 L 77.318,23.907 C 77.356,24.078 77.442,24.211 77.578,24.307 C 77.714,24.403 77.894,24.452 78.118,24.454 C 78.328,24.453 78.493,24.404 78.613,24.309 C 78.733,24.213 78.794,24.075 78.797,23.896 L 78.797,23.879 C 78.798,23.772 78.756,23.689 78.672,23.629 C 78.587,23.569 78.452,23.523 78.266,23.491 C 78.081,23.458 77.838,23.429 77.537,23.404 C 77.265,23.383 77.011,23.339 76.773,23.272 C 76.535,23.205 76.326,23.107 76.144,22.979 C 75.962,22.852 75.82,22.686 75.717,22.483 C 75.614,22.28 75.561,22.032 75.559,21.739 C 75.562,21.388 75.638,21.097 75.786,20.865 C 75.935,20.634 76.14,20.46 76.402,20.346 C 76.664,20.231 76.966,20.174 77.308,20.174 Z M 77.831,21.282 C 77.632,21.283 77.472,21.328 77.35,21.42 C 77.228,21.511 77.166,21.645 77.162,21.822 C 77.164,21.993 77.229,22.131 77.358,22.235 C 77.487,22.339 77.672,22.409 77.914,22.445 C 78.021,22.46 78.13,22.478 78.243,22.499 C 78.356,22.519 78.462,22.543 78.561,22.57 C 78.66,22.597 78.742,22.627 78.807,22.66 L 78.807,22.154 C 78.805,21.98 78.761,21.828 78.674,21.697 C 78.587,21.567 78.471,21.465 78.324,21.393 C 78.177,21.32 78.013,21.283 77.831,21.282 Z" stroke-width="0.75" fill-rule="nonzero" fill="#ffffff" marker-start="none" marker-end="none"/>
   <path d="M 83.251,27.355 L 81.319,27.355 L 83.463,23.81 L 81.264,20.264 L 83.217,20.264 L 84.546,22.529 L 84.602,22.529 L 85.931,20.264 L 87.898,20.264 L 85.689,23.81 L 87.829,27.355 L 85.911,27.355 L 84.602,25.115 L 84.546,25.115 L 83.251,27.355 Z" stroke-width="0.75" fill-rule="nonzero" fill="#ffffff" marker-start="none" marker-end="none"/>
   <g id="Group_1" fill-rule="nonzero" stroke-width="0.706" fill="#ffffff">
    <path d="M 47.397,11.434 L 49.772,11.434 C 49.761,12.078 49.596,12.641 49.273,13.122 C 48.952,13.603 48.499,13.975 47.915,14.243 C 47.33,14.51 46.639,14.646 45.84,14.651 C 45.251,14.649 44.713,14.573 44.221,14.422 C 43.731,14.269 43.305,14.054 42.946,13.774 C 42.589,13.493 42.31,13.158 42.114,12.769 C 41.919,12.377 41.822,11.943 41.823,11.464 C 41.824,10.948 41.939,10.501 42.168,10.126 C 42.398,9.752 42.726,9.442 43.151,9.195 C 43.578,8.95 44.089,8.758 44.684,8.624 L 45.754,8.374 C 46.317,8.249 46.73,8.098 46.995,7.922 C 47.261,7.745 47.396,7.517 47.397,7.232 C 47.389,6.915 47.247,6.659 46.971,6.466 C 46.696,6.274 46.307,6.175 45.804,6.169 C 45.437,6.169 45.118,6.226 44.844,6.339 C 44.571,6.452 44.356,6.618 44.198,6.84 C 44.04,7.064 43.952,7.339 43.931,7.669 L 41.557,7.669 C 41.572,6.868 41.754,6.206 42.106,5.683 C 42.458,5.158 42.951,4.766 43.586,4.507 C 44.221,4.25 44.971,4.121 45.834,4.121 C 46.69,4.123 47.419,4.248 48.026,4.493 C 48.631,4.739 49.096,5.094 49.418,5.556 C 49.742,6.017 49.907,6.575 49.913,7.227 C 49.905,8.045 49.631,8.707 49.097,9.217 C 48.563,9.727 47.787,10.092 46.771,10.313 L 45.89,10.513 C 45.419,10.609 45.05,10.746 44.782,10.921 C 44.516,11.096 44.383,11.334 44.388,11.634 C 44.39,11.92 44.513,12.152 44.753,12.328 C 44.993,12.506 45.354,12.598 45.834,12.602 C 46.32,12.599 46.693,12.496 46.955,12.291 C 47.217,12.088 47.365,11.803 47.397,11.434 Z" marker-start="none" marker-end="none"/>
    <path d="M 51.172,4.252 L 53.622,4.252 L 53.622,11.946 L 51.172,11.946 L 51.172,4.252 Z M 52.4,12.842 C 52.634,12.845 52.846,12.899 53.035,13.004 C 53.224,13.107 53.374,13.247 53.486,13.424 C 53.597,13.6 53.655,13.797 53.657,14.013 C 53.655,14.232 53.597,14.429 53.486,14.605 C 53.374,14.78 53.224,14.918 53.035,15.022 C 52.846,15.126 52.634,15.179 52.4,15.182 C 52.167,15.179 51.955,15.126 51.766,15.022 C 51.576,14.918 51.426,14.78 51.314,14.605 C 51.202,14.429 51.145,14.232 51.142,14.013 C 51.145,13.797 51.202,13.6 51.314,13.424 C 51.426,13.247 51.576,13.107 51.766,13.004 C 51.955,12.899 52.167,12.845 52.4,12.842 Z" marker-start="none" marker-end="none"/>
    <path d="M 55.173,4.252 L 57.623,4.252 L 57.623,8.429 C 57.626,8.737 57.693,9.005 57.824,9.234 C 57.956,9.463 58.137,9.641 58.365,9.768 C 58.594,9.896 58.856,9.96 59.151,9.962 C 59.249,9.962 59.359,9.957 59.477,9.946 C 59.596,9.936 59.71,9.921 59.823,9.902 C 59.935,9.882 60.032,9.858 60.113,9.832 L 60.113,11.961 C 60.009,11.988 59.897,12.01 59.778,12.026 C 59.658,12.041 59.54,12.05 59.426,12.051 C 59.001,12.051 58.632,11.927 58.32,11.677 C 58.006,11.429 57.778,11.051 57.633,10.543 L 57.554,10.543 L 57.554,11.946 L 55.173,11.946 L 55.173,4.252 Z" marker-start="none" marker-end="none"/>
    <path d="M 61.119,4.252 L 63.567,4.252 L 63.567,11.946 L 61.119,11.946 L 61.119,4.252 Z M 62.345,12.842 C 62.579,12.845 62.792,12.899 62.981,13.004 C 63.17,13.107 63.32,13.247 63.432,13.424 C 63.543,13.6 63.6,13.797 63.603,14.013 C 63.6,14.232 63.543,14.429 63.432,14.605 C 63.32,14.78 63.17,14.918 62.981,15.022 C 62.792,15.126 62.579,15.179 62.345,15.182 C 62.112,15.179 61.9,15.126 61.711,15.022 C 61.523,14.918 61.373,14.78 61.261,14.605 C 61.149,14.429 61.091,14.232 61.089,14.013 C 61.091,13.797 61.149,13.6 61.261,13.424 C 61.373,13.247 61.523,13.107 61.711,13.004 C 61.9,12.899 62.112,12.845 62.345,12.842 Z" marker-start="none" marker-end="none"/>
    <path d="M 70.082,7.573 C 70.08,7.274 70.021,7.02 69.907,6.811 C 69.794,6.604 69.639,6.446 69.446,6.338 C 69.25,6.23 69.031,6.175 68.787,6.174 C 68.407,6.179 68.111,6.299 67.897,6.534 C 67.684,6.77 67.574,7.101 67.569,7.523 L 67.569,11.946 L 65.12,11.946 L 65.12,7.042 C 65.124,6.459 65.236,5.951 65.456,5.521 C 65.675,5.089 65.981,4.753 66.376,4.515 C 66.77,4.276 67.232,4.155 67.764,4.152 C 68.346,4.157 68.838,4.293 69.243,4.565 C 69.648,4.836 69.938,5.209 70.112,5.686 L 70.195,5.686 L 70.195,4.252 L 72.528,4.252 L 72.528,11.946 L 70.082,11.946 L 70.082,7.573 Z" marker-start="none" marker-end="none"/>
    <path d="M 80.804,9.596 C 80.759,10.106 80.595,10.543 80.311,10.909 C 80.029,11.272 79.638,11.554 79.137,11.749 C 78.637,11.945 78.039,12.043 77.343,12.045 C 76.645,12.043 76.042,11.947 75.532,11.754 C 75.023,11.56 74.632,11.282 74.357,10.918 C 74.081,10.552 73.942,10.112 73.942,9.596 C 73.937,9.004 74.124,8.52 74.504,8.146 C 74.883,7.771 75.457,7.512 76.226,7.367 L 77.569,7.112 C 77.885,7.051 78.12,6.967 78.271,6.859 C 78.423,6.751 78.502,6.614 78.505,6.445 C 78.495,6.25 78.394,6.095 78.202,5.98 C 78.01,5.865 77.756,5.808 77.438,5.805 C 77.087,5.806 76.801,5.879 76.58,6.025 C 76.359,6.17 76.221,6.384 76.165,6.665 L 73.745,6.605 C 73.806,6.096 73.988,5.655 74.291,5.283 C 74.594,4.907 75.007,4.619 75.534,4.416 C 76.063,4.212 76.694,4.108 77.427,4.106 C 78.12,4.109 78.732,4.218 79.265,4.431 C 79.799,4.645 80.218,4.946 80.522,5.336 C 80.828,5.726 80.985,6.185 80.994,6.715 C 80.991,7.276 80.801,7.726 80.424,8.068 C 80.047,8.41 79.476,8.653 78.71,8.8 L 77.227,9.081 C 76.907,9.147 76.682,9.235 76.553,9.347 C 76.424,9.459 76.364,9.588 76.371,9.737 C 76.371,9.868 76.417,9.979 76.507,10.074 C 76.596,10.168 76.719,10.24 76.872,10.291 C 77.025,10.342 77.197,10.367 77.388,10.368 C 77.716,10.364 77.981,10.286 78.187,10.134 C 78.393,9.982 78.516,9.783 78.555,9.536 L 80.804,9.596 Z" marker-start="none" marker-end="none"/>
    <path d="M 87.692,4.252 L 90.075,4.252 L 91.923,10.473 L 92.004,10.473 L 93.852,4.252 L 96.241,4.252 L 99.221,14.51 L 96.487,14.51 L 94.934,7.773 L 94.85,7.773 L 93.081,14.51 L 90.848,14.51 L 89.078,7.789 L 88.994,7.789 L 87.446,14.51 L 84.706,14.51 L 87.692,4.252 Z" marker-start="none" marker-end="none"/>
    <path d="M 102.416,4.121 C 102.952,4.123 103.406,4.225 103.777,4.428 C 104.149,4.631 104.439,4.929 104.65,5.324 L 104.71,5.324 L 104.71,4.252 L 107.013,4.252 L 107.013,9.481 C 107.011,9.888 106.926,10.251 106.758,10.57 C 106.588,10.887 106.351,11.155 106.046,11.374 C 105.74,11.593 105.38,11.76 104.966,11.873 C 104.552,11.987 104.1,12.044 103.609,12.045 C 102.918,12.041 102.329,11.933 101.842,11.724 C 101.353,11.513 100.97,11.224 100.689,10.859 C 100.411,10.492 100.237,10.073 100.173,9.601 L 102.431,9.522 C 102.484,9.769 102.61,9.962 102.806,10.101 C 103.004,10.24 103.264,10.311 103.588,10.313 C 103.893,10.312 104.131,10.241 104.303,10.103 C 104.478,9.965 104.566,9.766 104.569,9.507 L 104.569,9.481 C 104.571,9.327 104.51,9.205 104.388,9.12 C 104.267,9.034 104.072,8.966 103.804,8.92 C 103.535,8.873 103.182,8.83 102.747,8.795 C 102.355,8.763 101.986,8.7 101.643,8.602 C 101.299,8.506 100.995,8.365 100.733,8.18 C 100.469,7.995 100.263,7.756 100.114,7.463 C 99.966,7.169 99.889,6.809 99.886,6.385 C 99.89,5.879 100.001,5.458 100.215,5.122 C 100.43,4.787 100.727,4.535 101.106,4.37 C 101.484,4.204 101.921,4.121 102.416,4.121 Z M 103.172,5.725 C 102.884,5.726 102.653,5.792 102.477,5.923 C 102.301,6.055 102.21,6.25 102.205,6.506 C 102.207,6.753 102.301,6.953 102.488,7.104 C 102.674,7.254 102.942,7.355 103.292,7.408 C 103.448,7.43 103.606,7.455 103.77,7.485 C 103.932,7.515 104.086,7.549 104.229,7.587 C 104.371,7.626 104.49,7.671 104.584,7.719 L 104.584,6.987 C 104.581,6.733 104.517,6.513 104.392,6.324 C 104.267,6.136 104.098,5.989 103.887,5.884 C 103.674,5.78 103.436,5.727 103.172,5.725 Z" marker-start="none" marker-end="none"/>
    <path d="M 110.955,14.51 L 108.506,14.51 L 108.506,4.252 L 110.955,4.252 L 110.955,14.51 Z" marker-start="none" marker-end="none"/>
    <path d="M 114.956,14.51 L 112.506,14.51 L 112.506,4.252 L 114.956,4.252 L 114.956,14.51 Z" marker-start="none" marker-end="none"/>
    <path d="M 120.106,4.106 C 120.78,4.109 121.372,4.212 121.881,4.415 C 122.389,4.619 122.801,4.907 123.114,5.28 C 123.43,5.651 123.636,6.089 123.731,6.595 L 121.482,6.661 C 121.384,6.405 121.219,6.209 120.985,6.076 C 120.753,5.942 120.474,5.876 120.151,5.875 C 119.835,5.877 119.564,5.942 119.337,6.072 C 119.11,6.201 118.935,6.383 118.813,6.617 C 118.691,6.851 118.628,7.126 118.627,7.443 L 118.627,7.508 L 123.757,7.508 L 123.757,8.119 C 123.751,8.965 123.59,9.68 123.275,10.263 C 122.96,10.847 122.525,11.289 121.968,11.591 C 121.409,11.892 120.763,12.043 120.03,12.045 C 119.251,12.04 118.577,11.873 118.007,11.544 C 117.438,11.215 116.997,10.755 116.686,10.16 C 116.375,9.565 116.217,8.868 116.212,8.069 C 116.216,7.244 116.374,6.536 116.685,5.946 C 116.995,5.356 117.441,4.902 118.02,4.585 C 118.6,4.269 119.295,4.109 120.106,4.106 Z M 118.627,8.931 C 118.641,9.188 118.712,9.418 118.839,9.62 C 118.967,9.822 119.138,9.981 119.351,10.099 C 119.565,10.215 119.806,10.275 120.08,10.278 C 120.351,10.276 120.59,10.217 120.799,10.103 C 121.007,9.989 121.17,9.831 121.289,9.629 C 121.409,9.427 121.472,9.194 121.477,8.931 L 118.627,8.931 Z" marker-start="none" marker-end="none"/>
    <path d="M 129.358,11.946 L 127.97,11.946 L 127.97,13.79 L 125.519,13.79 L 125.519,11.946 L 124.503,11.946 L 124.503,10.143 L 125.519,10.143 L 125.519,6.4 C 125.516,5.88 125.622,5.45 125.836,5.105 C 126.049,4.76 126.36,4.507 126.767,4.345 C 127.174,4.183 127.668,4.115 128.244,4.141 C 128.541,4.159 128.793,4.192 129.004,4.237 C 129.214,4.281 129.38,4.324 129.498,4.362 L 129.127,6.129 C 129.069,6.115 128.99,6.101 128.889,6.083 C 128.786,6.066 128.687,6.056 128.59,6.055 C 128.391,6.052 128.238,6.098 128.133,6.191 C 128.025,6.286 127.971,6.445 127.97,6.671 L 127.97,10.143 L 129.358,10.143 L 129.358,11.946 Z" marker-start="none" marker-end="none"/>
   </g>
  </g>
 </g>
</svg>
