<svg xmlns="http://www.w3.org/2000/svg" xmlns:xlink="http://www.w3.org/1999/xlink" width="1800" height="1800" viewBox="0 0 1800 1800">
  <defs>
    <clipPath id="clip-iPhone_12_12_Pro_1">
      <rect width="1800" height="1800"/>
    </clipPath>
  </defs>
  <g id="iPhone_12_12_Pro_1" data-name="iPhone 12, 12 Pro – 1" clip-path="url(#clip-iPhone_12_12_Pro_1)">
    <rect width="1800" height="1800" fill="rgba(51,52,74,0)"/>
    <g id="Group_13" data-name="Group 13">
      <g id="Group_12" data-name="Group 12" transform="translate(-112.776 154)">
        <g id="Group_11" data-name="Group 11" transform="translate(542.926 555)">
          <g id="Group_10" data-name="Group 10">
            <g id="Group_9" data-name="Group 9">
              <g id="logo">
                <g id="ProximaX_Logo_RGB" transform="translate(0 0)">
                  <g id="Group_1" data-name="Group 1">
                    <path id="Path_1" data-name="Path 1" d="M152.7,83.265c34.072-9.7,48.532-7.195,75.107-4.433A265.694,265.694,0,0,0,114.544,53c-5.826,0-11.675.209-17.454.6a104.736,104.736,0,0,1,23.535,17.686C124.663,75.421,133,85.1,138.682,86.1c4.317.743,10.723-1.9,14.019-2.832" transform="translate(5.438 -53)" fill="#f06623" fill-rule="evenodd"/>
                    <path id="Path_2" data-name="Path 2" d="M157.515,201.407c-2.948-13.114-6.87-26.157-10.932-38.691-2.112-6.545-4.433-13-6.708-19.473-2.228-6.36-4.688-12.6-7.265-18.823-11.373-26.668-10.189-26.784,10.607-38.783,14.112-7.2,36.3-17.361,52.175-16.572.557.023,1.091.069,1.648.116a241.614,241.614,0,0,1-39.526,132.226" transform="translate(42.889 -31.836)" fill="#79b6e3" fill-rule="evenodd"/>
                    <path id="Path_3" data-name="Path 3" d="M63.9,148.687c13.508-10.63,28.618-20.8,39.6-27.736A475.3,475.3,0,0,1,148.8,96.279c4.828-2.275,11.257-5.5,15.922-5.872a11.425,11.425,0,0,1,4.944.534c4.99,2.112,13.345,15.6,13.345,15.6l.093.139c1.485,2.182,2.832,4.456,4.387,6.568,1.648,2.275,3.18,4.851,4.642,7.241q3.308,5.4,6.5,10.816c3.481,5.872,7.241,12,10.352,18.034,5.176,10.05,12.417,24.277,18.637,39.5A241.45,241.45,0,0,1,161.8,247.56l-3.435,2.089-3.435-2.089A241.33,241.33,0,0,1,63.9,148.687" transform="translate(-38.405 -3.649)" fill="#1fb4ac" fill-rule="evenodd"/>
                    <path id="Path_4" data-name="Path 4" d="M130.4,54.54c1.253,1.369,2.437,2.716,3.5,3.992,2.391,2.855,4.688,5.872,6.94,8.843,2.367,3.157,5.594,7.079,7.5,10.514,3.18,5.733,9.887,14.413,11.883,19.728,0,0,1.253,3.064.766,5.176a6.955,6.955,0,0,1-2.507,3.6c-2.6,2.135-3.853,2.785-6.058,4.41-9.7,7.1-18.962,14.669-28.362,22.119-10.514,8.355-20.958,18.2-30.614,27.55-6.638,6.452-14.158,14.181-21.144,22.374A241.43,241.43,0,0,1,52.949,84.017l.07-4.085,3.667-1.787A273.384,273.384,0,0,1,130.4,54.54" transform="translate(-52.915 -50.966)" fill="#f3a91d" fill-rule="evenodd"/>
                  </g>
                </g>
                <path id="Path_20" data-name="Path 20" d="M49.99-32.636H66.508c-.239-14.528-12.18-24.558-30.33-24.558-17.872,0-30.967,9.871-30.887,24.678C5.252-20.5,13.73-13.61,27.5-10.306l8.876,2.229c8.876,2.149,13.812,4.7,13.851,10.19-.04,5.97-5.692,10.03-14.449,10.03-8.956,0-15.4-4.14-15.961-12.3H3.142C3.58,17.476,16.2,26.591,35.98,26.591c19.9,0,31.6-9.513,31.643-24.439-.04-13.573-10.269-20.777-24.439-23.961L35.86-23.561c-7.085-1.632-13.016-4.259-12.9-10.11,0-5.254,4.657-9.115,13.1-9.115C44.3-42.786,49.353-39.044,49.99-32.636ZM78.847,25.437H95.8V-35.7H78.847Zm8.518-69.018c5.055,0,9.194-3.861,9.194-8.6,0-4.7-4.14-8.558-9.194-8.558-5.015,0-9.155,3.861-9.155,8.558C78.211-47.443,82.35-43.582,87.365-43.582Zm21.971,69.018h16.956V-9.152c0-7.523,5.493-12.7,12.976-12.7a28.52,28.52,0,0,1,7.165.915V-35.979a25.45,25.45,0,0,0-5.334-.6c-6.846,0-12.458,3.98-14.687,11.543h-.637V-35.7H109.337Zm45.813,0h16.956V-35.7H155.15Zm8.518-69.018c5.055,0,9.195-3.861,9.195-8.6,0-4.7-4.14-8.558-9.195-8.558-5.015,0-9.155,3.861-9.155,8.558C154.513-47.443,158.653-43.582,163.668-43.582ZM224.845-.594c.04,8.2-5.572,12.5-11.662,12.5-6.408,0-10.548-4.5-10.588-11.7V-35.7H185.639V3.227c.04,14.289,8.4,23.006,20.7,23.006,9.195,0,15.8-4.737,18.548-11.9h.637V25.437H241.8V-35.7H224.845ZM306.2-18.267C304.69-29.531,295.615-36.5,280.171-36.5c-15.643,0-25.952,7.244-25.912,19.026C254.22-8.316,259.991-2.386,271.932,0l10.588,2.11c5.334,1.075,7.762,3.025,7.841,6.09-.08,3.622-4.02,6.209-9.951,6.209-6.05,0-10.07-2.587-11.105-7.563l-16.677.876c1.592,11.7,11.543,18.906,27.743,18.906,15.842,0,27.185-8.08,27.225-20.14-.04-8.836-5.811-14.13-17.673-16.558L278.858-12.3c-5.692-1.234-7.8-3.184-7.762-6.13-.04-3.662,4.1-6.05,9.354-6.05,5.891,0,9.394,3.224,10.229,7.165Zm56.759,43.7h16.8l15.483-53.3h.637l15.523,53.3h16.8L451.523-56.08H432.7L419.2.679h-.716L403.64-56.08H387.52L372.634.56h-.677L358.464-56.08H339.637Zm108.264,1.154c9.035,0,14.886-3.941,17.872-9.632h.478v8.478h16.08V-15.8c0-14.568-12.339-20.7-25.952-20.7-14.647,0-24.28,7.005-26.628,18.15l15.682,1.274c1.154-4.06,4.776-7.045,10.866-7.045,5.771,0,9.075,2.906,9.075,7.921v.239c0,3.941-4.179,4.458-14.807,5.493-12.1,1.114-22.966,5.174-22.966,18.827C450.926,20.461,459.564,26.591,471.226,26.591Zm4.856-11.7c-5.214,0-8.956-2.428-8.956-7.085,0-4.776,3.94-7.125,9.911-7.961,3.7-.517,9.752-1.393,11.782-2.746V3.585C488.819,9.993,483.525,14.889,476.082,14.889Zm59.7-70.969H518.83V25.437h16.956Zm30.489,0H549.319V25.437h16.956Zm41.4,82.711c15.125,0,25.315-7.364,27.7-18.707L619.691,6.889c-1.711,4.657-6.09,7.085-11.742,7.085-8.478,0-13.852-5.612-13.852-14.727v-.04h41.634V-5.45c0-20.777-12.578-31.046-28.738-31.046C589-36.5,577.341-23.72,577.341-4.853,577.341,14.531,588.844,26.631,607.671,26.631ZM594.1-11.3a12.913,12.913,0,0,1,13.175-12.538c7.364,0,12.458,5.254,12.5,12.538Zm85.218-24.4h-11.5V-50.348H650.857V-35.7H642.5v12.737h8.359V8.879c-.08,11.981,8.08,17.911,20.379,17.394a32.981,32.981,0,0,0,9.194-1.592l-2.667-12.618a23.166,23.166,0,0,1-4.219.557c-3.383,0-5.732-1.274-5.732-5.97V-22.964h11.5Z" transform="translate(324.707 175.969)" fill="#fff"/>
              </g>
            </g>
          </g>
        </g>
        <g id="logo-2" data-name="logo" transform="translate(542.926 555)">
          <g id="ProximaX_Logo_RGB-2" data-name="ProximaX_Logo_RGB" transform="translate(0 0)">
            <g id="Group_1-2" data-name="Group 1">
              <path id="Path_1-2" data-name="Path 1" d="M152.7,83.265c34.072-9.7,48.532-7.195,75.107-4.433A265.694,265.694,0,0,0,114.544,53c-5.826,0-11.675.209-17.454.6a104.736,104.736,0,0,1,23.535,17.686C124.663,75.421,133,85.1,138.682,86.1c4.317.743,10.723-1.9,14.019-2.832" transform="translate(5.438 -53)" fill="#f06623" fill-rule="evenodd"/>
              <path id="Path_2-2" data-name="Path 2" d="M157.515,201.407c-2.948-13.114-6.87-26.157-10.932-38.691-2.112-6.545-4.433-13-6.708-19.473-2.228-6.36-4.688-12.6-7.265-18.823-11.373-26.668-10.189-26.784,10.607-38.783,14.112-7.2,36.3-17.361,52.175-16.572.557.023,1.091.069,1.648.116a241.614,241.614,0,0,1-39.526,132.226" transform="translate(42.889 -31.836)" fill="#79b6e3" fill-rule="evenodd"/>
              <path id="Path_3-2" data-name="Path 3" d="M63.9,148.687c13.508-10.63,28.618-20.8,39.6-27.736A475.3,475.3,0,0,1,148.8,96.279c4.828-2.275,11.257-5.5,15.922-5.872a11.425,11.425,0,0,1,4.944.534c4.99,2.112,13.345,15.6,13.345,15.6l.093.139c1.485,2.182,2.832,4.456,4.387,6.568,1.648,2.275,3.18,4.851,4.642,7.241q3.308,5.4,6.5,10.816c3.481,5.872,7.241,12,10.352,18.034,5.176,10.05,12.417,24.277,18.637,39.5A241.45,241.45,0,0,1,161.8,247.56l-3.435,2.089-3.435-2.089A241.33,241.33,0,0,1,63.9,148.687" transform="translate(-38.405 -3.649)" fill="#1fb4ac" fill-rule="evenodd"/>
              <path id="Path_4-2" data-name="Path 4" d="M130.4,54.54c1.253,1.369,2.437,2.716,3.5,3.992,2.391,2.855,4.688,5.872,6.94,8.843,2.367,3.157,5.594,7.079,7.5,10.514,3.18,5.733,9.887,14.413,11.883,19.728,0,0,1.253,3.064.766,5.176a6.955,6.955,0,0,1-2.507,3.6c-2.6,2.135-3.853,2.785-6.058,4.41-9.7,7.1-18.962,14.669-28.362,22.119-10.514,8.355-20.958,18.2-30.614,27.55-6.638,6.452-14.158,14.181-21.144,22.374A241.43,241.43,0,0,1,52.949,84.017l.07-4.085,3.667-1.787A273.384,273.384,0,0,1,130.4,54.54" transform="translate(-52.915 -50.966)" fill="#f3a91d" fill-rule="evenodd"/>
            </g>
          </g>
          <text id="ProximaX" transform="translate(327.849 80.03)" fill="#fff" font-size="76" font-family="Inter-Bold, Inter" font-weight="700"><tspan x="0" y="0">ProximaX</tspan></text>
        </g>
      </g>
    </g>
  </g>
</svg>
