<svg id="swap_horiz_black_24dp" xmlns="http://www.w3.org/2000/svg" width="16" height="16" viewBox="0 0 16 16">
  <path id="Path_3710" data-name="Path 3710" d="M0,0H16V16H0Z" fill="none"/>
  <path id="Path_3711" data-name="Path 3711" d="M5.539,10.6,3.331,12.812a.408.408,0,0,0,0,.564l2.208,2.216a.4.4,0,0,0,.675-.278v-1.43h4.774a.794.794,0,1,0,0-1.589H6.214V10.873A.393.393,0,0,0,5.539,10.6Zm11.526-2.55L14.857,5.829a.4.4,0,0,0-.675.278V7.529H9.4a.794.794,0,0,0,0,1.589h4.774V10.54a.393.393,0,0,0,.675.278L17.057,8.6a.391.391,0,0,0,.008-.556Z" transform="translate(-2.072 -2.904)" fill="#fff"/>
</svg>
