<svg xmlns="http://www.w3.org/2000/svg" width="12.667" height="12" viewBox="0 0 12.667 12">
  <path id="Path_3580" data-name="Path 3580" d="M15,5.853V4.333A1.337,1.337,0,0,0,13.667,3H4.333A1.333,1.333,0,0,0,3,4.333v9.333A1.333,1.333,0,0,0,4.333,15h9.333A1.337,1.337,0,0,0,15,13.667v-1.52A1.334,1.334,0,0,0,15.667,11V7A1.334,1.334,0,0,0,15,5.853ZM14.333,7v4H9.667V7Zm-10,6.667V4.333h9.333V5.667h-4A1.337,1.337,0,0,0,8.333,7v4a1.337,1.337,0,0,0,1.333,1.333h4v1.333Z" transform="translate(-3 -3)"/>
</svg>
