<svg id="grain_black_24dp" xmlns="http://www.w3.org/2000/svg" width="16" height="16" viewBox="0 0 16 16">
  <path id="Path_664" data-name="Path 664" d="M0,0H16V16H0Z" fill="none"/>
  <path id="Path_665" data-name="Path 665" d="M8,9.333a1.333,1.333,0,1,0,1.333,1.333A1.337,1.337,0,0,0,8,9.333ZM5.333,6.667A1.333,1.333,0,1,0,6.667,8,1.337,1.337,0,0,0,5.333,6.667Zm0,5.333a1.333,1.333,0,1,0,1.333,1.333A1.337,1.337,0,0,0,5.333,12Zm8-5.333A1.333,1.333,0,1,0,12,5.333,1.337,1.337,0,0,0,13.333,6.667ZM10.667,12A1.333,1.333,0,1,0,12,13.333,1.337,1.337,0,0,0,10.667,12Zm2.667-2.667a1.333,1.333,0,1,0,1.333,1.333A1.337,1.337,0,0,0,13.333,9.333ZM10.667,6.667A1.333,1.333,0,1,0,12,8,1.337,1.337,0,0,0,10.667,6.667ZM8,4A1.333,1.333,0,1,0,9.333,5.333,1.337,1.337,0,0,0,8,4Z" transform="translate(-1.333 -1.333)" fill="#fff"/>
</svg>
