<?xml version="1.0" standalone="no"?>
<!DOCTYPE svg PUBLIC "-//W3C//DTD SVG 20010904//EN"
 "http://www.w3.org/TR/2001/REC-SVG-20010904/DTD/svg10.dtd">
<svg version="1.0" xmlns="http://www.w3.org/2000/svg"
 width="500.000000pt" height="500.000000pt" viewBox="0 0 500.000000 500.000000"
 preserveAspectRatio="xMidYMid meet">

<g transform="translate(0.000000,500.000000) scale(0.100000,-0.100000)"
fill="#000000" stroke="none">
<path d="M3525 4981 c-147 -32 -326 -104 -397 -161 -20 -17 -42 -30 -49 -30
-29 0 -199 -166 -277 -270 -36 -50 -49 -60 -66 -56 -12 4 -86 9 -166 12 -181
8 -351 -12 -565 -66 -289 -73 -446 -152 -707 -355 -49 -38 -107 -83 -129 -100
-62 -49 -188 -202 -314 -384 -61 -89 -167 -302 -206 -413 -12 -38 -26 -68 -31
-68 -4 0 -8 4 -8 9 0 5 -6 16 -13 23 -7 7 -54 83 -104 168 -102 175 -128 200
-203 200 -76 0 -130 -57 -130 -136 0 -39 52 -158 100 -229 15 -22 69 -112 120
-200 131 -224 195 -321 227 -342 52 -34 99 -23 233 55 67 40 126 72 132 72 5
0 33 15 61 34 29 19 126 77 217 130 91 53 175 108 188 122 31 35 32 129 0 169
-24 30 -74 55 -112 55 -23 0 -265 -118 -296 -144 -8 -7 -43 -29 -77 -49 l-61
-35 18 52 c10 29 43 106 74 171 31 65 56 122 56 128 0 15 104 166 156 227 80
92 265 269 333 318 97 70 359 198 485 237 168 52 314 75 484 75 125 0 143 -2
138 -15 -62 -162 -72 -458 -22 -641 29 -108 107 -305 140 -354 62 -93 207
-243 311 -322 120 -93 219 -139 381 -179 133 -32 147 -34 319 -34 156 1 191 4
265 24 47 13 104 27 127 32 38 7 188 77 217 100 6 5 47 35 91 68 91 67 218
197 285 291 27 38 112 238 138 325 34 116 45 194 45 330 -1 354 -154 689 -412
902 -36 29 -84 63 -108 74 -24 11 -43 24 -43 28 0 12 -187 98 -262 121 -172
53 -419 66 -583 31z m450 -281 c44 -12 121 -41 170 -64 87 -42 207 -123 223
-152 4 -8 33 -40 63 -72 68 -70 88 -98 133 -188 116 -232 127 -501 29 -734
-115 -273 -328 -461 -613 -539 -201 -55 -424 -29 -625 71 -64 33 -235 146
-235 157 0 3 -27 40 -60 81 -193 241 -253 540 -163 823 42 134 99 236 182 327
22 25 41 48 41 52 0 12 141 117 204 152 74 42 221 94 296 106 87 14 264 4 355
-20z"/>
<path d="M3670 4387 l0 -73 -53 -17 c-122 -39 -217 -162 -217 -282 0 -124 92
-221 279 -295 136 -53 184 -91 179 -142 -6 -59 -94 -96 -197 -83 -25 4 -83 18
-129 32 -47 15 -87 22 -91 17 -14 -16 -53 -176 -44 -185 14 -14 156 -57 211
-64 l52 -7 0 -79 0 -79 85 0 84 0 3 87 3 87 30 7 c92 19 189 98 225 181 52
122 18 258 -84 337 -48 37 -180 101 -271 131 -45 15 -88 65 -80 94 11 36 51
64 103 71 57 8 154 -8 214 -35 23 -10 44 -17 46 -16 3 4 52 178 52 188 0 13
-112 49 -171 55 l-59 6 0 68 0 69 -85 0 -85 0 0 -73z"/>
<path d="M4305 2436 c-16 -7 -74 -41 -128 -75 -54 -34 -108 -66 -122 -71 -13
-5 -63 -36 -112 -68 -48 -33 -143 -94 -209 -136 -126 -79 -146 -99 -159 -154
-9 -43 24 -111 67 -136 57 -34 107 -26 205 33 49 29 95 56 103 61 8 5 54 33
103 64 48 30 87 54 87 52 0 -20 -56 -152 -117 -276 -69 -141 -127 -239 -158
-265 -6 -5 -39 -42 -73 -82 -66 -76 -258 -249 -332 -299 -65 -44 -353 -178
-435 -204 -186 -56 -413 -86 -570 -75 l-92 7 13 46 c51 168 57 426 14 587 -35
130 -119 331 -165 393 -62 84 -198 225 -268 277 -34 26 -70 53 -81 61 -35 30
-191 104 -236 113 -25 5 -94 21 -155 35 -88 21 -136 26 -237 26 -123 0 -281
-22 -351 -49 -16 -6 -38 -11 -49 -11 -36 0 -201 -84 -283 -145 -112 -83 -252
-224 -314 -318 -34 -51 -100 -205 -135 -313 -64 -200 -69 -405 -15 -624 23
-91 73 -225 95 -251 8 -8 14 -22 14 -31 0 -23 92 -154 165 -235 64 -71 174
-163 193 -163 6 0 23 -11 39 -24 69 -58 249 -131 406 -165 120 -26 329 -29
445 -6 158 32 348 109 417 169 17 14 36 26 43 26 33 0 215 177 288 280 l39 55
50 -7 c90 -12 387 -8 485 7 226 33 427 91 598 172 98 47 273 161 386 252 38
31 88 70 110 87 23 17 49 42 58 55 8 13 47 62 86 107 182 216 298 420 367 647
10 33 22 64 25 68 4 5 17 -7 28 -25 190 -298 221 -343 253 -360 93 -50 199 18
199 127 0 45 -4 51 -227 410 -150 240 -200 312 -233 337 -34 25 -88 31 -125
14z m-2948 -367 c199 -26 440 -150 547 -281 110 -134 180 -263 217 -405 30
-111 30 -286 0 -408 -31 -130 -104 -272 -194 -378 -123 -145 -235 -220 -418
-281 -178 -60 -346 -60 -534 0 -138 44 -299 141 -359 217 -14 18 -48 57 -75
87 -112 121 -190 326 -198 520 -11 248 72 461 261 673 33 37 64 67 68 67 4 0
29 15 55 34 66 46 158 91 250 122 131 42 240 52 380 33z"/>
<path d="M1000 1720 l0 -80 -120 0 -120 0 0 -70 0 -70 35 0 c22 0 43 -8 55
-20 19 -19 20 -33 20 -315 0 -282 -1 -296 -20 -315 -12 -12 -33 -20 -55 -20
l-35 0 0 -70 0 -70 120 0 120 0 0 -75 0 -75 85 0 85 0 0 75 0 75 45 0 45 0 0
-75 0 -75 85 0 85 0 0 78 0 79 64 27 c116 49 175 130 176 239 0 96 -48 165
-144 208 l-50 22 36 18 c90 46 143 157 118 249 -15 57 -89 131 -151 152 l-44
15 -3 86 -3 87 -84 0 -85 0 0 -80 0 -80 -45 0 -45 0 0 80 0 80 -85 0 -85 0 0
-80z m338 -257 c40 -7 64 -40 64 -87 0 -80 -45 -107 -189 -114 l-103 -5 0 113
0 113 98 -7 c53 -4 112 -9 130 -13z m-16 -363 c21 -6 51 -22 68 -36 26 -22 30
-33 30 -74 0 -41 -5 -54 -33 -83 -41 -44 -94 -59 -195 -55 l-77 3 -3 128 -3
127 88 0 c48 0 105 -5 125 -10z"/>
</g>
</svg>
