<svg id="gpp_good_black_24dp" xmlns="http://www.w3.org/2000/svg" width="24" height="24" viewBox="0 0 24 24">
  <g id="Group_50" data-name="Group 50">
    <path id="Path_755" data-name="Path 755" d="M0,0H24V24H0Z" fill="none"/>
  </g>
  <g id="Group_51" data-name="Group 51" transform="translate(4 2.134)">
    <path id="Path_756" data-name="Path 756" d="M11.3,2.26l-6,2.25A2.014,2.014,0,0,0,4,6.39V11.1c0,5.05,3.41,9.76,8,10.91,4.59-1.15,8-5.86,8-10.91V6.39a2,2,0,0,0-1.3-1.87l-6-2.25A1.932,1.932,0,0,0,11.3,2.26ZM10.23,14.83,8.11,12.71a1,1,0,0,1,0-1.41h0a1,1,0,0,1,1.41,0l1.41,1.41,3.54-3.54a1,1,0,0,1,1.41,0h0a1,1,0,0,1,0,1.41l-4.24,4.24A.987.987,0,0,1,10.23,14.83Z" transform="translate(-4 -2.134)" fill="#fff"/>
  </g>
</svg>
