<svg id="Group_39" data-name="Group 39" xmlns="http://www.w3.org/2000/svg" width="13.31" height="13.807" viewBox="0 0 13.31 13.807">
  <g id="Group_38" data-name="Group 38">
    <g id="Group_36" data-name="Group 36" transform="translate(7.222 7.712)">
      <path id="Path_668" data-name="Path 668" d="M18.723,16.4l-3.147-3.147a1.355,1.355,0,0,0-1.053-.393L12.83,14.553a1.346,1.346,0,0,0,.393,1.053l3.147,3.147a.664.664,0,0,0,.94,0l1.413-1.413A.664.664,0,0,0,18.723,16.4Z" transform="translate(-12.83 -12.86)" fill="#33344a"/>
    </g>
    <g id="Group_37" data-name="Group 37">
      <path id="Path_669" data-name="Path 669" d="M11.752,6.757a.664.664,0,0,0,.94,0l.473-.473L14.579,7.7a2,2,0,0,0,0-2.827L12.693,2.984a.664.664,0,0,0-.94,0l-.473.473V1.764a.473.473,0,0,0-.807-.333L8.779,3.124a.473.473,0,0,0,.333.807h1.693l-.473.473a.664.664,0,0,0,0,.94l.233.233L8.639,7.5,5.9,4.751V4.084a.688.688,0,0,0-.193-.473L4.359,2.257a.664.664,0,0,0-.94,0L2.473,3.2a.664.664,0,0,0,0,.94L3.819,5.5a.66.66,0,0,0,.473.193h.667L7.713,8.444l-.567.567H6.279a1.311,1.311,0,0,0-.94.393L2.193,12.551a.664.664,0,0,0,0,.94L3.606,14.9a.664.664,0,0,0,.94,0l3.147-3.147a1.322,1.322,0,0,0,.393-.94v-.86l3.433-3.433Z" transform="translate(-1.998 -1.292)" fill="#fff" />
    </g>
  </g>
</svg>
