<?xml version="1.0" standalone="no"?>
<!DOCTYPE svg PUBLIC "-//W3C//DTD SVG 20010904//EN"
 "http://www.w3.org/TR/2001/REC-SVG-20010904/DTD/svg10.dtd">
<svg version="1.0" xmlns="http://www.w3.org/2000/svg"
 width="547.000000pt" height="456.000000pt" viewBox="0 0 547.000000 456.000000"
 preserveAspectRatio="xMidYMid meet">

<g transform="translate(0.000000,456.000000) scale(0.100000,-0.100000)"
fill="#000000" stroke="none">
<path d="M1080 4550 c-443 -5 -457 -6 -520 -29 -255 -91 -434 -274 -518 -529
l-25 -77 -10 -1015 c-6 -657 -6 -1232 0 -1630 10 -615 10 -615 35 -697 83
-270 297 -476 563 -542 75 -18 128 -20 890 -25 446 -3 1334 -1 1975 3 l1165 8
55 23 c141 57 211 100 303 189 87 83 155 185 197 292 32 84 32 85 41 339 5
140 7 260 5 267 -4 9 -140 13 -618 16 l-613 3 -75 27 c-145 52 -293 129 -340
177 -3 3 -23 20 -45 39 -35 30 -112 113 -155 167 -121 153 -200 392 -200 609
0 329 157 637 428 837 72 53 225 129 317 157 115 34 234 41 783 41 l522 0 0
48 c-1 279 -112 469 -337 575 -61 28 -81 32 -198 38 -71 4 -992 10 -2045 13
l-1915 6 -32 37 c-48 56 -45 98 10 157 l42 46 2035 -9 c1455 -7 2048 -13 2080
-21 60 -15 229 -101 287 -145 28 -21 49 -32 51 -25 5 15 -34 132 -64 193 -95
193 -251 329 -459 404 -63 22 -93 26 -290 33 -239 9 -2591 9 -3325 0z"/>
<path d="M4145 2950 c-448 -33 -793 -489 -700 -925 13 -63 20 -87 42 -150 17
-49 80 -155 125 -212 92 -113 221 -200 378 -255 64 -23 71 -23 649 -26 574 -3
584 -2 626 18 63 30 146 116 178 183 l29 59 -4 536 -3 537 -30 53 c-35 64
-106 131 -177 166 l-52 26 -480 -1 c-265 -1 -526 -5 -581 -9z m200 -464 c77
-31 153 -99 188 -167 24 -48 27 -65 27 -151 0 -87 -3 -101 -29 -151 -37 -71
-102 -134 -171 -165 -44 -21 -70 -26 -135 -26 -103 0 -152 15 -214 64 -90 72
-133 161 -134 282 -1 68 3 84 33 143 50 98 134 165 245 196 45 12 124 2 190
-25z"/>
<path d="M4157 2250 c-32 -25 -50 -82 -37 -116 28 -73 114 -98 162 -46 57 61
60 112 6 157 -37 32 -94 34 -131 5z"/>
</g>
</svg>
