<?xml version="1.0" standalone="no"?>
<!DOCTYPE svg PUBLIC "-//W3C//DTD SVG 20010904//EN"
 "http://www.w3.org/TR/2001/REC-SVG-20010904/DTD/svg10.dtd">
<svg version="1.0" xmlns="http://www.w3.org/2000/svg"
 width="225.000000pt" height="225.000000pt" viewBox="0 0 225.000000 225.000000"
 preserveAspectRatio="xMidYMid meet">

<g transform="translate(0.000000,225.000000) scale(0.100000,-0.100000)"
fill="#ffffff" stroke="none">
<path d="M1065 1924 c-120 -16 -220 -54 -249 -96 -27 -39 -20 -82 18 -116 19
-16 39 -31 46 -34 9 -3 8 -36 -4 -143 -25 -211 -20 -197 -71 -224 -186 -99
-82 -258 192 -296 l51 -7 4 -256 c4 -236 6 -262 26 -313 12 -30 28 -64 36 -74
13 -18 15 -16 35 23 43 85 51 142 51 388 l0 232 53 7 c274 38 378 197 192 296
-51 27 -46 13 -71 224 -12 107 -13 140 -4 143 7 3 27 18 46 34 60 53 42 118
-44 162 -74 37 -222 61 -307 50z"/>
</g>
</svg>
