<?xml version="1.0" standalone="no"?>
<!DOCTYPE svg PUBLIC "-//W3C//DTD SVG 20010904//EN"
 "http://www.w3.org/TR/2001/REC-SVG-20010904/DTD/svg10.dtd">
<svg version="1.0" xmlns="http://www.w3.org/2000/svg"
 width="500.000000pt" height="500.000000pt" viewBox="0 0 500.000000 500.000000"
 preserveAspectRatio="xMidYMid meet">

<g transform="translate(0.000000,500.000000) scale(0.100000,-0.100000)"
fill="#000000" stroke="none">
<path d="M2275 4884 c-11 -1 -69 -8 -130 -14 -289 -31 -626 -123 -887 -243
-169 -78 -381 -211 -529 -334 -104 -85 -272 -262 -342 -361 -171 -238 -263
-510 -255 -756 3 -102 6 -117 36 -178 54 -110 131 -167 331 -244 l114 -45 246
-238 c135 -130 424 -408 641 -617 217 -208 396 -384 398 -390 2 -9 -30 -13
-115 -16 -108 -3 -124 -6 -185 -35 -86 -41 -155 -109 -199 -198 l-34 -70 0
-365 0 -365 32 -65 c55 -110 142 -187 249 -220 64 -19 91 -20 854 -20 760 0
790 1 853 20 112 35 215 129 260 240 21 53 22 65 22 415 l0 360 -34 70 c-44
89 -113 157 -199 198 -61 29 -77 32 -185 35 -84 3 -117 7 -115 15 3 13 37 46
628 612 201 192 433 415 515 495 141 136 154 146 220 169 196 67 320 156 373
268 56 121 37 376 -44 587 -80 208 -178 356 -359 544 -465 482 -1177 756
-1952 751 -103 -1 -197 -3 -208 -5z m465 -414 c676 -61 1262 -364 1561 -807
93 -137 164 -317 171 -433 l3 -44 -75 -33 c-251 -108 -728 -187 -1350 -223
-230 -14 -866 -14 -1100 0 -619 36 -1086 113 -1345 222 l-80 34 3 45 c4 66 39
183 82 275 182 392 635 731 1176 879 298 82 645 112 954 85z m-1596 -1875 c72
-14 196 -33 275 -43 l144 -17 94 -170 c52 -94 158 -287 235 -430 78 -143 152
-280 166 -304 14 -24 21 -42 15 -40 -12 5 -1067 1009 -1071 1021 -5 11 -5 11
142 -17z m2854 17 c-4 -12 -1058 -1016 -1071 -1021 -5 -2 4 21 20 50 17 30 92
167 166 304 75 138 178 326 229 420 l94 169 150 19 c82 10 201 29 264 42 131
26 153 28 148 17z m-1830 -108 l232 -7 0 -523 c0 -288 -3 -524 -7 -524 -5 0
-86 143 -180 318 -95 174 -225 411 -288 527 -63 115 -115 214 -115 219 0 4 28
6 63 2 34 -3 167 -8 295 -12z m1022 8 c0 -4 -52 -102 -115 -217 -63 -116 -193
-353 -287 -527 -95 -175 -176 -318 -180 -318 -5 0 -8 236 -8 524 l0 524 263 9
c144 5 277 10 295 11 17 1 32 -2 32 -6z m38 -1729 l2 -263 -730 0 -730 0 0
258 c0 142 3 262 7 265 3 4 331 6 727 5 l721 -3 3 -262z"/>
</g>
</svg>
