<svg id="Layer_1" data-name="Layer 1" xmlns="http://www.w3.org/2000/svg" viewBox="0 0 80 80"><defs><style>.cls-1{fill:#fff;}.cls-2{fill:#1e4065;}.cls-3{fill:#0c1f44;}.cls-4{fill:#23417b;}.cls-5{fill:#eaaa3b;}</style></defs><title>icon-invoice-full-color-80h</title><circle cx="40.4" cy="40.4" r="39.6"/><circle class="cls-1" cx="39.6" cy="39.6" r="39.6"/><path d="M76.14,38.94A37.18,37.18,0,1,1,39,1.77,37.18,37.18,0,0,1,76.14,38.94Z"/><path class="cls-2" d="M76.78,39.59A37.17,37.17,0,1,1,39.61,2.41,37.17,37.17,0,0,1,76.78,39.59Z"/><path class="cls-3" d="M69.87,22.51A34.75,34.75,0,1,0,20.12,68.35C23.94,43.8,44.77,24.28,69.87,22.51Z"/><path d="M27.78,63.74a3.15,3.15,0,0,0,.72.09c2.55,0,2.77-2.55,4.17-2.55s1.62,2.55,4.18,2.55,2.77-2.55,4.18-2.55,1.6,2.55,4.17,2.55,2.77-2.55,4.18-2.55,1.61,2.55,4.17,2.55a4.22,4.22,0,0,0,.64-.06,3.12,3.12,0,0,0,1.31-2.53V20.18c-1.11-.68-1.48-2-2.46-2-1.32,0-1.52,2.4-3.93,2.4s-2.6-2.4-3.92-2.4-1.53,2.4-3.93,2.4-2.6-2.4-3.93-2.4-1.52,2.4-3.93,2.4-2.6-2.4-3.92-2.4c-1.12,0-1.45,1.71-3,2.24V61.24A3.09,3.09,0,0,0,27.78,63.74Z"/><path class="cls-1" d="M26.78,62.74a3.15,3.15,0,0,0,.72.09c2.55,0,2.77-2.55,4.17-2.55s1.62,2.55,4.18,2.55,2.77-2.55,4.18-2.55,1.6,2.55,4.17,2.55,2.77-2.55,4.18-2.55,1.61,2.55,4.17,2.55a4.22,4.22,0,0,0,.64-.06,3.12,3.12,0,0,0,1.31-2.53V19.18c-1.11-.68-1.48-2-2.46-2-1.32,0-1.52,2.4-3.93,2.4s-2.6-2.4-3.92-2.4-1.53,2.4-3.93,2.4-2.6-2.4-3.93-2.4-1.52,2.4-3.93,2.4-2.6-2.4-3.92-2.4c-1.12,0-1.45,1.71-3,2.24V60.24A3.09,3.09,0,0,0,26.78,62.74Z"/><rect class="cls-4" x="38.88" y="52.2" width="12.27" height="3.35" rx="0.89"/><path class="cls-4" d="M50.26,47.07H46.47a.89.89,0,0,0,0,1.78h3.79a.89.89,0,0,0,0-1.78Z"/><path class="cls-4" d="M50.26,43.72H46.47a.9.9,0,0,0,0,1.79h3.79a.9.9,0,0,0,0-1.79Z"/><path class="cls-4" d="M50.26,39.26H46.47a.89.89,0,0,0,0,1.78h3.79a.89.89,0,0,0,0-1.78Z"/><rect class="cls-5" x="28.85" y="23.2" width="22.31" height="3.35" rx="0.89"/><path class="cls-4" d="M50.26,29.22H29.74a.9.9,0,0,0,0,1.79H50.26a.9.9,0,0,0,0-1.79Z"/><rect class="cls-4" x="28.85" y="34.35" width="12.27" height="3.35" rx="0.89"/><path class="cls-4" d="M29.74,41H38a.89.89,0,0,0,0-1.78H29.74a.89.89,0,1,0,0,1.78Z"/><path class="cls-4" d="M29.74,45.51H38a.9.9,0,0,0,0-1.79H29.74a.9.9,0,0,0,0,1.79Z"/><path class="cls-4" d="M38,47.07H29.74a.89.89,0,1,0,0,1.78H38a.89.89,0,0,0,0-1.78Z"/></svg>