<svg id="Layer_1" data-name="Layer 1" xmlns="http://www.w3.org/2000/svg" viewBox="0 0 80 80"><defs><style>.cls-1{fill:#fff;}.cls-2{fill:#1e4065;}.cls-3{fill:#0c1f44;}.cls-4{fill:#cbcbcb;}.cls-5{fill:#23417b;}.cls-6{fill:#eaaa3b;}</style></defs><title>icon-namespace-full-color-80h</title><circle cx="40.4" cy="40.4" r="39.6"/><circle class="cls-1" cx="39.6" cy="39.6" r="39.6"/><path d="M76.14,38.94A37.18,37.18,0,1,1,39,1.77,37.18,37.18,0,0,1,76.14,38.94Z"/><path class="cls-2" d="M76.78,39.59A37.17,37.17,0,1,1,39.61,2.41,37.17,37.17,0,0,1,76.78,39.59Z"/><path class="cls-3" d="M69.87,22.51A34.75,34.75,0,1,0,20.12,68.35C23.94,43.8,44.77,24.28,69.87,22.51Z"/><path class="cls-4" d="M49.7,42.26V33.83a2.47,2.47,0,0,0-2.47-2.47h-9.5a2.47,2.47,0,0,1-2.47-2.47V20.47A2.47,2.47,0,0,0,32.79,18H21.37a2.48,2.48,0,0,0-2.47,2.47V57.53A2.48,2.48,0,0,0,21.37,60H62.63a2.48,2.48,0,0,0,2.47-2.47V47.2a2.47,2.47,0,0,0-2.47-2.47H52.17A2.48,2.48,0,0,1,49.7,42.26Z"/><rect x="21.83" y="47.64" width="12.51" height="11.45" rx="1.52"/><rect x="21.83" y="34.27" width="12.51" height="11.45" rx="1.52"/><rect x="21.83" y="20.91" width="12.51" height="11.45" rx="1.52"/><rect x="36.26" y="47.64" width="12.51" height="11.45" rx="1.52"/><rect x="36.26" y="34.27" width="12.51" height="11.45" rx="1.52"/><rect x="50.7" y="47.64" width="13.47" height="11.45" rx="1.52"/><rect class="cls-1" x="20.83" y="46.64" width="12.51" height="11.45" rx="1.52"/><rect class="cls-1" x="20.83" y="33.27" width="12.51" height="11.45" rx="1.52"/><rect class="cls-5" x="20.83" y="19.91" width="12.51" height="11.45" rx="1.52"/><rect class="cls-5" x="35.26" y="46.64" width="12.51" height="11.45" rx="1.52"/><rect class="cls-1" x="35.26" y="33.27" width="12.51" height="11.45" rx="1.52"/><rect class="cls-1" x="49.7" y="46.64" width="13.47" height="11.45" rx="1.52"/><path class="cls-1" d="M21.79,27.36V21.58a.72.72,0,0,1,.72-.72h6.55a.73.73,0,1,1,0,1.45H23.24v5.05a.73.73,0,0,1-1.45,0Z"/><path class="cls-6" d="M21.79,40.72V35a.72.72,0,0,1,.72-.72h6.55a.72.72,0,1,1,0,1.44H23.24v5a.73.73,0,0,1-1.45,0Z"/><path class="cls-6" d="M21.79,54.08V48.31a.72.72,0,0,1,.72-.72h6.55a.72.72,0,1,1,0,1.44H23.24v5a.73.73,0,0,1-1.45,0Z"/><path class="cls-6" d="M36.23,40.72V35a.72.72,0,0,1,.72-.72H43.5a.72.72,0,1,1,0,1.44H37.68v5a.73.73,0,0,1-.73.72A.71.71,0,0,1,36.23,40.72Z"/><path class="cls-1" d="M36.23,54.08V48.31a.72.72,0,0,1,.72-.72H43.5a.72.72,0,1,1,0,1.44H37.68v5a.73.73,0,0,1-.73.72A.71.71,0,0,1,36.23,54.08Z"/><path class="cls-6" d="M50.66,53.54V48.25a.67.67,0,0,1,.67-.66H58a.66.66,0,0,1,0,1.32H52v4.63a.67.67,0,0,1-1.34,0Z"/></svg>