<svg id="Layer_1" data-name="Layer 1" xmlns="http://www.w3.org/2000/svg" viewBox="0 0 80 80"><defs><style>.cls-1{fill:#fff;}.cls-2{fill:#1e4065;}.cls-3{fill:#0c1f44;}.cls-4{fill:#cbcbcb;}.cls-5{fill:#23417b;}.cls-6{fill:#eaaa3b;}</style></defs><title>icon-address-book-full-color-80h</title><circle cx="40.4" cy="40.4" r="39.6"/><circle class="cls-1" cx="39.6" cy="39.6" r="39.6"/><path d="M76.14,38.94A37.18,37.18,0,1,1,39,1.77,37.18,37.18,0,0,1,76.14,38.94Z"/><path class="cls-2" d="M76.78,39.59A37.17,37.17,0,1,1,39.61,2.41,37.17,37.17,0,0,1,76.78,39.59Z"/><path class="cls-3" d="M69.87,22.51A34.75,34.75,0,1,0,20.12,68.35C23.94,43.8,44.77,24.28,69.87,22.51Z"/><path class="cls-1" d="M58.83,23.42H22.46a3.13,3.13,0,0,0-3.28,2.94V50.44a3.13,3.13,0,0,0,3.28,2.94H58.83a3.12,3.12,0,0,0,3.27-2.94V26.36A3.12,3.12,0,0,0,58.83,23.42Z"/><path class="cls-4" d="M58.12,21h-35A6,6,0,0,0,17,26.83V50a6,6,0,0,0,6.15,5.83h35A6,6,0,0,0,64.27,50V26.83A6,6,0,0,0,58.12,21Zm5,29.44a4.15,4.15,0,0,1-4.31,4H22.46a4.16,4.16,0,0,1-4.32-4V26.36a4.16,4.16,0,0,1,4.32-4H58.83a4.15,4.15,0,0,1,4.31,4Z"/><path d="M35.06,44.11a1.59,1.59,0,0,1-.9-1.43V41c.12-.13.26-.31.41-.51a9.87,9.87,0,0,0,1.33-2.63,1.34,1.34,0,0,0,1-1.26V34.87a1.29,1.29,0,0,0-.45-1V31.35s.53-4-4.92-4-4.92,4-4.92,4V33.9a1.29,1.29,0,0,0-.45,1v1.76a1.32,1.32,0,0,0,.62,1.11A8.74,8.74,0,0,0,28.35,41v1.61a1.61,1.61,0,0,1-.85,1.41l-4,2.14a3.1,3.1,0,0,0-.59.41,14.58,14.58,0,0,0,6.24,2.61,15.11,15.11,0,0,0,4.65,0A14.51,14.51,0,0,0,40,46.64a3.15,3.15,0,0,0-.65-.42Z"/><path d="M63,23.33a5.61,5.61,0,0,1,1.24,3.5V50a6,6,0,0,1-6.15,5.83h-35a6.36,6.36,0,0,1-3.91-1.33,6.24,6.24,0,0,0,4.91,2.33h35A6,6,0,0,0,65.27,51V27.83A5.7,5.7,0,0,0,63,23.33Z"/><path class="cls-5" d="M56.74,30.59H39.61a10.76,10.76,0,0,1,.84,3.47,2.16,2.16,0,0,1,.72.87H56.74a1.2,1.2,0,0,0,1.2-1.21V31.8A1.21,1.21,0,0,0,56.74,30.59Z"/><path class="cls-5" d="M57.94,39.62V37.7a1.2,1.2,0,0,0-1.2-1.21H41.46c-.33,1.29-.17,2.65-1.33,3,0,.06-.07.11-.11.18v1.15H56.74A1.2,1.2,0,0,0,57.94,39.62Z"/><path class="cls-5" d="M56.74,42.39H42.21a6.69,6.69,0,0,1,1,3.54v.8H56.74a1.2,1.2,0,0,0,1.2-1.21V43.6A1.2,1.2,0,0,0,56.74,42.39Z"/><path class="cls-6" d="M34.06,43.11a1.59,1.59,0,0,1-.9-1.43V40c.12-.13.26-.31.41-.51a9.87,9.87,0,0,0,1.33-2.63,1.34,1.34,0,0,0,1-1.26V33.87a1.29,1.29,0,0,0-.45-1V30.35s.53-4-4.92-4-4.92,4-4.92,4V32.9a1.29,1.29,0,0,0-.45,1v1.76a1.32,1.32,0,0,0,.62,1.11A8.74,8.74,0,0,0,27.35,40v1.61a1.61,1.61,0,0,1-.85,1.41l-4,2.14a3.1,3.1,0,0,0-.59.41,14.58,14.58,0,0,0,6.24,2.61,15.11,15.11,0,0,0,4.65,0A14.51,14.51,0,0,0,39,45.64a3.15,3.15,0,0,0-.65-.42Z"/></svg>