<svg id="Layer_1" data-name="Layer 1" xmlns="http://www.w3.org/2000/svg" viewBox="0 0 80 80"><defs><style>.cls-1{fill:#fff;}.cls-2{fill:#1e4065;}.cls-3{fill:#0c1f44;}.cls-4{fill:#eaaa3b;}</style></defs><title>icon-transaction-explorer-full-color-80h</title><circle cx="40.4" cy="40.4" r="39.6"/><circle class="cls-1" cx="39.6" cy="39.6" r="39.6"/><path d="M76.14,38.94A37.18,37.18,0,1,1,39,1.77,37.18,37.18,0,0,1,76.14,38.94Z"/><path class="cls-2" d="M76.78,39.59A37.17,37.17,0,1,1,39.61,2.41,37.17,37.17,0,0,1,76.78,39.59Z"/><path class="cls-3" d="M69.87,22.51A34.75,34.75,0,1,0,20.12,68.35C23.94,43.8,44.77,24.28,69.87,22.51Z"/><path d="M66,33.88,52.88,20.5a1.84,1.84,0,0,0-2.65,0,1.89,1.89,0,0,0-.55,1.35v5.74H36.53a1.91,1.91,0,0,0,0,3.82h15a1.9,1.9,0,0,0,1.88-1.91v-3L62,35.23,53.43,44V41a1.89,1.89,0,0,0-1.88-1.91H30.9V33.32A1.89,1.89,0,0,0,29,31.41a1.87,1.87,0,0,0-1.33.56L14.55,45.35a2,2,0,0,0,0,2.71L27.69,61.44A1.87,1.87,0,0,0,29,62a1.79,1.79,0,0,0,.72-.15,1.9,1.9,0,0,0,1.16-1.76V54.35H44a1.91,1.91,0,0,0,0-3.82H29a1.89,1.89,0,0,0-1.88,1.91v3L18.53,46.7l8.61-8.76v3A1.9,1.9,0,0,0,29,42.88H49.68v5.74a1.9,1.9,0,0,0,1.87,1.91A1.85,1.85,0,0,0,52.88,50L66,36.58A1.94,1.94,0,0,0,66,33.88Z"/><path class="cls-4" d="M43,49.53H28a1.89,1.89,0,0,0-1.88,1.91v3L17.53,45.7l8.61-8.76v3A1.9,1.9,0,0,0,28,41.88H41.59a13.05,13.05,0,0,0-3.08-3.82H29.9V32.32A1.89,1.89,0,0,0,28,30.41a1.87,1.87,0,0,0-1.33.56L13.55,44.35a2,2,0,0,0,0,2.71L26.69,60.44A1.87,1.87,0,0,0,28,61a1.79,1.79,0,0,0,.72-.15,1.9,1.9,0,0,0,1.16-1.76V53.35H43a1.91,1.91,0,0,0,0-3.82Z"/><path class="cls-1" d="M51.88,49,65,35.58a1.94,1.94,0,0,0,0-2.7L51.88,19.5a1.84,1.84,0,0,0-2.65,0,1.89,1.89,0,0,0-.55,1.35v5.74H35.53a1.91,1.91,0,0,0,0,3.82h15a1.9,1.9,0,0,0,1.88-1.91v-3L61,34.23,52.43,43V40a1.89,1.89,0,0,0-1.88-1.91h-12a13.05,13.05,0,0,1,3.08,3.82h7.09v5.74a1.9,1.9,0,0,0,1.87,1.91A1.85,1.85,0,0,0,51.88,49Z"/></svg>