<svg id="Layer_1" data-name="Layer 1" xmlns="http://www.w3.org/2000/svg" viewBox="0 0 80 80"><defs><style>.cls-1{fill:#fff;}.cls-2{fill:#1e4065;}.cls-3{fill:#0c1f44;}.cls-4{fill:#eaaa3b;}</style></defs><title>icon-swap-process-color-80h</title><circle cx="40.4" cy="40.4" r="39.6"/><circle class="cls-1" cx="39.6" cy="39.6" r="39.6"/><path d="M76.14,38.94A37.18,37.18,0,1,1,39,1.77,37.18,37.18,0,0,1,76.14,38.94Z"/><path class="cls-2" d="M76.78,39.59A37.17,37.17,0,1,1,39.61,2.41,37.17,37.17,0,0,1,76.78,39.59Z"/><path class="cls-3" d="M69.87,22.51A34.75,34.75,0,1,0,20.12,68.35C23.94,43.8,44.77,24.28,69.87,22.51Z"/><path d="M21.09,42.22V39.78a1.22,1.22,0,0,1,1.24-1.21H41V34.92a1.22,1.22,0,0,1,.72-1.11A1.27,1.27,0,0,1,43,34l7.47,6.09a1.19,1.19,0,0,1,0,1.86L43,48a1.24,1.24,0,0,1-.8.28,1.35,1.35,0,0,1-.52-.11A1.22,1.22,0,0,1,41,47.08V43.43H22.33A1.22,1.22,0,0,1,21.09,42.22Z"/><path d="M58.42,21.09H23.58a2.48,2.48,0,0,0-2.49,2.49V36h5v-10H55.93V55.93H26.07V46h-5V58.42a2.48,2.48,0,0,0,2.49,2.49H58.42a2.48,2.48,0,0,0,2.49-2.49V23.58A2.48,2.48,0,0,0,58.42,21.09Z"/><path class="cls-4" d="M20.09,41.22V38.78a1.22,1.22,0,0,1,1.24-1.21H40V33.92a1.22,1.22,0,0,1,.72-1.11A1.27,1.27,0,0,1,42,33l7.47,6.09a1.19,1.19,0,0,1,0,1.86L42,47a1.24,1.24,0,0,1-.8.28,1.35,1.35,0,0,1-.52-.11A1.22,1.22,0,0,1,40,46.08V42.43H21.33A1.22,1.22,0,0,1,20.09,41.22Z"/><path class="cls-1" d="M57.42,20.09H22.58a2.48,2.48,0,0,0-2.49,2.49V35h5v-10H54.93V54.93H25.07V45h-5V57.42a2.48,2.48,0,0,0,2.49,2.49H57.42a2.48,2.48,0,0,0,2.49-2.49V22.58A2.48,2.48,0,0,0,57.42,20.09Z"/></svg>