<svg id="Layer_1" data-name="Layer 1" xmlns="http://www.w3.org/2000/svg" viewBox="0 0 80 80"><defs><style>.cls-1{fill:#fff;}.cls-2{fill:#1e4065;}.cls-3{fill:#0c1f44;}.cls-4{fill:#eaaa3b;}.cls-5{fill:#cbcbcb;}</style></defs><title>icon-nodes-full-color-80h</title><circle cx="40.4" cy="40.4" r="39.6"/><circle class="cls-1" cx="39.6" cy="39.6" r="39.6"/><path d="M76.14,38.94A37.18,37.18,0,1,1,39,1.77,37.18,37.18,0,0,1,76.14,38.94Z"/><path class="cls-2" d="M76.78,39.59A37.17,37.17,0,1,1,39.61,2.41,37.17,37.17,0,0,1,76.78,39.59Z"/><path class="cls-3" d="M69.87,22.51A34.75,34.75,0,1,0,20.12,68.35C23.94,43.8,44.77,24.28,69.87,22.51Z"/><path class="cls-1" d="M58.7,34.4H20.92a3,3,0,0,0-.54,1.72v7.76a3,3,0,0,0,.54,1.72H58.7a3,3,0,0,0,.54-1.72V36.12A3,3,0,0,0,58.7,34.4ZM42.4,39.67a.66.66,0,1,1,.65-.66A.65.65,0,0,1,42.4,39.67Zm1.3,2a.66.66,0,0,1,0-1.32.66.66,0,0,1,0,1.32Zm1.29-2a.66.66,0,1,1,.65-.66A.65.65,0,0,1,45,39.67Zm1.3,2a.66.66,0,1,1,.65-.66A.66.66,0,0,1,46.29,41.65Zm1.29-2a.66.66,0,0,1,0-1.32.66.66,0,0,1,0,1.32Zm1.3,2a.66.66,0,1,1,.65-.66A.66.66,0,0,1,48.88,41.65Zm1.29-2a.66.66,0,0,1,0-1.32.66.66,0,0,1,0,1.32Zm1.3,2a.66.66,0,1,1,.65-.66A.66.66,0,0,1,51.47,41.65Zm1.3-2a.66.66,0,1,1,.64-.66A.65.65,0,0,1,52.77,39.67Zm1.29,2a.66.66,0,1,1,.65-.66A.66.66,0,0,1,54.06,41.65Z"/><path d="M28.18,44a3,3,0,1,1,2.91-3A2.94,2.94,0,0,1,28.18,44Z"/><path class="cls-4" d="M56.26,20.57H23.36a3,3,0,0,0-3,3v7.76a3,3,0,0,0,.54,1.72H58.7a3,3,0,0,0,.54-1.72V23.6A3,3,0,0,0,56.26,20.57ZM42.4,27.15a.66.66,0,1,1,.65-.65A.65.65,0,0,1,42.4,27.15Zm1.3,2a.66.66,0,1,1,.64-.66A.65.65,0,0,1,43.7,29.13Zm1.29-2a.66.66,0,1,1,.65-.65A.65.65,0,0,1,45,27.15Zm1.3,2a.66.66,0,1,1,.65-.66A.65.65,0,0,1,46.29,29.13Zm1.29-2a.66.66,0,1,1,.65-.65A.65.65,0,0,1,47.58,27.15Zm1.3,2a.66.66,0,1,1,.65-.66A.65.65,0,0,1,48.88,29.13Zm1.29-2a.66.66,0,1,1,.65-.65A.65.65,0,0,1,50.17,27.15Zm1.3,2a.66.66,0,1,1,.65-.66A.65.65,0,0,1,51.47,29.13Zm1.3-2a.66.66,0,1,1,.64-.65A.65.65,0,0,1,52.77,27.15Zm1.29,2a.66.66,0,1,1,.65-.66A.65.65,0,0,1,54.06,29.13Z"/><path d="M28.18,31.45a3,3,0,1,1,2.91-3A2.95,2.95,0,0,1,28.18,31.45Z"/><path class="cls-5" d="M58.7,46.92H20.92a3,3,0,0,0-.54,1.72V56.4a3,3,0,0,0,3,3h32.9a3,3,0,0,0,3-3V48.64A3,3,0,0,0,58.7,46.92ZM42.4,52.19a.66.66,0,1,1,.65-.66A.66.66,0,0,1,42.4,52.19Zm1.3,2a.66.66,0,1,1,.64-.66A.65.65,0,0,1,43.7,54.16Zm1.29-2a.66.66,0,1,1,.65-.66A.66.66,0,0,1,45,52.19Zm1.3,2a.66.66,0,1,1,.65-.66A.65.65,0,0,1,46.29,54.16Zm1.29-2a.66.66,0,1,1,.65-.66A.66.66,0,0,1,47.58,52.19Zm1.3,2a.66.66,0,1,1,.65-.66A.65.65,0,0,1,48.88,54.16Zm1.29-2a.66.66,0,1,1,.65-.66A.66.66,0,0,1,50.17,52.19Zm1.3,2a.66.66,0,1,1,.65-.66A.65.65,0,0,1,51.47,54.16Zm1.3-2a.66.66,0,0,1,0-1.32.66.66,0,0,1,0,1.32Zm1.29,2a.66.66,0,1,1,.65-.66A.65.65,0,0,1,54.06,54.16Z"/><path d="M28.18,56.48a3,3,0,1,1,2.91-3A2.94,2.94,0,0,1,28.18,56.48Z"/><path class="cls-4" d="M27.18,43a3,3,0,1,1,2.91-3A2.94,2.94,0,0,1,27.18,43Z"/><path class="cls-1" d="M27.18,30.45a3,3,0,1,1,2.91-3A2.95,2.95,0,0,1,27.18,30.45Z"/><path class="cls-1" d="M27.18,55.48a3,3,0,1,1,2.91-3A2.94,2.94,0,0,1,27.18,55.48Z"/></svg>