<svg id="Layer_1" data-name="Layer 1" xmlns="http://www.w3.org/2000/svg" viewBox="0 0 80 80"><defs><style>.cls-1{fill:#fff;}.cls-2{fill:#1e4065;}.cls-3{fill:#0c1f44;}.cls-4{fill:#eaaa3b;}.cls-5{fill:#cbcbcb;}</style></defs><title>icon-voting-full-color-80h</title><circle cx="40.4" cy="40.4" r="39.6"/><circle class="cls-1" cx="39.6" cy="39.6" r="39.6"/><path d="M76.14,38.94A37.18,37.18,0,1,1,39,1.77,37.18,37.18,0,0,1,76.14,38.94Z"/><path class="cls-2" d="M76.78,39.59A37.17,37.17,0,1,1,39.61,2.41,37.17,37.17,0,0,1,76.78,39.59Z"/><path class="cls-3" d="M69.87,22.51A34.75,34.75,0,1,0,20.12,68.35C23.94,43.8,44.77,24.28,69.87,22.51Z"/><path d="M25.23,42H45.7a2.77,2.77,0,0,1,2.77,2.77V59a0,0,0,0,1,0,0h-26a0,0,0,0,1,0,0V44.77A2.77,2.77,0,0,1,25.23,42Z"/><path d="M51.41,60.4H19.8a.93.93,0,0,0,0,1.86H51.38a.93.93,0,0,0,0-1.85Z"/><path class="cls-4" d="M24.23,41H44.7a2.77,2.77,0,0,1,2.77,2.77V58a0,0,0,0,1,0,0h-26a0,0,0,0,1,0,0V43.77A2.77,2.77,0,0,1,24.23,41Z"/><path class="cls-5" d="M50.41,59.4H18.8a.93.93,0,0,0,0,1.86H50.38a.93.93,0,0,0,0-1.85Z"/><path d="M29.46,41h6.89a.91.91,0,0,0,0-.61,7.19,7.19,0,0,0-1-1.92,13.11,13.11,0,0,0,4.3-2.84h0c.21.12.45.25.72.38l0,0h0a10.81,10.81,0,0,0,2.58.86A17.57,17.57,0,0,0,40.47,41a61.16,61.16,0,0,0-6.1,3.62A4.33,4.33,0,0,0,38.92,52l6.39-3.83c1-.24,6-1.73,9.73-7.81A68.57,68.57,0,0,0,60.33,30l.1,0a2.77,2.77,0,0,0,1.25.3,2.84,2.84,0,0,0,1.94-.79,2.75,2.75,0,0,0,.84-2V23.17a.92.92,0,0,0-.56-.86l-13-5.57A.91.91,0,0,0,49.8,17l-3.71,4.64A.91.91,0,0,0,46.36,23L34.7,27.41a4.68,4.68,0,0,0-2.36,2L28.49,35.8a4.62,4.62,0,0,0-.18,4.47l.28.54Z"/><path class="cls-1" d="M59.46,29l-14-7-.16,0,.06.06L33.7,26.41a4.68,4.68,0,0,0-2.36,2L27.49,34.8a4.62,4.62,0,0,0-.18,4.47l.28.54.87.19h6.89a.91.91,0,0,0,0-.61,7.19,7.19,0,0,0-1-1.92,13.11,13.11,0,0,0,4.3-2.84h0c.21.12.45.25.72.38l0,0h0a10.81,10.81,0,0,0,2.58.86A17.57,17.57,0,0,0,39.47,40a61.16,61.16,0,0,0-6.1,3.62A4.33,4.33,0,0,0,37.92,51l6.39-3.83c1-.24,6-1.73,9.73-7.81A68.57,68.57,0,0,0,59.33,29l.1,0,.13.05Z"/><path d="M62.9,22.31l-13-5.57A.91.91,0,0,0,48.8,17l-3.71,4.64a1,1,0,0,0-.19.78.89.89,0,0,0,.4.55l.16,0,14,7,.1.13a2.73,2.73,0,0,0,1.12.25,2.84,2.84,0,0,0,1.94-.79,2.75,2.75,0,0,0,.84-2V23.17A.92.92,0,0,0,62.9,22.31Z"/><path class="cls-5" d="M62.9,21.31l-13-5.57A.91.91,0,0,0,48.8,16l-3.71,4.64a1,1,0,0,0-.19.78.89.89,0,0,0,.4.55l.16,0,14,7,.1.13a2.73,2.73,0,0,0,1.12.25,2.84,2.84,0,0,0,1.94-.79,2.75,2.75,0,0,0,.84-2V22.17A.92.92,0,0,0,62.9,21.31Z"/></svg>