<svg id="Layer_1" data-name="Layer 1" xmlns="http://www.w3.org/2000/svg" viewBox="0 0 80 80"><defs><style>.cls-1{fill:#fff;}.cls-2{fill:#1e4065;}.cls-3{fill:#0c1f44;}.cls-4{fill:#cbcbcb;}.cls-5{fill:#eaaa3b;}.cls-6{fill:#23417b;}</style></defs><title>icon-supercontracts-color-80h</title><circle cx="40.4" cy="40.4" r="39.6"/><circle class="cls-1" cx="39.6" cy="39.6" r="39.6"/><path d="M76.14,38.94A37.18,37.18,0,1,1,39,1.77,37.18,37.18,0,0,1,76.14,38.94Z"/><path class="cls-2" d="M76.78,39.59A37.17,37.17,0,1,1,39.61,2.41,37.17,37.17,0,0,1,76.78,39.59Z"/><path class="cls-3" d="M69.87,22.51A34.75,34.75,0,1,0,20.12,68.35C23.94,43.8,44.77,24.28,69.87,22.51Z"/><path class="cls-1" d="M33.1,22.63H63.19a0,0,0,0,1,0,0V36.72A18.23,18.23,0,0,1,45,54.95H14.87a0,0,0,0,1,0,0V40.86A18.23,18.23,0,0,1,33.1,22.63Z"/><polygon class="cls-4" points="24.2 58.51 14.81 58.51 14.81 54.95 27.43 54.95 24.2 58.51"/><polygon class="cls-4" points="53.8 19.07 63.19 19.07 63.19 22.63 50.57 22.63 53.8 19.07"/><circle cx="39.92" cy="54.98" r="8.05"/><circle class="cls-5" cx="39.32" cy="54.2" r="8.05"/><rect class="cls-6" x="20.04" y="29.41" width="30.38" height="2.91"/><rect class="cls-6" x="20.04" y="34.26" width="30.38" height="2.91"/><rect class="cls-6" x="51.88" y="34.26" width="5.98" height="2.91"/><rect class="cls-6" x="20.04" y="39.11" width="37.82" height="2.91"/><path d="M44.61,50.55a.82.82,0,0,0-1.32.1l-5.07,7-2.55-3a.8.8,0,0,0-1.31,0,1.35,1.35,0,0,0,0,1.62l3.24,3.86a.82.82,0,0,0,.65.32h0a.83.83,0,0,0,.65-.38l5.71-7.86A1.38,1.38,0,0,0,44.61,50.55Z"/><path class="cls-1" d="M44,49.75a.81.81,0,0,0-1.31.09l-5.08,7-2.54-3a.8.8,0,0,0-1.31,0,1.33,1.33,0,0,0,0,1.62L37,59.31a.83.83,0,0,0,.64.33h0a.87.87,0,0,0,.64-.39L44,51.39A1.33,1.33,0,0,0,44,49.75Z"/></svg>