<svg id="Layer_1" data-name="Layer 1" xmlns="http://www.w3.org/2000/svg" viewBox="0 0 80 80"><defs><style>.cls-1{fill:#f3f3f3;}.cls-2{fill:#1e4065;}.cls-3{fill:#0c1f44;}.cls-4{fill:#cbcbcb;}.cls-5{fill:#eaaa3b;}.cls-6{fill:#fff;}.cls-7{fill:none;}</style></defs><title>icon-swap-process-color-80h copy</title><circle cx="40.4" cy="40.4" r="39.6"/><circle class="cls-1" cx="39.6" cy="39.6" r="39.6"/><path d="M76.14,38.94A37.18,37.18,0,1,1,39,1.77,37.18,37.18,0,0,1,76.14,38.94Z"/><path class="cls-2" d="M76.78,39.59A37.17,37.17,0,1,1,39.61,2.41,37.17,37.17,0,0,1,76.78,39.59Z"/><path class="cls-3" d="M69.87,22.51A34.75,34.75,0,1,0,20.12,68.35C23.94,43.8,44.77,24.28,69.87,22.51Z"/><path d="M62.18,38.11a2.27,2.27,0,0,0-.82-.49,2.43,2.43,0,0,0-.76-.13h-14a2.35,2.35,0,0,0-2.35,2.35v5.24a2.35,2.35,0,0,0,2.35,2.35h14a2.27,2.27,0,0,0,1.58-.61A2.36,2.36,0,0,0,63,45.08V39.84A2.35,2.35,0,0,0,62.18,38.11Zm-10.7,4.82a1.17,1.17,0,0,1-1.17,1.18h-.78a1.18,1.18,0,0,1-1.18-1.18v-.78a1.13,1.13,0,0,1,.45-.92,1.16,1.16,0,0,1,.73-.26h.78a1.17,1.17,0,0,1,1.17,1.18Z"/><path d="M28.14,30.33H55.37a.61.61,0,0,0,.56-.84L51.72,19.31a2.16,2.16,0,0,0-3-1.06L27.86,29.19A.6.6,0,0,0,28.14,30.33Z"/><path d="M42.57,42.2V39.85a4,4,0,0,1,3.52-4,3.87,3.87,0,0,1,.48,0h14V29.44a2.35,2.35,0,0,0-2.35-2.35H56.57l1.59,3.83A.79.79,0,0,1,57.43,32H25.08c-.82,0-1.86-1.52.38-3l3.79-2.15H23.41a2.28,2.28,0,0,0-1.84.79,1.74,1.74,0,0,0-.43.71,7.88,7.88,0,0,0-.09,1.09V55.65A2.35,2.35,0,0,0,23.4,58H58.18a2.35,2.35,0,0,0,2.35-2.35V49.08h-14a4,4,0,0,1-4-4V42.2Z"/><path class="cls-4" d="M61.18,37.11a2.27,2.27,0,0,0-.82-.49,2.43,2.43,0,0,0-.76-.13h-14a2.35,2.35,0,0,0-2.35,2.35v5.24a2.35,2.35,0,0,0,2.35,2.35h14a2.27,2.27,0,0,0,1.58-.61A2.36,2.36,0,0,0,62,44.08V38.84A2.35,2.35,0,0,0,61.18,37.11Zm-10.7,4.82a1.17,1.17,0,0,1-1.17,1.18h-.78a1.18,1.18,0,0,1-1.18-1.18v-.78a1.13,1.13,0,0,1,.45-.92,1.16,1.16,0,0,1,.73-.26h.78a1.17,1.17,0,0,1,1.17,1.18Z"/><path class="cls-5" d="M27.14,29.33H54.37a.61.61,0,0,0,.56-.84L50.72,18.31a2.16,2.16,0,0,0-3-1.06L26.86,28.19A.6.6,0,0,0,27.14,29.33Z"/><path class="cls-6" d="M41.57,41.2V38.85a4,4,0,0,1,3.52-4,3.87,3.87,0,0,1,.48,0h14V28.44a2.35,2.35,0,0,0-2.35-2.35H55.57l1.59,3.83A.79.79,0,0,1,56.43,31H24.08c-.82,0-1.86-1.52.38-3l3.79-2.15H22.41a2.28,2.28,0,0,0-1.84.79,1.74,1.74,0,0,0-.43.71,7.88,7.88,0,0,0-.09,1.09V54.65A2.35,2.35,0,0,0,22.4,57H57.18a2.35,2.35,0,0,0,2.35-2.35V48.08h-14a4,4,0,0,1-4-4V41.2Z"/><rect class="cls-7" x="-181.52" y="-244" width="1366" height="780"/><rect class="cls-7" x="-345.52" y="-244" width="1366" height="780"/><rect class="cls-7" x="-422.52" y="-244" width="1366" height="780"/><rect class="cls-7" x="-268.52" y="-244" width="1366" height="780"/><rect class="cls-7" x="-265.52" y="-244" width="1366" height="780"/></svg>