<svg id="Layer_1" data-name="Layer 1" xmlns="http://www.w3.org/2000/svg" viewBox="0 0 80 80"><defs><style>.cls-1{fill:#fff;}.cls-2{fill:#1e4065;}.cls-3{fill:#0c1f44;}.cls-4{fill:#eaaa3b;}.cls-5{fill:#cbcbcb;}</style></defs><title>icon-aggregate-transactions-full-color-80h</title><circle cx="40.4" cy="40.4" r="39.6"/><circle class="cls-1" cx="39.6" cy="39.6" r="39.6"/><path d="M76.14,38.94A37.18,37.18,0,1,1,39,1.77,37.18,37.18,0,0,1,76.14,38.94Z"/><path class="cls-2" d="M76.78,39.59A37.17,37.17,0,1,1,39.61,2.41,37.17,37.17,0,0,1,76.78,39.59Z"/><path class="cls-3" d="M69.87,22.51A34.75,34.75,0,1,0,20.12,68.35C23.94,43.8,44.77,24.28,69.87,22.51Z"/><path d="M29.91,19.85a6.45,6.45,0,1,0,6.44,6.44A6.44,6.44,0,0,0,29.91,19.85Zm0,11.2a4.76,4.76,0,1,1,4.76-4.76A4.76,4.76,0,0,1,29.91,31.05Z"/><path d="M29.91,34.84a6.44,6.44,0,1,0,6.44,6.44A6.44,6.44,0,0,0,29.91,34.84Zm0,11.2a4.76,4.76,0,1,1,4.76-4.76A4.76,4.76,0,0,1,29.91,46Z"/><path d="M29.91,49.26a6.45,6.45,0,1,0,6.44,6.45A6.45,6.45,0,0,0,29.91,49.26Zm0,11.21a4.76,4.76,0,1,1,4.76-4.76A4.76,4.76,0,0,1,29.91,60.47Z"/><path d="M58.49,25.44l-6.05-3.5a.66.66,0,0,0-1,.57v.84a.65.65,0,0,1-.64.65H39.11a.66.66,0,0,0-.65.65v2.7a.66.66,0,0,0,.65.65H50.82a.65.65,0,0,1,.64.65v.84a.66.66,0,0,0,1,.57l6.05-3.5A.65.65,0,0,0,58.49,25.44Z"/><path d="M58.49,40.44l-6.05-3.5a.66.66,0,0,0-1,.57v.84a.65.65,0,0,1-.64.65H39.11a.66.66,0,0,0-.65.65v2.7a.66.66,0,0,0,.65.65H50.82a.65.65,0,0,1,.64.65v.84a.66.66,0,0,0,1,.57l6.05-3.5A.65.65,0,0,0,58.49,40.44Z"/><path d="M58.49,55.44l-6.05-3.5a.66.66,0,0,0-1,.57v.84a.65.65,0,0,1-.64.65H39.11a.66.66,0,0,0-.65.65v2.7a.66.66,0,0,0,.65.65H50.82a.65.65,0,0,1,.64.65v.84a.66.66,0,0,0,1,.57l6.05-3.5A.65.65,0,0,0,58.49,55.44Z"/><path class="cls-1" d="M28.91,18.85a6.45,6.45,0,1,0,6.44,6.44A6.44,6.44,0,0,0,28.91,18.85Zm0,11.2a4.76,4.76,0,1,1,4.76-4.76A4.76,4.76,0,0,1,28.91,30.05Z"/><circle class="cls-4" cx="28.91" cy="25.29" r="3.57"/><path class="cls-1" d="M28.91,33.84a6.44,6.44,0,1,0,6.44,6.44A6.44,6.44,0,0,0,28.91,33.84Zm0,11.2a4.76,4.76,0,1,1,4.76-4.76A4.76,4.76,0,0,1,28.91,45Z"/><path class="cls-1" d="M28.91,48.26a6.45,6.45,0,1,0,6.44,6.45A6.45,6.45,0,0,0,28.91,48.26Zm0,11.21a4.76,4.76,0,1,1,4.76-4.76A4.76,4.76,0,0,1,28.91,59.47Z"/><polygon class="cls-5" points="29.85 51.71 28.03 51.71 28.03 53.83 25.9 53.83 25.9 55.65 28.03 55.65 28.03 57.78 29.85 57.78 29.85 55.65 31.98 55.65 31.98 53.83 29.85 53.83 29.85 51.71"/><polygon class="cls-5" points="29.85 37.42 28.03 37.42 28.03 39.55 25.9 39.55 25.9 41.37 28.03 41.37 28.03 43.49 29.85 43.49 29.85 41.37 31.98 41.37 31.98 39.55 29.85 39.55 29.85 37.42"/><path class="cls-4" d="M57.49,24.44l-6.05-3.5a.66.66,0,0,0-1,.57v.84a.65.65,0,0,1-.64.65H38.11a.66.66,0,0,0-.65.65v2.7a.66.66,0,0,0,.65.65H49.82a.65.65,0,0,1,.64.65v.84a.66.66,0,0,0,1,.57l6.05-3.5A.65.65,0,0,0,57.49,24.44Z"/><path class="cls-5" d="M57.49,39.44l-6.05-3.5a.66.66,0,0,0-1,.57v.84a.65.65,0,0,1-.64.65H38.11a.66.66,0,0,0-.65.65v2.7a.66.66,0,0,0,.65.65H49.82a.65.65,0,0,1,.64.65v.84a.66.66,0,0,0,1,.57l6.05-3.5A.65.65,0,0,0,57.49,39.44Z"/><path class="cls-5" d="M57.49,54.44l-6.05-3.5a.66.66,0,0,0-1,.57v.84a.65.65,0,0,1-.64.65H38.11a.66.66,0,0,0-.65.65v2.7a.66.66,0,0,0,.65.65H49.82a.65.65,0,0,1,.64.65v.84a.66.66,0,0,0,1,.57l6.05-3.5A.65.65,0,0,0,57.49,54.44Z"/></svg>