<svg id="Layer_1" data-name="Layer 1" xmlns="http://www.w3.org/2000/svg" viewBox="0 0 80 80"><defs><style>.cls-1{fill:#f3f3f3;}.cls-2{fill:#1e4065;}.cls-3{fill:#0c1f44;}.cls-4{fill:#e8aa43;}.cls-5{fill:#fff;}</style></defs><title>icon-notifications-full-color-80h</title><circle cx="40.4" cy="40.4" r="39.6"/><circle class="cls-1" cx="39.6" cy="39.6" r="39.6"/><path d="M76.14,38.94A37.18,37.18,0,1,1,39,1.77,37.18,37.18,0,0,1,76.14,38.94Z"/><path class="cls-2" d="M76.78,39.59A37.17,37.17,0,1,1,39.61,2.41,37.17,37.17,0,0,1,76.78,39.59Z"/><path class="cls-3" d="M69.87,22.51A34.75,34.75,0,1,0,20.12,68.35C23.94,43.8,44.77,24.28,69.87,22.51Z"/><path d="M39.81,61.74c3.63,0,6.67-1.88,7.36-4.38H32.44C33.14,59.86,36.18,61.74,39.81,61.74Z"/><path d="M60.33,50.34c0-.13,0-.26-.08-.39a5.08,5.08,0,0,0-.23-.47,2.47,2.47,0,0,0-.19-.36,3.39,3.39,0,0,0-.4-.45,2.5,2.5,0,0,0-.22-.24,13.3,13.3,0,0,1-2.82-3.23c0-.09-.09-.18-.14-.26-.18-.3-.34-.6-.49-.91s-.26-.59-.38-.88c0-.11-.09-.22-.13-.34a10.46,10.46,0,0,1-.38-1.24v0a13,13,0,0,1-.37-2.71h0c0-.14,0-.28,0-.42V33A13.78,13.78,0,0,0,40.54,19.35h0A13.78,13.78,0,0,0,26.62,33v5.43c0,.14,0,.28,0,.42h0a13.71,13.71,0,0,1-.37,2.71v0a12.72,12.72,0,0,1-.38,1.24c0,.12-.09.23-.13.34-.12.29-.24.59-.38.88s-.32.61-.49.91c-.05.08-.09.17-.15.26a13.26,13.26,0,0,1-2.81,3.23,2.5,2.5,0,0,0-.22.24,3.39,3.39,0,0,0-.4.45,2.47,2.47,0,0,0-.19.36,5.08,5.08,0,0,0-.23.47c0,.13-.05.26-.08.39a3.26,3.26,0,0,0-.09.53c0,.14,0,.28,0,.42a3.25,3.25,0,0,0,0,.44s0,.08,0,.12,0,.06,0,.08a1.57,1.57,0,0,0,.09.23l.08.21a3.72,3.72,0,0,0,.21.39.61.61,0,0,0,.07.1,3.29,3.29,0,0,0,.33.41l0,0a3.89,3.89,0,0,0,2.76,1.12H56.73a3.89,3.89,0,0,0,2.76-1.12l0,0a2.64,2.64,0,0,0,.34-.41.61.61,0,0,1,.07-.1c.07-.13.15-.26.21-.39l.08-.21.09-.23a.25.25,0,0,1,0-.08s0-.08,0-.12a3.25,3.25,0,0,0,0-.44c0-.14,0-.28,0-.42A3.26,3.26,0,0,0,60.33,50.34Z"/><path class="cls-4" d="M31.35,56.27H46.08c-.69,2.5-3.73,4.38-7.36,4.38S32.05,58.77,31.35,56.27Z"/><path class="cls-5" d="M59.33,49.78c0,.14,0,.28,0,.42a3.25,3.25,0,0,1,0,.44s0,.08,0,.13,0,0,0,.07a1.7,1.7,0,0,1-.09.24l-.08.2a2.93,2.93,0,0,1-.21.39l-.07.11a3.19,3.19,0,0,1-.33.4s0,0,0,0a3.89,3.89,0,0,1-2.76,1.12H23.27a3.89,3.89,0,0,1-2.76-1.12l0,0a2.57,2.57,0,0,1-.34-.4.41.41,0,0,0-.07-.11c-.07-.13-.15-.25-.21-.39l-.08-.2c0-.08-.06-.15-.09-.24a.17.17,0,0,0,0-.07c0-.05,0-.09,0-.13a3.25,3.25,0,0,1,0-.44c0-.14,0-.28,0-.42a3,3,0,0,1,.09-.52,3.82,3.82,0,0,1,.08-.39A3.42,3.42,0,0,1,20,48.4a2.15,2.15,0,0,1,.19-.37,4.16,4.16,0,0,1,.4-.45c.08-.07.13-.17.22-.24a13.3,13.3,0,0,0,2.82-3.23c.05-.08.09-.17.14-.26a8.92,8.92,0,0,0,.49-.91c.14-.29.26-.58.38-.88l.13-.33a11.06,11.06,0,0,0,.38-1.24v0a12.91,12.91,0,0,0,.37-2.71h0c0-.14,0-.27,0-.41V31.9A13.78,13.78,0,0,1,39.46,18.26h0A13.79,13.79,0,0,1,53.38,31.9v5.44c0,.14,0,.27,0,.41h0a13.6,13.6,0,0,0,.37,2.71v0c.11.42.23.83.38,1.24l.13.33c.12.3.24.59.38.88s.32.61.49.91a2.2,2.2,0,0,0,.15.26,13.26,13.26,0,0,0,2.81,3.23c.09.07.14.17.22.24a4.16,4.16,0,0,1,.4.45,2.15,2.15,0,0,1,.19.37,3.42,3.42,0,0,1,.23.47,3.82,3.82,0,0,1,.08.39A3,3,0,0,1,59.33,49.78Z"/><polygon class="cls-5" points="39.46 24.1 39.46 24.11 39.46 24.11 39.46 24.11 39.46 24.1"/></svg>