<svg id="Layer_1" data-name="Layer 1" xmlns="http://www.w3.org/2000/svg" viewBox="0 0 80 80"><defs><style>.cls-1{fill:#fff;}.cls-2{fill:#1e4065;}.cls-3{fill:#0c1f44;}.cls-4{fill:#eaaa3b;}</style></defs><title>icon-chat-full-color-80h</title><circle cx="40.4" cy="40.4" r="39.6"/><circle class="cls-1" cx="39.6" cy="39.6" r="39.6"/><path d="M76.14,38.94A37.18,37.18,0,1,1,39,1.77,37.18,37.18,0,0,1,76.14,38.94Z"/><path class="cls-2" d="M76.78,39.59A37.17,37.17,0,1,1,39.61,2.41,37.17,37.17,0,0,1,76.78,39.59Z"/><path class="cls-3" d="M69.87,22.51A34.75,34.75,0,1,0,20.12,68.35C23.94,43.8,44.77,24.28,69.87,22.51Z"/><path d="M44.62,19.66c10.71,0,19.4,7.1,19.4,15.87A14.53,14.53,0,0,1,58.53,46.6c.19,2.91.85,6.48,2.76,8.4-3.8,0-7.68-2.53-10.14-4.52a23.16,23.16,0,0,1-6.53.93c-10.72,0-19.4-7.1-19.4-15.88S33.9,19.66,44.62,19.66Z"/><path class="cls-4" d="M43.62,18.66c10.71,0,19.4,7.1,19.4,15.87A14.53,14.53,0,0,1,57.53,45.6c.19,2.91.85,6.48,2.76,8.4-3.8,0-7.68-2.53-10.14-4.52a23.16,23.16,0,0,1-6.53.93c-10.72,0-19.4-7.1-19.4-15.88S32.9,18.66,43.62,18.66Z"/><path d="M35.62,24.66c-10.72,0-19.4,7.1-19.4,15.87A14.5,14.5,0,0,0,21.71,51.6c-.2,2.91-.86,6.48-2.77,8.4,3.8,0,7.69-2.53,10.14-4.52a23.23,23.23,0,0,0,6.54.93c10.71,0,19.4-7.1,19.4-15.88S46.33,24.66,35.62,24.66Z"/><path class="cls-1" d="M34.62,23.66c-10.72,0-19.4,7.1-19.4,15.87A14.5,14.5,0,0,0,20.71,50.6c-.2,2.91-.86,6.48-2.77,8.4,3.8,0,7.69-2.53,10.14-4.52a23.23,23.23,0,0,0,6.54.93c10.71,0,19.4-7.1,19.4-15.88S45.33,23.66,34.62,23.66Z"/></svg>