<?xml version="1.0" encoding="utf-8"?>
<!-- Generator: Adobe Illustrator 23.1.1, SVG Export Plug-In . SVG Version: 6.00 Build 0)  -->
<svg version="1.1" id="Layer_1" xmlns="http://www.w3.org/2000/svg" xmlns:xlink="http://www.w3.org/1999/xlink" x="0px" y="0px"
	 viewBox="0 0 60 60" style="enable-background:new 0 0 60 60;" xml:space="preserve">
<style type="text/css">
	.st0{fill:#306EB3;}
</style>
<title>icon-private-key-green-16h-proximax-sirius-wallet copy</title>
<g>
	<path class="st0" d="M30.5,3C14.1,2.6,0.4,15.6,0,32c-0.1,8.9,3.8,17.4,10.7,23.1c0.4-0.4,0.9-0.7,1.4-1l9-4.8
		c1.2-0.6,1.9-1.8,1.9-3.2v-3.6c-1.7-2.2-3-4.7-3.6-7.4c-0.8-0.5-1.4-1.5-1.4-2.5v-3.9c0-0.8,0.4-1.6,1-2.2v-5.7c0,0-1.2-8.9,11-8.9
		s11,8.9,11,8.9v5.7c0.6,0.6,1,1.4,1,2.2v3.9c0,1.3-0.9,2.4-2.1,2.8c-0.7,2.1-1.7,4.1-3,5.9c-0.3,0.4-0.6,0.8-0.9,1.1v3.7
		c0,1.4,0.8,2.6,2,3.2l9.6,4.7c0.6,0.3,1.1,0.6,1.6,1C55.9,49.7,59.8,41.6,60,33C60.1,16.6,46.9,3.1,30.5,3z"/>
</g>
</svg>
