<svg id="Layer_1" data-name="Layer 1" xmlns="http://www.w3.org/2000/svg" viewBox="0 0 80 80"><defs><style>.cls-1{fill:#fff;}.cls-2{fill:#1e4065;}.cls-3{fill:#0c1f44;}.cls-4{fill:#cbcbcb;}.cls-5{fill:#eaaa3b;}</style></defs><title>icon-mosaics-full-color-80h</title><circle cx="40.4" cy="40.4" r="39.6"/><circle class="cls-1" cx="39.6" cy="39.6" r="39.6"/><path d="M76.14,38.94A37.18,37.18,0,1,1,39,1.77,37.18,37.18,0,0,1,76.14,38.94Z"/><path class="cls-2" d="M76.78,39.59A37.17,37.17,0,1,1,39.61,2.41,37.17,37.17,0,0,1,76.78,39.59Z"/><path class="cls-3" d="M69.87,22.51A34.75,34.75,0,1,0,20.12,68.35C23.94,43.8,44.77,24.28,69.87,22.51Z"/><path class="cls-4" d="M60.1,24.75,40.44,16.12a1.39,1.39,0,0,0-.57-.12,1.46,1.46,0,0,0-.57.12L19.69,24.85a1.4,1.4,0,0,0,0,2.56l19.65,8.64a1.6,1.6,0,0,0,.57.11,1.39,1.39,0,0,0,.57-.12L60.1,27.31A1.4,1.4,0,0,0,60.1,24.75Z"/><polygon points="39.92 33 22 25.12 39.88 17.17 57.8 25.04 39.92 33"/><polygon class="cls-1" points="39.92 34 22 26.12 39.88 18.17 57.8 26.04 39.92 34"/><path class="cls-5" d="M39,39.14l0,20.45a1.4,1.4,0,0,1-1.95,1.3l-18.68-8a1.42,1.42,0,0,1-.86-1.29l0-20.45a1.39,1.39,0,0,1,1.95-1.29l18.68,8A1.41,1.41,0,0,1,39,39.14Z"/><path class="cls-4" d="M62.47,31.08a1.4,1.4,0,0,0-1.41-1.39,1.43,1.43,0,0,0-.56.11L41.86,37.85A1.39,1.39,0,0,0,41,39.14l0,20.45a1.4,1.4,0,0,0,2,1.28l18.64-8a1.4,1.4,0,0,0,.85-1.28Z"/><polygon points="44.17 59.52 44.12 40.59 61.36 33.15 61.41 52.08 44.17 59.52"/><polygon class="cls-1" points="43.17 58.52 43.12 39.59 60.36 32.15 60.41 51.08 43.17 58.52"/></svg>