<svg xmlns="http://www.w3.org/2000/svg" width="26.002" height="30" viewBox="0 0 26.002 30">
  <path id="dex_dex-v" d="M144.374,6.29l-2.923-1.684L149.4,0l7.973,4.606L154.451,6.29,149.4,3.39Zm15.082,2.9v3.39l2.923-1.684V7.506L159.455,5.8l-2.923,1.684ZM146.478,7.506,149.4,9.189l2.923-1.684L149.4,5.8Zm10.9,2.9-2.923-1.684-5.051,2.9-5.027-2.9-2.923,1.684V13.8l5.027,2.9v5.8l2.923,1.684,2.923-1.684V16.7l5.051-2.9Zm2.081,10.405-5.027,2.9V27.1l7.973-4.606V13.3l-2.946,1.707Zm-5.027.491,2.923-1.684V16.2l-2.923,1.684Zm-7.95,3.624v3.39L149.4,30l2.923-1.684v-3.39L149.4,26.61ZM136.4,10.9l2.923,1.684V9.189l2.923-1.684-2.9-1.707-2.923,1.684V10.9Zm2.946,4.115-2.923-1.684v9.189l7.974,4.606v-3.39l-5.051-2.923Zm5.027,2.9-2.923-1.684v3.39l2.923,1.684Z" transform="translate(-136.4)" fill="#f0b90b"/>
</svg>
