<svg width="28" height="28" viewBox="0 0 28 28" fill="none" xmlns="http://www.w3.org/2000/svg">
<path d="M14 0.666672C6.66666 0.666672 0.666656 6.66667 0.666656 14C0.666656 21.3333 6.66666 27.3333 14 27.3333C21.3333 27.3333 27.3333 21.3333 27.3333 14C27.3333 6.66667 21.3333 0.666672 14 0.666672ZM14 24.6667C8.11999 24.6667 3.33332 19.88 3.33332 14C3.33332 8.12001 8.11999 3.33334 14 3.33334C19.88 3.33334 24.6667 8.12001 24.6667 14C24.6667 19.88 19.88 24.6667 14 24.6667ZM20.12 8.10667L11.3333 16.8933L7.87999 13.4533L5.99999 15.3333L11.3333 20.6667L22 10L20.12 8.10667Z" fill="#0F57A3"/>
</svg>
