<svg xmlns="http://www.w3.org/2000/svg" width="27.967" height="26" viewBox="0 0 27.967 26">
  <g id="metamask-fox_1_" data-name="metamask-fox (1)" transform="translate(-31.3 -35)">
    <path id="Path_3827" data-name="Path 3827" d="M185.122,35.5,174.6,43.315l1.946-4.611Z" transform="translate(-127.698)" fill="#e2761b" stroke="#e2761b" stroke-linecap="round" stroke-linejoin="round" stroke-width="1"/>
    <g id="Group_109" data-name="Group 109" transform="translate(32.022 35.5)">
      <path id="Path_3828" data-name="Path 3828" d="M44.4,35.5l10.438,7.889L52.987,38.7Z" transform="translate(-43.29 -35.5)" fill="#e4761b" stroke="#e4761b" stroke-linecap="round" stroke-linejoin="round" stroke-width="1"/>
      <path id="Path_3829" data-name="Path 3829" d="M214.6,206.8l-2.8,4.294,6,1.65,1.724-5.848Z" transform="translate(-192.987 -188.685)" fill="#e4761b" stroke="#e4761b" stroke-linecap="round" stroke-linejoin="round" stroke-width="1"/>
      <path id="Path_3830" data-name="Path 3830" d="M33.9,206.9l1.713,5.848,6-1.65-2.8-4.294Z" transform="translate(-33.9 -188.685)" fill="#e4761b" stroke="#e4761b" stroke-linecap="round" stroke-linejoin="round" stroke-width="1"/>
      <path id="Path_3831" data-name="Path 3831" d="M89.471,107.706,87.8,110.234l5.954.264-.212-6.4Z" transform="translate(-82.1 -96.845)" fill="#e4761b" stroke="#e4761b" stroke-linecap="round" stroke-linejoin="round" stroke-width="1"/>
      <path id="Path_3832" data-name="Path 3832" d="M178.862,107.08l-4.124-3.68-.137,6.472,5.943-.264Z" transform="translate(-159.721 -96.219)" fill="#e4761b" stroke="#e4761b" stroke-linecap="round" stroke-linejoin="round" stroke-width="1"/>
      <path id="Path_3833" data-name="Path 3833" d="M106.8,212.256l3.574-1.745-3.088-2.411Z" transform="translate(-99.091 -189.847)" fill="#e4761b" stroke="#e4761b" stroke-linecap="round" stroke-linejoin="round" stroke-width="1"/>
      <path id="Path_3834" data-name="Path 3834" d="M177.9,210.511l3.585,1.745-.5-4.156Z" transform="translate(-162.672 -189.847)" fill="#e4761b" stroke="#e4761b" stroke-linecap="round" stroke-linejoin="round" stroke-width="1"/>
    </g>
    <g id="Group_110" data-name="Group 110" transform="translate(39.731 56.164)">
      <path id="Path_3835" data-name="Path 3835" d="M181.485,232.645,177.9,230.9l.286,2.337-.032.984Z" transform="translate(-170.381 -230.9)" fill="#d7c1b3" stroke="#d7c1b3" stroke-linecap="round" stroke-linejoin="round" stroke-width="1"/>
      <path id="Path_3836" data-name="Path 3836" d="M106.8,232.645l3.331,1.576-.021-.984.264-2.337Z" transform="translate(-106.8 -230.9)" fill="#d7c1b3" stroke="#d7c1b3" stroke-linecap="round" stroke-linejoin="round" stroke-width="1"/>
    </g>
    <path id="Path_3837" data-name="Path 3837" d="M113.582,177.94l-2.982-.878,2.1-.962Z" transform="translate(-70.467 -125.731)" fill="#233447" stroke="#233447" stroke-linecap="round" stroke-linejoin="round" stroke-width="1"/>
    <path id="Path_3838" data-name="Path 3838" d="M179.7,177.94l.878-1.84,2.115.962Z" transform="translate(-132.259 -125.731)" fill="#233447" stroke="#233447" stroke-linecap="round" stroke-linejoin="round" stroke-width="1"/>
    <g id="Group_111" data-name="Group 111" transform="translate(36.929 48.888)">
      <path id="Path_3839" data-name="Path 3839" d="M83.1,211.094l.508-4.294-3.31.1Z" transform="translate(-80.3 -202.073)" fill="#cd6116" stroke="#cd6116" stroke-linecap="round" stroke-linejoin="round" stroke-width="1"/>
      <path id="Path_3840" data-name="Path 3840" d="M207,206.8l.508,4.294,2.8-4.2Z" transform="translate(-193.601 -202.073)" fill="#cd6116" stroke="#cd6116" stroke-linecap="round" stroke-linejoin="round" stroke-width="1"/>
      <path id="Path_3841" data-name="Path 3841" d="M180.543,162.1l-5.943.264.55,3.056.878-1.84,2.115.962Z" transform="translate(-164.628 -162.1)" fill="#cd6116" stroke="#cd6116" stroke-linecap="round" stroke-linejoin="round" stroke-width="1"/>
      <path id="Path_3842" data-name="Path 3842" d="M90.211,164.543l2.115-.962.867,1.84.56-3.056L87.8,162.1Z" transform="translate(-87.007 -162.1)" fill="#cd6116" stroke="#cd6116" stroke-linecap="round" stroke-linejoin="round" stroke-width="1"/>
    </g>
    <g id="Group_112" data-name="Group 112" transform="translate(37.722 48.888)">
      <path id="Path_3843" data-name="Path 3843" d="M87.8,162.1l2.5,4.865-.085-2.422Z" transform="translate(-87.8 -162.1)" fill="#e4751f" stroke="#e4751f" stroke-linecap="round" stroke-linejoin="round" stroke-width="1"/>
      <path id="Path_3844" data-name="Path 3844" d="M207.206,164.543l-.106,2.422,2.506-4.865Z" transform="translate(-194.484 -162.1)" fill="#e4751f" stroke="#e4751f" stroke-linecap="round" stroke-linejoin="round" stroke-width="1"/>
      <path id="Path_3845" data-name="Path 3845" d="M139.361,164.6l-.561,3.056.7,3.606.159-4.748Z" transform="translate(-133.407 -164.336)" fill="#e4751f" stroke="#e4751f" stroke-linecap="round" stroke-linejoin="round" stroke-width="1"/>
      <path id="Path_3846" data-name="Path 3846" d="M172.186,164.6l-.286,1.9.127,4.759.709-3.606Z" transform="translate(-163.006 -164.336)" fill="#e4751f" stroke="#e4751f" stroke-linecap="round" stroke-linejoin="round" stroke-width="1"/>
    </g>
    <path id="Path_3847" data-name="Path 3847" d="M173.809,186.078l-.709,3.606.508.349,3.088-2.411.106-2.422Z" transform="translate(-126.357 -133.869)" fill="#f6851b" stroke="#f6851b" stroke-linecap="round" stroke-linejoin="round" stroke-width="1"/>
    <path id="Path_3848" data-name="Path 3848" d="M110.6,185.2l.085,2.422,3.088,2.411.508-.349-.7-3.606Z" transform="translate(-70.467 -133.869)" fill="#f6851b" stroke="#f6851b" stroke-linecap="round" stroke-linejoin="round" stroke-width="1"/>
    <path id="Path_3849" data-name="Path 3849" d="M114.573,248.976l.032-.983-.264-.233h-3.987l-.243.233.021.983L106.8,247.4l1.163.952,2.358,1.639h4.05l2.369-1.639,1.163-.952Z" transform="translate(-67.069 -189.491)" fill="#c0ad9e" stroke="#c0ad9e" stroke-linecap="round" stroke-linejoin="round" stroke-width="1"/>
    <path id="Path_3850" data-name="Path 3850" d="M142.309,227.949l-.508-.349h-2.929l-.508.349-.264,2.337.243-.233h3.987l.264.233Z" transform="translate(-95.058 -171.785)" fill="#161616" stroke="#161616" stroke-linecap="round" stroke-linejoin="round" stroke-width="1"/>
    <g id="Group_113" data-name="Group 113" transform="translate(31.8 35.5)">
      <path id="Path_3851" data-name="Path 3851" d="M188.518,43.823l.9-4.315L188.073,35.5,177.9,43.051l3.913,3.31,5.531,1.618,1.227-1.428-.529-.381.846-.772-.656-.508.846-.645Z" transform="translate(-162.449 -35.5)" fill="#763d16" stroke="#763d16" stroke-linecap="round" stroke-linejoin="round" stroke-width="1"/>
      <path id="Path_3852" data-name="Path 3852" d="M31.8,39.508l.9,4.315-.571.423.846.645-.645.508.846.772-.529.381,1.216,1.428,5.531-1.618,3.913-3.31L33.132,35.5Z" transform="translate(-31.8 -35.5)" fill="#763d16" stroke="#763d16" stroke-linecap="round" stroke-linejoin="round" stroke-width="1"/>
    </g>
    <path id="Path_3853" data-name="Path 3853" d="M213.456,139.818l-5.531-1.618,1.681,2.527-2.506,4.865,3.3-.042h4.918Z" transform="translate(-156.762 -91.839)" fill="#f6851b" stroke="#f6851b" stroke-linecap="round" stroke-linejoin="round" stroke-width="1"/>
    <path id="Path_3854" data-name="Path 3854" d="M41.271,138.2l-5.531,1.618L33.9,145.55h4.907l3.289.042-2.5-4.865Z" transform="translate(-1.878 -91.839)" fill="#f6851b" stroke="#f6851b" stroke-linecap="round" stroke-linejoin="round" stroke-width="1"/>
    <path id="Path_3855" data-name="Path 3855" d="M130.782,76.248l.349-6.1,1.607-4.346H125.6l1.586,4.346.37,6.1.127,1.925.011,4.738h2.929l.021-4.738Z" transform="translate(-83.88 -27.096)" fill="#f6851b" stroke="#f6851b" stroke-linecap="round" stroke-linejoin="round" stroke-width="1"/>
  </g>
</svg>
