<svg width="24" height="24" viewBox="0 0 24 24" fill="none" xmlns="http://www.w3.org/2000/svg">
<path d="M12 0C5.36 0 0 5.36 0 12C0 18.64 5.36 24 12 24C18.64 24 24 18.64 24 12C24 5.36 18.64 0 12 0ZM12 23.24C5.8 23.24 0.76 18.2 0.76 12C0.76 5.8 5.8 0.76 12 0.76C18.2 0.76 23.24 5.8 23.24 12C23.24 18.2 18.2 23.24 12 23.24Z" fill="#3F6FAF"/>
<g clip-path="url(#clip0)">
<path d="M16.5962 9.85428C15.9052 8.88659 14.7821 8.30859 13.5925 8.30859H10.4074C9.21775 8.30859 8.09463 8.88659 7.40368 9.85428L6.75 10.7695H8.71867C10.1454 10.7695 11.3855 11.583 11.9999 12.7707C12.6144 11.583 13.8544 10.7695 15.2812 10.7695H17.2498L16.5962 9.85428Z" fill="#3F6FAF"/>
<path d="M12.0001 17.332C11.3924 17.332 10.8858 17.7691 10.7883 18.3584L12.0001 19L13.195 18.3362C13.0823 17.6848 12.5499 17.332 12.0001 17.332Z" fill="#3F6FAF"/>
<path d="M6.55542 5L7.91022 8.16113C8.50826 7.7641 9.19453 7.50644 9.91766 7.42703C9.15934 6.2241 7.95531 5.34136 6.55542 5Z" fill="#3F6FAF"/>
<path d="M5.84766 5.43018V10.5307L6.73605 9.28677C6.88896 9.07266 7.06306 8.87872 7.2479 8.69737L5.84766 5.43018Z" fill="#3F6FAF"/>
<path d="M14.0823 7.42709C14.8055 7.50649 15.4917 7.76418 16.0898 8.16124L17.4448 5C16.0448 5.3413 14.8407 6.22407 14.0823 7.42709Z" fill="#3F6FAF"/>
<path d="M16.7522 8.69758C16.937 8.8789 17.1111 9.07285 17.264 9.28695L18.1524 10.5308V5.43091L16.7522 8.69758Z" fill="#3F6FAF"/>
<path d="M8.71875 11.5898H6.16424L5.38205 12.7274C5.04279 13.202 4.92183 13.8004 5.04999 14.3696C5.17817 14.9392 5.54425 15.4283 6.05454 15.7118L10.0561 17.9517C10.3006 17.171 10.891 16.6997 11.5898 16.5586V14.4609C11.5898 12.878 10.3017 11.5898 8.71875 11.5898ZM9.12863 14.4636C9.12863 13.7851 8.57665 13.2331 7.89816 13.2331V12.4128C9.02897 12.4128 9.94895 13.3328 9.94895 14.4636H9.12863Z" fill="#3F6FAF"/>
<path d="M18.6179 12.7274L17.8358 11.5898H15.2812C13.6983 11.5898 12.4102 12.878 12.4102 14.4609V16.5589C13.0958 16.701 13.7084 17.1827 13.9503 17.9481L17.9761 15.7118C18.486 15.4283 18.8218 14.9392 18.95 14.3696C19.0782 13.8004 18.9572 13.202 18.6179 12.7274ZM16.1013 13.2331C15.4228 13.2331 14.8708 13.7851 14.8708 14.4636H14.0505C14.0505 13.3328 14.9705 12.4128 16.1013 12.4128V13.2331Z" fill="#3F6FAF"/>
</g>
<defs>
<clipPath id="clip0">
<rect width="14" height="14" fill="white" transform="translate(5 5)"/>
</clipPath>
</defs>
</svg>
