<?xml version="1.0" encoding="UTF-8" standalone="no"?>
<svg
   xmlns:dc="http://purl.org/dc/elements/1.1/"
   xmlns:cc="http://creativecommons.org/ns#"
   xmlns:rdf="http://www.w3.org/1999/02/22-rdf-syntax-ns#"
   xmlns:svg="http://www.w3.org/2000/svg"
   xmlns="http://www.w3.org/2000/svg"
   xmlns:sodipodi="http://sodipodi.sourceforge.net/DTD/sodipodi-0.dtd"
   xmlns:inkscape="http://www.inkscape.org/namespaces/inkscape"
   id="Layer_1"
   data-name="Layer 1"
   viewBox="0 0 182 50"
   version="1.1"
   sodipodi:docname="logo-proximax-sirius-wallet-beta.39558c12.svg"
   inkscape:version="0.92.3 (2405546, 2018-03-11)">
  <metadata
     id="metadata85">
    <rdf:RDF>
      <cc:Work
         rdf:about="">
        <dc:format>image/svg+xml</dc:format>
        <dc:type
           rdf:resource="http://purl.org/dc/dcmitype/StillImage" />
        <dc:title>logo-proximax-sirius-wallet-beta</dc:title>
      </cc:Work>
    </rdf:RDF>
  </metadata>
  <sodipodi:namedview
     pagecolor="#ffffff"
     bordercolor="#666666"
     borderopacity="1"
     objecttolerance="10"
     gridtolerance="10"
     guidetolerance="10"
     inkscape:pageopacity="0"
     inkscape:pageshadow="2"
     inkscape:window-width="1920"
     inkscape:window-height="1017"
     id="namedview83"
     showgrid="false"
     inkscape:zoom="1.9615385"
     inkscape:cx="91"
     inkscape:cy="25"
     inkscape:window-x="1912"
     inkscape:window-y="-8"
     inkscape:window-maximized="1"
     inkscape:current-layer="Layer_1" />
  <defs
     id="defs4">
    <style
       id="style2">.cls-1,.cls-6{fill:#e06e38;}.cls-1,.cls-2,.cls-3,.cls-4{fill-rule:evenodd;}.cls-2,.cls-9{fill:#84b5de;}.cls-3,.cls-8{fill:#54b1aa;}.cls-4,.cls-7{fill:#e8aa43;}.cls-5{fill:#393839;}.cls-10{fill:#bf5735;}.cls-11{fill:#bd873e;}.cls-12{fill:#449c90;}.cls-13{fill:#598dba;}.cls-14{fill:#3e6faf;}.cls-15{fill:#aaa;}</style>
  </defs>
  <title
     id="title6">logo-proximax-sirius-wallet-beta</title>
  <path
     class="cls-1"
     d="M26.41,5.05C32.1,3.43,34.52,3.85,39,4.31A44.39,44.39,0,0,0,20,0c-1,0-1.95,0-2.92.1a17.36,17.36,0,0,1,3.93,2.95c.68.69,2.07,2.31,3,2.47a6,6,0,0,0,2.34-.47"
     id="path8" />
  <path
     class="cls-2"
     d="M33.47,28.32C33,26.13,32.33,24,31.65,21.86c-.35-1.09-.74-2.17-1.12-3.25s-.79-2.1-1.21-3.14C27.42,11,27.61,11,31.09,9c2.35-1.2,6.06-2.9,8.71-2.77l.28,0a40.34,40.34,0,0,1-6.61,22.08"
     id="path10" />
  <path
     class="cls-3"
     d="M4.25,24.23c2.26-1.78,4.78-3.47,6.62-4.64a82.06,82.06,0,0,1,7.57-4.12,9.14,9.14,0,0,1,2.66-1,1.87,1.87,0,0,1,.82.08c.84.36,2.23,2.61,2.23,2.61l0,0c.25.36.47.75.73,1.1s.53.81.78,1.21c.37.6.73,1.2,1.09,1.81.57,1,1.2,2,1.73,3,.86,1.68,2.07,4.06,3.11,6.6a40.31,40.31,0,0,1-11,9.81L20,41.1l-.58-.35A40.49,40.49,0,0,1,4.25,24.23"
     id="path12" />
  <path
     class="cls-4"
     d="M12.94.59c.21.23.41.46.58.67.4.48.79,1,1.16,1.48A16.6,16.6,0,0,1,15.94,4.5a37.76,37.76,0,0,1,2,3.29,1.81,1.81,0,0,1,.13.87,1.21,1.21,0,0,1-.42.6c-.43.35-.64.47-1,.73-1.62,1.19-3.17,2.46-4.74,3.7-1.75,1.4-3.5,3-5.11,4.6C5.66,19.37,4.41,20.66,3.24,22A40.27,40.27,0,0,1,0,5.52V4.84l.61-.3A45.74,45.74,0,0,1,12.94.59"
     id="path14" />
  <path
     class="cls-5"
     d="M48.23,10.25h8.53c4,0,6.69,2.92,6.69,7.06s-2.7,7.12-6.69,7.12h-3.5v6.34h-5Zm7.5,9.87a2.5,2.5,0,0,0,2.61-2.81c0-1.64-.86-2.76-2.53-2.76H53.26v5.57Z"
     id="path16" />
  <path
     class="cls-5"
     d="M65.71,15.78h4.7v3.37a5.05,5.05,0,0,1,4.64-3.62,3.36,3.36,0,0,1,.57.05v4.81a5.11,5.11,0,0,0-1-.08c-2.72,0-4,1.73-4,4.39v5.66h-4.9Z"
     id="path18" />
  <path
     class="cls-5"
     d="M85.55,15.44c4.61,0,8.29,3.09,8.29,7.67s-3.68,7.59-8.26,7.59-8.27-3-8.27-7.59,3.68-7.67,8.24-7.67m0,11.18a3.3,3.3,0,0,0,3.31-3.51,3.33,3.33,0,1,0-6.63,0,3.3,3.3,0,0,0,3.32,3.51"
     id="path20" />
  <path
     class="cls-5"
     d="M153.76,21.27h.43V21c0-1.22-1-1.62-2.07-1.62a7.66,7.66,0,0,0-4,1.39l-1.7-3.45a11.2,11.2,0,0,1,6.17-1.9c4,0,6.51,2.24,6.51,6v9h-4.47V28.58a5.37,5.37,0,0,1-4.33,2.12,4.46,4.46,0,0,1-4.76-4.44c0-3.91,4.65-5,8.24-5m-2,5.78a2.66,2.66,0,0,0,2.49-2.58v-.39h-.45c-1.5,0-3.42.39-3.42,1.72a1.25,1.25,0,0,0,1.38,1.25"
     id="path22" />
  <polygon
     class="cls-6"
     points="181.31 10.25 180 10.25 174.15 19.18 174.81 20.2 180.84 10.98 181.31 10.25"
     id="polygon24" />
  <polygon
     class="cls-7"
     points="178.5 10.25 173.4 18.03 173.98 18.91 179.65 10.25 178.5 10.25"
     id="polygon26" />
  <polygon
     class="cls-8"
     points="177.03 10.25 172.67 16.9 173.24 17.78 178.17 10.25 177.03 10.25"
     id="polygon28" />
  <polygon
     class="cls-9"
     points="175.33 10.25 173.15 13.58 171.83 15.6 172.49 16.62 176.66 10.25 175.33 10.25"
     id="polygon30" />
  <polygon
     class="cls-10"
     points="174.15 19.18 174.81 20.2 176.22 18.03 175.57 17.02 174.15 19.18"
     id="polygon32" />
  <polygon
     class="cls-11"
     points="173.98 18.91 175.39 16.75 174.82 15.86 173.4 18.03 173.98 18.91"
     id="polygon34" />
  <polygon
     class="cls-12"
     points="173.24 17.78 174.66 15.61 174.09 14.73 172.67 16.9 173.24 17.78"
     id="polygon36" />
  <polygon
     class="cls-13"
     points="171.83 15.6 172.49 16.62 173.91 14.45 173.25 13.43 172.48 14.6 171.83 15.6"
     id="polygon38" />
  <polygon
     class="cls-5"
     points="168.39 10.27 162.2 10.27 168.71 20.36 161.92 30.77 167.97 30.77 171.72 25 175.45 30.77 181.64 30.77 174.82 20.22 171.83 15.59 168.39 10.27"
     id="polygon40" />
  <rect
     class="cls-5"
     x="112.4"
     y="15.78"
     width="4.9"
     height="14.58"
     id="rect42" />
  <rect
     class="cls-5"
     x="112.46"
     y="10.12"
     width="4.79"
     height="3.82"
     id="rect44" />
  <path
     class="cls-5"
     d="M120.7,15.93h4.91v1.92a5.12,5.12,0,0,1,4.16-2.23,4.28,4.28,0,0,1,4,2.28,5.89,5.89,0,0,1,4.68-2.28c3,0,4.78,1.86,4.78,5.12v9.78h-4.91v-8.2c0-1.53-.75-2.33-1.91-2.33s-2,.8-2,2.33v8.2h-4.91v-8.2c0-1.53-.75-2.33-1.91-2.33s-2,.8-2,2.33v8.2H120.7Z"
     id="path46" />
  <polygon
     class="cls-5"
     points="109.69 30.35 104.7 22.95 109.59 15.79 104.17 15.79 102.01 18.96 99.87 15.79 94.35 15.79 99.25 23.03 94.27 30.35 99.65 30.35 101.94 27 104.2 30.35 109.69 30.35"
     id="polygon48" />
  <text
     xml:space="preserve"
     style="font-style:normal;font-weight:normal;font-size:18.33862114px;line-height:1.25;font-family:sans-serif;letter-spacing:0px;word-spacing:0px;fill:#84b5de;fill-opacity:1;stroke:none;stroke-width:0.45846555"
     x="46.789848"
     y="45.69099"
     id="text4597"><tspan
       sodipodi:role="line"
       id="tspan4595"
       x="46.789848"
       y="45.69099"
       style="stroke-width:0.45846555">SwapService</tspan></text>
</svg>
