<svg xmlns="http://www.w3.org/2000/svg" width="24.989" height="25" viewBox="0 0 24.989 25">
  <g id="nem" transform="translate(-117.5 0.016)">
    <path id="Path_3823" data-name="Path 3823" d="M142.227,19.446c0-.2.068-.608.068-.878a5.746,5.746,0,0,0-2.9-5.471,5.472,5.472,0,0,1-2.634-3.917,5.359,5.359,0,0,1,4.255-6.214,6.523,6.523,0,0,1,2.566.135,21.85,21.85,0,0,1,2.229.878,10.437,10.437,0,0,1,1.486.81s.405.2.405.338a19.082,19.082,0,0,1-.135,1.959,20.936,20.936,0,0,1-3.309,10,25.076,25.076,0,0,1-1.553,2.161c.068.27-.405.2-.473.2Z" transform="translate(-6.222 -0.945)" fill="#67b2e8"/>
    <path id="Path_3824" data-name="Path 3824" d="M118.8,4.6a25.02,25.02,0,0,1,4.93-2.229,23.831,23.831,0,0,1,7.227-.878,20.11,20.11,0,0,1,3.444.473s-3.917,2.7-4.322,4.8c-.068.338.27.338.2.675a13.321,13.321,0,0,1-.473,2.364c-.81,2.837-4.052,4.187-6.821,3.377a5.564,5.564,0,0,1-3.444-2.837A26.191,26.191,0,0,1,119,7.3c-.135-.946-.2-2.634-.2-2.7Z" transform="translate(-0.422 -0.487)" fill="#f7a800"/>
    <path id="Path_3825" data-name="Path 3825" d="M131.261,29.663a8.257,8.257,0,0,1-1.283-.81,25.081,25.081,0,0,1-3.647-2.972,22.51,22.51,0,0,1-2.9-3.782,20.435,20.435,0,0,1-1.959-4.052.209.209,0,0,0-.068-.135l.135.068a5.521,5.521,0,0,0,1.351.81,6.478,6.478,0,0,0,1.891.473,6.13,6.13,0,0,0,3.782-.81,5.14,5.14,0,0,1,2.026-.675,5.392,5.392,0,0,1,5.943,3.58,5.227,5.227,0,0,1-.068,3.917c-.068.135-.608,1.081-.675,1.148a18.422,18.422,0,0,1-3.917,2.9Z" transform="translate(-1.266 -5.76)" fill="#00c4b3"/>
    <path id="Path_3826" data-name="Path 3826" d="M129.995,24.984l-.135-.068A25.035,25.035,0,0,1,118.31,9.788a22.978,22.978,0,0,1-.608-3.107,25.047,25.047,0,0,1-.2-3.174c0-.2,0-.135.135-.27A25.02,25.02,0,0,1,130.6-.005c.675,0,1.351.068,2.026.135a24.6,24.6,0,0,1,9.658,3.107l.135.068c.068,0,.068.068.068.135v.2a16.452,16.452,0,0,1-.068,1.824c-.068.878-.2,1.756-.338,2.634a23.967,23.967,0,0,1-1.688,5.4,25.017,25.017,0,0,1-10.131,11.346l-.27.135ZM118.581,4.115V4.25c0,.878.068,1.756.135,2.634a14.428,14.428,0,0,0,.405,2.364.96.96,0,0,0,.135.405,5.311,5.311,0,0,0,7.092,2.566,5.242,5.242,0,0,0,2.837-3.377,6.132,6.132,0,0,0,.2-1.553,5.215,5.215,0,0,1,.135-1.013,6.337,6.337,0,0,1,3.782-4.66l.338-.135s.068,0,0-.068a26.14,26.14,0,0,0-3.309-.338A22.8,22.8,0,0,0,118.581,4.115Zm17.628,14.318c.068,0,.068-.068.135-.135a19.128,19.128,0,0,0,1.351-1.891,22.564,22.564,0,0,0,3.58-10.266,17.7,17.7,0,0,0,.068-1.891V4.115l-.2-.068c-.473-.27-1.013-.54-1.486-.81a15.24,15.24,0,0,0-2.229-.878A5.36,5.36,0,0,0,130.738,5.8,4.717,4.717,0,0,0,130.6,8.37a5.355,5.355,0,0,0,2.431,3.58l.27.135a6.338,6.338,0,0,1,3.039,5.741C136.276,18.028,136.276,18.23,136.208,18.433Zm-6.214,5.336.135-.068a26.9,26.9,0,0,0,4.187-3.107.932.932,0,0,0,.2-.27,1.693,1.693,0,0,1,.27-.473,5.094,5.094,0,0,0,.338-3.85,5.373,5.373,0,0,0-5.741-3.782,5.975,5.975,0,0,0-2.026.675,6.23,6.23,0,0,1-3.782.81,5.988,5.988,0,0,1-1.891-.473,5.522,5.522,0,0,1-1.351-.81l-.135-.068c0,.068,0,.068.068.135a25.759,25.759,0,0,0,1.959,3.85,22.886,22.886,0,0,0,6.551,6.686A5.3,5.3,0,0,0,129.995,23.768Z" transform="translate(0 0)"/>
  </g>
</svg>
