<svg id="Layer_1" data-name="Layer 1" xmlns="http://www.w3.org/2000/svg" viewBox="0 0 60 60"><defs><style>.cls-1{fill:#306eb5;}</style></defs><title>icon-trash-can-gray-16h-proximax-sirius-wallet</title><path class="cls-1" d="M30,0A30,30,0,1,0,60,30,30,30,0,0,0,30,0Zm0,58.12A28.12,28.12,0,1,1,58.13,30,28.15,28.15,0,0,1,30,58.12Z"/><path class="cls-1" d="M19.89,46.33a1.78,1.78,0,0,0,1.76,1.76H38.11a1.78,1.78,0,0,0,1.76-1.76L41.16,20.6H18.72ZM33.6,27a.72.72,0,0,1,.72-.72h1.22a.7.7,0,0,1,.7.7V41.71a.7.7,0,0,1-.67.72H34.39a.72.72,0,0,1-.72-.72Zm-5,0a.72.72,0,0,1,.72-.72h1.13a.72.72,0,0,1,.72.72V41.71a.72.72,0,0,1-.72.72H29.32a.72.72,0,0,1-.72-.72Zm-5,0a.7.7,0,0,1,.68-.72h1.1a.72.72,0,0,1,.72.72h0V41.71a.72.72,0,0,1-.72.72H24.29a.7.7,0,0,1-.7-.7V27Zm19.6-11.84v3.74H16.58V15.14A1.14,1.14,0,0,1,17.68,14h7.69V12.41a.39.39,0,0,1,.35-.41h8.22a.39.39,0,0,1,.45.3V14h7.67a1.15,1.15,0,0,1,1.13,1.17Z"/></svg>