<?xml version="1.0" encoding="utf-8"?>
<!-- Generator: Adobe Illustrator 23.1.1, SVG Export Plug-In . SVG Version: 6.00 Build 0)  -->
<svg version="1.1" id="Layer_1" xmlns="http://www.w3.org/2000/svg" xmlns:xlink="http://www.w3.org/1999/xlink" x="0px" y="0px"
	 viewBox="0 0 60 60" style="enable-background:new 0 0 60 60;" xml:space="preserve">
<style type="text/css">
	.st0{fill:#306EB5;}
</style>
<title>icon-nodes-blue-60h</title>
<g>
	<path class="st0" d="M30,0C13.4,0,0,13.4,0,30s13.4,30,30,30s30-13.4,30-30S46.6,0,30,0z M30,58.1C14.5,58.1,1.9,45.5,1.9,30
		S14.5,1.9,30,1.9S58.1,14.5,58.1,30c0,0,0,0,0,0C58.1,45.5,45.5,58.1,30,58.1z M43.9,13.6H16.1c-1.4,0-2.5,1.2-2.5,2.6v6.5
		c0,0.5,0.2,1,0.5,1.5h31.9c0.3-0.4,0.5-0.9,0.5-1.5v-6.5C46.4,14.8,45.3,13.6,43.9,13.6z M19.3,21.9c-1.4,0-2.5-1.1-2.5-2.5
		c0-1.4,1.1-2.5,2.5-2.5c1.4,0,2.5,1.1,2.5,2.5c0,0,0,0,0,0C21.8,20.8,20.7,21.9,19.3,21.9z M32.2,19.2c-0.3,0-0.6-0.2-0.6-0.5
		s0.2-0.6,0.5-0.6c0.3,0,0.6,0.2,0.6,0.5c0,0,0,0,0,0C32.7,18.9,32.5,19.2,32.2,19.2z M33.3,20.8c-0.3,0-0.6-0.2-0.6-0.5
		c0-0.3,0.2-0.6,0.5-0.6s0.6,0.2,0.6,0.5c0,0,0,0,0,0C33.8,20.6,33.6,20.8,33.3,20.8z M34.4,19.2c-0.3,0-0.5-0.3-0.5-0.6
		c0-0.3,0.2-0.4,0.5-0.5c0.3,0,0.5,0.3,0.5,0.6C34.8,18.9,34.6,19.1,34.4,19.2z M35.5,20.8c-0.3,0-0.6-0.2-0.6-0.5
		c0-0.3,0.2-0.6,0.5-0.6s0.6,0.2,0.6,0.5c0,0,0,0,0,0C36,20.6,35.8,20.8,35.5,20.8C35.5,20.8,35.5,20.8,35.5,20.8z M36.6,19.2
		c-0.3,0-0.5-0.3-0.5-0.6c0-0.3,0.2-0.4,0.5-0.5c0.3,0,0.5,0.3,0.5,0.6C37,18.9,36.8,19.1,36.6,19.2z M37.7,20.8
		c-0.3,0-0.6-0.2-0.6-0.5c0-0.3,0.2-0.6,0.5-0.6s0.6,0.2,0.6,0.5c0,0,0,0,0,0C38.2,20.6,38,20.8,37.7,20.8z M38.7,19.2
		c-0.3,0-0.6-0.2-0.6-0.5s0.2-0.6,0.5-0.6c0.3,0,0.6,0.2,0.6,0.5c0,0,0,0,0,0C39.3,18.9,39,19.2,38.7,19.2z M39.8,20.8
		c-0.3,0-0.5-0.3-0.5-0.6c0-0.3,0.2-0.4,0.5-0.5c0.3,0,0.5,0.3,0.5,0.6C40.3,20.6,40.1,20.8,39.8,20.8z M40.9,19.2
		c-0.3,0-0.6-0.2-0.6-0.5s0.2-0.6,0.5-0.6c0.3,0,0.6,0.2,0.6,0.5c0,0,0,0,0,0C41.5,18.9,41.2,19.2,40.9,19.2z M42,20.8
		c-0.3,0-0.5-0.3-0.5-0.6c0-0.3,0.2-0.4,0.5-0.5c0.3,0,0.5,0.3,0.5,0.6C42.4,20.6,42.3,20.8,42,20.8z M14,25.3
		c-0.3,0.4-0.5,0.9-0.5,1.5v6.5c0,0.5,0.2,1,0.5,1.5h31.9c0.3-0.4,0.5-0.9,0.5-1.5v-6.5c0-0.5-0.2-1-0.5-1.5H14z M19.3,32.5
		c-1.4,0-2.5-1.1-2.5-2.5c0-1.4,1.1-2.5,2.5-2.5c1.4,0,2.5,1.1,2.5,2.5C21.8,31.4,20.7,32.5,19.3,32.5L19.3,32.5z M32.1,29.7
		c-0.3,0-0.6-0.2-0.6-0.5s0.2-0.6,0.5-0.6c0.3,0,0.6,0.2,0.6,0.5c0,0,0,0,0,0C32.7,29.4,32.5,29.7,32.1,29.7L32.1,29.7z M33.2,31.4
		c-0.3,0-0.6-0.2-0.6-0.5c0-0.3,0.2-0.6,0.5-0.6s0.6,0.2,0.6,0.5c0,0,0,0,0,0C33.8,31.1,33.6,31.4,33.2,31.4L33.2,31.4z M34.3,29.7
		c-0.3,0-0.5-0.3-0.5-0.6c0-0.3,0.2-0.4,0.5-0.5c0.3,0,0.5,0.3,0.5,0.6C34.8,29.5,34.6,29.7,34.3,29.7z M35.4,31.4
		c-0.3,0-0.6-0.2-0.6-0.5c0-0.3,0.2-0.6,0.5-0.6s0.6,0.2,0.6,0.5c0,0,0,0,0,0C36,31.1,35.8,31.4,35.4,31.4L35.4,31.4z M36.5,29.7
		c-0.3,0-0.5-0.3-0.5-0.6c0-0.3,0.2-0.4,0.5-0.5c0.3,0,0.5,0.3,0.5,0.6C36.9,29.5,36.8,29.7,36.5,29.7z M37.6,31.4
		c-0.3,0-0.6-0.2-0.6-0.5c0-0.3,0.2-0.6,0.5-0.6s0.6,0.2,0.6,0.5c0,0,0,0,0,0C38.1,31.1,37.9,31.4,37.6,31.4L37.6,31.4z M38.7,29.7
		c-0.3,0-0.6-0.2-0.6-0.5s0.2-0.6,0.5-0.6c0.3,0,0.6,0.2,0.6,0.5c0,0,0,0,0,0C39.2,29.5,39,29.7,38.7,29.7L38.7,29.7z M39.8,31.4
		c-0.3,0-0.5-0.3-0.5-0.6c0-0.3,0.2-0.4,0.5-0.5c0.3,0,0.5,0.3,0.5,0.6C40.2,31.2,40,31.4,39.8,31.4z M40.9,29.7
		c-0.3,0-0.6-0.2-0.6-0.5s0.2-0.6,0.5-0.6c0.3,0,0.6,0.2,0.6,0.5c0,0,0,0,0,0C41.4,29.5,41.2,29.7,40.9,29.7L40.9,29.7z M42,31.4
		c-0.3,0-0.5-0.3-0.5-0.6c0-0.3,0.2-0.4,0.5-0.5c0.3,0,0.5,0.3,0.5,0.6C42.4,31.2,42.3,31.4,42,31.4z M14,35.8
		c-0.3,0.4-0.5,0.9-0.5,1.4v6.5c0,1.4,1.1,2.6,2.5,2.6h27.8c1.4,0,2.5-1.2,2.5-2.6c0,0,0,0,0,0v-6.5c0-0.5-0.2-1-0.5-1.4H14z
		 M19.3,43.1c-1.4,0-2.5-1.1-2.5-2.5s1.1-2.5,2.5-2.5s2.5,1.1,2.5,2.5c0,0,0,0,0,0C21.7,41.9,20.7,43,19.3,43.1L19.3,43.1z
		 M32.1,40.3c-0.3,0-0.6-0.2-0.6-0.5c0-0.3,0.2-0.6,0.5-0.6c0.3,0,0.6,0.2,0.6,0.5c0,0,0,0,0,0C32.7,40,32.5,40.2,32.1,40.3
		L32.1,40.3z M33.3,42c-0.3,0-0.6-0.2-0.6-0.5c0-0.3,0.2-0.6,0.5-0.6c0.3,0,0.6,0.2,0.6,0.5c0,0,0,0,0,0C33.8,41.7,33.6,42,33.3,42z
		 M34.4,40.3c-0.3,0-0.5-0.3-0.5-0.6c0-0.3,0.2-0.4,0.5-0.5c0.3,0,0.5,0.3,0.5,0.6C34.8,40.1,34.6,40.3,34.4,40.3z M35.5,42
		c-0.3,0-0.6-0.2-0.6-0.5c0-0.3,0.2-0.6,0.5-0.6s0.6,0.2,0.6,0.5c0,0,0,0,0,0C36,41.7,35.8,42,35.5,42C35.5,42,35.5,42,35.5,42z
		 M36.6,40.3c-0.3,0-0.5-0.3-0.5-0.6c0-0.3,0.2-0.4,0.5-0.5c0.3,0,0.5,0.3,0.5,0.6C37,40.1,36.8,40.3,36.6,40.3z M37.7,42
		c-0.3,0-0.6-0.2-0.6-0.5c0-0.3,0.2-0.6,0.5-0.6c0.3,0,0.6,0.2,0.6,0.5c0,0,0,0,0,0C38.2,41.7,38,42,37.7,42z M38.7,40.3
		c-0.3,0-0.6-0.2-0.6-0.5s0.2-0.6,0.5-0.6s0.6,0.2,0.6,0.5c0,0,0,0,0,0C39.3,40.1,39,40.3,38.7,40.3L38.7,40.3z M39.8,42
		c-0.3,0-0.5-0.3-0.5-0.6c0-0.3,0.2-0.4,0.5-0.5c0.3,0,0.5,0.3,0.5,0.6C40.3,41.8,40.1,42,39.8,42z M40.9,40.3
		c-0.3,0-0.6-0.2-0.6-0.5s0.2-0.6,0.5-0.6s0.6,0.2,0.6,0.5c0,0,0,0,0,0C41.5,40.1,41.2,40.3,40.9,40.3L40.9,40.3z M42,42
		c-0.3,0-0.5-0.3-0.5-0.6c0-0.3,0.2-0.4,0.5-0.5c0.3,0,0.5,0.3,0.5,0.6C42.4,41.8,42.3,42,42,42z"/>
</g>
</svg>
