<svg xmlns="http://www.w3.org/2000/svg" xmlns:xlink="http://www.w3.org/1999/xlink" viewBox="0 0 24 24"><defs><clipPath id="a"><rect width="24" height="24" style="fill:none"/></clipPath></defs><g style="clip-path:url(#a)"><path d="M12,24A12,12,0,1,1,24,12,12,12,0,0,1,12,24Zm0-1.87A10.15,10.15,0,1,0,1.87,12,10.16,10.16,0,0,0,12,22.13Zm0-9.66a.7.7,0,0,1-.37-.12L6.78,9.1a.72.72,0,0,1-.28-.53V6.62A.64.64,0,0,1,7.15,6a.65.65,0,0,1,.36.12L12,9.1l4.55-3A.56.56,0,0,1,16.93,6a.64.64,0,0,1,.65.65v2a.66.66,0,0,1-.28.53l-4.87,3.25A.73.73,0,0,1,12,12.47Zm0,6.45a.7.7,0,0,1-.37-.12L6.78,15.55A.68.68,0,0,1,6.5,15V13.08a.64.64,0,0,1,.65-.65.65.65,0,0,1,.36.12l4.51,3,4.51-3a.56.56,0,0,1,.36-.12.64.64,0,0,1,.65.65V15a.62.62,0,0,1-.28.52L12.39,18.8A.53.53,0,0,1,12,18.92Z" style="fill:#3e6faf"/></g></svg>