<svg width="24" height="24" viewBox="0 0 24 24" fill="none" xmlns="http://www.w3.org/2000/svg">
<g clip-path="url(#clip0)">
<path d="M11.9797 -5.07076e-07C18.599 -4.28142e-07 23.9594 5.36041 23.9594 11.9797C23.9594 18.599 18.599 24 11.9797 24C5.36041 24 6.39222e-08 18.6396 1.42856e-07 12.0203C2.21791e-07 5.40101 5.36041 -5.8601e-07 11.9797 -5.07076e-07ZM11.9797 1.86802C6.37564 1.86802 1.82741 6.41624 1.82741 12.0203C1.82741 17.6244 6.37563 22.1726 11.9797 22.1726C17.5838 22.1726 22.132 17.6244 22.132 12.0203C22.132 6.41624 17.5838 1.86802 11.9797 1.86802ZM11.9797 11.533C12.1015 11.533 12.2234 11.5736 12.3452 11.6548L17.2183 14.9036C17.3807 15.0254 17.5025 15.2284 17.5025 15.4315L17.5025 17.3807C17.5025 17.7462 17.2183 18.0305 16.8528 18.0305C16.731 18.0305 16.6091 17.9898 16.4873 17.9086L11.9797 14.9036L7.43147 17.9086C7.35025 17.9898 7.18782 18.0305 7.06599 18.0305C6.70051 18.0305 6.41624 17.7462 6.41624 17.3807L6.41624 15.4315C6.41624 15.1878 6.53807 15.0254 6.70051 14.9036L11.5736 11.6548C11.6954 11.5736 11.8173 11.533 11.9797 11.533ZM11.9797 5.07614C12.1015 5.07614 12.2234 5.11675 12.3452 5.19797L17.2183 8.4467C17.3807 8.56853 17.5025 8.77157 17.5025 8.97462L17.5025 10.9239C17.5025 11.2893 17.2183 11.5736 16.8528 11.5736C16.731 11.5736 16.6091 11.533 16.4873 11.4518L11.9797 8.4467L7.47208 11.4518C7.39086 11.533 7.22843 11.5736 7.1066 11.5736C6.74112 11.5736 6.45685 11.2893 6.45685 10.9239L6.45685 8.97462C6.45685 8.73096 6.57868 8.56853 6.74112 8.4467L11.6142 5.19797C11.6954 5.11675 11.8173 5.07614 11.9797 5.07614Z" fill="#3E6FAF"/>
</g>
<defs>
<clipPath id="clip0">
<rect width="24" height="24" fill="white" transform="translate(0 24) rotate(-90)"/>
</clipPath>
</defs>
</svg>
