<svg id="Layer_1" data-name="Layer 1" xmlns="http://www.w3.org/2000/svg" viewBox="0 0 40 40"><defs><style>.cls-1{fill:#666;}</style></defs><title>icon-settings-gray</title><path class="cls-1" d="M10,22.88a1,1,0,0,0,1,.92h2.46a1,1,0,0,0,1-.92l.18-1.58a9.29,9.29,0,0,0,2.22-.89l1.22,1a1.05,1.05,0,0,0,1.39-.08l1.74-1.74a1,1,0,0,0,.08-1.39l-1-1.21a8.92,8.92,0,0,0,.92-2.18l1.47-.17a1,1,0,0,0,.92-1V11.11a1,1,0,0,0-.92-1l-1.45-.17a9.25,9.25,0,0,0-.88-2.16l.89-1.12a1.05,1.05,0,0,0-.07-1.39L19.53,3.5a1.05,1.05,0,0,0-1.39-.08l-1.09.87a8.88,8.88,0,0,0-2.27-1l-.16-1.42a1,1,0,0,0-1-.92H11.12a1,1,0,0,0-1,.92L9.92,3.34a9.36,9.36,0,0,0-2.33,1l-1.13-.9a1.05,1.05,0,0,0-1.39.08L3.33,5.24a1.05,1.05,0,0,0-.08,1.39l1,1.2A9.08,9.08,0,0,0,3.34,10l-1.52.17a1,1,0,0,0-.92,1v2.46a1.06,1.06,0,0,0,.92,1l1.61.18a9.62,9.62,0,0,0,.83,2l-1,1.28a1,1,0,0,0,.08,1.38l1.74,1.74a1,1,0,0,0,1.39.08l1.27-1a9.13,9.13,0,0,0,2.06.88ZM8.28,12.31a4.07,4.07,0,1,1,4.07,4.07A4.07,4.07,0,0,1,8.28,12.31Zm30.47,7.9a1.06,1.06,0,0,0-1-1l-1.05,0a7.32,7.32,0,0,0-.87-1.72l.57-.86a1,1,0,0,0-.19-1.38l-1.31-1.11a1,1,0,0,0-1.39,0l-.73.68a7.47,7.47,0,0,0-1.94-.63l-.21-1a1,1,0,0,0-1.11-.84l-1.72.15a1.06,1.06,0,0,0-1,1l0,1a7.27,7.27,0,0,0-1.85,1L24.08,15a1,1,0,0,0-1.38.2l-1.11,1.32a1,1,0,0,0,0,1.39l.76.81a7.59,7.59,0,0,0-.56,1.85l-1.09.23a1,1,0,0,0-.84,1.11l.15,1.71a1.06,1.06,0,0,0,1,1l1.17,0a8.06,8.06,0,0,0,.84,1.59l-.66,1a1,1,0,0,0,.2,1.37l1.31,1.11a1,1,0,0,0,1.39,0l.86-.8a7.46,7.46,0,0,0,1.77.57l.24,1.18a1.06,1.06,0,0,0,1.11.84L31,31.25a1.06,1.06,0,0,0,1-1l0-1.15a7.73,7.73,0,0,0,1.77-.89l.95.62a1,1,0,0,0,1.37-.19l1.12-1.32a1.05,1.05,0,0,0,0-1.39l-.77-.81a7.22,7.22,0,0,0,.6-1.86L38.06,23a1.06,1.06,0,0,0,.84-1.11Zm-9,5a3.38,3.38,0,1,1,3.09-3.65A3.39,3.39,0,0,1,29.72,25.19ZM22.8,29.9l-.67-.09a5.89,5.89,0,0,0-.56-1.44l.42-.51a1,1,0,0,0-.07-1.37l-.73-.74a1,1,0,0,0-1.36-.1l-.5.38a6.43,6.43,0,0,0-1.5-.65l-.07-.64a1,1,0,0,0-1-.93H15.7a1,1,0,0,0-1,.9l-.08.64A6.25,6.25,0,0,0,13,26l-.51-.42a1,1,0,0,0-1.37.06l-.75.73a1,1,0,0,0-.09,1.37l.44.57a5.82,5.82,0,0,0-.59,1.44l-.72.08a1,1,0,0,0-.93,1v1a1,1,0,0,0,.9,1l.77.1a5.46,5.46,0,0,0,.54,1.33l-.5.61a1,1,0,0,0,.07,1.37l.73.74a1,1,0,0,0,1.36.1l.62-.48a5.76,5.76,0,0,0,1.37.6l.08.79a1,1,0,0,0,1,.93H16.5a1,1,0,0,0,1-.9l.1-.75a6.24,6.24,0,0,0,1.48-.58l.58.47a1,1,0,0,0,1.36-.06l.75-.73a1,1,0,0,0,.09-1.37l-.44-.57a5.64,5.64,0,0,0,.63-1.45l.68-.07a1,1,0,0,0,.93-1v-1A1,1,0,0,0,22.8,29.9Zm-6.7,4.15a2.71,2.71,0,1,1,2.75-2.68A2.71,2.71,0,0,1,16.1,34.05Z"/></svg>